<?xml version="1.0" encoding="UTF-8"?>
<svg xmlns="http://www.w3.org/2000/svg" xmlns:xlink="http://www.w3.org/1999/xlink" width="961" height="1200" viewBox="0 0 961 1200">
<defs>
<clipPath id="clip-0">
<path clip-rule="nonzero" d="M 490.964844 0 L 961 0 L 961 468 L 490.964844 468 Z M 490.964844 0 "/>
</clipPath>
<clipPath id="clip-1">
<path clip-rule="evenodd" d="M 490.964844 -57.394531 L 1001.234375 -57.394531 L 1001.234375 473.273438 L 490.964844 473.273438 Z M 490.964844 -57.394531 L 914.085938 119.605469 C 914.085938 153.078125 886.949219 180.214844 853.476562 180.214844 C 820 180.214844 792.867188 153.078125 792.867188 119.605469 C 792.867188 86.132812 820 58.996094 853.476562 58.996094 C 886.949219 58.996094 914.085938 86.132812 914.085938 119.605469 Z M 490.964844 -57.394531 "/>
</clipPath>
<clipPath id="clip-2">
<path clip-rule="evenodd" d="M 490.964844 -57.394531 L 1001.234375 -57.394531 L 1001.234375 473.273438 L 490.964844 473.273438 Z M 490.964844 -57.394531 L 699.332031 296.273438 C 699.332031 329.746094 672.199219 356.882812 638.722656 356.882812 C 605.25 356.882812 578.113281 329.746094 578.113281 296.273438 C 578.113281 262.800781 605.25 235.664062 638.722656 235.664062 C 672.199219 235.664062 699.332031 262.800781 699.332031 296.273438 Z M 490.964844 -57.394531 "/>
</clipPath>
<clipPath id="clip-3">
<path clip-rule="nonzero" d="M 246.484375 124 L 775.535156 124 L 775.535156 652 L 246.484375 652 Z M 246.484375 124 "/>
</clipPath>
<clipPath id="clip-4">
<path clip-rule="evenodd" d="M 246.484375 110.847656 L 775.535156 110.847656 L 775.535156 665.476562 L 246.484375 665.476562 Z M 246.484375 110.847656 L 699.332031 296.273438 C 699.332031 329.746094 672.199219 356.882812 638.722656 356.882812 C 605.25 356.882812 578.113281 329.746094 578.113281 296.273438 C 578.113281 262.800781 605.25 235.664062 638.722656 235.664062 C 672.199219 235.664062 699.332031 262.800781 699.332031 296.273438 Z M 246.484375 110.847656 "/>
</clipPath>
<clipPath id="clip-5">
<path clip-rule="evenodd" d="M 246.484375 110.847656 L 775.535156 110.847656 L 775.535156 665.476562 L 246.484375 665.476562 Z M 246.484375 110.847656 L 443.90625 480.050781 C 443.90625 513.523438 416.769531 540.660156 383.296875 540.660156 C 349.824219 540.660156 322.6875 513.523438 322.6875 480.050781 C 322.6875 446.578125 349.824219 419.441406 383.296875 419.441406 C 416.769531 419.441406 443.90625 446.578125 443.90625 480.050781 Z M 246.484375 110.847656 "/>
</clipPath>
<clipPath id="clip-6">
<path clip-rule="nonzero" d="M 36 116.511719 L 555 116.511719 L 555 626.195312 L 36 626.195312 Z M 36 116.511719 "/>
</clipPath>
<clipPath id="clip-7">
<path clip-rule="evenodd" d="M 29.671875 116.511719 L 561.609375 116.511719 L 561.609375 626.195312 L 29.671875 626.195312 Z M 29.671875 116.511719 L 443.90625 480.050781 C 443.90625 513.523438 416.769531 540.660156 383.296875 540.660156 C 349.824219 540.660156 322.6875 513.523438 322.6875 480.050781 C 322.6875 446.578125 349.824219 419.441406 383.296875 419.441406 C 416.769531 419.441406 443.90625 446.578125 443.90625 480.050781 Z M 29.671875 116.511719 "/>
</clipPath>
<clipPath id="clip-8">
<path clip-rule="evenodd" d="M 29.671875 116.511719 L 561.609375 116.511719 L 561.609375 626.195312 L 29.671875 626.195312 Z M 29.671875 116.511719 L 268.59375 262.65625 C 268.59375 296.128906 241.457031 323.265625 207.984375 323.265625 C 174.507812 323.265625 147.375 296.128906 147.375 262.65625 C 147.375 229.179688 174.507812 202.046875 207.984375 202.046875 C 241.457031 202.046875 268.59375 229.179688 268.59375 262.65625 Z M 29.671875 116.511719 "/>
</clipPath>
<clipPath id="clip-9">
<path clip-rule="nonzero" d="M 79.613281 288 L 411.207031 288 L 411.207031 652 L 79.613281 652 Z M 79.613281 288 "/>
</clipPath>
<clipPath id="clip-10">
<path clip-rule="evenodd" d="M 79.613281 234.566406 L 411.207031 234.566406 L 411.207031 705.085938 L 79.613281 705.085938 Z M 79.613281 234.566406 L 443.90625 480.050781 C 443.90625 513.523438 416.769531 540.660156 383.296875 540.660156 C 349.824219 540.660156 322.6875 513.523438 322.6875 480.050781 C 322.6875 446.578125 349.824219 419.441406 383.296875 419.441406 C 416.769531 419.441406 443.90625 446.578125 443.90625 480.050781 Z M 79.613281 234.566406 "/>
</clipPath>
<clipPath id="clip-11">
<path clip-rule="evenodd" d="M 79.613281 234.566406 L 411.207031 234.566406 L 411.207031 705.085938 L 79.613281 705.085938 Z M 79.613281 234.566406 L 168.132812 459.601562 C 168.132812 493.078125 141 520.210938 107.523438 520.210938 C 74.050781 520.210938 46.914062 493.078125 46.914062 459.601562 C 46.914062 426.128906 74.050781 398.992188 107.523438 398.992188 C 141 398.992188 168.132812 426.128906 168.132812 459.601562 Z M 79.613281 234.566406 "/>
</clipPath>
<clipPath id="clip-12">
<path clip-rule="nonzero" d="M 211 428.058594 L 620 428.058594 L 620 872.222656 L 211 872.222656 Z M 211 428.058594 "/>
</clipPath>
<clipPath id="clip-13">
<path clip-rule="evenodd" d="M 161.433594 428.058594 L 669.828125 428.058594 L 669.828125 872.222656 L 161.433594 872.222656 Z M 161.433594 428.058594 L 443.90625 480.050781 C 443.90625 513.523438 416.769531 540.660156 383.296875 540.660156 C 349.824219 540.660156 322.6875 513.523438 322.6875 480.050781 C 322.6875 446.578125 349.824219 419.441406 383.296875 419.441406 C 416.769531 419.441406 443.90625 446.578125 443.90625 480.050781 Z M 161.433594 428.058594 "/>
</clipPath>
<clipPath id="clip-14">
<path clip-rule="evenodd" d="M 161.433594 428.058594 L 669.828125 428.058594 L 669.828125 872.222656 L 161.433594 872.222656 Z M 161.433594 428.058594 L 508.574219 820.230469 C 508.574219 853.703125 481.4375 880.839844 447.964844 880.839844 C 414.492188 880.839844 387.355469 853.703125 387.355469 820.230469 C 387.355469 786.753906 414.492188 759.621094 447.964844 759.621094 C 481.4375 759.621094 508.574219 786.753906 508.574219 820.230469 Z M 161.433594 428.058594 "/>
</clipPath>
<linearGradient id="linear-pattern-0" gradientUnits="userSpaceOnUse" x1="1.503909" y1="1.031568" x2="1.806804" y2="2.624911">
<stop offset="0" stop-color="rgb(12.156863%, 46.666667%, 70.588235%)" stop-opacity="0.8"/>
<stop offset="1" stop-color="rgb(68.235294%, 78.039216%, 90.980392%)" stop-opacity="0.8"/>
</linearGradient>
<clipPath id="clip-15">
<path clip-rule="nonzero" d="M 0 153.523438 L 380 153.523438 L 380 568.734375 L 0 568.734375 Z M 0 153.523438 "/>
</clipPath>
<clipPath id="clip-16">
<path clip-rule="evenodd" d="M -94.785156 153.523438 L 410.292969 153.523438 L 410.292969 568.734375 L -94.785156 568.734375 Z M -94.785156 153.523438 L 268.59375 262.65625 C 268.59375 296.128906 241.457031 323.265625 207.984375 323.265625 C 174.507812 323.265625 147.375 296.128906 147.375 262.65625 C 147.375 229.179688 174.507812 202.046875 207.984375 202.046875 C 241.457031 202.046875 268.59375 229.179688 268.59375 262.65625 Z M -94.785156 153.523438 "/>
</clipPath>
<clipPath id="clip-17">
<path clip-rule="evenodd" d="M -94.785156 153.523438 L 410.292969 153.523438 L 410.292969 568.734375 L -94.785156 568.734375 Z M -94.785156 153.523438 L 168.132812 459.601562 C 168.132812 493.078125 141 520.210938 107.523438 520.210938 C 74.050781 520.210938 46.914062 493.078125 46.914062 459.601562 C 46.914062 426.128906 74.050781 398.992188 107.523438 398.992188 C 141 398.992188 168.132812 426.128906 168.132812 459.601562 Z M -94.785156 153.523438 "/>
</clipPath>
<clipPath id="clip-18">
<path clip-rule="nonzero" d="M 207 753.128906 L 620 753.128906 L 620 1147.496094 L 207 1147.496094 Z M 207 753.128906 "/>
</clipPath>
<clipPath id="clip-19">
<path clip-rule="evenodd" d="M 160.207031 753.128906 L 666.386719 753.128906 L 666.386719 1147.496094 L 160.207031 1147.496094 Z M 160.207031 753.128906 L 508.574219 820.230469 C 508.574219 853.703125 481.4375 880.839844 447.964844 880.839844 C 414.492188 880.839844 387.355469 853.703125 387.355469 820.230469 C 387.355469 786.753906 414.492188 759.621094 447.964844 759.621094 C 481.4375 759.621094 508.574219 786.753906 508.574219 820.230469 Z M 160.207031 753.128906 "/>
</clipPath>
<clipPath id="clip-20">
<path clip-rule="evenodd" d="M 160.207031 753.128906 L 666.386719 753.128906 L 666.386719 1147.496094 L 160.207031 1147.496094 Z M 160.207031 753.128906 L 439.238281 1080.394531 C 439.238281 1113.867188 412.101562 1141.003906 378.628906 1141.003906 C 345.15625 1141.003906 318.019531 1113.867188 318.019531 1080.394531 C 318.019531 1046.921875 345.15625 1019.785156 378.628906 1019.785156 C 412.101562 1019.785156 439.238281 1046.921875 439.238281 1080.394531 Z M 160.207031 753.128906 "/>
</clipPath>
<clipPath id="clip-21">
<path clip-rule="nonzero" d="M 276 685.125 L 775 685.125 L 775 1175.695312 L 276 1175.695312 Z M 276 685.125 "/>
</clipPath>
<clipPath id="clip-22">
<path clip-rule="evenodd" d="M 261.324219 685.125 L 789.890625 685.125 L 789.890625 1175.695312 L 261.324219 1175.695312 Z M 261.324219 685.125 L 508.574219 820.230469 C 508.574219 853.703125 481.4375 880.839844 447.964844 880.839844 C 414.492188 880.839844 387.355469 853.703125 387.355469 820.230469 C 387.355469 786.753906 414.492188 759.621094 447.964844 759.621094 C 481.4375 759.621094 508.574219 786.753906 508.574219 820.230469 Z M 261.324219 685.125 "/>
</clipPath>
<clipPath id="clip-23">
<path clip-rule="evenodd" d="M 261.324219 685.125 L 789.890625 685.125 L 789.890625 1175.695312 L 261.324219 1175.695312 Z M 261.324219 685.125 L 663.859375 1040.589844 C 663.859375 1074.0625 636.722656 1101.199219 603.25 1101.199219 C 569.777344 1101.199219 542.640625 1074.0625 542.640625 1040.589844 C 542.640625 1007.117188 569.777344 979.980469 603.25 979.980469 C 636.722656 979.980469 663.859375 1007.117188 663.859375 1040.589844 Z M 261.324219 685.125 "/>
</clipPath>
<clipPath id="clip-24">
<path clip-rule="nonzero" d="M 329.253906 869 L 652.625 869 L 652.625 1200 L 329.253906 1200 Z M 329.253906 869 "/>
</clipPath>
<clipPath id="clip-25">
<path clip-rule="evenodd" d="M 329.253906 818.246094 L 652.625 818.246094 L 652.625 1302.738281 L 329.253906 1302.738281 Z M 329.253906 818.246094 L 439.238281 1080.394531 C 439.238281 1113.867188 412.101562 1141.003906 378.628906 1141.003906 C 345.15625 1141.003906 318.019531 1113.867188 318.019531 1080.394531 C 318.019531 1046.921875 345.15625 1019.785156 378.628906 1019.785156 C 412.101562 1019.785156 439.238281 1046.921875 439.238281 1080.394531 Z M 329.253906 818.246094 "/>
</clipPath>
<clipPath id="clip-26">
<path clip-rule="evenodd" d="M 329.253906 818.246094 L 652.625 818.246094 L 652.625 1302.738281 L 329.253906 1302.738281 Z M 329.253906 818.246094 L 663.859375 1040.589844 C 663.859375 1074.0625 636.722656 1101.199219 603.25 1101.199219 C 569.777344 1101.199219 542.640625 1074.0625 542.640625 1040.589844 C 542.640625 1007.117188 569.777344 979.980469 603.25 979.980469 C 636.722656 979.980469 663.859375 1007.117188 663.859375 1040.589844 Z M 329.253906 818.246094 "/>
</clipPath>
</defs>
<g clip-path="url(#clip-0)">
<g clip-path="url(#clip-1)">
<g clip-path="url(#clip-2)">
<path fill="none" stroke-width="0.0567768" stroke-linecap="butt" stroke-linejoin="miter" stroke="rgb(12.156863%, 46.666667%, 70.588235%)" stroke-opacity="0.8" stroke-miterlimit="10" d="M 3.706159 -0.656703 L 2.700284 0.170783 " transform="matrix(213.499658, 0, 0, 213.499658, 62.212945, 259.811296)"/>
</g>
</g>
</g>
<g clip-path="url(#clip-3)">
<g clip-path="url(#clip-4)">
<g clip-path="url(#clip-5)">
<path fill="none" stroke-width="0.0567768" stroke-linecap="butt" stroke-linejoin="miter" stroke="rgb(12.156863%, 46.666667%, 70.588235%)" stroke-opacity="0.8" stroke-miterlimit="10" d="M 2.700284 0.170783 L 1.503908 1.031568 " transform="matrix(213.499658, 0, 0, 213.499658, 62.212945, 259.811296)"/>
</g>
</g>
</g>
<g clip-path="url(#clip-6)">
<g clip-path="url(#clip-7)">
<g clip-path="url(#clip-8)">
<path fill="none" stroke-width="0.0567768" stroke-linecap="butt" stroke-linejoin="miter" stroke="rgb(12.156863%, 46.666667%, 70.588235%)" stroke-opacity="0.8" stroke-miterlimit="10" d="M 1.503908 1.031568 L 0.682771 0.0133253 " transform="matrix(213.499658, 0, 0, 213.499658, 62.212945, 259.811296)"/>
</g>
</g>
</g>
<g clip-path="url(#clip-9)">
<g clip-path="url(#clip-10)">
<g clip-path="url(#clip-11)">
<path fill="none" stroke-width="0.0567768" stroke-linecap="butt" stroke-linejoin="miter" stroke="rgb(12.156863%, 46.666667%, 70.588235%)" stroke-opacity="0.8" stroke-miterlimit="10" d="M 1.503908 1.031568 L 0.212227 0.935787 " transform="matrix(213.499658, 0, 0, 213.499658, 62.212945, 259.811296)"/>
</g>
</g>
</g>
<g clip-path="url(#clip-12)">
<g clip-path="url(#clip-13)">
<g clip-path="url(#clip-14)">
<path fill="none" stroke-width="0.0567768" stroke-linecap="butt" stroke-linejoin="miter" stroke="url(#linear-pattern-0)" stroke-miterlimit="10" d="M 1.503908 1.031568 L 1.806803 2.624918 " transform="matrix(213.499658, 0, 0, 213.499658, 62.212945, 259.811296)"/>
</g>
</g>
</g>
<g clip-path="url(#clip-15)">
<g clip-path="url(#clip-16)">
<g clip-path="url(#clip-17)">
<path fill="none" stroke-width="0.0567768" stroke-linecap="butt" stroke-linejoin="miter" stroke="rgb(12.156863%, 46.666667%, 70.588235%)" stroke-opacity="0.8" stroke-miterlimit="10" d="M 0.682771 0.0133253 L 0.212227 0.935787 " transform="matrix(213.499658, 0, 0, 213.499658, 62.212945, 259.811296)"/>
</g>
</g>
</g>
<g clip-path="url(#clip-18)">
<g clip-path="url(#clip-19)">
<g clip-path="url(#clip-20)">
<path fill="none" stroke-width="0.0567768" stroke-linecap="butt" stroke-linejoin="miter" stroke="rgb(68.235294%, 78.039216%, 90.980392%)" stroke-opacity="0.8" stroke-miterlimit="10" d="M 1.806803 2.624918 L 1.482044 3.843487 " transform="matrix(213.499658, 0, 0, 213.499658, 62.212945, 259.811296)"/>
</g>
</g>
</g>
<g clip-path="url(#clip-21)">
<g clip-path="url(#clip-22)">
<g clip-path="url(#clip-23)">
<path fill="none" stroke-width="0.0567768" stroke-linecap="butt" stroke-linejoin="miter" stroke="rgb(68.235294%, 78.039216%, 90.980392%)" stroke-opacity="0.8" stroke-miterlimit="10" d="M 1.806803 2.624918 L 2.534135 3.657048 " transform="matrix(213.499658, 0, 0, 213.499658, 62.212945, 259.811296)"/>
</g>
</g>
</g>
<g clip-path="url(#clip-24)">
<g clip-path="url(#clip-25)">
<g clip-path="url(#clip-26)">
<path fill="none" stroke-width="0.0567768" stroke-linecap="butt" stroke-linejoin="miter" stroke="rgb(68.235294%, 78.039216%, 90.980392%)" stroke-opacity="0.8" stroke-miterlimit="10" d="M 1.482044 3.843487 L 2.534135 3.657048 " transform="matrix(213.499658, 0, 0, 213.499658, 62.212945, 259.811296)"/>
</g>
</g>
</g>
<path fill-rule="nonzero" fill="rgb(12.156863%, 46.666667%, 70.588235%)" fill-opacity="1" stroke-width="0.0567768" stroke-linecap="butt" stroke-linejoin="miter" stroke="rgb(12.156863%, 46.666667%, 70.588235%)" stroke-opacity="1" stroke-miterlimit="10" d="M 0.283892 0.00000400891 C 0.283892 0.156785 0.156788 0.283889 0.0000067323 0.283889 C -0.156792 0.283889 -0.283878 0.156785 -0.283878 0.00000400891 C -0.283878 -0.156777 -0.156792 -0.283881 0.0000067323 -0.283881 C 0.156788 -0.283881 0.283892 -0.156777 0.283892 0.00000400891 Z M 0.283892 0.00000400891 " transform="matrix(213.499658, 0, 0, 213.499658, 853.475125, 119.604613)"/>
<path fill-rule="nonzero" fill="rgb(12.156863%, 46.666667%, 70.588235%)" fill-opacity="1" stroke-width="0.0567768" stroke-linecap="butt" stroke-linejoin="miter" stroke="rgb(12.156863%, 46.666667%, 70.588235%)" stroke-opacity="1" stroke-miterlimit="10" d="M 0.283878 -0.000000849061 C 0.283878 0.15678 0.156792 0.283884 -0.00000736496 0.283884 C -0.156788 0.283884 -0.283892 0.15678 -0.283892 -0.000000849061 C -0.283892 -0.156782 -0.156788 -0.283886 -0.00000736496 -0.283886 C 0.156792 -0.283886 0.283878 -0.156782 0.283878 -0.000000849061 Z M 0.283878 -0.000000849061 " transform="matrix(213.499658, 0, 0, 213.499658, 638.724229, 296.273619)"/>
<path fill-rule="nonzero" fill="rgb(12.156863%, 46.666667%, 70.588235%)" fill-opacity="1" stroke-width="0.0567768" stroke-linecap="butt" stroke-linejoin="miter" stroke="rgb(12.156863%, 46.666667%, 70.588235%)" stroke-opacity="1" stroke-miterlimit="10" d="M 0.283885 0.000000679434 C 0.283885 0.156782 0.156781 0.283886 -0.000000254786 0.283886 C -0.156781 0.283886 -0.283885 0.156782 -0.283885 0.000000679434 C -0.283885 -0.15678 -0.156781 -0.283884 -0.000000254786 -0.283884 C 0.156781 -0.283884 0.283885 -0.15678 0.283885 0.000000679434 Z M 0.283885 0.000000679434 " transform="matrix(213.499658, 0, 0, 213.499658, 383.296929, 480.050636)"/>
<path fill-rule="nonzero" fill="rgb(12.156863%, 46.666667%, 70.588235%)" fill-opacity="1" stroke-width="0.0567768" stroke-linecap="butt" stroke-linejoin="miter" stroke="rgb(12.156863%, 46.666667%, 70.588235%)" stroke-opacity="1" stroke-miterlimit="10" d="M 0.283892 0.00000734166 C 0.283892 0.156788 0.156788 0.283892 0.00000711663 0.283892 C -0.156792 0.283892 -0.283878 0.156788 -0.283878 0.00000734166 C -0.283878 -0.156792 -0.156792 -0.283878 0.00000711663 -0.283878 C 0.156788 -0.283878 0.283892 -0.156792 0.283892 0.00000734166 Z M 0.283892 0.00000734166 " transform="matrix(213.499658, 0, 0, 213.499658, 207.982856, 262.654683)"/>
<path fill-rule="nonzero" fill="rgb(12.156863%, 46.666667%, 70.588235%)" fill-opacity="1" stroke-width="0.0567768" stroke-linecap="butt" stroke-linejoin="miter" stroke="rgb(12.156863%, 46.666667%, 70.588235%)" stroke-opacity="1" stroke-miterlimit="10" d="M 0.283878 -0.00000634572 C 0.283878 0.156793 0.156792 0.283879 -0.0000067323 0.283879 C -0.156788 0.283879 -0.283892 0.156793 -0.283892 -0.00000634572 C -0.283892 -0.156787 -0.156788 -0.283891 -0.0000067323 -0.283891 C 0.156792 -0.283891 0.283878 -0.156787 0.283878 -0.00000634572 Z M 0.283878 -0.00000634572 " transform="matrix(213.499658, 0, 0, 213.499658, 107.524875, 459.602917)"/>
<path fill-rule="nonzero" fill="rgb(68.235294%, 78.039216%, 90.980392%)" fill-opacity="1" stroke-width="0.0567768" stroke-linecap="butt" stroke-linejoin="miter" stroke="rgb(68.235294%, 78.039216%, 90.980392%)" stroke-opacity="1" stroke-miterlimit="10" d="M 0.283884 0.00000730527 C 0.283884 0.156788 0.15678 0.283892 -0.00000104323 0.283892 C -0.156782 0.283892 -0.283886 0.156788 -0.283886 0.00000730527 C -0.283886 -0.156792 -0.156782 -0.283878 -0.00000104323 -0.283878 C 0.15678 -0.283878 0.283884 -0.156792 0.283884 0.00000730527 Z M 0.283884 0.00000730527 " transform="matrix(213.499658, 0, 0, 213.499658, 447.965066, 820.228909)"/>
<path fill-rule="nonzero" fill="rgb(68.235294%, 78.039216%, 90.980392%)" fill-opacity="1" stroke-width="0.0567768" stroke-linecap="butt" stroke-linejoin="miter" stroke="rgb(68.235294%, 78.039216%, 90.980392%)" stroke-opacity="1" stroke-miterlimit="10" d="M 0.283887 -0.00000400891 C 0.283887 0.156777 0.156782 0.283881 0.00000165565 0.283881 C -0.156779 0.283881 -0.283883 0.156777 -0.283883 -0.00000400891 C -0.283883 -0.156785 -0.156779 -0.283889 0.00000165565 -0.283889 C 0.156782 -0.283889 0.283887 -0.156785 0.283887 -0.00000400891 Z M 0.283887 -0.00000400891 " transform="matrix(213.499658, 0, 0, 213.499658, 378.628553, 1080.395387)"/>
<path fill-rule="nonzero" fill="rgb(68.235294%, 78.039216%, 90.980392%)" fill-opacity="1" stroke-width="0.0567768" stroke-linecap="butt" stroke-linejoin="miter" stroke="rgb(68.235294%, 78.039216%, 90.980392%)" stroke-opacity="1" stroke-miterlimit="10" d="M 0.283889 -0.00000358233 C 0.283889 0.156777 0.156784 0.283882 0.00000343337 0.283882 C -0.156777 0.283882 -0.283882 0.156777 -0.283882 -0.00000358233 C -0.283882 -0.156784 -0.156777 -0.283889 0.00000343337 -0.283889 C 0.156784 -0.283889 0.283889 -0.156784 0.283889 -0.00000358233 Z M 0.283889 -0.00000358233 " transform="matrix(213.499658, 0, 0, 213.499658, 603.249267, 1040.590609)"/>
</svg>
