<?xml version="1.0" encoding="UTF-8"?>
<svg xmlns="http://www.w3.org/2000/svg" xmlns:xlink="http://www.w3.org/1999/xlink" width="1200" height="1089" viewBox="0 0 1200 1089">
<defs>
<clipPath id="clip-0">
<path clip-rule="nonzero" d="M 475.761719 711.652344 L 841.230469 711.652344 L 841.230469 1049.308594 L 475.761719 1049.308594 Z M 475.761719 711.652344 "/>
</clipPath>
<clipPath id="clip-1">
<path clip-rule="evenodd" d="M 475.761719 711.652344 L 841.230469 711.652344 L 841.230469 1049.308594 L 475.761719 1049.308594 Z M 475.761719 711.652344 L 755.652344 982.273438 C 755.652344 1010.820312 732.511719 1033.960938 703.964844 1033.960938 C 675.417969 1033.960938 652.277344 1010.820312 652.277344 982.273438 C 652.277344 953.726562 675.417969 930.585938 703.964844 930.585938 C 732.511719 930.585938 755.652344 953.726562 755.652344 982.273438 Z M 475.761719 711.652344 "/>
</clipPath>
<clipPath id="clip-2">
<path clip-rule="evenodd" d="M 475.761719 711.652344 L 841.230469 711.652344 L 841.230469 1049.308594 L 475.761719 1049.308594 Z M 475.761719 711.652344 L 664.710938 778.683594 C 664.710938 807.230469 641.566406 830.371094 613.023438 830.371094 C 584.476562 830.371094 561.332031 807.230469 561.332031 778.683594 C 561.332031 750.136719 584.476562 726.996094 613.023438 726.996094 C 641.566406 726.996094 664.710938 750.136719 664.710938 778.683594 Z M 475.761719 711.652344 "/>
</clipPath>
<clipPath id="clip-3">
<path clip-rule="nonzero" d="M 506.90625 831 L 718.15625 831 L 718.15625 1089 L 506.90625 1089 Z M 506.90625 831 "/>
</clipPath>
<clipPath id="clip-4">
<path clip-rule="evenodd" d="M 506.90625 827.914062 L 718.15625 827.914062 L 718.15625 1131.570312 L 506.90625 1131.570312 Z M 506.90625 827.914062 L 755.652344 982.273438 C 755.652344 1010.820312 732.511719 1033.960938 703.964844 1033.960938 C 675.417969 1033.960938 652.277344 1010.820312 652.277344 982.273438 C 652.277344 953.726562 675.417969 930.585938 703.964844 930.585938 C 732.511719 930.585938 755.652344 953.726562 755.652344 982.273438 Z M 506.90625 827.914062 "/>
</clipPath>
<clipPath id="clip-5">
<path clip-rule="evenodd" d="M 506.90625 827.914062 L 718.15625 827.914062 L 718.15625 1131.570312 L 506.90625 1131.570312 Z M 506.90625 827.914062 L 572.78125 977.207031 C 572.78125 1005.753906 549.640625 1028.894531 521.09375 1028.894531 C 492.546875 1028.894531 469.40625 1005.753906 469.40625 977.207031 C 469.40625 948.660156 492.546875 925.519531 521.09375 925.519531 C 549.640625 925.519531 572.78125 948.660156 572.78125 977.207031 Z M 506.90625 827.914062 "/>
</clipPath>
<clipPath id="clip-6">
<path clip-rule="nonzero" d="M 384.613281 709.933594 L 749.507812 709.933594 L 749.507812 1045.960938 L 384.613281 1045.960938 Z M 384.613281 709.933594 "/>
</clipPath>
<clipPath id="clip-7">
<path clip-rule="evenodd" d="M 384.613281 709.933594 L 749.507812 709.933594 L 749.507812 1045.960938 L 384.613281 1045.960938 Z M 384.613281 709.933594 L 664.710938 778.683594 C 664.710938 807.230469 641.566406 830.371094 613.023438 830.371094 C 584.476562 830.371094 561.332031 807.230469 561.332031 778.683594 C 561.332031 750.136719 584.476562 726.996094 613.023438 726.996094 C 641.566406 726.996094 664.710938 750.136719 664.710938 778.683594 Z M 384.613281 709.933594 "/>
</clipPath>
<clipPath id="clip-8">
<path clip-rule="evenodd" d="M 384.613281 709.933594 L 749.507812 709.933594 L 749.507812 1045.960938 L 384.613281 1045.960938 Z M 384.613281 709.933594 L 572.78125 977.207031 C 572.78125 1005.753906 549.640625 1028.894531 521.09375 1028.894531 C 492.546875 1028.894531 469.40625 1005.753906 469.40625 977.207031 C 469.40625 948.660156 492.546875 925.519531 521.09375 925.519531 C 549.640625 925.519531 572.78125 948.660156 572.78125 977.207031 Z M 384.613281 709.933594 "/>
</clipPath>
<clipPath id="clip-9">
<path clip-rule="nonzero" d="M 466 497.320312 L 764 497.320312 L 764 791.046875 L 466 791.046875 Z M 466 497.320312 "/>
</clipPath>
<clipPath id="clip-10">
<path clip-rule="evenodd" d="M 463.691406 497.320312 L 766.273438 497.320312 L 766.273438 791.046875 L 463.691406 791.046875 Z M 463.691406 497.320312 L 664.710938 778.683594 C 664.710938 807.230469 641.566406 830.371094 613.023438 830.371094 C 584.476562 830.371094 561.332031 807.230469 561.332031 778.683594 C 561.332031 750.136719 584.476562 726.996094 613.023438 726.996094 C 641.566406 726.996094 664.710938 750.136719 664.710938 778.683594 Z M 463.691406 497.320312 "/>
</clipPath>
<clipPath id="clip-11">
<path clip-rule="evenodd" d="M 463.691406 497.320312 L 766.273438 497.320312 L 766.273438 791.046875 L 463.691406 791.046875 Z M 463.691406 497.320312 L 668.625 509.679688 C 668.625 538.226562 645.484375 561.367188 616.9375 561.367188 C 588.390625 561.367188 565.25 538.226562 565.25 509.679688 C 565.25 481.132812 588.390625 457.992188 616.9375 457.992188 C 645.484375 457.992188 668.625 481.132812 668.625 509.679688 Z M 463.691406 497.320312 "/>
</clipPath>
<linearGradient id="linear-pattern-0" gradientUnits="userSpaceOnUse" x1="0.410991" y1="2.004648" x2="0.439158" y2="0.0695347">
<stop offset="0" stop-color="rgb(12.156863%, 46.666667%, 70.588235%)" stop-opacity="0.8"/>
<stop offset="1" stop-color="rgb(68.235294%, 78.039216%, 90.980392%)" stop-opacity="0.8"/>
</linearGradient>
<clipPath id="clip-12">
<path clip-rule="nonzero" d="M 559.683594 275.523438 L 933.472656 275.523438 L 933.472656 650.875 L 559.683594 650.875 Z M 559.683594 275.523438 "/>
</clipPath>
<clipPath id="clip-13">
<path clip-rule="evenodd" d="M 559.683594 275.523438 L 933.472656 275.523438 L 933.472656 650.875 L 559.683594 650.875 Z M 559.683594 275.523438 L 668.625 509.679688 C 668.625 538.226562 645.484375 561.367188 616.9375 561.367188 C 588.390625 561.367188 565.25 538.226562 565.25 509.679688 C 565.25 481.132812 588.390625 457.992188 616.9375 457.992188 C 645.484375 457.992188 668.625 481.132812 668.625 509.679688 Z M 559.683594 275.523438 "/>
</clipPath>
<clipPath id="clip-14">
<path clip-rule="evenodd" d="M 559.683594 275.523438 L 933.472656 275.523438 L 933.472656 650.875 L 559.683594 650.875 Z M 559.683594 275.523438 L 927.902344 416.714844 C 927.902344 445.261719 904.761719 468.402344 876.214844 468.402344 C 847.667969 468.402344 824.527344 445.261719 824.527344 416.714844 C 824.527344 388.171875 847.667969 365.027344 876.214844 365.027344 C 904.761719 365.027344 927.902344 388.171875 927.902344 416.714844 Z M 559.683594 275.523438 "/>
</clipPath>
<clipPath id="clip-15">
<path clip-rule="nonzero" d="M 298.4375 219.882812 L 710.496094 219.882812 L 710.496094 631.371094 L 298.4375 631.371094 Z M 298.4375 219.882812 "/>
</clipPath>
<clipPath id="clip-16">
<path clip-rule="evenodd" d="M 298.4375 219.882812 L 710.496094 219.882812 L 710.496094 631.371094 L 298.4375 631.371094 Z M 298.4375 219.882812 L 668.625 509.679688 C 668.625 538.226562 645.484375 561.367188 616.9375 561.367188 C 588.390625 561.367188 565.25 538.226562 565.25 509.679688 C 565.25 481.132812 588.390625 457.992188 616.9375 457.992188 C 645.484375 457.992188 668.625 481.132812 668.625 509.679688 Z M 298.4375 219.882812 "/>
</clipPath>
<clipPath id="clip-17">
<path clip-rule="evenodd" d="M 298.4375 219.882812 L 710.496094 219.882812 L 710.496094 631.371094 L 298.4375 631.371094 Z M 298.4375 219.882812 L 443.679688 341.570312 C 443.679688 370.117188 420.539062 393.257812 391.992188 393.257812 C 363.445312 393.257812 340.304688 370.117188 340.304688 341.570312 C 340.304688 313.023438 363.445312 289.882812 391.992188 289.882812 C 420.539062 289.882812 443.679688 313.023438 443.679688 341.570312 Z M 298.4375 219.882812 "/>
</clipPath>
<linearGradient id="linear-pattern-1" gradientUnits="userSpaceOnUse" x1="0.439158" y1="0.0695347" x2="-1.179015" y2="-1.139792">
<stop offset="0" stop-color="rgb(68.235294%, 78.039216%, 90.980392%)" stop-opacity="0.8"/>
<stop offset="1" stop-color="rgb(100%, 49.803922%, 5.490196%)" stop-opacity="0.8"/>
</linearGradient>
<clipPath id="clip-18">
<path clip-rule="nonzero" d="M 742.636719 145.632812 L 1112.300781 145.632812 L 1112.300781 491.363281 L 742.636719 491.363281 Z M 742.636719 145.632812 "/>
</clipPath>
<clipPath id="clip-19">
<path clip-rule="evenodd" d="M 742.636719 145.632812 L 1112.300781 145.632812 L 1112.300781 491.363281 L 742.636719 491.363281 Z M 742.636719 145.632812 L 927.902344 416.714844 C 927.902344 445.261719 904.761719 468.402344 876.214844 468.402344 C 847.667969 468.402344 824.527344 445.261719 824.527344 416.714844 C 824.527344 388.171875 847.667969 365.027344 876.214844 365.027344 C 904.761719 365.027344 927.902344 388.171875 927.902344 416.714844 Z M 742.636719 145.632812 "/>
</clipPath>
<clipPath id="clip-20">
<path clip-rule="evenodd" d="M 742.636719 145.632812 L 1112.300781 145.632812 L 1112.300781 491.363281 L 742.636719 491.363281 Z M 742.636719 145.632812 L 1030.40625 220.277344 C 1030.40625 248.824219 1007.265625 271.964844 978.71875 271.964844 C 950.171875 271.964844 927.03125 248.824219 927.03125 220.277344 C 927.03125 191.730469 950.171875 168.589844 978.71875 168.589844 C 1007.265625 168.589844 1030.40625 191.730469 1030.40625 220.277344 Z M 742.636719 145.632812 "/>
</clipPath>
<clipPath id="clip-21">
<path clip-rule="nonzero" d="M 817.90625 275.90625 L 1146.554688 275.90625 L 1146.554688 635.488281 L 817.90625 635.488281 Z M 817.90625 275.90625 "/>
</clipPath>
<clipPath id="clip-22">
<path clip-rule="evenodd" d="M 817.90625 275.90625 L 1146.554688 275.90625 L 1146.554688 635.488281 L 817.90625 635.488281 Z M 817.90625 275.90625 L 927.902344 416.714844 C 927.902344 445.261719 904.761719 468.402344 876.214844 468.402344 C 847.667969 468.402344 824.527344 445.261719 824.527344 416.714844 C 824.527344 388.171875 847.667969 365.027344 876.214844 365.027344 C 904.761719 365.027344 927.902344 388.171875 927.902344 416.714844 Z M 817.90625 275.90625 "/>
</clipPath>
<clipPath id="clip-23">
<path clip-rule="evenodd" d="M 817.90625 275.90625 L 1146.554688 275.90625 L 1146.554688 635.488281 L 817.90625 635.488281 Z M 817.90625 275.90625 L 1139.929688 494.675781 C 1139.929688 523.21875 1116.789062 546.363281 1088.242188 546.363281 C 1059.695312 546.363281 1036.554688 523.21875 1036.554688 494.675781 C 1036.554688 466.128906 1059.695312 442.988281 1088.242188 442.988281 C 1116.789062 442.988281 1139.929688 466.128906 1139.929688 494.675781 Z M 817.90625 275.90625 "/>
</clipPath>
<clipPath id="clip-24">
<path clip-rule="nonzero" d="M 124.539062 158 L 423.785156 158 L 423.785156 488 L 124.539062 488 Z M 124.539062 158 "/>
</clipPath>
<clipPath id="clip-25">
<path clip-rule="evenodd" d="M 124.539062 157.074219 L 423.785156 157.074219 L 423.785156 489.257812 L 124.539062 489.257812 Z M 124.539062 157.074219 L 443.679688 341.570312 C 443.679688 370.117188 420.539062 393.257812 391.992188 393.257812 C 363.445312 393.257812 340.304688 370.117188 340.304688 341.570312 C 340.304688 313.023438 363.445312 289.882812 391.992188 289.882812 C 420.539062 289.882812 443.679688 313.023438 443.679688 341.570312 Z M 124.539062 157.074219 "/>
</clipPath>
<clipPath id="clip-26">
<path clip-rule="evenodd" d="M 124.539062 157.074219 L 423.785156 157.074219 L 423.785156 489.257812 L 124.539062 489.257812 Z M 124.539062 157.074219 L 208.015625 304.757812 C 208.015625 333.300781 184.875 356.445312 156.328125 356.445312 C 127.78125 356.445312 104.640625 333.300781 104.640625 304.757812 C 104.640625 276.210938 127.78125 253.070312 156.328125 253.070312 C 184.875 253.070312 208.015625 276.210938 208.015625 304.757812 Z M 124.539062 157.074219 "/>
</clipPath>
<clipPath id="clip-27">
<path clip-rule="nonzero" d="M 174.398438 66.089844 L 533.738281 66.089844 L 533.738281 397.257812 L 174.398438 397.257812 Z M 174.398438 66.089844 "/>
</clipPath>
<clipPath id="clip-28">
<path clip-rule="evenodd" d="M 174.398438 66.089844 L 533.738281 66.089844 L 533.738281 397.257812 L 174.398438 397.257812 Z M 174.398438 66.089844 L 443.679688 341.570312 C 443.679688 370.117188 420.539062 393.257812 391.992188 393.257812 C 363.445312 393.257812 340.304688 370.117188 340.304688 341.570312 C 340.304688 313.023438 363.445312 289.882812 391.992188 289.882812 C 420.539062 289.882812 443.679688 313.023438 443.679688 341.570312 Z M 174.398438 66.089844 "/>
</clipPath>
<clipPath id="clip-29">
<path clip-rule="evenodd" d="M 174.398438 66.089844 L 533.738281 66.089844 L 533.738281 397.257812 L 174.398438 397.257812 Z M 174.398438 66.089844 L 367.828125 121.773438 C 367.828125 150.320312 344.6875 173.460938 316.140625 173.460938 C 287.59375 173.460938 264.453125 150.320312 264.453125 121.773438 C 264.453125 93.230469 287.59375 70.085938 316.140625 70.085938 C 344.6875 70.085938 367.828125 93.230469 367.828125 121.773438 Z M 174.398438 66.089844 "/>
</clipPath>
<clipPath id="clip-30">
<path clip-rule="nonzero" d="M 0 65.867188 L 302.289062 65.867188 L 302.289062 345.621094 L 0 345.621094 Z M 0 65.867188 "/>
</clipPath>
<clipPath id="clip-31">
<path clip-rule="evenodd" d="M -34.199219 65.867188 L 302.289062 65.867188 L 302.289062 345.621094 L -34.199219 345.621094 Z M -34.199219 65.867188 L 208.015625 304.757812 C 208.015625 333.300781 184.875 356.445312 156.328125 356.445312 C 127.78125 356.445312 104.640625 333.300781 104.640625 304.757812 C 104.640625 276.210938 127.78125 253.070312 156.328125 253.070312 C 184.875 253.070312 208.015625 276.210938 208.015625 304.757812 Z M -34.199219 65.867188 "/>
</clipPath>
<clipPath id="clip-32">
<path clip-rule="evenodd" d="M -34.199219 65.867188 L 302.289062 65.867188 L 302.289062 345.621094 L -34.199219 345.621094 Z M -34.199219 65.867188 L 163.445312 106.726562 C 163.445312 135.273438 140.304688 158.414062 111.757812 158.414062 C 83.210938 158.414062 60.070312 135.273438 60.070312 106.726562 C 60.070312 78.179688 83.210938 55.039062 111.757812 55.039062 C 140.304688 55.039062 163.445312 78.179688 163.445312 106.726562 Z M -34.199219 65.867188 "/>
</clipPath>
<clipPath id="clip-33">
<path clip-rule="nonzero" d="M 91.214844 0 L 336.6875 0 L 336.6875 268 L 91.214844 268 Z M 91.214844 0 "/>
</clipPath>
<clipPath id="clip-34">
<path clip-rule="evenodd" d="M 91.214844 -42.246094 L 336.6875 -42.246094 L 336.6875 270.75 L 91.214844 270.75 Z M 91.214844 -42.246094 L 163.445312 106.726562 C 163.445312 135.273438 140.304688 158.414062 111.757812 158.414062 C 83.210938 158.414062 60.070312 135.273438 60.070312 106.726562 C 60.070312 78.179688 83.210938 55.039062 111.757812 55.039062 C 140.304688 55.039062 163.445312 78.179688 163.445312 106.726562 Z M 91.214844 -42.246094 "/>
</clipPath>
<clipPath id="clip-35">
<path clip-rule="evenodd" d="M 91.214844 -42.246094 L 336.6875 -42.246094 L 336.6875 270.75 L 91.214844 270.75 Z M 91.214844 -42.246094 L 367.828125 121.773438 C 367.828125 150.320312 344.6875 173.460938 316.140625 173.460938 C 287.59375 173.460938 264.453125 150.320312 264.453125 121.773438 C 264.453125 93.230469 287.59375 70.085938 316.140625 70.085938 C 344.6875 70.085938 367.828125 93.230469 367.828125 121.773438 Z M 91.214844 -42.246094 "/>
</clipPath>
</defs>
<g clip-path="url(#clip-0)">
<g clip-path="url(#clip-1)">
<g clip-path="url(#clip-2)">
<path fill="none" stroke-width="0.0743645" stroke-linecap="butt" stroke-linejoin="miter" stroke="rgb(12.156863%, 46.666667%, 70.588235%)" stroke-opacity="0.8" stroke-miterlimit="10" d="M 1.065204 3.469196 L 0.411004 2.004644 " transform="matrix(139.011646, 0, 0, 139.011646, 555.889091, 500.014732)"/>
</g>
</g>
</g>
<g clip-path="url(#clip-3)">
<g clip-path="url(#clip-4)">
<g clip-path="url(#clip-5)">
<path fill="none" stroke-width="0.0743645" stroke-linecap="butt" stroke-linejoin="miter" stroke="rgb(12.156863%, 46.666667%, 70.588235%)" stroke-opacity="0.8" stroke-miterlimit="10" d="M 1.065204 3.469196 L -0.250305 3.432751 " transform="matrix(139.011646, 0, 0, 139.011646, 555.889091, 500.014732)"/>
</g>
</g>
</g>
<g clip-path="url(#clip-6)">
<g clip-path="url(#clip-7)">
<g clip-path="url(#clip-8)">
<path fill="none" stroke-width="0.0743645" stroke-linecap="butt" stroke-linejoin="miter" stroke="rgb(12.156863%, 46.666667%, 70.588235%)" stroke-opacity="0.8" stroke-miterlimit="10" d="M 0.411004 2.004644 L -0.250305 3.432751 " transform="matrix(139.011646, 0, 0, 139.011646, 555.889091, 500.014732)"/>
</g>
</g>
</g>
<g clip-path="url(#clip-9)">
<g clip-path="url(#clip-10)">
<g clip-path="url(#clip-11)">
<path fill="none" stroke-width="0.0743645" stroke-linecap="butt" stroke-linejoin="miter" stroke="url(#linear-pattern-0)" stroke-miterlimit="10" d="M 0.411004 2.004644 L 0.43916 0.0695262 " transform="matrix(139.011646, 0, 0, 139.011646, 555.889091, 500.014732)"/>
</g>
</g>
</g>
<g clip-path="url(#clip-12)">
<g clip-path="url(#clip-13)">
<g clip-path="url(#clip-14)">
<path fill="none" stroke-width="0.0743645" stroke-linecap="butt" stroke-linejoin="miter" stroke="rgb(68.235294%, 78.039216%, 90.980392%)" stroke-opacity="0.8" stroke-miterlimit="10" d="M 0.43916 0.0695262 L 2.304309 -0.59923 " transform="matrix(139.011646, 0, 0, 139.011646, 555.889091, 500.014732)"/>
</g>
</g>
</g>
<g clip-path="url(#clip-15)">
<g clip-path="url(#clip-16)">
<g clip-path="url(#clip-17)">
<path fill="none" stroke-width="0.0743645" stroke-linecap="butt" stroke-linejoin="miter" stroke="url(#linear-pattern-1)" stroke-miterlimit="10" d="M 0.43916 0.0695262 L -1.179016 -1.139792 " transform="matrix(139.011646, 0, 0, 139.011646, 555.889091, 500.014732)"/>
</g>
</g>
</g>
<g clip-path="url(#clip-18)">
<g clip-path="url(#clip-19)">
<g clip-path="url(#clip-20)">
<path fill="none" stroke-width="0.0743645" stroke-linecap="butt" stroke-linejoin="miter" stroke="rgb(68.235294%, 78.039216%, 90.980392%)" stroke-opacity="0.8" stroke-miterlimit="10" d="M 2.304309 -0.59923 L 3.041685 -2.012331 " transform="matrix(139.011646, 0, 0, 139.011646, 555.889091, 500.014732)"/>
</g>
</g>
</g>
<g clip-path="url(#clip-21)">
<g clip-path="url(#clip-22)">
<g clip-path="url(#clip-23)">
<path fill="none" stroke-width="0.0743645" stroke-linecap="butt" stroke-linejoin="miter" stroke="rgb(68.235294%, 78.039216%, 90.980392%)" stroke-opacity="0.8" stroke-miterlimit="10" d="M 2.304309 -0.59923 L 3.829558 -0.0384065 " transform="matrix(139.011646, 0, 0, 139.011646, 555.889091, 500.014732)"/>
</g>
</g>
</g>
<g clip-path="url(#clip-24)">
<g clip-path="url(#clip-25)">
<g clip-path="url(#clip-26)">
<path fill="none" stroke-width="0.0743645" stroke-linecap="butt" stroke-linejoin="miter" stroke="rgb(100%, 49.803922%, 5.490196%)" stroke-opacity="0.8" stroke-miterlimit="10" d="M -1.179016 -1.139792 L -2.874299 -1.404608 " transform="matrix(139.011646, 0, 0, 139.011646, 555.889091, 500.014732)"/>
</g>
</g>
</g>
<g clip-path="url(#clip-27)">
<g clip-path="url(#clip-28)">
<g clip-path="url(#clip-29)">
<path fill="none" stroke-width="0.0743645" stroke-linecap="butt" stroke-linejoin="miter" stroke="rgb(100%, 49.803922%, 5.490196%)" stroke-opacity="0.8" stroke-miterlimit="10" d="M -1.179016 -1.139792 L -1.724665 -2.720932 " transform="matrix(139.011646, 0, 0, 139.011646, 555.889091, 500.014732)"/>
</g>
</g>
</g>
<g clip-path="url(#clip-30)">
<g clip-path="url(#clip-31)">
<g clip-path="url(#clip-32)">
<path fill="none" stroke-width="0.0743645" stroke-linecap="butt" stroke-linejoin="miter" stroke="rgb(100%, 49.803922%, 5.490196%)" stroke-opacity="0.8" stroke-miterlimit="10" d="M -2.874299 -1.404608 L -3.194921 -2.829174 " transform="matrix(139.011646, 0, 0, 139.011646, 555.889091, 500.014732)"/>
</g>
</g>
</g>
<g clip-path="url(#clip-33)">
<g clip-path="url(#clip-34)">
<g clip-path="url(#clip-35)">
<path fill="none" stroke-width="0.0743645" stroke-linecap="butt" stroke-linejoin="miter" stroke="rgb(100%, 49.803922%, 5.490196%)" stroke-opacity="0.8" stroke-miterlimit="10" d="M -3.194921 -2.829174 L -1.724665 -2.720932 " transform="matrix(139.011646, 0, 0, 139.011646, 555.889091, 500.014732)"/>
</g>
</g>
</g>
<path fill-rule="nonzero" fill="rgb(12.156863%, 46.666667%, 70.588235%)" fill-opacity="1" stroke-width="0.0743645" stroke-linecap="butt" stroke-linejoin="miter" stroke="rgb(12.156863%, 46.666667%, 70.588235%)" stroke-opacity="1" stroke-miterlimit="10" d="M 0.371823 0.0000041992 C 0.371823 0.20536 0.205358 0.371826 0.00000164728 0.371826 C -0.205354 0.371826 -0.37182 0.20536 -0.37182 0.0000041992 C -0.37182 -0.205352 -0.205354 -0.371817 0.00000164728 -0.371817 C 0.205358 -0.371817 0.371823 -0.205352 0.371823 0.0000041992 Z M 0.371823 0.0000041992 " transform="matrix(139.011646, 0, 0, 139.011646, 703.964615, 982.272854)"/>
<path fill-rule="nonzero" fill="rgb(12.156863%, 46.666667%, 70.588235%)" fill-opacity="1" stroke-width="0.0743645" stroke-linecap="butt" stroke-linejoin="miter" stroke="rgb(12.156863%, 46.666667%, 70.588235%)" stroke-opacity="1" stroke-miterlimit="10" d="M 0.371834 -0.00000428236 C 0.371834 0.205352 0.205341 0.371817 0.0000129854 0.371817 C -0.205343 0.371817 -0.371836 0.205352 -0.371836 -0.00000428236 C -0.371836 -0.20536 -0.205343 -0.371826 0.0000129854 -0.371826 C 0.205341 -0.371826 0.371834 -0.20536 0.371834 -0.00000428236 Z M 0.371834 -0.00000428236 " transform="matrix(139.011646, 0, 0, 139.011646, 613.021632, 778.684189)"/>
<path fill-rule="nonzero" fill="rgb(12.156863%, 46.666667%, 70.588235%)" fill-opacity="1" stroke-width="0.0743645" stroke-linecap="butt" stroke-linejoin="miter" stroke="rgb(12.156863%, 46.666667%, 70.588235%)" stroke-opacity="1" stroke-miterlimit="10" d="M 0.371827 -0.00000687438 C 0.371827 0.205349 0.205362 0.371814 0.00000553039 0.371814 C -0.20535 0.371814 -0.371816 0.205349 -0.371816 -0.00000687438 C -0.371816 -0.205363 -0.20535 -0.371828 0.00000553039 -0.371828 C 0.205362 -0.371828 0.371827 -0.205363 0.371827 -0.00000687438 Z M 0.371827 -0.00000687438 " transform="matrix(139.011646, 0, 0, 139.011646, 521.092981, 977.207987)"/>
<path fill-rule="nonzero" fill="rgb(68.235294%, 78.039216%, 90.980392%)" fill-opacity="1" stroke-width="0.0743645" stroke-linecap="butt" stroke-linejoin="miter" stroke="rgb(68.235294%, 78.039216%, 90.980392%)" stroke-opacity="1" stroke-miterlimit="10" d="M 0.371824 -0.00000846821 C 0.371824 0.205348 0.205359 0.371813 0.00000257555 0.371813 C -0.205353 0.371813 -0.371819 0.205348 -0.371819 -0.00000846821 C -0.371819 -0.205364 -0.205353 -0.37183 0.00000257555 -0.37183 C 0.205359 -0.37183 0.371824 -0.205364 0.371824 -0.00000846821 Z M 0.371824 -0.00000846821 " transform="matrix(139.011646, 0, 0, 139.011646, 616.937142, 509.680865)"/>
<path fill-rule="nonzero" fill="rgb(68.235294%, 78.039216%, 90.980392%)" fill-opacity="1" stroke-width="0.0743645" stroke-linecap="butt" stroke-linejoin="miter" stroke="rgb(68.235294%, 78.039216%, 90.980392%)" stroke-opacity="1" stroke-miterlimit="10" d="M 0.371813 -0.0000102974 C 0.371813 0.205346 0.205348 0.371811 -0.00000790973 0.371811 C -0.205364 0.371811 -0.371829 0.205346 -0.371829 -0.0000102974 C -0.371829 -0.205338 -0.205364 -0.371832 -0.00000790973 -0.371832 C 0.205348 -0.371832 0.371813 -0.205338 0.371813 -0.0000102974 Z M 0.371813 -0.0000102974 " transform="matrix(139.011646, 0, 0, 139.011646, 876.215943, 416.716275)"/>
<path fill-rule="nonzero" fill="rgb(68.235294%, 78.039216%, 90.980392%)" fill-opacity="1" stroke-width="0.0743645" stroke-linecap="butt" stroke-linejoin="miter" stroke="rgb(68.235294%, 78.039216%, 90.980392%)" stroke-opacity="1" stroke-miterlimit="10" d="M 0.371828 -0.00000499786 C 0.371828 0.205351 0.205363 0.371816 0.00000673542 0.371816 C -0.205349 0.371816 -0.371815 0.205351 -0.371815 -0.00000499786 C -0.371815 -0.205361 -0.205349 -0.371826 0.00000673542 -0.371826 C 0.205363 -0.371826 0.371828 -0.205361 0.371828 -0.00000499786 Z M 0.371828 -0.00000499786 " transform="matrix(139.011646, 0, 0, 139.011646, 978.717814, 220.278039)"/>
<path fill-rule="nonzero" fill="rgb(68.235294%, 78.039216%, 90.980392%)" fill-opacity="1" stroke-width="0.0743645" stroke-linecap="butt" stroke-linejoin="miter" stroke="rgb(68.235294%, 78.039216%, 90.980392%)" stroke-opacity="1" stroke-miterlimit="10" d="M 0.371825 0.0000113634 C 0.371825 0.205339 0.20536 0.371833 0.00000352548 0.371833 C -0.205352 0.371833 -0.371818 0.205339 -0.371818 0.0000113634 C -0.371818 -0.205345 -0.205352 -0.37181 0.00000352548 -0.37181 C 0.20536 -0.37181 0.371825 -0.205345 0.371825 0.0000113634 Z M 0.371825 0.0000113634 " transform="matrix(139.011646, 0, 0, 139.011646, 1088.241697, 494.674202)"/>
<path fill-rule="nonzero" fill="rgb(100%, 49.803922%, 5.490196%)" fill-opacity="1" stroke-width="0.0743645" stroke-linecap="butt" stroke-linejoin="miter" stroke="rgb(100%, 49.803922%, 5.490196%)" stroke-opacity="1" stroke-miterlimit="10" d="M 0.37182 -0.000000622964 C 0.37182 0.205355 0.205355 0.371821 -0.000000916053 0.371821 C -0.205357 0.371821 -0.371822 0.205355 -0.371822 -0.000000622964 C -0.371822 -0.205357 -0.205357 -0.371822 -0.000000916053 -0.371822 C 0.205355 -0.371822 0.37182 -0.205357 0.37182 -0.000000622964 Z M 0.37182 -0.000000622964 " transform="matrix(139.011646, 0, 0, 139.011646, 391.992315, 341.570399)"/>
<path fill-rule="nonzero" fill="rgb(100%, 49.803922%, 5.490196%)" fill-opacity="1" stroke-width="0.0743645" stroke-linecap="butt" stroke-linejoin="miter" stroke="rgb(100%, 49.803922%, 5.490196%)" stroke-opacity="1" stroke-miterlimit="10" d="M 0.371812 0.0000123011 C 0.371812 0.20534 0.205347 0.371834 -0.00000900617 0.371834 C -0.205365 0.371834 -0.37183 0.20534 -0.37183 0.0000123011 C -0.37183 -0.205344 -0.205365 -0.371809 -0.00000900617 -0.371809 C 0.205347 -0.371809 0.371812 -0.205344 0.371812 0.0000123011 Z M 0.371812 0.0000123011 " transform="matrix(139.011646, 0, 0, 139.011646, 156.329377, 304.756103)"/>
<path fill-rule="nonzero" fill="rgb(100%, 49.803922%, 5.490196%)" fill-opacity="1" stroke-width="0.0743645" stroke-linecap="butt" stroke-linejoin="miter" stroke="rgb(100%, 49.803922%, 5.490196%)" stroke-opacity="1" stroke-miterlimit="10" d="M 0.371818 -0.0000041992 C 0.371818 0.205352 0.205352 0.371817 -0.00000352548 0.371817 C -0.20536 0.371817 -0.371825 0.205352 -0.371825 -0.0000041992 C -0.371825 -0.20536 -0.20536 -0.371826 -0.00000352548 -0.371826 C 0.205352 -0.371826 0.371818 -0.20536 0.371818 -0.0000041992 Z M 0.371818 -0.0000041992 " transform="matrix(139.011646, 0, 0, 139.011646, 111.758303, 106.727146)"/>
<path fill-rule="nonzero" fill="rgb(100%, 49.803922%, 5.490196%)" fill-opacity="1" stroke-width="0.0743645" stroke-linecap="butt" stroke-linejoin="miter" stroke="rgb(100%, 49.803922%, 5.490196%)" stroke-opacity="1" stroke-miterlimit="10" d="M 0.371813 -0.0000105763 C 0.371813 0.205345 0.205348 0.371811 -0.00000807222 0.371811 C -0.205364 0.371811 -0.371829 0.205345 -0.371829 -0.0000105763 C -0.371829 -0.205338 -0.205364 -0.371832 -0.00000807222 -0.371832 C 0.205348 -0.371832 0.371813 -0.205338 0.371813 -0.0000105763 Z M 0.371813 -0.0000105763 " transform="matrix(139.011646, 0, 0, 139.011646, 316.141747, 121.774908)"/>
</svg>
