<?xml version="1.0" encoding="UTF-8"?>
<svg xmlns="http://www.w3.org/2000/svg" xmlns:xlink="http://www.w3.org/1999/xlink" width="1200" height="1041" viewBox="0 0 1200 1041">
<defs>
<clipPath id="clip-0">
<path clip-rule="nonzero" d="M 594.761719 702.558594 L 892.277344 702.558594 L 892.277344 966.78125 L 594.761719 966.78125 Z M 594.761719 702.558594 "/>
</clipPath>
<clipPath id="clip-1">
<path clip-rule="evenodd" d="M 594.761719 702.558594 L 892.277344 702.558594 L 892.277344 966.78125 L 594.761719 966.78125 Z M 594.761719 702.558594 L 779.195312 937.355469 C 779.195312 965.902344 756.054688 989.042969 727.507812 989.042969 C 698.960938 989.042969 675.820312 965.902344 675.820312 937.355469 C 675.820312 908.808594 698.960938 885.667969 727.507812 885.667969 C 756.054688 885.667969 779.195312 908.808594 779.195312 937.355469 Z M 594.761719 702.558594 "/>
</clipPath>
<clipPath id="clip-2">
<path clip-rule="evenodd" d="M 594.761719 702.558594 L 892.277344 702.558594 L 892.277344 966.78125 L 594.761719 966.78125 Z M 594.761719 702.558594 L 811.214844 731.980469 C 811.214844 760.527344 788.074219 783.667969 759.527344 783.667969 C 730.980469 783.667969 707.839844 760.527344 707.839844 731.980469 C 707.839844 703.433594 730.980469 680.292969 759.527344 680.292969 C 788.074219 680.292969 811.214844 703.433594 811.214844 731.980469 Z M 594.761719 702.558594 "/>
</clipPath>
<clipPath id="clip-3">
<path clip-rule="nonzero" d="M 683.242188 760.761719 L 937.203125 760.761719 L 937.203125 1041 L 683.242188 1041 Z M 683.242188 760.761719 "/>
</clipPath>
<clipPath id="clip-4">
<path clip-rule="evenodd" d="M 683.242188 760.761719 L 937.203125 760.761719 L 937.203125 1066.847656 L 683.242188 1066.847656 Z M 683.242188 760.761719 L 779.195312 937.355469 C 779.195312 965.902344 756.054688 989.042969 727.507812 989.042969 C 698.960938 989.042969 675.820312 965.902344 675.820312 937.355469 C 675.820312 908.808594 698.960938 885.667969 727.507812 885.667969 C 756.054688 885.667969 779.195312 908.808594 779.195312 937.355469 Z M 683.242188 760.761719 "/>
</clipPath>
<clipPath id="clip-5">
<path clip-rule="evenodd" d="M 683.242188 760.761719 L 937.203125 760.761719 L 937.203125 1066.847656 L 683.242188 1066.847656 Z M 683.242188 760.761719 L 944.621094 890.25 C 944.621094 918.796875 921.480469 941.9375 892.933594 941.9375 C 864.386719 941.9375 841.246094 918.796875 841.246094 890.25 C 841.246094 861.703125 864.386719 838.5625 892.933594 838.5625 C 921.480469 838.5625 944.621094 861.703125 944.621094 890.25 Z M 683.242188 760.761719 "/>
</clipPath>
<clipPath id="clip-6">
<path clip-rule="nonzero" d="M 654.464844 641.800781 L 998 641.800781 L 998 980.433594 L 654.464844 980.433594 Z M 654.464844 641.800781 "/>
</clipPath>
<clipPath id="clip-7">
<path clip-rule="evenodd" d="M 654.464844 641.800781 L 998 641.800781 L 998 980.433594 L 654.464844 980.433594 Z M 654.464844 641.800781 L 811.214844 731.980469 C 811.214844 760.527344 788.074219 783.667969 759.527344 783.667969 C 730.980469 783.667969 707.839844 760.527344 707.839844 731.980469 C 707.839844 703.433594 730.980469 680.292969 759.527344 680.292969 C 788.074219 680.292969 811.214844 703.433594 811.214844 731.980469 Z M 654.464844 641.800781 "/>
</clipPath>
<clipPath id="clip-8">
<path clip-rule="evenodd" d="M 654.464844 641.800781 L 998 641.800781 L 998 980.433594 L 654.464844 980.433594 Z M 654.464844 641.800781 L 944.621094 890.25 C 944.621094 918.796875 921.480469 941.9375 892.933594 941.9375 C 864.386719 941.9375 841.246094 918.796875 841.246094 890.25 C 841.246094 861.703125 864.386719 838.5625 892.933594 838.5625 C 921.480469 838.5625 944.621094 861.703125 944.621094 890.25 Z M 654.464844 641.800781 "/>
</clipPath>
<clipPath id="clip-9">
<path clip-rule="nonzero" d="M 561.492188 442.980469 L 889.214844 442.980469 L 889.214844 775.558594 L 561.492188 775.558594 Z M 561.492188 442.980469 "/>
</clipPath>
<clipPath id="clip-10">
<path clip-rule="evenodd" d="M 561.492188 442.980469 L 889.214844 442.980469 L 889.214844 775.558594 L 561.492188 775.558594 Z M 561.492188 442.980469 L 811.214844 731.980469 C 811.214844 760.527344 788.074219 783.667969 759.527344 783.667969 C 730.980469 783.667969 707.839844 760.527344 707.839844 731.980469 C 707.839844 703.433594 730.980469 680.292969 759.527344 680.292969 C 788.074219 680.292969 811.214844 703.433594 811.214844 731.980469 Z M 561.492188 442.980469 "/>
</clipPath>
<clipPath id="clip-11">
<path clip-rule="evenodd" d="M 561.492188 442.980469 L 889.214844 442.980469 L 889.214844 775.558594 L 561.492188 775.558594 Z M 561.492188 442.980469 L 742.863281 486.554688 C 742.863281 515.101562 719.722656 538.242188 691.175781 538.242188 C 662.628906 538.242188 639.488281 515.101562 639.488281 486.554688 C 639.488281 458.007812 662.628906 434.867188 691.175781 434.867188 C 719.722656 434.867188 742.863281 458.007812 742.863281 486.554688 Z M 561.492188 442.980469 "/>
</clipPath>
<clipPath id="clip-12">
<path clip-rule="nonzero" d="M 596.765625 210.410156 L 974.789062 210.410156 L 974.789062 587.886719 L 596.765625 587.886719 Z M 596.765625 210.410156 "/>
</clipPath>
<clipPath id="clip-13">
<path clip-rule="evenodd" d="M 596.765625 210.410156 L 974.789062 210.410156 L 974.789062 587.886719 L 596.765625 587.886719 Z M 596.765625 210.410156 L 742.863281 486.554688 C 742.863281 515.101562 719.722656 538.242188 691.175781 538.242188 C 662.628906 538.242188 639.488281 515.101562 639.488281 486.554688 C 639.488281 458.007812 662.628906 434.867188 691.175781 434.867188 C 719.722656 434.867188 742.863281 458.007812 742.863281 486.554688 Z M 596.765625 210.410156 "/>
</clipPath>
<clipPath id="clip-14">
<path clip-rule="evenodd" d="M 596.765625 210.410156 L 974.789062 210.410156 L 974.789062 587.886719 L 596.765625 587.886719 Z M 596.765625 210.410156 L 932.0625 311.738281 C 932.0625 340.285156 908.921875 363.425781 880.375 363.425781 C 851.828125 363.425781 828.6875 340.285156 828.6875 311.738281 C 828.6875 283.191406 851.828125 260.050781 880.375 260.050781 C 908.921875 260.050781 932.0625 283.191406 932.0625 311.738281 Z M 596.765625 210.410156 "/>
</clipPath>
<clipPath id="clip-15">
<path clip-rule="nonzero" d="M 394.628906 287.664062 L 734.035156 287.664062 L 734.035156 616.441406 L 394.628906 616.441406 Z M 394.628906 287.664062 "/>
</clipPath>
<clipPath id="clip-16">
<path clip-rule="evenodd" d="M 394.628906 287.664062 L 734.035156 287.664062 L 734.035156 616.441406 L 394.628906 616.441406 Z M 394.628906 287.664062 L 742.863281 486.554688 C 742.863281 515.101562 719.722656 538.242188 691.175781 538.242188 C 662.628906 538.242188 639.488281 515.101562 639.488281 486.554688 C 639.488281 458.007812 662.628906 434.867188 691.175781 434.867188 C 719.722656 434.867188 742.863281 458.007812 742.863281 486.554688 Z M 394.628906 287.664062 "/>
</clipPath>
<clipPath id="clip-17">
<path clip-rule="evenodd" d="M 394.628906 287.664062 L 734.035156 287.664062 L 734.035156 616.441406 L 394.628906 616.441406 Z M 394.628906 287.664062 L 489.175781 417.546875 C 489.175781 446.089844 466.03125 469.234375 437.484375 469.234375 C 408.941406 469.234375 385.796875 446.089844 385.796875 417.546875 C 385.796875 389 408.941406 365.859375 437.484375 365.859375 C 466.03125 365.859375 489.175781 389 489.175781 417.546875 Z M 394.628906 287.664062 "/>
</clipPath>
<clipPath id="clip-18">
<path clip-rule="nonzero" d="M 746.9375 79.355469 L 1037.40625 79.355469 L 1037.40625 336.03125 L 746.9375 336.03125 Z M 746.9375 79.355469 "/>
</clipPath>
<clipPath id="clip-19">
<path clip-rule="evenodd" d="M 746.9375 79.355469 L 1037.40625 79.355469 L 1037.40625 336.03125 L 746.9375 336.03125 Z M 746.9375 79.355469 L 932.0625 311.738281 C 932.0625 340.285156 908.921875 363.425781 880.375 363.425781 C 851.828125 363.425781 828.6875 340.285156 828.6875 311.738281 C 828.6875 283.191406 851.828125 260.050781 880.375 260.050781 C 908.921875 260.050781 932.0625 283.191406 932.0625 311.738281 Z M 746.9375 79.355469 "/>
</clipPath>
<clipPath id="clip-20">
<path clip-rule="evenodd" d="M 746.9375 79.355469 L 1037.40625 79.355469 L 1037.40625 336.03125 L 746.9375 336.03125 Z M 746.9375 79.355469 L 955.652344 103.644531 C 955.652344 132.191406 932.511719 155.332031 903.964844 155.332031 C 875.417969 155.332031 852.277344 132.191406 852.277344 103.644531 C 852.277344 75.097656 875.417969 51.957031 903.964844 51.957031 C 932.511719 51.957031 955.652344 75.097656 955.652344 103.644531 Z M 746.9375 79.355469 "/>
</clipPath>
<clipPath id="clip-21">
<path clip-rule="nonzero" d="M 869.679688 177.515625 L 1099.042969 177.515625 L 1099.042969 446.566406 L 869.679688 446.566406 Z M 869.679688 177.515625 "/>
</clipPath>
<clipPath id="clip-22">
<path clip-rule="evenodd" d="M 869.679688 177.515625 L 1099.042969 177.515625 L 1099.042969 446.566406 L 869.679688 446.566406 Z M 869.679688 177.515625 L 932.0625 311.738281 C 932.0625 340.285156 908.921875 363.425781 880.375 363.425781 C 851.828125 363.425781 828.6875 340.285156 828.6875 311.738281 C 828.6875 283.191406 851.828125 260.050781 880.375 260.050781 C 908.921875 260.050781 932.0625 283.191406 932.0625 311.738281 Z M 869.679688 177.515625 "/>
</clipPath>
<clipPath id="clip-23">
<path clip-rule="evenodd" d="M 869.679688 177.515625 L 1099.042969 177.515625 L 1099.042969 446.566406 L 869.679688 446.566406 Z M 869.679688 177.515625 L 1140.035156 312.339844 C 1140.035156 340.886719 1116.890625 364.027344 1088.34375 364.027344 C 1059.800781 364.027344 1036.65625 340.886719 1036.65625 312.339844 C 1036.65625 283.792969 1059.800781 260.652344 1088.34375 260.652344 C 1116.890625 260.652344 1140.035156 283.792969 1140.035156 312.339844 Z M 869.679688 177.515625 "/>
</clipPath>
<clipPath id="clip-24">
<path clip-rule="nonzero" d="M 184.316406 288.84375 L 484.402344 288.84375 L 484.402344 609.988281 L 184.316406 609.988281 Z M 184.316406 288.84375 "/>
</clipPath>
<clipPath id="clip-25">
<path clip-rule="evenodd" d="M 184.316406 288.84375 L 484.402344 288.84375 L 484.402344 609.988281 L 184.316406 609.988281 Z M 184.316406 288.84375 L 489.175781 417.546875 C 489.175781 446.089844 466.03125 469.234375 437.484375 469.234375 C 408.941406 469.234375 385.796875 446.089844 385.796875 417.546875 C 385.796875 389 408.941406 365.859375 437.484375 365.859375 C 466.03125 365.859375 489.175781 389 489.175781 417.546875 Z M 184.316406 288.84375 "/>
</clipPath>
<clipPath id="clip-26">
<path clip-rule="evenodd" d="M 184.316406 288.84375 L 484.402344 288.84375 L 484.402344 609.988281 L 184.316406 609.988281 Z M 184.316406 288.84375 L 282.917969 481.28125 C 282.917969 509.828125 259.773438 532.96875 231.230469 532.96875 C 202.683594 532.96875 179.542969 509.828125 179.542969 481.28125 C 179.542969 452.734375 202.683594 429.59375 231.230469 429.59375 C 259.773438 429.59375 282.917969 452.734375 282.917969 481.28125 Z M 184.316406 288.84375 "/>
</clipPath>
<clipPath id="clip-27">
<path clip-rule="nonzero" d="M 190.980469 164.667969 L 539.652344 164.667969 L 539.652344 511.046875 L 190.980469 511.046875 Z M 190.980469 164.667969 "/>
</clipPath>
<clipPath id="clip-28">
<path clip-rule="evenodd" d="M 190.980469 164.667969 L 539.652344 164.667969 L 539.652344 511.046875 L 190.980469 511.046875 Z M 190.980469 164.667969 L 489.175781 417.546875 C 489.175781 446.089844 466.03125 469.234375 437.484375 469.234375 C 408.941406 469.234375 385.796875 446.089844 385.796875 417.546875 C 385.796875 389 408.941406 365.859375 437.484375 365.859375 C 466.03125 365.859375 489.175781 389 489.175781 417.546875 Z M 190.980469 164.667969 "/>
</clipPath>
<clipPath id="clip-29">
<path clip-rule="evenodd" d="M 190.980469 164.667969 L 539.652344 164.667969 L 539.652344 511.046875 L 190.980469 511.046875 Z M 190.980469 164.667969 L 344.832031 258.164062 C 344.832031 286.710938 321.691406 309.851562 293.144531 309.851562 C 264.597656 309.851562 241.457031 286.710938 241.457031 258.164062 C 241.457031 229.617188 264.597656 206.476562 293.144531 206.476562 C 321.691406 206.476562 344.832031 229.617188 344.832031 258.164062 Z M 190.980469 164.667969 "/>
</clipPath>
<clipPath id="clip-30">
<path clip-rule="nonzero" d="M 3.664062 241.539062 L 339.226562 241.539062 L 339.226562 567.859375 L 3.664062 567.859375 Z M 3.664062 241.539062 "/>
</clipPath>
<clipPath id="clip-31">
<path clip-rule="evenodd" d="M 3.664062 241.539062 L 339.226562 241.539062 L 339.226562 567.859375 L 3.664062 567.859375 Z M 3.664062 241.539062 L 282.917969 481.28125 C 282.917969 509.828125 259.773438 532.96875 231.230469 532.96875 C 202.683594 532.96875 179.542969 509.828125 179.542969 481.28125 C 179.542969 452.734375 202.683594 429.59375 231.230469 429.59375 C 259.773438 429.59375 282.917969 452.734375 282.917969 481.28125 Z M 3.664062 241.539062 "/>
</clipPath>
<clipPath id="clip-32">
<path clip-rule="evenodd" d="M 3.664062 241.539062 L 339.226562 241.539062 L 339.226562 567.859375 L 3.664062 567.859375 Z M 3.664062 241.539062 L 163.34375 328.113281 C 163.34375 356.660156 140.199219 379.800781 111.65625 379.800781 C 83.109375 379.800781 59.964844 356.660156 59.964844 328.113281 C 59.964844 299.566406 83.109375 276.425781 111.65625 276.425781 C 140.199219 276.425781 163.34375 299.566406 163.34375 328.113281 Z M 3.664062 241.539062 "/>
</clipPath>
<clipPath id="clip-33">
<path clip-rule="nonzero" d="M 56.765625 132.226562 L 348.039062 132.226562 L 348.039062 454.054688 L 56.765625 454.054688 Z M 56.765625 132.226562 "/>
</clipPath>
<clipPath id="clip-34">
<path clip-rule="evenodd" d="M 56.765625 132.226562 L 348.039062 132.226562 L 348.039062 454.054688 L 56.765625 454.054688 Z M 56.765625 132.226562 L 163.34375 328.113281 C 163.34375 356.660156 140.199219 379.800781 111.65625 379.800781 C 83.109375 379.800781 59.964844 356.660156 59.964844 328.113281 C 59.964844 299.566406 83.109375 276.425781 111.65625 276.425781 C 140.199219 276.425781 163.34375 299.566406 163.34375 328.113281 Z M 56.765625 132.226562 "/>
</clipPath>
<clipPath id="clip-35">
<path clip-rule="evenodd" d="M 56.765625 132.226562 L 348.039062 132.226562 L 348.039062 454.054688 L 56.765625 454.054688 Z M 56.765625 132.226562 L 344.832031 258.164062 C 344.832031 286.710938 321.691406 309.851562 293.144531 309.851562 C 264.597656 309.851562 241.457031 286.710938 241.457031 258.164062 C 241.457031 229.617188 264.597656 206.476562 293.144531 206.476562 C 321.691406 206.476562 344.832031 229.617188 344.832031 258.164062 Z M 56.765625 132.226562 "/>
</clipPath>
</defs>
<g clip-path="url(#clip-0)">
<g clip-path="url(#clip-1)">
<g clip-path="url(#clip-2)">
<path fill="none" stroke-width="0.0834419" stroke-linecap="butt" stroke-linejoin="miter" stroke="rgb(12.156863%, 46.666667%, 70.588235%)" stroke-opacity="0.8" stroke-miterlimit="10" d="M 2.857023 6.414954 L 3.115477 4.75722 " transform="matrix(123.889024, 0, 0, 123.889024, 373.55399, 142.613135)"/>
</g>
</g>
</g>
<g clip-path="url(#clip-3)">
<g clip-path="url(#clip-4)">
<g clip-path="url(#clip-5)">
<path fill="none" stroke-width="0.0834419" stroke-linecap="butt" stroke-linejoin="miter" stroke="rgb(12.156863%, 46.666667%, 70.588235%)" stroke-opacity="0.8" stroke-miterlimit="10" d="M 2.857023 6.414954 L 4.192297 6.03473 " transform="matrix(123.889024, 0, 0, 123.889024, 373.55399, 142.613135)"/>
</g>
</g>
</g>
<g clip-path="url(#clip-6)">
<g clip-path="url(#clip-7)">
<g clip-path="url(#clip-8)">
<path fill="none" stroke-width="0.0834419" stroke-linecap="butt" stroke-linejoin="miter" stroke="rgb(12.156863%, 46.666667%, 70.588235%)" stroke-opacity="0.8" stroke-miterlimit="10" d="M 3.115477 4.75722 L 4.192297 6.03473 " transform="matrix(123.889024, 0, 0, 123.889024, 373.55399, 142.613135)"/>
</g>
</g>
</g>
<g clip-path="url(#clip-9)">
<g clip-path="url(#clip-10)">
<g clip-path="url(#clip-11)">
<path fill="none" stroke-width="0.0834419" stroke-linecap="butt" stroke-linejoin="miter" stroke="rgb(12.156863%, 46.666667%, 70.588235%)" stroke-opacity="0.8" stroke-miterlimit="10" d="M 3.115477 4.75722 L 2.563761 2.776207 " transform="matrix(123.889024, 0, 0, 123.889024, 373.55399, 142.613135)"/>
</g>
</g>
</g>
<g clip-path="url(#clip-12)">
<g clip-path="url(#clip-13)">
<g clip-path="url(#clip-14)">
<path fill="none" stroke-width="0.0834419" stroke-linecap="butt" stroke-linejoin="miter" stroke="rgb(12.156863%, 46.666667%, 70.588235%)" stroke-opacity="0.8" stroke-miterlimit="10" d="M 2.563761 2.776207 L 4.090927 1.365134 " transform="matrix(123.889024, 0, 0, 123.889024, 373.55399, 142.613135)"/>
</g>
</g>
</g>
<g clip-path="url(#clip-15)">
<g clip-path="url(#clip-16)">
<g clip-path="url(#clip-17)">
<path fill="none" stroke-width="0.0834419" stroke-linecap="butt" stroke-linejoin="miter" stroke="rgb(12.156863%, 46.666667%, 70.588235%)" stroke-opacity="0.8" stroke-miterlimit="10" d="M 2.563761 2.776207 L 0.516029 2.219194 " transform="matrix(123.889024, 0, 0, 123.889024, 373.55399, 142.613135)"/>
</g>
</g>
</g>
<g clip-path="url(#clip-18)">
<g clip-path="url(#clip-19)">
<g clip-path="url(#clip-20)">
<path fill="none" stroke-width="0.0834419" stroke-linecap="butt" stroke-linejoin="miter" stroke="rgb(12.156863%, 46.666667%, 70.588235%)" stroke-opacity="0.8" stroke-miterlimit="10" d="M 4.090927 1.365134 L 4.281339 -0.314544 " transform="matrix(123.889024, 0, 0, 123.889024, 373.55399, 142.613135)"/>
</g>
</g>
</g>
<g clip-path="url(#clip-21)">
<g clip-path="url(#clip-22)">
<g clip-path="url(#clip-23)">
<path fill="none" stroke-width="0.0834419" stroke-linecap="butt" stroke-linejoin="miter" stroke="rgb(12.156863%, 46.666667%, 70.588235%)" stroke-opacity="0.8" stroke-miterlimit="10" d="M 4.090927 1.365134 L 5.769597 1.36999 " transform="matrix(123.889024, 0, 0, 123.889024, 373.55399, 142.613135)"/>
</g>
</g>
</g>
<g clip-path="url(#clip-24)">
<g clip-path="url(#clip-25)">
<g clip-path="url(#clip-26)">
<path fill="none" stroke-width="0.0834419" stroke-linecap="butt" stroke-linejoin="miter" stroke="rgb(12.156863%, 46.666667%, 70.588235%)" stroke-opacity="0.8" stroke-miterlimit="10" d="M 0.516029 2.219194 L -1.148798 2.733641 " transform="matrix(123.889024, 0, 0, 123.889024, 373.55399, 142.613135)"/>
</g>
</g>
</g>
<g clip-path="url(#clip-27)">
<g clip-path="url(#clip-28)">
<g clip-path="url(#clip-29)">
<path fill="none" stroke-width="0.0834419" stroke-linecap="butt" stroke-linejoin="miter" stroke="rgb(12.156863%, 46.666667%, 70.588235%)" stroke-opacity="0.8" stroke-miterlimit="10" d="M 0.516029 2.219194 L -0.649044 0.932697 " transform="matrix(123.889024, 0, 0, 123.889024, 373.55399, 142.613135)"/>
</g>
</g>
</g>
<g clip-path="url(#clip-30)">
<g clip-path="url(#clip-31)">
<g clip-path="url(#clip-32)">
<path fill="none" stroke-width="0.0834419" stroke-linecap="butt" stroke-linejoin="miter" stroke="rgb(12.156863%, 46.666667%, 70.588235%)" stroke-opacity="0.8" stroke-miterlimit="10" d="M -1.148798 2.733641 L -2.11397 1.497309 " transform="matrix(123.889024, 0, 0, 123.889024, 373.55399, 142.613135)"/>
</g>
</g>
</g>
<g clip-path="url(#clip-33)">
<g clip-path="url(#clip-34)">
<g clip-path="url(#clip-35)">
<path fill="none" stroke-width="0.0834419" stroke-linecap="butt" stroke-linejoin="miter" stroke="rgb(12.156863%, 46.666667%, 70.588235%)" stroke-opacity="0.8" stroke-miterlimit="10" d="M -2.11397 1.497309 L -0.649044 0.932697 " transform="matrix(123.889024, 0, 0, 123.889024, 373.55399, 142.613135)"/>
</g>
</g>
</g>
<path fill-rule="nonzero" fill="rgb(12.156863%, 46.666667%, 70.588235%)" fill-opacity="1" stroke-width="0.0834419" stroke-linecap="butt" stroke-linejoin="miter" stroke="rgb(12.156863%, 46.666667%, 70.588235%)" stroke-opacity="1" stroke-miterlimit="10" d="M 0.417217 0.0000016819 C 0.417217 0.230425 0.230432 0.41721 0.0000088149 0.41721 C -0.230414 0.41721 -0.417199 0.230425 -0.417199 0.0000016819 C -0.417199 -0.230421 -0.230414 -0.417206 0.0000088149 -0.417206 C 0.230432 -0.417206 0.417217 -0.230421 0.417217 0.0000016819 Z M 0.417217 0.0000016819 " transform="matrix(123.889024, 0, 0, 123.889024, 727.50672, 937.35526)"/>
<path fill-rule="nonzero" fill="rgb(12.156863%, 46.666667%, 70.588235%)" fill-opacity="1" stroke-width="0.0834419" stroke-linecap="butt" stroke-linejoin="miter" stroke="rgb(12.156863%, 46.666667%, 70.588235%)" stroke-opacity="1" stroke-miterlimit="10" d="M 0.417216 0.00000468755 C 0.417216 0.230428 0.230431 0.417213 0.00000773441 0.417213 C -0.230415 0.417213 -0.4172 0.230428 -0.4172 0.00000468755 C -0.4172 -0.230418 -0.230415 -0.417203 0.00000773441 -0.417203 C 0.230431 -0.417203 0.417216 -0.230418 0.417216 0.00000468755 Z M 0.417216 0.00000468755 " transform="matrix(123.889024, 0, 0, 123.889024, 759.526386, 731.979888)"/>
<path fill-rule="nonzero" fill="rgb(12.156863%, 46.666667%, 70.588235%)" fill-opacity="1" stroke-width="0.0834419" stroke-linecap="butt" stroke-linejoin="miter" stroke="rgb(12.156863%, 46.666667%, 70.588235%)" stroke-opacity="1" stroke-miterlimit="10" d="M 0.417214 -0.00000810558 C 0.417214 0.230415 0.230429 0.4172 0.00000601418 0.4172 C -0.230417 0.4172 -0.417202 0.230415 -0.417202 -0.00000810558 C -0.417202 -0.230431 -0.230417 -0.417216 0.00000601418 -0.417216 C 0.230429 -0.417216 0.417214 -0.230431 0.417214 -0.00000810558 Z M 0.417214 -0.00000810558 " transform="matrix(123.889024, 0, 0, 123.889024, 892.932849, 890.251004)"/>
<path fill-rule="nonzero" fill="rgb(12.156863%, 46.666667%, 70.588235%)" fill-opacity="1" stroke-width="0.0834419" stroke-linecap="butt" stroke-linejoin="miter" stroke="rgb(12.156863%, 46.666667%, 70.588235%)" stroke-opacity="1" stroke-miterlimit="10" d="M 0.417206 -0.00000975195 C 0.417206 0.230413 0.230421 0.417198 -0.00000190696 0.417198 C -0.230425 0.417198 -0.41721 0.230413 -0.41721 -0.00000975195 C -0.41721 -0.230433 -0.230425 -0.417218 -0.00000190696 -0.417218 C 0.230421 -0.417218 0.417206 -0.230433 0.417206 -0.00000975195 Z M 0.417206 -0.00000975195 " transform="matrix(123.889024, 0, 0, 123.889024, 691.176018, 486.555896)"/>
<path fill-rule="nonzero" fill="rgb(12.156863%, 46.666667%, 70.588235%)" fill-opacity="1" stroke-width="0.0834419" stroke-linecap="butt" stroke-linejoin="miter" stroke="rgb(12.156863%, 46.666667%, 70.588235%)" stroke-opacity="1" stroke-miterlimit="10" d="M 0.417201 -0.00000367232 C 0.417201 0.230419 0.230416 0.417204 -0.00000723351 0.417204 C -0.23043 0.417204 -0.417215 0.230419 -0.417215 -0.00000367232 C -0.417215 -0.230427 -0.23043 -0.417212 -0.00000723351 -0.417212 C 0.230416 -0.417212 0.417201 -0.230427 0.417201 -0.00000367232 Z M 0.417201 -0.00000367232 " transform="matrix(123.889024, 0, 0, 123.889024, 880.375896, 311.738736)"/>
<path fill-rule="nonzero" fill="rgb(12.156863%, 46.666667%, 70.588235%)" fill-opacity="1" stroke-width="0.0834419" stroke-linecap="butt" stroke-linejoin="miter" stroke="rgb(12.156863%, 46.666667%, 70.588235%)" stroke-opacity="1" stroke-miterlimit="10" d="M 0.417216 -0.0000016819 C 0.417216 0.230421 0.230431 0.417206 0.00000833151 0.417206 C -0.230415 0.417206 -0.4172 0.230421 -0.4172 -0.0000016819 C -0.4172 -0.230425 -0.230415 -0.41721 0.00000833151 -0.41721 C 0.230431 -0.41721 0.417216 -0.230425 0.417216 -0.0000016819 Z M 0.417216 -0.0000016819 " transform="matrix(123.889024, 0, 0, 123.889024, 903.963812, 103.64474)"/>
<path fill-rule="nonzero" fill="rgb(12.156863%, 46.666667%, 70.588235%)" fill-opacity="1" stroke-width="0.0834419" stroke-linecap="butt" stroke-linejoin="miter" stroke="rgb(12.156863%, 46.666667%, 70.588235%)" stroke-opacity="1" stroke-miterlimit="10" d="M 0.417225 -0.00000010162 C 0.417225 0.230423 0.230408 0.417208 -0.0000146086 0.417208 C -0.230406 0.417208 -0.417223 0.230423 -0.417223 -0.00000010162 C -0.417223 -0.230423 -0.230406 -0.417208 -0.0000146086 -0.417208 C 0.230408 -0.417208 0.417225 -0.230423 0.417225 -0.00000010162 Z M 0.417225 -0.00000010162 " transform="matrix(123.889024, 0, 0, 123.889024, 1088.34556, 312.339856)"/>
<path fill-rule="nonzero" fill="rgb(12.156863%, 46.666667%, 70.588235%)" fill-opacity="1" stroke-width="0.0834419" stroke-linecap="butt" stroke-linejoin="miter" stroke="rgb(12.156863%, 46.666667%, 70.588235%)" stroke-opacity="1" stroke-miterlimit="10" d="M 0.417224 0.0000129426 C 0.417224 0.230404 0.230408 0.417221 -0.0000151525 0.417221 C -0.230407 0.417221 -0.417223 0.230404 -0.417223 0.0000129426 C -0.417223 -0.23041 -0.230407 -0.417195 -0.0000151525 -0.417195 C 0.230408 -0.417195 0.417224 -0.23041 0.417224 0.0000129426 Z M 0.417224 0.0000129426 " transform="matrix(123.889024, 0, 0, 123.889024, 437.486252, 417.545272)"/>
<path fill-rule="nonzero" fill="rgb(12.156863%, 46.666667%, 70.588235%)" fill-opacity="1" stroke-width="0.0834419" stroke-linecap="butt" stroke-linejoin="miter" stroke="rgb(12.156863%, 46.666667%, 70.588235%)" stroke-opacity="1" stroke-miterlimit="10" d="M 0.417221 -0.00000533133 C 0.417221 0.230418 0.230405 0.417203 0.0000134208 0.417203 C -0.23041 0.417203 -0.417195 0.230418 -0.417195 -0.00000533133 C -0.417195 -0.230428 -0.23041 -0.417213 0.0000134208 -0.417213 C 0.230405 -0.417213 0.417221 -0.230428 0.417221 -0.00000533133 Z M 0.417221 -0.00000533133 " transform="matrix(123.889024, 0, 0, 123.889024, 231.228806, 481.28191)"/>
<path fill-rule="nonzero" fill="rgb(12.156863%, 46.666667%, 70.588235%)" fill-opacity="1" stroke-width="0.0834419" stroke-linecap="butt" stroke-linejoin="miter" stroke="rgb(12.156863%, 46.666667%, 70.588235%)" stroke-opacity="1" stroke-miterlimit="10" d="M 0.417223 0.00000728589 C 0.417223 0.23043 0.230406 0.417215 0.0000146086 0.417215 C -0.230408 0.417215 -0.417225 0.23043 -0.417225 0.00000728589 C -0.417225 -0.230416 -0.230408 -0.417201 0.0000146086 -0.417201 C 0.230406 -0.417201 0.417223 -0.230416 0.417223 0.00000728589 Z M 0.417223 0.00000728589 " transform="matrix(123.889024, 0, 0, 123.889024, 111.65444, 328.112379)"/>
<path fill-rule="nonzero" fill="rgb(12.156863%, 46.666667%, 70.588235%)" fill-opacity="1" stroke-width="0.0834419" stroke-linecap="butt" stroke-linejoin="miter" stroke="rgb(12.156863%, 46.666667%, 70.588235%)" stroke-opacity="1" stroke-miterlimit="10" d="M 0.417215 -0.00000365959 C 0.417215 0.230419 0.23043 0.417204 0.00000734947 0.417204 C -0.230416 0.417204 -0.417201 0.230419 -0.417201 -0.00000365959 C -0.417201 -0.230427 -0.230416 -0.417212 0.00000734947 -0.417212 C 0.23043 -0.417212 0.417215 -0.230427 0.417215 -0.00000365959 Z M 0.417215 -0.00000365959 " transform="matrix(123.889024, 0, 0, 123.889024, 293.143621, 258.164516)"/>
</svg>
