<?xml version="1.0" encoding="UTF-8"?>
<svg xmlns="http://www.w3.org/2000/svg" xmlns:xlink="http://www.w3.org/1999/xlink" width="1007" height="1200" viewBox="0 0 1007 1200">
<defs>
<clipPath id="clip-0">
<path clip-rule="nonzero" d="M 633.476562 292.902344 L 953.457031 292.902344 L 953.457031 616.363281 L 633.476562 616.363281 Z M 633.476562 292.902344 "/>
</clipPath>
<clipPath id="clip-1">
<path clip-rule="evenodd" d="M 633.476562 292.902344 L 953.457031 292.902344 L 953.457031 616.363281 L 633.476562 616.363281 Z M 633.476562 292.902344 L 933.691406 396.796875 C 933.691406 425.34375 910.550781 448.484375 882.003906 448.484375 C 853.457031 448.484375 830.316406 425.34375 830.316406 396.796875 C 830.316406 368.25 853.457031 345.109375 882.003906 345.109375 C 910.550781 345.109375 933.691406 368.25 933.691406 396.796875 Z M 633.476562 292.902344 "/>
</clipPath>
<clipPath id="clip-2">
<path clip-rule="evenodd" d="M 633.476562 292.902344 L 953.457031 292.902344 L 953.457031 616.363281 L 633.476562 616.363281 Z M 633.476562 292.902344 L 756.613281 512.464844 C 756.613281 541.011719 733.472656 564.152344 704.925781 564.152344 C 676.378906 564.152344 653.238281 541.011719 653.238281 512.464844 C 653.238281 483.917969 676.378906 460.777344 704.925781 460.777344 C 733.472656 460.777344 756.613281 483.917969 756.613281 512.464844 Z M 633.476562 292.902344 "/>
</clipPath>
<clipPath id="clip-3">
<path clip-rule="nonzero" d="M 760.890625 371.769531 L 1007 371.769531 L 1007 594.480469 L 760.890625 594.480469 Z M 760.890625 371.769531 "/>
</clipPath>
<clipPath id="clip-4">
<path clip-rule="evenodd" d="M 760.890625 371.769531 L 1026.015625 371.769531 L 1026.015625 594.480469 L 760.890625 594.480469 Z M 760.890625 371.769531 L 933.691406 396.796875 C 933.691406 425.34375 910.550781 448.484375 882.003906 448.484375 C 853.457031 448.484375 830.316406 425.34375 830.316406 396.796875 C 830.316406 368.25 853.457031 345.109375 882.003906 345.109375 C 910.550781 345.109375 933.691406 368.25 933.691406 396.796875 Z M 760.890625 371.769531 "/>
</clipPath>
<clipPath id="clip-5">
<path clip-rule="evenodd" d="M 760.890625 371.769531 L 1026.015625 371.769531 L 1026.015625 594.480469 L 760.890625 594.480469 Z M 760.890625 371.769531 L 956.585938 569.449219 C 956.585938 597.996094 933.445312 621.136719 904.898438 621.136719 C 876.355469 621.136719 853.210938 597.996094 853.210938 569.449219 C 853.210938 540.902344 876.355469 517.761719 904.898438 517.761719 C 933.445312 517.761719 956.585938 540.902344 956.585938 569.449219 Z M 760.890625 371.769531 "/>
</clipPath>
<clipPath id="clip-6">
<path clip-rule="nonzero" d="M 663.964844 394.660156 L 945.863281 394.660156 L 945.863281 687.257812 L 663.964844 687.257812 Z M 663.964844 394.660156 "/>
</clipPath>
<clipPath id="clip-7">
<path clip-rule="evenodd" d="M 663.964844 394.660156 L 945.863281 394.660156 L 945.863281 687.257812 L 663.964844 687.257812 Z M 663.964844 394.660156 L 756.613281 512.464844 C 756.613281 541.011719 733.472656 564.152344 704.925781 564.152344 C 676.378906 564.152344 653.238281 541.011719 653.238281 512.464844 C 653.238281 483.917969 676.378906 460.777344 704.925781 460.777344 C 733.472656 460.777344 756.613281 483.917969 756.613281 512.464844 Z M 663.964844 394.660156 "/>
</clipPath>
<clipPath id="clip-8">
<path clip-rule="evenodd" d="M 663.964844 394.660156 L 945.863281 394.660156 L 945.863281 687.257812 L 663.964844 687.257812 Z M 663.964844 394.660156 L 956.585938 569.449219 C 956.585938 597.996094 933.445312 621.136719 904.898438 621.136719 C 876.355469 621.136719 853.210938 597.996094 853.210938 569.449219 C 853.210938 540.902344 876.355469 517.761719 904.898438 517.761719 C 933.445312 517.761719 956.585938 540.902344 956.585938 569.449219 Z M 663.964844 394.660156 "/>
</clipPath>
<clipPath id="clip-9">
<path clip-rule="nonzero" d="M 419.210938 391.410156 L 730.402344 391.410156 L 730.402344 669.105469 L 419.210938 669.105469 Z M 419.210938 391.410156 "/>
</clipPath>
<clipPath id="clip-10">
<path clip-rule="evenodd" d="M 419.210938 391.410156 L 730.402344 391.410156 L 730.402344 669.105469 L 419.210938 669.105469 Z M 419.210938 391.410156 L 756.613281 512.464844 C 756.613281 541.011719 733.472656 564.152344 704.925781 564.152344 C 676.378906 564.152344 653.238281 541.011719 653.238281 512.464844 C 653.238281 483.917969 676.378906 460.777344 704.925781 460.777344 C 733.472656 460.777344 756.613281 483.917969 756.613281 512.464844 Z M 419.210938 391.410156 "/>
</clipPath>
<clipPath id="clip-11">
<path clip-rule="evenodd" d="M 419.210938 391.410156 L 730.402344 391.410156 L 730.402344 669.105469 L 419.210938 669.105469 Z M 419.210938 391.410156 L 496.371094 548.046875 C 496.371094 576.589844 473.230469 599.734375 444.683594 599.734375 C 416.136719 599.734375 392.996094 576.589844 392.996094 548.046875 C 392.996094 519.5 416.136719 496.355469 444.683594 496.355469 C 473.230469 496.355469 496.371094 519.5 496.371094 548.046875 Z M 419.210938 391.410156 "/>
</clipPath>
<clipPath id="clip-12">
<path clip-rule="nonzero" d="M 203.796875 257.765625 L 550.460938 257.765625 L 550.460938 616.519531 L 203.796875 616.519531 Z M 203.796875 257.765625 "/>
</clipPath>
<clipPath id="clip-13">
<path clip-rule="evenodd" d="M 203.796875 257.765625 L 550.460938 257.765625 L 550.460938 616.519531 L 203.796875 616.519531 Z M 203.796875 257.765625 L 496.371094 548.046875 C 496.371094 576.589844 473.230469 599.734375 444.683594 599.734375 C 416.136719 599.734375 392.996094 576.589844 392.996094 548.046875 C 392.996094 519.5 416.136719 496.355469 444.683594 496.355469 C 473.230469 496.355469 496.371094 519.5 496.371094 548.046875 Z M 203.796875 257.765625 "/>
</clipPath>
<clipPath id="clip-14">
<path clip-rule="evenodd" d="M 203.796875 257.765625 L 550.460938 257.765625 L 550.460938 616.519531 L 203.796875 616.519531 Z M 203.796875 257.765625 L 361.257812 326.234375 C 361.257812 354.78125 338.113281 377.921875 309.570312 377.921875 C 281.023438 377.921875 257.882812 354.78125 257.882812 326.234375 C 257.882812 297.6875 281.023438 274.546875 309.570312 274.546875 C 338.113281 274.546875 361.257812 297.6875 361.257812 326.234375 Z M 203.796875 257.765625 "/>
</clipPath>
<clipPath id="clip-15">
<path clip-rule="nonzero" d="M 207.355469 485.316406 L 553.726562 485.316406 L 553.726562 852.457031 L 207.355469 852.457031 Z M 207.355469 485.316406 "/>
</clipPath>
<clipPath id="clip-16">
<path clip-rule="evenodd" d="M 207.355469 485.316406 L 553.726562 485.316406 L 553.726562 852.457031 L 207.355469 852.457031 Z M 207.355469 485.316406 L 496.371094 548.046875 C 496.371094 576.589844 473.230469 599.734375 444.683594 599.734375 C 416.136719 599.734375 392.996094 576.589844 392.996094 548.046875 C 392.996094 519.5 416.136719 496.355469 444.683594 496.355469 C 473.230469 496.355469 496.371094 519.5 496.371094 548.046875 Z M 207.355469 485.316406 "/>
</clipPath>
<clipPath id="clip-17">
<path clip-rule="evenodd" d="M 207.355469 485.316406 L 553.726562 485.316406 L 553.726562 852.457031 L 207.355469 852.457031 Z M 207.355469 485.316406 L 368.082031 789.722656 C 368.082031 818.269531 344.941406 841.410156 316.394531 841.410156 C 287.847656 841.410156 264.707031 818.269531 264.707031 789.722656 C 264.707031 761.179688 287.847656 738.035156 316.394531 738.035156 C 344.941406 738.035156 368.082031 761.179688 368.082031 789.722656 Z M 207.355469 485.316406 "/>
</clipPath>
<linearGradient id="linear-pattern-0" gradientUnits="userSpaceOnUse" x1="4.785418" y1="3.296134" x2="3.6374" y2="5.458855">
<stop offset="0" stop-color="rgb(12.156863%, 46.666667%, 70.588235%)" stop-opacity="0.8"/>
<stop offset="1" stop-color="rgb(68.235294%, 78.039216%, 90.980392%)" stop-opacity="0.8"/>
</linearGradient>
<clipPath id="clip-18">
<path clip-rule="nonzero" d="M 55.667969 139.328125 L 356.007812 139.328125 L 356.007812 442.332031 L 55.667969 442.332031 Z M 55.667969 139.328125 "/>
</clipPath>
<clipPath id="clip-19">
<path clip-rule="evenodd" d="M 55.667969 139.328125 L 356.007812 139.328125 L 356.007812 442.332031 L 55.667969 442.332031 Z M 55.667969 139.328125 L 361.257812 326.234375 C 361.257812 354.78125 338.113281 377.921875 309.570312 377.921875 C 281.023438 377.921875 257.882812 354.78125 257.882812 326.234375 C 257.882812 297.6875 281.023438 274.546875 309.570312 274.546875 C 338.113281 274.546875 361.257812 297.6875 361.257812 326.234375 Z M 55.667969 139.328125 "/>
</clipPath>
<clipPath id="clip-20">
<path clip-rule="evenodd" d="M 55.667969 139.328125 L 356.007812 139.328125 L 356.007812 442.332031 L 55.667969 442.332031 Z M 55.667969 139.328125 L 153.789062 255.421875 C 153.789062 283.96875 130.644531 307.109375 102.101562 307.109375 C 73.554688 307.109375 50.414062 283.96875 50.414062 255.421875 C 50.414062 226.875 73.554688 203.734375 102.101562 203.734375 C 130.644531 203.734375 153.789062 226.875 153.789062 255.421875 Z M 55.667969 139.328125 "/>
</clipPath>
<clipPath id="clip-21">
<path clip-rule="nonzero" d="M 189.421875 80.535156 L 470.195312 80.535156 L 470.195312 357.277344 L 189.421875 357.277344 Z M 189.421875 80.535156 "/>
</clipPath>
<clipPath id="clip-22">
<path clip-rule="evenodd" d="M 189.421875 80.535156 L 470.195312 80.535156 L 470.195312 357.277344 L 189.421875 357.277344 Z M 189.421875 80.535156 L 361.257812 326.234375 C 361.257812 354.78125 338.113281 377.921875 309.570312 377.921875 C 281.023438 377.921875 257.882812 354.78125 257.882812 326.234375 C 257.882812 297.6875 281.023438 274.546875 309.570312 274.546875 C 338.113281 274.546875 361.257812 297.6875 361.257812 326.234375 Z M 189.421875 80.535156 "/>
</clipPath>
<clipPath id="clip-23">
<path clip-rule="evenodd" d="M 189.421875 80.535156 L 470.195312 80.535156 L 470.195312 357.277344 L 189.421875 357.277344 Z M 189.421875 80.535156 L 401.730469 111.574219 C 401.730469 140.121094 378.589844 163.261719 350.042969 163.261719 C 321.496094 163.261719 298.355469 140.121094 298.355469 111.574219 C 298.355469 83.027344 321.496094 59.886719 350.042969 59.886719 C 378.589844 59.886719 401.730469 83.027344 401.730469 111.574219 Z M 189.421875 80.535156 "/>
</clipPath>
<clipPath id="clip-24">
<path clip-rule="nonzero" d="M 194.3125 779.082031 L 439.089844 779.082031 L 439.089844 1024.222656 L 194.3125 1024.222656 Z M 194.3125 779.082031 "/>
</clipPath>
<clipPath id="clip-25">
<path clip-rule="evenodd" d="M 194.3125 779.082031 L 439.089844 779.082031 L 439.089844 1024.222656 L 194.3125 1024.222656 Z M 194.3125 779.082031 L 368.082031 789.722656 C 368.082031 818.269531 344.941406 841.410156 316.394531 841.410156 C 287.847656 841.410156 264.707031 818.269531 264.707031 789.722656 C 264.707031 761.179688 287.847656 738.035156 316.394531 738.035156 C 344.941406 738.035156 368.082031 761.179688 368.082031 789.722656 Z M 194.3125 779.082031 "/>
</clipPath>
<clipPath id="clip-26">
<path clip-rule="evenodd" d="M 194.3125 779.082031 L 439.089844 779.082031 L 439.089844 1024.222656 L 194.3125 1024.222656 Z M 194.3125 779.082031 L 368.691406 1013.578125 C 368.691406 1042.125 345.550781 1065.265625 317.003906 1065.265625 C 288.457031 1065.265625 265.316406 1042.125 265.316406 1013.578125 C 265.316406 985.03125 288.457031 961.890625 317.003906 961.890625 C 345.550781 961.890625 368.691406 985.03125 368.691406 1013.578125 Z M 194.3125 779.082031 "/>
</clipPath>
<clipPath id="clip-27">
<path clip-rule="nonzero" d="M 60.746094 679.976562 L 377.773438 679.976562 L 377.773438 999.210938 L 60.746094 999.210938 Z M 60.746094 679.976562 "/>
</clipPath>
<clipPath id="clip-28">
<path clip-rule="evenodd" d="M 60.746094 679.976562 L 377.773438 679.976562 L 377.773438 999.210938 L 60.746094 999.210938 Z M 60.746094 679.976562 L 368.082031 789.722656 C 368.082031 818.269531 344.941406 841.410156 316.394531 841.410156 C 287.847656 841.410156 264.707031 818.269531 264.707031 789.722656 C 264.707031 761.179688 287.847656 738.035156 316.394531 738.035156 C 344.941406 738.035156 368.082031 761.179688 368.082031 789.722656 Z M 60.746094 679.976562 "/>
</clipPath>
<clipPath id="clip-29">
<path clip-rule="evenodd" d="M 60.746094 679.976562 L 377.773438 679.976562 L 377.773438 999.210938 L 60.746094 999.210938 Z M 60.746094 679.976562 L 173.808594 889.460938 C 173.808594 918.007812 150.667969 941.148438 122.121094 941.148438 C 93.574219 941.148438 70.433594 918.007812 70.433594 889.460938 C 70.433594 860.914062 93.574219 837.773438 122.121094 837.773438 C 150.667969 837.773438 173.808594 860.914062 173.808594 889.460938 Z M 60.746094 679.976562 "/>
</clipPath>
<clipPath id="clip-30">
<path clip-rule="nonzero" d="M 80.492188 899.722656 L 369.433594 899.722656 L 369.433594 1200 L 80.492188 1200 Z M 80.492188 899.722656 "/>
</clipPath>
<clipPath id="clip-31">
<path clip-rule="evenodd" d="M 80.492188 899.722656 L 369.433594 899.722656 L 369.433594 1202.285156 L 80.492188 1202.285156 Z M 80.492188 899.722656 L 368.691406 1013.578125 C 368.691406 1042.125 345.550781 1065.265625 317.003906 1065.265625 C 288.457031 1065.265625 265.316406 1042.125 265.316406 1013.578125 C 265.316406 985.03125 288.457031 961.890625 317.003906 961.890625 C 345.550781 961.890625 368.691406 985.03125 368.691406 1013.578125 Z M 80.492188 899.722656 "/>
</clipPath>
<clipPath id="clip-32">
<path clip-rule="evenodd" d="M 80.492188 899.722656 L 369.433594 899.722656 L 369.433594 1202.285156 L 80.492188 1202.285156 Z M 80.492188 899.722656 L 184.605469 1088.425781 C 184.605469 1116.972656 161.464844 1140.113281 132.917969 1140.113281 C 104.371094 1140.113281 81.230469 1116.972656 81.230469 1088.425781 C 81.230469 1059.878906 104.371094 1036.738281 132.917969 1036.738281 C 161.464844 1036.738281 184.605469 1059.878906 184.605469 1088.425781 Z M 80.492188 899.722656 "/>
</clipPath>
<clipPath id="clip-33">
<path clip-rule="nonzero" d="M 0.203125 873.070312 L 254.839844 873.070312 L 254.839844 1104.820312 L 0.203125 1104.820312 Z M 0.203125 873.070312 "/>
</clipPath>
<clipPath id="clip-34">
<path clip-rule="evenodd" d="M 0.203125 873.070312 L 254.839844 873.070312 L 254.839844 1104.820312 L 0.203125 1104.820312 Z M 0.203125 873.070312 L 184.605469 1088.425781 C 184.605469 1116.972656 161.464844 1140.113281 132.917969 1140.113281 C 104.371094 1140.113281 81.230469 1116.972656 81.230469 1088.425781 C 81.230469 1059.878906 104.371094 1036.738281 132.917969 1036.738281 C 161.464844 1036.738281 184.605469 1059.878906 184.605469 1088.425781 Z M 0.203125 873.070312 "/>
</clipPath>
<clipPath id="clip-35">
<path clip-rule="evenodd" d="M 0.203125 873.070312 L 254.839844 873.070312 L 254.839844 1104.820312 L 0.203125 1104.820312 Z M 0.203125 873.070312 L 173.808594 889.460938 C 173.808594 918.007812 150.667969 941.148438 122.121094 941.148438 C 93.574219 941.148438 70.433594 918.007812 70.433594 889.460938 C 70.433594 860.914062 93.574219 837.773438 122.121094 837.773438 C 150.667969 837.773438 173.808594 860.914062 173.808594 889.460938 Z M 0.203125 873.070312 "/>
</clipPath>
</defs>
<g clip-path="url(#clip-0)">
<g clip-path="url(#clip-1)">
<g clip-path="url(#clip-2)">
<path fill="none" stroke-width="0.0925078" stroke-linecap="butt" stroke-linejoin="miter" stroke="rgb(12.156863%, 46.666667%, 70.588235%)" stroke-opacity="0.8" stroke-miterlimit="10" d="M 8.698875 1.942656 L 7.114251 2.977737 " transform="matrix(111.747729, 0, 0, 111.747729, -90.075597, 179.709519)"/>
</g>
</g>
</g>
<g clip-path="url(#clip-3)">
<g clip-path="url(#clip-4)">
<g clip-path="url(#clip-5)">
<path fill="none" stroke-width="0.0925078" stroke-linecap="butt" stroke-linejoin="miter" stroke="rgb(12.156863%, 46.666667%, 70.588235%)" stroke-opacity="0.8" stroke-miterlimit="10" d="M 8.698875 1.942656 L 8.903752 3.487674 " transform="matrix(111.747729, 0, 0, 111.747729, -90.075597, 179.709519)"/>
</g>
</g>
</g>
<g clip-path="url(#clip-6)">
<g clip-path="url(#clip-7)">
<g clip-path="url(#clip-8)">
<path fill="none" stroke-width="0.0925078" stroke-linecap="butt" stroke-linejoin="miter" stroke="rgb(12.156863%, 46.666667%, 70.588235%)" stroke-opacity="0.8" stroke-miterlimit="10" d="M 7.114251 2.977737 L 8.903752 3.487674 " transform="matrix(111.747729, 0, 0, 111.747729, -90.075597, 179.709519)"/>
</g>
</g>
</g>
<g clip-path="url(#clip-9)">
<g clip-path="url(#clip-10)">
<g clip-path="url(#clip-11)">
<path fill="none" stroke-width="0.0925078" stroke-linecap="butt" stroke-linejoin="miter" stroke="rgb(12.156863%, 46.666667%, 70.588235%)" stroke-opacity="0.8" stroke-miterlimit="10" d="M 7.114251 2.977737 L 4.785414 3.296151 " transform="matrix(111.747729, 0, 0, 111.747729, -90.075597, 179.709519)"/>
</g>
</g>
</g>
<g clip-path="url(#clip-12)">
<g clip-path="url(#clip-13)">
<g clip-path="url(#clip-14)">
<path fill="none" stroke-width="0.0925078" stroke-linecap="butt" stroke-linejoin="miter" stroke="rgb(12.156863%, 46.666667%, 70.588235%)" stroke-opacity="0.8" stroke-miterlimit="10" d="M 4.785414 3.296151 L 3.576322 1.311211 " transform="matrix(111.747729, 0, 0, 111.747729, -90.075597, 179.709519)"/>
</g>
</g>
</g>
<g clip-path="url(#clip-15)">
<g clip-path="url(#clip-16)">
<g clip-path="url(#clip-17)">
<path fill="none" stroke-width="0.0925078" stroke-linecap="butt" stroke-linejoin="miter" stroke="url(#linear-pattern-0)" stroke-miterlimit="10" d="M 4.785414 3.296151 L 3.637391 5.458841 " transform="matrix(111.747729, 0, 0, 111.747729, -90.075597, 179.709519)"/>
</g>
</g>
</g>
<g clip-path="url(#clip-18)">
<g clip-path="url(#clip-19)">
<g clip-path="url(#clip-20)">
<path fill="none" stroke-width="0.0925078" stroke-linecap="butt" stroke-linejoin="miter" stroke="rgb(12.156863%, 46.666667%, 70.588235%)" stroke-opacity="0.8" stroke-miterlimit="10" d="M 3.576322 1.311211 L 1.719741 0.677529 " transform="matrix(111.747729, 0, 0, 111.747729, -90.075597, 179.709519)"/>
</g>
</g>
</g>
<g clip-path="url(#clip-21)">
<g clip-path="url(#clip-22)">
<g clip-path="url(#clip-23)">
<path fill="none" stroke-width="0.0925078" stroke-linecap="butt" stroke-linejoin="miter" stroke="rgb(12.156863%, 46.666667%, 70.588235%)" stroke-opacity="0.8" stroke-miterlimit="10" d="M 3.576322 1.311211 L 3.938501 -0.609724 " transform="matrix(111.747729, 0, 0, 111.747729, -90.075597, 179.709519)"/>
</g>
</g>
</g>
<g clip-path="url(#clip-24)">
<g clip-path="url(#clip-25)">
<g clip-path="url(#clip-26)">
<path fill="none" stroke-width="0.0925078" stroke-linecap="butt" stroke-linejoin="miter" stroke="rgb(68.235294%, 78.039216%, 90.980392%)" stroke-opacity="0.8" stroke-miterlimit="10" d="M 3.637391 5.458841 L 3.642844 7.462063 " transform="matrix(111.747729, 0, 0, 111.747729, -90.075597, 179.709519)"/>
</g>
</g>
</g>
<g clip-path="url(#clip-27)">
<g clip-path="url(#clip-28)">
<g clip-path="url(#clip-29)">
<path fill="none" stroke-width="0.0925078" stroke-linecap="butt" stroke-linejoin="miter" stroke="rgb(68.235294%, 78.039216%, 90.980392%)" stroke-opacity="0.8" stroke-miterlimit="10" d="M 3.637391 5.458841 L 1.89889 6.351372 " transform="matrix(111.747729, 0, 0, 111.747729, -90.075597, 179.709519)"/>
</g>
</g>
</g>
<g clip-path="url(#clip-30)">
<g clip-path="url(#clip-31)">
<g clip-path="url(#clip-32)">
<path fill="none" stroke-width="0.0925078" stroke-linecap="butt" stroke-linejoin="miter" stroke="rgb(68.235294%, 78.039216%, 90.980392%)" stroke-opacity="0.8" stroke-miterlimit="10" d="M 3.642844 7.462063 L 1.995509 8.131854 " transform="matrix(111.747729, 0, 0, 111.747729, -90.075597, 179.709519)"/>
</g>
</g>
</g>
<g clip-path="url(#clip-33)">
<g clip-path="url(#clip-34)">
<g clip-path="url(#clip-35)">
<path fill="none" stroke-width="0.0925078" stroke-linecap="butt" stroke-linejoin="miter" stroke="rgb(68.235294%, 78.039216%, 90.980392%)" stroke-opacity="0.8" stroke-miterlimit="10" d="M 1.995509 8.131854 L 1.89889 6.351372 " transform="matrix(111.747729, 0, 0, 111.747729, -90.075597, 179.709519)"/>
</g>
</g>
</g>
<path fill-rule="nonzero" fill="rgb(12.156863%, 46.666667%, 70.588235%)" fill-opacity="1" stroke-width="0.0925078" stroke-linecap="butt" stroke-linejoin="miter" stroke="rgb(12.156863%, 46.666667%, 70.588235%)" stroke-opacity="1" stroke-miterlimit="10" d="M 0.462531 -0.00000292575 C 0.462531 0.255455 0.255452 0.462534 -0.00000598792 0.462534 C -0.255464 0.462534 -0.462543 0.255455 -0.462543 -0.00000292575 C -0.462543 -0.255461 -0.255464 -0.46254 -0.00000598792 -0.46254 C 0.255452 -0.46254 0.462531 -0.255461 0.462531 -0.00000292575 Z M 0.462531 -0.00000292575 " transform="matrix(111.747729, 0, 0, 111.747729, 882.004575, 396.797202)"/>
<path fill-rule="nonzero" fill="rgb(12.156863%, 46.666667%, 70.588235%)" fill-opacity="1" stroke-width="0.0925078" stroke-linecap="butt" stroke-linejoin="miter" stroke="rgb(12.156863%, 46.666667%, 70.588235%)" stroke-opacity="1" stroke-miterlimit="10" d="M 0.462528 0.0000115916 C 0.462528 0.25547 0.255449 0.462549 -0.00000890786 0.462549 C -0.255467 0.462549 -0.462546 0.25547 -0.462546 0.0000115916 C -0.462546 -0.255447 -0.255467 -0.462526 -0.00000890786 -0.462526 C 0.255449 -0.462526 0.462528 -0.255447 0.462528 0.0000115916 Z M 0.462528 0.0000115916 " transform="matrix(111.747729, 0, 0, 111.747729, 704.926777, 512.463548)"/>
<path fill-rule="nonzero" fill="rgb(12.156863%, 46.666667%, 70.588235%)" fill-opacity="1" stroke-width="0.0925078" stroke-linecap="butt" stroke-linejoin="miter" stroke="rgb(12.156863%, 46.666667%, 70.588235%)" stroke-opacity="1" stroke-miterlimit="10" d="M 0.462522 -0.00000441402 C 0.462522 0.255454 0.255443 0.462533 -0.0000151959 0.462533 C -0.255438 0.462533 -0.462553 0.255454 -0.462553 -0.00000441402 C -0.462553 -0.255463 -0.255438 -0.462542 -0.0000151959 -0.462542 C 0.255443 -0.462542 0.462522 -0.255463 0.462522 -0.00000441402 Z M 0.462522 -0.00000441402 " transform="matrix(111.747729, 0, 0, 111.747729, 904.900136, 569.449712)"/>
<path fill-rule="nonzero" fill="rgb(12.156863%, 46.666667%, 70.588235%)" fill-opacity="1" stroke-width="0.0925078" stroke-linecap="butt" stroke-linejoin="miter" stroke="rgb(12.156863%, 46.666667%, 70.588235%)" stroke-opacity="1" stroke-miterlimit="10" d="M 0.462534 0.0000166406 C 0.462534 0.25544 0.255455 0.462554 -0.00000352123 0.462554 C -0.255462 0.462554 -0.462541 0.25544 -0.462541 0.0000166406 C -0.462541 -0.255442 -0.255462 -0.462556 -0.00000352123 -0.462556 C 0.255455 -0.462556 0.462534 -0.255442 0.462534 0.0000166406 Z M 0.462534 0.0000166406 " transform="matrix(111.747729, 0, 0, 111.747729, 444.683987, 548.045015)"/>
<path fill-rule="nonzero" fill="rgb(12.156863%, 46.666667%, 70.588235%)" fill-opacity="1" stroke-width="0.0925078" stroke-linecap="butt" stroke-linejoin="miter" stroke="rgb(12.156863%, 46.666667%, 70.588235%)" stroke-opacity="1" stroke-miterlimit="10" d="M 0.462552 0.00000933102 C 0.462552 0.255468 0.255438 0.462547 0.0000144773 0.462547 C -0.255444 0.462547 -0.462523 0.255468 -0.462523 0.00000933102 C -0.462523 -0.255449 -0.255444 -0.462528 0.0000144773 -0.462528 C 0.255438 -0.462528 0.462552 -0.255449 0.462552 0.00000933102 Z M 0.462552 0.00000933102 " transform="matrix(111.747729, 0, 0, 111.747729, 309.568695, 326.233332)"/>
<path fill-rule="nonzero" fill="rgb(12.156863%, 46.666667%, 70.588235%)" fill-opacity="1" stroke-width="0.0925078" stroke-linecap="butt" stroke-linejoin="miter" stroke="rgb(12.156863%, 46.666667%, 70.588235%)" stroke-opacity="1" stroke-miterlimit="10" d="M 0.462553 0.00000869031 C 0.462553 0.255467 0.255438 0.462546 0.0000151959 0.462546 C -0.255443 0.462546 -0.462522 0.255467 -0.462522 0.00000869031 C -0.462522 -0.25545 -0.255443 -0.462529 0.0000151959 -0.462529 C 0.255438 -0.462529 0.462553 -0.25545 0.462553 0.00000869031 Z M 0.462553 0.00000869031 " transform="matrix(111.747729, 0, 0, 111.747729, 102.099864, 255.420904)"/>
<path fill-rule="nonzero" fill="rgb(12.156863%, 46.666667%, 70.588235%)" fill-opacity="1" stroke-width="0.0925078" stroke-linecap="butt" stroke-linejoin="miter" stroke="rgb(12.156863%, 46.666667%, 70.588235%)" stroke-opacity="1" stroke-miterlimit="10" d="M 0.462535 -0.00000565156 C 0.462535 0.255453 0.255456 0.462532 -0.00000210488 0.462532 C -0.25546 0.462532 -0.462539 0.255453 -0.462539 -0.00000565156 C -0.462539 -0.255464 -0.25546 -0.462543 -0.00000210488 -0.462543 C 0.255456 -0.462543 0.462535 -0.255464 0.462535 -0.00000565156 Z M 0.462535 -0.00000565156 " transform="matrix(111.747729, 0, 0, 111.747729, 350.043204, 111.57485)"/>
<path fill-rule="nonzero" fill="rgb(68.235294%, 78.039216%, 90.980392%)" fill-opacity="1" stroke-width="0.0925078" stroke-linecap="butt" stroke-linejoin="miter" stroke="rgb(68.235294%, 78.039216%, 90.980392%)" stroke-opacity="1" stroke-miterlimit="10" d="M 0.462528 -0.000013115 C 0.462528 0.255445 0.255449 0.462524 -0.0000094558 0.462524 C -0.255468 0.462524 -0.462547 0.255445 -0.462547 -0.000013115 C -0.462547 -0.255436 -0.255468 -0.46255 -0.0000094558 -0.46255 C 0.255449 -0.46255 0.462528 -0.255436 0.462528 -0.000013115 Z M 0.462528 -0.000013115 " transform="matrix(111.747729, 0, 0, 111.747729, 316.395588, 789.724122)"/>
<path fill-rule="nonzero" fill="rgb(68.235294%, 78.039216%, 90.980392%)" fill-opacity="1" stroke-width="0.0925078" stroke-linecap="butt" stroke-linejoin="miter" stroke="rgb(68.235294%, 78.039216%, 90.980392%)" stroke-opacity="1" stroke-miterlimit="10" d="M 0.462526 0.0000110105 C 0.462526 0.255469 0.255447 0.462548 -0.0000113949 0.462548 C -0.25547 0.462548 -0.462549 0.255469 -0.462549 0.0000110105 C -0.462549 -0.255447 -0.25547 -0.462526 -0.0000113949 -0.462526 C 0.255447 -0.462526 0.462526 -0.255447 0.462526 0.0000110105 Z M 0.462526 0.0000110105 " transform="matrix(111.747729, 0, 0, 111.747729, 317.00518, 1013.576895)"/>
<path fill-rule="nonzero" fill="rgb(68.235294%, 78.039216%, 90.980392%)" fill-opacity="1" stroke-width="0.0925078" stroke-linecap="butt" stroke-linejoin="miter" stroke="rgb(68.235294%, 78.039216%, 90.980392%)" stroke-opacity="1" stroke-miterlimit="10" d="M 0.46254 0.00000565156 C 0.46254 0.255464 0.255461 0.462543 0.00000287749 0.462543 C -0.255455 0.462543 -0.462534 0.255464 -0.462534 0.00000565156 C -0.462534 -0.255453 -0.255455 -0.462532 0.00000287749 -0.462532 C 0.255461 -0.462532 0.46254 -0.255453 0.46254 0.00000565156 Z M 0.46254 0.00000565156 " transform="matrix(111.747729, 0, 0, 111.747729, 132.917647, 1088.42515)"/>
<path fill-rule="nonzero" fill="rgb(68.235294%, 78.039216%, 90.980392%)" fill-opacity="1" stroke-width="0.0925078" stroke-linecap="butt" stroke-linejoin="miter" stroke="rgb(68.235294%, 78.039216%, 90.980392%)" stroke-opacity="1" stroke-miterlimit="10" d="M 0.462537 0.00000436897 C 0.462537 0.255463 0.255458 0.462542 -0.000000645601 0.462542 C -0.255459 0.462542 -0.462538 0.255463 -0.462538 0.00000436897 C -0.462538 -0.255454 -0.255459 -0.462533 -0.000000645601 -0.462533 C 0.255458 -0.462533 0.462537 -0.255454 0.462537 0.00000436897 Z M 0.462537 0.00000436897 " transform="matrix(111.747729, 0, 0, 111.747729, 122.121166, 889.460449)"/>
</svg>
