<?xml version="1.0" encoding="UTF-8"?>
<svg xmlns="http://www.w3.org/2000/svg" xmlns:xlink="http://www.w3.org/1999/xlink" width="1200" height="1075" viewBox="0 0 1200 1075">
<defs>
<clipPath id="clip-0">
<path clip-rule="nonzero" d="M 681.328125 174 L 1168.863281 174 L 1168.863281 634 L 681.328125 634 Z M 681.328125 174 "/>
</clipPath>
<clipPath id="clip-1">
<path clip-rule="evenodd" d="M 681.328125 128.738281 L 1168.863281 128.738281 L 1168.863281 678.925781 L 681.328125 678.925781 Z M 681.328125 128.738281 L 1140.800781 461.722656 C 1140.800781 495.195312 1113.667969 522.332031 1080.191406 522.332031 C 1046.71875 522.332031 1019.582031 495.195312 1019.582031 461.722656 C 1019.582031 428.25 1046.71875 401.113281 1080.191406 401.113281 C 1113.667969 401.113281 1140.800781 428.25 1140.800781 461.722656 Z M 681.328125 128.738281 "/>
</clipPath>
<clipPath id="clip-2">
<path clip-rule="evenodd" d="M 681.328125 128.738281 L 1168.863281 128.738281 L 1168.863281 678.925781 L 681.328125 678.925781 Z M 681.328125 128.738281 L 830.609375 345.941406 C 830.609375 379.414062 803.472656 406.550781 770 406.550781 C 736.527344 406.550781 709.390625 379.414062 709.390625 345.941406 C 709.390625 312.464844 736.527344 285.332031 770 285.332031 C 803.472656 285.332031 830.609375 312.464844 830.609375 345.941406 Z M 681.328125 128.738281 "/>
</clipPath>
<clipPath id="clip-3">
<path clip-rule="nonzero" d="M 349.101562 0 L 921.867188 0 L 921.867188 518 L 349.101562 518 Z M 349.101562 0 "/>
</clipPath>
<clipPath id="clip-4">
<path clip-rule="evenodd" d="M 349.101562 -57.804688 L 921.867188 -57.804688 L 921.867188 526.554688 L 349.101562 526.554688 Z M 349.101562 -57.804688 L 830.609375 345.941406 C 830.609375 379.414062 803.472656 406.550781 770 406.550781 C 736.527344 406.550781 709.390625 379.414062 709.390625 345.941406 C 709.390625 312.464844 736.527344 285.332031 770 285.332031 C 803.472656 285.332031 830.609375 312.464844 830.609375 345.941406 Z M 349.101562 -57.804688 "/>
</clipPath>
<clipPath id="clip-5">
<path clip-rule="evenodd" d="M 349.101562 -57.804688 L 921.867188 -57.804688 L 921.867188 526.554688 L 349.101562 526.554688 Z M 349.101562 -57.804688 L 561.578125 122.808594 C 561.578125 156.28125 534.441406 183.417969 500.96875 183.417969 C 467.496094 183.417969 440.359375 156.28125 440.359375 122.808594 C 440.359375 89.335938 467.496094 62.199219 500.96875 62.199219 C 534.441406 62.199219 561.578125 89.335938 561.578125 122.808594 Z M 349.101562 -57.804688 "/>
</clipPath>
<clipPath id="clip-6">
<path clip-rule="nonzero" d="M 441.605469 174 L 805.570312 174 L 805.570312 549 L 441.605469 549 Z M 441.605469 174 "/>
</clipPath>
<clipPath id="clip-7">
<path clip-rule="evenodd" d="M 441.605469 116.175781 L 805.570312 116.175781 L 805.570312 607.257812 L 441.605469 607.257812 Z M 441.605469 116.175781 L 830.609375 345.941406 C 830.609375 379.414062 803.472656 406.550781 770 406.550781 C 736.527344 406.550781 709.390625 379.414062 709.390625 345.941406 C 709.390625 312.464844 736.527344 285.332031 770 285.332031 C 803.472656 285.332031 830.609375 312.464844 830.609375 345.941406 Z M 441.605469 116.175781 "/>
</clipPath>
<clipPath id="clip-8">
<path clip-rule="evenodd" d="M 441.605469 116.175781 L 805.570312 116.175781 L 805.570312 607.257812 L 441.605469 607.257812 Z M 441.605469 116.175781 L 537.785156 377.492188 C 537.785156 410.96875 510.652344 438.101562 477.175781 438.101562 C 443.703125 438.101562 416.566406 410.96875 416.566406 377.492188 C 416.566406 344.019531 443.703125 316.882812 477.175781 316.882812 C 510.652344 316.882812 537.785156 344.019531 537.785156 377.492188 Z M 441.605469 116.175781 "/>
</clipPath>
<clipPath id="clip-9">
<path clip-rule="nonzero" d="M 583 87.648438 L 942 87.648438 L 942 372.203125 L 583 372.203125 Z M 583 87.648438 "/>
</clipPath>
<clipPath id="clip-10">
<path clip-rule="evenodd" d="M 524.414062 87.648438 L 1000.566406 87.648438 L 1000.566406 372.203125 L 524.414062 372.203125 Z M 524.414062 87.648438 L 830.609375 345.941406 C 830.609375 379.414062 803.472656 406.550781 770 406.550781 C 736.527344 406.550781 709.390625 379.414062 709.390625 345.941406 C 709.390625 312.464844 736.527344 285.332031 770 285.332031 C 803.472656 285.332031 830.609375 312.464844 830.609375 345.941406 Z M 524.414062 87.648438 "/>
</clipPath>
<clipPath id="clip-11">
<path clip-rule="evenodd" d="M 524.414062 87.648438 L 1000.566406 87.648438 L 1000.566406 372.203125 L 524.414062 372.203125 Z M 524.414062 87.648438 L 815.585938 113.910156 C 815.585938 147.382812 788.453125 174.519531 754.980469 174.519531 C 721.503906 174.519531 694.371094 147.382812 694.371094 113.910156 C 694.371094 80.4375 721.503906 53.300781 754.980469 53.300781 C 788.453125 53.300781 815.585938 80.4375 815.585938 113.910156 Z M 524.414062 87.648438 "/>
</clipPath>
<clipPath id="clip-12">
<path clip-rule="nonzero" d="M 305 90.324219 L 673 90.324219 L 673 409.976562 L 305 409.976562 Z M 305 90.324219 "/>
</clipPath>
<clipPath id="clip-13">
<path clip-rule="evenodd" d="M 247.101562 90.324219 L 731.042969 90.324219 L 731.042969 409.976562 L 247.101562 409.976562 Z M 247.101562 90.324219 L 561.578125 122.808594 C 561.578125 156.28125 534.441406 183.417969 500.96875 183.417969 C 467.496094 183.417969 440.359375 156.28125 440.359375 122.808594 C 440.359375 89.335938 467.496094 62.199219 500.96875 62.199219 C 534.441406 62.199219 561.578125 89.335938 561.578125 122.808594 Z M 247.101562 90.324219 "/>
</clipPath>
<clipPath id="clip-14">
<path clip-rule="evenodd" d="M 247.101562 90.324219 L 731.042969 90.324219 L 731.042969 409.976562 L 247.101562 409.976562 Z M 247.101562 90.324219 L 537.785156 377.492188 C 537.785156 410.96875 510.652344 438.101562 477.175781 438.101562 C 443.703125 438.101562 416.566406 410.96875 416.566406 377.492188 C 416.566406 344.019531 443.703125 316.882812 477.175781 316.882812 C 510.652344 316.882812 537.785156 344.019531 537.785156 377.492188 Z M 247.101562 90.324219 "/>
</clipPath>
<clipPath id="clip-15">
<path clip-rule="nonzero" d="M 314.382812 0 L 917.773438 0 L 917.773438 548.414062 L 314.382812 548.414062 Z M 314.382812 0 "/>
</clipPath>
<clipPath id="clip-16">
<path clip-rule="evenodd" d="M 314.382812 -57.011719 L 917.773438 -57.011719 L 917.773438 548.414062 L 314.382812 548.414062 Z M 314.382812 -57.011719 L 537.785156 377.492188 C 537.785156 410.96875 510.652344 438.101562 477.175781 438.101562 C 443.703125 438.101562 416.566406 410.96875 416.566406 377.492188 C 416.566406 344.019531 443.703125 316.882812 477.175781 316.882812 C 510.652344 316.882812 537.785156 344.019531 537.785156 377.492188 Z M 314.382812 -57.011719 "/>
</clipPath>
<clipPath id="clip-17">
<path clip-rule="evenodd" d="M 314.382812 -57.011719 L 917.773438 -57.011719 L 917.773438 548.414062 L 314.382812 548.414062 Z M 314.382812 -57.011719 L 815.585938 113.910156 C 815.585938 147.382812 788.453125 174.519531 754.980469 174.519531 C 721.503906 174.519531 694.371094 147.382812 694.371094 113.910156 C 694.371094 80.4375 721.503906 53.300781 754.980469 53.300781 C 788.453125 53.300781 815.585938 80.4375 815.585938 113.910156 Z M 314.382812 -57.011719 "/>
</clipPath>
<clipPath id="clip-18">
<path clip-rule="nonzero" d="M 89 237.722656 L 649 237.722656 L 649 818.511719 L 89 818.511719 Z M 89 237.722656 "/>
</clipPath>
<clipPath id="clip-19">
<path clip-rule="evenodd" d="M 70.984375 237.722656 L 667.128906 237.722656 L 667.128906 818.511719 L 70.984375 818.511719 Z M 70.984375 237.722656 L 537.785156 377.492188 C 537.785156 410.96875 510.652344 438.101562 477.175781 438.101562 C 443.703125 438.101562 416.566406 410.96875 416.566406 377.492188 C 416.566406 344.019531 443.703125 316.882812 477.175781 316.882812 C 510.652344 316.882812 537.785156 344.019531 537.785156 377.492188 Z M 70.984375 237.722656 "/>
</clipPath>
<clipPath id="clip-20">
<path clip-rule="evenodd" d="M 70.984375 237.722656 L 667.128906 237.722656 L 667.128906 818.511719 L 70.984375 818.511719 Z M 70.984375 237.722656 L 321.546875 678.742188 C 321.546875 712.214844 294.410156 739.351562 260.9375 739.351562 C 227.460938 739.351562 200.328125 712.214844 200.328125 678.742188 C 200.328125 645.265625 227.460938 618.132812 260.9375 618.132812 C 294.410156 618.132812 321.546875 645.265625 321.546875 678.742188 Z M 70.984375 237.722656 "/>
</clipPath>
<clipPath id="clip-21">
<path clip-rule="nonzero" d="M 117.207031 206 L 519.964844 206 L 519.964844 594 L 117.207031 594 Z M 117.207031 206 "/>
</clipPath>
<clipPath id="clip-22">
<path clip-rule="evenodd" d="M 117.207031 148.625 L 519.964844 148.625 L 519.964844 651.238281 L 117.207031 651.238281 Z M 117.207031 148.625 L 537.785156 377.492188 C 537.785156 410.96875 510.652344 438.101562 477.175781 438.101562 C 443.703125 438.101562 416.566406 410.96875 416.566406 377.492188 C 416.566406 344.019531 443.703125 316.882812 477.175781 316.882812 C 510.652344 316.882812 537.785156 344.019531 537.785156 377.492188 Z M 117.207031 148.625 "/>
</clipPath>
<clipPath id="clip-23">
<path clip-rule="evenodd" d="M 117.207031 148.625 L 519.964844 148.625 L 519.964844 651.238281 L 117.207031 651.238281 Z M 117.207031 148.625 L 220.605469 422.371094 C 220.605469 455.847656 193.46875 482.980469 159.996094 482.980469 C 126.523438 482.980469 99.386719 455.847656 99.386719 422.371094 C 99.386719 388.898438 126.523438 361.761719 159.996094 361.761719 C 193.46875 361.761719 220.605469 388.898438 220.605469 422.371094 Z M 117.207031 148.625 "/>
</clipPath>
<clipPath id="clip-24">
<path clip-rule="nonzero" d="M 0 330.054688 L 433 330.054688 L 433 771.058594 L 0 771.058594 Z M 0 330.054688 "/>
</clipPath>
<clipPath id="clip-25">
<path clip-rule="evenodd" d="M -55.808594 330.054688 L 476.742188 330.054688 L 476.742188 771.058594 L -55.808594 771.058594 Z M -55.808594 330.054688 L 321.546875 678.742188 C 321.546875 712.214844 294.410156 739.351562 260.9375 739.351562 C 227.460938 739.351562 200.328125 712.214844 200.328125 678.742188 C 200.328125 645.265625 227.460938 618.132812 260.9375 618.132812 C 294.410156 618.132812 321.546875 645.265625 321.546875 678.742188 Z M -55.808594 330.054688 "/>
</clipPath>
<clipPath id="clip-26">
<path clip-rule="evenodd" d="M -55.808594 330.054688 L 476.742188 330.054688 L 476.742188 771.058594 L -55.808594 771.058594 Z M -55.808594 330.054688 L 220.605469 422.371094 C 220.605469 455.847656 193.46875 482.980469 159.996094 482.980469 C 126.523438 482.980469 99.386719 455.847656 99.386719 422.371094 C 99.386719 388.898438 126.523438 361.761719 159.996094 361.761719 C 193.46875 361.761719 220.605469 388.898438 220.605469 422.371094 Z M -55.808594 330.054688 "/>
</clipPath>
<clipPath id="clip-27">
<path clip-rule="nonzero" d="M 0 568.75 L 433 568.75 L 433 1071.082031 L 0 1071.082031 Z M 0 568.75 "/>
</clipPath>
<clipPath id="clip-28">
<path clip-rule="evenodd" d="M -88.117188 568.75 L 468.863281 568.75 L 468.863281 1071.082031 L -88.117188 1071.082031 Z M -88.117188 568.75 L 321.546875 678.742188 C 321.546875 712.214844 294.410156 739.351562 260.9375 739.351562 C 227.460938 739.351562 200.328125 712.214844 200.328125 678.742188 C 200.328125 645.265625 227.460938 618.132812 260.9375 618.132812 C 294.410156 618.132812 321.546875 645.265625 321.546875 678.742188 Z M -88.117188 568.75 "/>
</clipPath>
<clipPath id="clip-29">
<path clip-rule="evenodd" d="M -88.117188 568.75 L 468.863281 568.75 L 468.863281 1071.082031 L -88.117188 1071.082031 Z M -88.117188 568.75 L 180.417969 961.089844 C 180.417969 994.5625 153.28125 1021.699219 119.808594 1021.699219 C 86.332031 1021.699219 59.199219 994.5625 59.199219 961.089844 C 59.199219 927.617188 86.332031 900.480469 119.808594 900.480469 C 153.28125 900.480469 180.417969 927.617188 180.417969 961.089844 Z M -88.117188 568.75 "/>
</clipPath>
</defs>
<g clip-path="url(#clip-0)">
<g clip-path="url(#clip-1)">
<g clip-path="url(#clip-2)">
<path fill="none" stroke-width="0.0553751" stroke-linecap="butt" stroke-linejoin="miter" stroke="rgb(12.156863%, 46.666667%, 70.588235%)" stroke-opacity="1" stroke-miterlimit="10" d="M 6.079443 4.01796 L 4.662422 3.489047 " transform="matrix(218.903813, 0, 0, 218.903813, -250.621931, -417.824192)"/>
</g>
</g>
</g>
<g clip-path="url(#clip-3)">
<g clip-path="url(#clip-4)">
<g clip-path="url(#clip-5)">
<path fill="none" stroke-width="0.0553751" stroke-linecap="butt" stroke-linejoin="miter" stroke="rgb(12.156863%, 46.666667%, 70.588235%)" stroke-opacity="1" stroke-miterlimit="10" d="M 4.662422 3.489047 L 3.433429 2.469728 " transform="matrix(218.903813, 0, 0, 218.903813, -250.621931, -417.824192)"/>
</g>
</g>
</g>
<g clip-path="url(#clip-6)">
<g clip-path="url(#clip-7)">
<g clip-path="url(#clip-8)">
<path fill="none" stroke-width="0.0553751" stroke-linecap="butt" stroke-linejoin="miter" stroke="rgb(12.156863%, 46.666667%, 70.588235%)" stroke-opacity="1" stroke-miterlimit="10" d="M 4.662422 3.489047 L 3.324737 3.633177 " transform="matrix(218.903813, 0, 0, 218.903813, -250.621931, -417.824192)"/>
</g>
</g>
</g>
<g clip-path="url(#clip-9)">
<g clip-path="url(#clip-10)">
<g clip-path="url(#clip-11)">
<path fill="none" stroke-width="0.0553751" stroke-linecap="butt" stroke-linejoin="miter" stroke="rgb(12.156863%, 46.666667%, 70.588235%)" stroke-opacity="1" stroke-miterlimit="10" d="M 4.662422 3.489047 L 4.593809 2.429078 " transform="matrix(218.903813, 0, 0, 218.903813, -250.621931, -417.824192)"/>
</g>
</g>
</g>
<g clip-path="url(#clip-12)">
<g clip-path="url(#clip-13)">
<g clip-path="url(#clip-14)">
<path fill="none" stroke-width="0.0553751" stroke-linecap="butt" stroke-linejoin="miter" stroke="rgb(12.156863%, 46.666667%, 70.588235%)" stroke-opacity="1" stroke-miterlimit="10" d="M 3.433429 2.469728 L 3.324737 3.633177 " transform="matrix(218.903813, 0, 0, 218.903813, -250.621931, -417.824192)"/>
</g>
</g>
</g>
<g clip-path="url(#clip-15)">
<g clip-path="url(#clip-16)">
<g clip-path="url(#clip-17)">
<path fill="none" stroke-width="0.0553751" stroke-linecap="butt" stroke-linejoin="miter" stroke="rgb(12.156863%, 46.666667%, 70.588235%)" stroke-opacity="1" stroke-miterlimit="10" d="M 3.324737 3.633177 L 4.593809 2.429078 " transform="matrix(218.903813, 0, 0, 218.903813, -250.621931, -417.824192)"/>
</g>
</g>
</g>
<g clip-path="url(#clip-18)">
<g clip-path="url(#clip-19)">
<g clip-path="url(#clip-20)">
<path fill="none" stroke-width="0.0553751" stroke-linecap="butt" stroke-linejoin="miter" stroke="rgb(87.058824%, 61.960784%, 83.921569%)" stroke-opacity="1" stroke-miterlimit="10" d="M 3.324737 3.633177 L 2.336914 5.009353 " transform="matrix(218.903813, 0, 0, 218.903813, -250.621931, -417.824192)"/>
</g>
</g>
</g>
<g clip-path="url(#clip-21)">
<g clip-path="url(#clip-22)">
<g clip-path="url(#clip-23)">
<path fill="none" stroke-width="0.0553751" stroke-linecap="butt" stroke-linejoin="miter" stroke="rgb(87.058824%, 61.960784%, 83.921569%)" stroke-opacity="1" stroke-miterlimit="10" d="M 3.324737 3.633177 L 1.875792 3.838194 " transform="matrix(218.903813, 0, 0, 218.903813, -250.621931, -417.824192)"/>
</g>
</g>
</g>
<g clip-path="url(#clip-24)">
<g clip-path="url(#clip-25)">
<g clip-path="url(#clip-26)">
<path fill="none" stroke-width="0.0553751" stroke-linecap="butt" stroke-linejoin="miter" stroke="rgb(87.058824%, 61.960784%, 83.921569%)" stroke-opacity="1" stroke-miterlimit="10" d="M 2.336914 5.009353 L 1.875792 3.838194 " transform="matrix(218.903813, 0, 0, 218.903813, -250.621931, -417.824192)"/>
</g>
</g>
</g>
<g clip-path="url(#clip-27)">
<g clip-path="url(#clip-28)">
<g clip-path="url(#clip-29)">
<path fill="none" stroke-width="0.0553751" stroke-linecap="butt" stroke-linejoin="miter" stroke="rgb(87.058824%, 61.960784%, 83.921569%)" stroke-opacity="1" stroke-miterlimit="10" d="M 2.336914 5.009353 L 1.692207 6.299178 " transform="matrix(218.903813, 0, 0, 218.903813, -250.621931, -417.824192)"/>
</g>
</g>
</g>
<path fill-rule="nonzero" fill="rgb(12.156863%, 46.666667%, 70.588235%)" fill-opacity="1" d="M 1080.191406 461.722656 L 1146.863281 461.722656 C 1146.863281 498.542969 1117.015625 528.394531 1080.191406 528.394531 C 1043.371094 528.394531 1013.523438 498.542969 1013.523438 461.722656 C 1013.523438 424.902344 1043.371094 395.054688 1080.191406 395.054688 C 1117.015625 395.054688 1146.863281 424.902344 1146.863281 461.722656 "/>
<path fill-rule="nonzero" fill="rgb(12.156863%, 46.666667%, 70.588235%)" fill-opacity="1" d="M 770 345.941406 L 836.671875 345.941406 C 836.671875 382.761719 806.820312 412.609375 770 412.609375 C 733.179688 412.609375 703.328125 382.761719 703.328125 345.941406 C 703.328125 309.117188 733.179688 279.269531 770 279.269531 C 806.820312 279.269531 836.671875 309.117188 836.671875 345.941406 "/>
<path fill-rule="nonzero" fill="rgb(12.156863%, 46.666667%, 70.588235%)" fill-opacity="1" d="M 500.96875 122.808594 L 567.640625 122.808594 C 567.640625 159.628906 537.789062 189.480469 500.96875 189.480469 C 464.148438 189.480469 434.296875 159.628906 434.296875 122.808594 C 434.296875 85.988281 464.148438 56.136719 500.96875 56.136719 C 537.789062 56.136719 567.640625 85.988281 567.640625 122.808594 "/>
<path fill-rule="nonzero" fill="rgb(12.156863%, 46.666667%, 70.588235%)" fill-opacity="1" d="M 477.175781 377.492188 L 543.847656 377.492188 C 543.847656 398.835938 533.628906 418.886719 516.363281 431.429688 C 499.097656 443.976562 476.871094 447.496094 456.574219 440.902344 C 436.277344 434.304688 420.363281 418.390625 413.769531 398.09375 C 407.175781 377.796875 410.695312 355.570312 423.238281 338.304688 "/>
<path fill-rule="nonzero" fill="rgb(87.058824%, 61.960784%, 83.921569%)" fill-opacity="1" d="M 477.175781 377.492188 L 423.238281 338.304688 C 440.21875 314.9375 470.308594 305.160156 497.777344 314.085938 C 525.25 323.011719 543.847656 348.609375 543.847656 377.492188 "/>
<path fill-rule="nonzero" fill="rgb(12.156863%, 46.666667%, 70.588235%)" fill-opacity="1" d="M 754.980469 113.910156 L 821.648438 113.910156 C 821.648438 150.730469 791.800781 180.578125 754.980469 180.578125 C 718.15625 180.578125 688.308594 150.730469 688.308594 113.910156 C 688.308594 77.089844 718.15625 47.238281 754.980469 47.238281 C 791.800781 47.238281 821.648438 77.089844 821.648438 113.910156 "/>
<path fill-rule="nonzero" fill="rgb(87.058824%, 61.960784%, 83.921569%)" fill-opacity="1" d="M 260.9375 678.742188 L 327.605469 678.742188 C 327.605469 715.5625 297.757812 745.410156 260.9375 745.410156 C 224.113281 745.410156 194.265625 715.5625 194.265625 678.742188 C 194.265625 641.917969 224.113281 612.070312 260.9375 612.070312 C 297.757812 612.070312 327.605469 641.917969 327.605469 678.742188 "/>
<path fill-rule="nonzero" fill="rgb(87.058824%, 61.960784%, 83.921569%)" fill-opacity="1" d="M 159.996094 422.371094 L 226.667969 422.371094 C 226.667969 459.195312 196.816406 489.042969 159.996094 489.042969 C 123.175781 489.042969 93.328125 459.195312 93.328125 422.371094 C 93.328125 385.550781 123.175781 355.703125 159.996094 355.703125 C 196.816406 355.703125 226.667969 385.550781 226.667969 422.371094 "/>
<path fill-rule="nonzero" fill="rgb(87.058824%, 61.960784%, 83.921569%)" fill-opacity="1" d="M 119.808594 961.089844 L 186.476562 961.089844 C 186.476562 997.910156 156.628906 1027.761719 119.808594 1027.761719 C 82.984375 1027.761719 53.136719 997.910156 53.136719 961.089844 C 53.136719 924.269531 82.984375 894.421875 119.808594 894.421875 C 156.628906 894.421875 186.476562 924.269531 186.476562 961.089844 "/>
</svg>
