<?xml version="1.0" encoding="UTF-8"?>
<svg xmlns="http://www.w3.org/2000/svg" xmlns:xlink="http://www.w3.org/1999/xlink" width="728" height="1200" viewBox="0 0 728 1200">
<defs>
<clipPath id="clip-0">
<path clip-rule="nonzero" d="M 76.777344 42 L 451.789062 42 L 451.789062 393.433594 L 76.777344 393.433594 Z M 76.777344 42 "/>
</clipPath>
<clipPath id="clip-1">
<path clip-rule="evenodd" d="M 76.777344 42 L 451.789062 42 L 451.789062 393.433594 L 76.777344 393.433594 Z M 76.777344 42 L 266.886719 111.558594 C 266.886719 140.105469 243.746094 163.246094 215.199219 163.246094 C 186.652344 163.246094 163.511719 140.105469 163.511719 111.558594 C 163.511719 83.011719 186.652344 59.871094 215.199219 59.871094 C 243.746094 59.871094 266.886719 83.011719 266.886719 111.558594 Z M 76.777344 42 "/>
</clipPath>
<clipPath id="clip-2">
<path clip-rule="evenodd" d="M 76.777344 42 L 451.789062 42 L 451.789062 393.433594 L 76.777344 393.433594 Z M 76.777344 42 L 365.050781 323.871094 C 365.050781 352.417969 341.910156 375.558594 313.363281 375.558594 C 284.816406 375.558594 261.675781 352.417969 261.675781 323.871094 C 261.675781 295.324219 284.816406 272.183594 313.363281 272.183594 C 341.910156 272.183594 365.050781 295.324219 365.050781 323.871094 Z M 76.777344 42 "/>
</clipPath>
<linearGradient id="linear-pattern-0" gradientUnits="userSpaceOnUse" x1="0.803807" y1="1.754781" x2="1.499431" y2="3.25933">
<stop offset="0" stop-color="rgb(12.156863%, 46.666667%, 70.588235%)" stop-opacity="0.8"/>
<stop offset="1" stop-color="rgb(68.235294%, 78.039216%, 90.980392%)" stop-opacity="0.8"/>
</linearGradient>
<clipPath id="clip-3">
<path clip-rule="nonzero" d="M 246.957031 356.085938 L 593.679688 356.085938 L 593.679688 692.421875 L 246.957031 692.421875 Z M 246.957031 356.085938 "/>
</clipPath>
<clipPath id="clip-4">
<path clip-rule="evenodd" d="M 246.957031 356.085938 L 593.679688 356.085938 L 593.679688 692.421875 L 246.957031 692.421875 Z M 246.957031 356.085938 L 528.789062 459.300781 C 528.789062 487.84375 505.648438 510.988281 477.101562 510.988281 C 448.554688 510.988281 425.414062 487.84375 425.414062 459.300781 C 425.414062 430.753906 448.554688 407.609375 477.101562 407.609375 C 505.648438 407.609375 528.789062 430.753906 528.789062 459.300781 Z M 246.957031 356.085938 "/>
</clipPath>
<clipPath id="clip-5">
<path clip-rule="evenodd" d="M 246.957031 356.085938 L 593.679688 356.085938 L 593.679688 692.421875 L 246.957031 692.421875 Z M 246.957031 356.085938 L 415.21875 589.203125 C 415.21875 617.75 392.078125 640.890625 363.53125 640.890625 C 334.984375 640.890625 311.84375 617.75 311.84375 589.203125 C 311.84375 560.65625 334.984375 537.515625 363.53125 537.515625 C 392.078125 537.515625 415.21875 560.65625 415.21875 589.203125 Z M 246.957031 356.085938 "/>
</clipPath>
<clipPath id="clip-6">
<path clip-rule="nonzero" d="M 213.089844 204.796875 L 577.378906 204.796875 L 577.378906 578.378906 L 213.089844 578.378906 Z M 213.089844 204.796875 "/>
</clipPath>
<clipPath id="clip-7">
<path clip-rule="evenodd" d="M 213.089844 204.796875 L 577.378906 204.796875 L 577.378906 578.378906 L 213.089844 578.378906 Z M 213.089844 204.796875 L 528.789062 459.300781 C 528.789062 487.84375 505.648438 510.988281 477.101562 510.988281 C 448.554688 510.988281 425.414062 487.84375 425.414062 459.300781 C 425.414062 430.753906 448.554688 407.609375 477.101562 407.609375 C 505.648438 407.609375 528.789062 430.753906 528.789062 459.300781 Z M 213.089844 204.796875 "/>
</clipPath>
<clipPath id="clip-8">
<path clip-rule="evenodd" d="M 213.089844 204.796875 L 577.378906 204.796875 L 577.378906 578.378906 L 213.089844 578.378906 Z M 213.089844 204.796875 L 365.050781 323.871094 C 365.050781 352.417969 341.910156 375.558594 313.363281 375.558594 C 284.816406 375.558594 261.675781 352.417969 261.675781 323.871094 C 261.675781 295.324219 284.816406 272.183594 313.363281 272.183594 C 341.910156 272.183594 365.050781 295.324219 365.050781 323.871094 Z M 213.089844 204.796875 "/>
</clipPath>
<clipPath id="clip-9">
<path clip-rule="nonzero" d="M 330 418.203125 L 669 418.203125 L 669 704.773438 L 330 704.773438 Z M 330 418.203125 "/>
</clipPath>
<clipPath id="clip-10">
<path clip-rule="evenodd" d="M 329.046875 418.203125 L 670.808594 418.203125 L 670.808594 704.773438 L 329.046875 704.773438 Z M 329.046875 418.203125 L 528.789062 459.300781 C 528.789062 487.84375 505.648438 510.988281 477.101562 510.988281 C 448.554688 510.988281 425.414062 487.84375 425.414062 459.300781 C 425.414062 430.753906 448.554688 407.609375 477.101562 407.609375 C 505.648438 407.609375 528.789062 430.753906 528.789062 459.300781 Z M 329.046875 418.203125 "/>
</clipPath>
<clipPath id="clip-11">
<path clip-rule="evenodd" d="M 329.046875 418.203125 L 670.808594 418.203125 L 670.808594 704.773438 L 329.046875 704.773438 Z M 329.046875 418.203125 L 574.4375 663.671875 C 574.4375 692.214844 551.296875 715.359375 522.75 715.359375 C 494.203125 715.359375 471.0625 692.214844 471.0625 663.671875 C 471.0625 635.125 494.203125 611.984375 522.75 611.984375 C 551.296875 611.984375 574.4375 635.125 574.4375 663.671875 Z M 329.046875 418.203125 "/>
</clipPath>
<clipPath id="clip-12">
<path clip-rule="nonzero" d="M 167 287.320312 L 510 287.320312 L 510 625.757812 L 167 625.757812 Z M 167 287.320312 "/>
</clipPath>
<clipPath id="clip-13">
<path clip-rule="evenodd" d="M 164.371094 287.320312 L 512.527344 287.320312 L 512.527344 625.757812 L 164.371094 625.757812 Z M 164.371094 287.320312 L 415.21875 589.203125 C 415.21875 617.75 392.078125 640.890625 363.53125 640.890625 C 334.984375 640.890625 311.84375 617.75 311.84375 589.203125 C 311.84375 560.65625 334.984375 537.515625 363.53125 537.515625 C 392.078125 537.515625 415.21875 560.65625 415.21875 589.203125 Z M 164.371094 287.320312 "/>
</clipPath>
<clipPath id="clip-14">
<path clip-rule="evenodd" d="M 164.371094 287.320312 L 512.527344 287.320312 L 512.527344 625.757812 L 164.371094 625.757812 Z M 164.371094 287.320312 L 365.050781 323.871094 C 365.050781 352.417969 341.910156 375.558594 313.363281 375.558594 C 284.816406 375.558594 261.675781 352.417969 261.675781 323.871094 C 261.675781 295.324219 284.816406 272.183594 313.363281 272.183594 C 341.910156 272.183594 365.050781 295.324219 365.050781 323.871094 Z M 164.371094 287.320312 "/>
</clipPath>
<clipPath id="clip-15">
<path clip-rule="nonzero" d="M 217 543.207031 L 579 543.207031 L 579 898.433594 L 217 898.433594 Z M 217 543.207031 "/>
</clipPath>
<clipPath id="clip-16">
<path clip-rule="evenodd" d="M 216.664062 543.207031 L 579.15625 543.207031 L 579.15625 898.433594 L 216.664062 898.433594 Z M 216.664062 543.207031 L 415.21875 589.203125 C 415.21875 617.75 392.078125 640.890625 363.53125 640.890625 C 334.984375 640.890625 311.84375 617.75 311.84375 589.203125 C 311.84375 560.65625 334.984375 537.515625 363.53125 537.515625 C 392.078125 537.515625 415.21875 560.65625 415.21875 589.203125 Z M 216.664062 543.207031 "/>
</clipPath>
<clipPath id="clip-17">
<path clip-rule="evenodd" d="M 216.664062 543.207031 L 579.15625 543.207031 L 579.15625 898.433594 L 216.664062 898.433594 Z M 216.664062 543.207031 L 483.972656 852.433594 C 483.972656 880.980469 460.832031 904.121094 432.285156 904.121094 C 403.742188 904.121094 380.597656 880.980469 380.597656 852.433594 C 380.597656 823.886719 403.742188 800.746094 432.285156 800.746094 C 460.832031 800.746094 483.972656 823.886719 483.972656 852.433594 Z M 216.664062 543.207031 "/>
</clipPath>
<clipPath id="clip-18">
<path clip-rule="nonzero" d="M 293.410156 451.042969 L 592.875 451.042969 L 592.875 801.835938 L 293.410156 801.835938 Z M 293.410156 451.042969 "/>
</clipPath>
<clipPath id="clip-19">
<path clip-rule="evenodd" d="M 293.410156 451.042969 L 592.875 451.042969 L 592.875 801.835938 L 293.410156 801.835938 Z M 293.410156 451.042969 L 415.21875 589.203125 C 415.21875 617.75 392.078125 640.890625 363.53125 640.890625 C 334.984375 640.890625 311.84375 617.75 311.84375 589.203125 C 311.84375 560.65625 334.984375 537.515625 363.53125 537.515625 C 392.078125 537.515625 415.21875 560.65625 415.21875 589.203125 Z M 293.410156 451.042969 "/>
</clipPath>
<clipPath id="clip-20">
<path clip-rule="evenodd" d="M 293.410156 451.042969 L 592.875 451.042969 L 592.875 801.835938 L 293.410156 801.835938 Z M 293.410156 451.042969 L 574.4375 663.671875 C 574.4375 692.214844 551.296875 715.359375 522.75 715.359375 C 494.203125 715.359375 471.0625 692.214844 471.0625 663.671875 C 471.0625 635.125 494.203125 611.984375 522.75 611.984375 C 551.296875 611.984375 574.4375 635.125 574.4375 663.671875 Z M 293.410156 451.042969 "/>
</clipPath>
<clipPath id="clip-21">
<path clip-rule="nonzero" d="M 195.804688 46.488281 L 580.917969 46.488281 L 580.917969 425.949219 L 195.804688 425.949219 Z M 195.804688 46.488281 "/>
</clipPath>
<clipPath id="clip-22">
<path clip-rule="evenodd" d="M 195.804688 46.488281 L 580.917969 46.488281 L 580.917969 425.949219 L 195.804688 425.949219 Z M 195.804688 46.488281 L 365.050781 323.871094 C 365.050781 352.417969 341.910156 375.558594 313.363281 375.558594 C 284.816406 375.558594 261.675781 352.417969 261.675781 323.871094 C 261.675781 295.324219 284.816406 272.183594 313.363281 272.183594 C 341.910156 272.183594 365.050781 295.324219 365.050781 323.871094 Z M 195.804688 46.488281 "/>
</clipPath>
<clipPath id="clip-23">
<path clip-rule="evenodd" d="M 195.804688 46.488281 L 580.917969 46.488281 L 580.917969 425.949219 L 195.804688 425.949219 Z M 195.804688 46.488281 L 515.042969 148.5625 C 515.042969 177.109375 491.902344 200.25 463.355469 200.25 C 434.808594 200.25 411.667969 177.109375 411.667969 148.5625 C 411.667969 120.015625 434.808594 96.875 463.355469 96.875 C 491.902344 96.875 515.042969 120.015625 515.042969 148.5625 Z M 195.804688 46.488281 "/>
</clipPath>
<linearGradient id="linear-pattern-1" gradientUnits="userSpaceOnUse" x1="1.499431" y1="3.25933" x2="2.562357" y2="2.017022">
<stop offset="0" stop-color="rgb(68.235294%, 78.039216%, 90.980392%)" stop-opacity="0.8"/>
<stop offset="1" stop-color="rgb(12.156863%, 46.666667%, 70.588235%)" stop-opacity="0.8"/>
</linearGradient>
<clipPath id="clip-24">
<path clip-rule="nonzero" d="M 75.710938 177 L 326.121094 177 L 326.121094 474 L 75.710938 474 Z M 75.710938 177 "/>
</clipPath>
<clipPath id="clip-25">
<path clip-rule="evenodd" d="M 75.710938 172.441406 L 326.121094 172.441406 L 326.121094 479.160156 L 75.710938 479.160156 Z M 75.710938 172.441406 L 365.050781 323.871094 C 365.050781 352.417969 341.910156 375.558594 313.363281 375.558594 C 284.816406 375.558594 261.675781 352.417969 261.675781 323.871094 C 261.675781 295.324219 284.816406 272.183594 313.363281 272.183594 C 341.910156 272.183594 365.050781 295.324219 365.050781 323.871094 Z M 75.710938 172.441406 "/>
</clipPath>
<clipPath id="clip-26">
<path clip-rule="evenodd" d="M 75.710938 172.441406 L 326.121094 172.441406 L 326.121094 479.160156 L 75.710938 479.160156 Z M 75.710938 172.441406 L 140.152344 327.726562 C 140.152344 356.273438 117.011719 379.414062 88.464844 379.414062 C 59.917969 379.414062 36.777344 356.273438 36.777344 327.726562 C 36.777344 299.179688 59.917969 276.039062 88.464844 276.039062 C 117.011719 276.039062 140.152344 299.179688 140.152344 327.726562 Z M 75.710938 172.441406 "/>
</clipPath>
<linearGradient id="linear-pattern-2" gradientUnits="userSpaceOnUse" x1="1.499431" y1="3.25933" x2="-0.0943016" y2="3.286657">
<stop offset="0" stop-color="rgb(68.235294%, 78.039216%, 90.980392%)" stop-opacity="0.8"/>
<stop offset="1" stop-color="rgb(12.156863%, 46.666667%, 70.588235%)" stop-opacity="0.8"/>
</linearGradient>
<clipPath id="clip-27">
<path clip-rule="nonzero" d="M 294.695312 592.347656 L 660.34375 592.347656 L 660.34375 923.761719 L 294.695312 923.761719 Z M 294.695312 592.347656 "/>
</clipPath>
<clipPath id="clip-28">
<path clip-rule="evenodd" d="M 294.695312 592.347656 L 660.34375 592.347656 L 660.34375 923.761719 L 294.695312 923.761719 Z M 294.695312 592.347656 L 483.972656 852.433594 C 483.972656 880.980469 460.832031 904.121094 432.285156 904.121094 C 403.742188 904.121094 380.597656 880.980469 380.597656 852.433594 C 380.597656 823.886719 403.742188 800.746094 432.285156 800.746094 C 460.832031 800.746094 483.972656 823.886719 483.972656 852.433594 Z M 294.695312 592.347656 "/>
</clipPath>
<clipPath id="clip-29">
<path clip-rule="evenodd" d="M 294.695312 592.347656 L 660.34375 592.347656 L 660.34375 923.761719 L 294.695312 923.761719 Z M 294.695312 592.347656 L 574.4375 663.671875 C 574.4375 692.214844 551.296875 715.359375 522.75 715.359375 C 494.203125 715.359375 471.0625 692.214844 471.0625 663.671875 C 471.0625 635.125 494.203125 611.984375 522.75 611.984375 C 551.296875 611.984375 574.4375 635.125 574.4375 663.671875 Z M 294.695312 592.347656 "/>
</clipPath>
<clipPath id="clip-30">
<path clip-rule="nonzero" d="M 362.664062 714.042969 L 709.160156 714.042969 L 709.160156 1086.777344 L 362.664062 1086.777344 Z M 362.664062 714.042969 "/>
</clipPath>
<clipPath id="clip-31">
<path clip-rule="evenodd" d="M 362.664062 714.042969 L 709.160156 714.042969 L 709.160156 1086.777344 L 362.664062 1086.777344 Z M 362.664062 714.042969 L 483.972656 852.433594 C 483.972656 880.980469 460.832031 904.121094 432.285156 904.121094 C 403.742188 904.121094 380.597656 880.980469 380.597656 852.433594 C 380.597656 823.886719 403.742188 800.746094 432.285156 800.746094 C 460.832031 800.746094 483.972656 823.886719 483.972656 852.433594 Z M 362.664062 714.042969 "/>
</clipPath>
<clipPath id="clip-32">
<path clip-rule="evenodd" d="M 362.664062 714.042969 L 709.160156 714.042969 L 709.160156 1086.777344 L 362.664062 1086.777344 Z M 362.664062 714.042969 L 691.222656 948.382812 C 691.222656 976.929688 668.082031 1000.070312 639.535156 1000.070312 C 610.988281 1000.070312 587.847656 976.929688 587.847656 948.382812 C 587.847656 919.835938 610.988281 896.695312 639.535156 896.695312 C 668.082031 896.695312 691.222656 919.835938 691.222656 948.382812 Z M 362.664062 714.042969 "/>
</clipPath>
<linearGradient id="linear-pattern-3" gradientUnits="userSpaceOnUse" x1="2.342191" y1="7.005004" x2="3.810854" y2="7.684943">
<stop offset="0" stop-color="rgb(68.235294%, 78.039216%, 90.980392%)" stop-opacity="0.8"/>
<stop offset="1" stop-color="rgb(12.156863%, 46.666667%, 70.588235%)" stop-opacity="0.8"/>
</linearGradient>
<clipPath id="clip-33">
<path clip-rule="nonzero" d="M 156.4375 713.152344 L 499.945312 713.152344 L 499.945312 1084.265625 L 156.4375 1084.265625 Z M 156.4375 713.152344 "/>
</clipPath>
<clipPath id="clip-34">
<path clip-rule="evenodd" d="M 156.4375 713.152344 L 499.945312 713.152344 L 499.945312 1084.265625 L 156.4375 1084.265625 Z M 156.4375 713.152344 L 483.972656 852.433594 C 483.972656 880.980469 460.832031 904.121094 432.285156 904.121094 C 403.742188 904.121094 380.597656 880.980469 380.597656 852.433594 C 380.597656 823.886719 403.742188 800.746094 432.285156 800.746094 C 460.832031 800.746094 483.972656 823.886719 483.972656 852.433594 Z M 156.4375 713.152344 "/>
</clipPath>
<clipPath id="clip-35">
<path clip-rule="evenodd" d="M 156.4375 713.152344 L 499.945312 713.152344 L 499.945312 1084.265625 L 156.4375 1084.265625 Z M 156.4375 713.152344 L 275.78125 944.980469 C 275.78125 973.527344 252.640625 996.667969 224.09375 996.667969 C 195.546875 996.667969 172.40625 973.527344 172.40625 944.980469 C 172.40625 916.433594 195.546875 893.292969 224.09375 893.292969 C 252.640625 893.292969 275.78125 916.433594 275.78125 944.980469 Z M 156.4375 713.152344 "/>
</clipPath>
<linearGradient id="linear-pattern-4" gradientUnits="userSpaceOnUse" x1="2.342191" y1="7.005004" x2="0.866831" y2="7.660835">
<stop offset="0" stop-color="rgb(68.235294%, 78.039216%, 90.980392%)" stop-opacity="0.8"/>
<stop offset="1" stop-color="rgb(12.156863%, 46.666667%, 70.588235%)" stop-opacity="0.8"/>
</linearGradient>
<clipPath id="clip-36">
<path clip-rule="nonzero" d="M 284 841.414062 L 579 841.414062 L 579 1099.464844 L 284 1099.464844 Z M 284 841.414062 "/>
</clipPath>
<clipPath id="clip-37">
<path clip-rule="evenodd" d="M 279.691406 841.414062 L 583.738281 841.414062 L 583.738281 1099.464844 L 279.691406 1099.464844 Z M 279.691406 841.414062 L 483.972656 852.433594 C 483.972656 880.980469 460.832031 904.121094 432.285156 904.121094 C 403.742188 904.121094 380.597656 880.980469 380.597656 852.433594 C 380.597656 823.886719 403.742188 800.746094 432.285156 800.746094 C 460.832031 800.746094 483.972656 823.886719 483.972656 852.433594 Z M 279.691406 841.414062 "/>
</clipPath>
<clipPath id="clip-38">
<path clip-rule="evenodd" d="M 279.691406 841.414062 L 583.738281 841.414062 L 583.738281 1099.464844 L 279.691406 1099.464844 Z M 279.691406 841.414062 L 482.828125 1088.441406 C 482.828125 1116.988281 459.6875 1140.128906 431.140625 1140.128906 C 402.59375 1140.128906 379.453125 1116.988281 379.453125 1088.441406 C 379.453125 1059.894531 402.59375 1036.753906 431.140625 1036.753906 C 459.6875 1036.753906 482.828125 1059.894531 482.828125 1088.441406 Z M 279.691406 841.414062 "/>
</clipPath>
<linearGradient id="linear-pattern-5" gradientUnits="userSpaceOnUse" x1="2.342191" y1="7.005004" x2="2.334075" y2="8.677469">
<stop offset="0" stop-color="rgb(68.235294%, 78.039216%, 90.980392%)" stop-opacity="0.8"/>
<stop offset="1" stop-color="rgb(12.156863%, 46.666667%, 70.588235%)" stop-opacity="0.8"/>
</linearGradient>
</defs>
<g clip-path="url(#clip-0)">
<g clip-path="url(#clip-1)">
<g clip-path="url(#clip-2)">
<path fill="none" stroke-width="0.0732569" stroke-linecap="butt" stroke-linejoin="miter" stroke="url(#linear-pattern-0)" stroke-miterlimit="10" d="M 0.8038 1.754787 L 1.499439 3.259338 " transform="matrix(141.113454, 0, 0, 141.113454, 101.772255, -136.065414)"/>
</g>
</g>
</g>
<g clip-path="url(#clip-3)">
<g clip-path="url(#clip-4)">
<g clip-path="url(#clip-5)">
<path fill="none" stroke-width="0.0732569" stroke-linecap="butt" stroke-linejoin="miter" stroke="rgb(68.235294%, 78.039216%, 90.980392%)" stroke-opacity="0.8" stroke-miterlimit="10" d="M 2.65977 4.21906 L 1.854954 5.139613 " transform="matrix(141.113454, 0, 0, 141.113454, 101.772255, -136.065414)"/>
</g>
</g>
</g>
<g clip-path="url(#clip-6)">
<g clip-path="url(#clip-7)">
<g clip-path="url(#clip-8)">
<path fill="none" stroke-width="0.0732569" stroke-linecap="butt" stroke-linejoin="miter" stroke="rgb(68.235294%, 78.039216%, 90.980392%)" stroke-opacity="0.8" stroke-miterlimit="10" d="M 2.65977 4.21906 L 1.499439 3.259338 " transform="matrix(141.113454, 0, 0, 141.113454, 101.772255, -136.065414)"/>
</g>
</g>
</g>
<g clip-path="url(#clip-9)">
<g clip-path="url(#clip-10)">
<g clip-path="url(#clip-11)">
<path fill="none" stroke-width="0.0732569" stroke-linecap="butt" stroke-linejoin="miter" stroke="rgb(68.235294%, 78.039216%, 90.980392%)" stroke-opacity="0.8" stroke-miterlimit="10" d="M 2.65977 4.21906 L 2.983257 5.667336 " transform="matrix(141.113454, 0, 0, 141.113454, 101.772255, -136.065414)"/>
</g>
</g>
</g>
<g clip-path="url(#clip-12)">
<g clip-path="url(#clip-13)">
<g clip-path="url(#clip-14)">
<path fill="none" stroke-width="0.0732569" stroke-linecap="butt" stroke-linejoin="miter" stroke="rgb(68.235294%, 78.039216%, 90.980392%)" stroke-opacity="0.8" stroke-miterlimit="10" d="M 1.854954 5.139613 L 1.499439 3.259338 " transform="matrix(141.113454, 0, 0, 141.113454, 101.772255, -136.065414)"/>
</g>
</g>
</g>
<g clip-path="url(#clip-15)">
<g clip-path="url(#clip-16)">
<g clip-path="url(#clip-17)">
<path fill="none" stroke-width="0.0732569" stroke-linecap="butt" stroke-linejoin="miter" stroke="rgb(68.235294%, 78.039216%, 90.980392%)" stroke-opacity="0.8" stroke-miterlimit="10" d="M 1.854954 5.139613 L 2.342179 7.004995 " transform="matrix(141.113454, 0, 0, 141.113454, 101.772255, -136.065414)"/>
</g>
</g>
</g>
<g clip-path="url(#clip-18)">
<g clip-path="url(#clip-19)">
<g clip-path="url(#clip-20)">
<path fill="none" stroke-width="0.0732569" stroke-linecap="butt" stroke-linejoin="miter" stroke="rgb(68.235294%, 78.039216%, 90.980392%)" stroke-opacity="0.8" stroke-miterlimit="10" d="M 1.854954 5.139613 L 2.983257 5.667336 " transform="matrix(141.113454, 0, 0, 141.113454, 101.772255, -136.065414)"/>
</g>
</g>
</g>
<g clip-path="url(#clip-21)">
<g clip-path="url(#clip-22)">
<g clip-path="url(#clip-23)">
<path fill="none" stroke-width="0.0732569" stroke-linecap="butt" stroke-linejoin="miter" stroke="url(#linear-pattern-1)" stroke-miterlimit="10" d="M 1.499439 3.259338 L 2.562358 2.017015 " transform="matrix(141.113454, 0, 0, 141.113454, 101.772255, -136.065414)"/>
</g>
</g>
</g>
<g clip-path="url(#clip-24)">
<g clip-path="url(#clip-25)">
<g clip-path="url(#clip-26)">
<path fill="none" stroke-width="0.0732569" stroke-linecap="butt" stroke-linejoin="miter" stroke="url(#linear-pattern-2)" stroke-miterlimit="10" d="M 1.499439 3.259338 L -0.0943029 3.28666 " transform="matrix(141.113454, 0, 0, 141.113454, 101.772255, -136.065414)"/>
</g>
</g>
</g>
<g clip-path="url(#clip-27)">
<g clip-path="url(#clip-28)">
<g clip-path="url(#clip-29)">
<path fill="none" stroke-width="0.0732569" stroke-linecap="butt" stroke-linejoin="miter" stroke="rgb(68.235294%, 78.039216%, 90.980392%)" stroke-opacity="0.8" stroke-miterlimit="10" d="M 2.342179 7.004995 L 2.983257 5.667336 " transform="matrix(141.113454, 0, 0, 141.113454, 101.772255, -136.065414)"/>
</g>
</g>
</g>
<g clip-path="url(#clip-30)">
<g clip-path="url(#clip-31)">
<g clip-path="url(#clip-32)">
<path fill="none" stroke-width="0.0732569" stroke-linecap="butt" stroke-linejoin="miter" stroke="url(#linear-pattern-3)" stroke-miterlimit="10" d="M 2.342179 7.004995 L 3.810855 7.684939 " transform="matrix(141.113454, 0, 0, 141.113454, 101.772255, -136.065414)"/>
</g>
</g>
</g>
<g clip-path="url(#clip-33)">
<g clip-path="url(#clip-34)">
<g clip-path="url(#clip-35)">
<path fill="none" stroke-width="0.0732569" stroke-linecap="butt" stroke-linejoin="miter" stroke="url(#linear-pattern-4)" stroke-miterlimit="10" d="M 2.342179 7.004995 L 0.866831 7.660828 " transform="matrix(141.113454, 0, 0, 141.113454, 101.772255, -136.065414)"/>
</g>
</g>
</g>
<g clip-path="url(#clip-36)">
<g clip-path="url(#clip-37)">
<g clip-path="url(#clip-38)">
<path fill="none" stroke-width="0.0732569" stroke-linecap="butt" stroke-linejoin="miter" stroke="url(#linear-pattern-5)" stroke-miterlimit="10" d="M 2.342179 7.004995 L 2.334068 8.677463 " transform="matrix(141.113454, 0, 0, 141.113454, 101.772255, -136.065414)"/>
</g>
</g>
</g>
<path fill-rule="nonzero" fill="rgb(12.156863%, 46.666667%, 70.588235%)" fill-opacity="1" stroke-width="0.0732569" stroke-linecap="butt" stroke-linejoin="miter" stroke="rgb(12.156863%, 46.666667%, 70.588235%)" stroke-opacity="1" stroke-miterlimit="10" d="M 0.366276 0.00000570325 C 0.366276 0.202303 0.20229 0.366289 -0.00000744662 0.366289 C -0.202305 0.366289 -0.366291 0.202303 -0.366291 0.00000570325 C -0.366291 -0.202292 -0.202305 -0.366278 -0.00000744662 -0.366278 C 0.20229 -0.366278 0.366276 -0.202292 0.366276 0.00000570325 Z M 0.366276 0.00000570325 " transform="matrix(141.113454, 0, 0, 141.113454, 215.20027, 111.557789)"/>
<path fill-rule="nonzero" fill="rgb(68.235294%, 78.039216%, 90.980392%)" fill-opacity="1" stroke-width="0.0732569" stroke-linecap="butt" stroke-linejoin="miter" stroke="rgb(68.235294%, 78.039216%, 90.980392%)" stroke-opacity="1" stroke-miterlimit="10" d="M 0.366277 0.0000134441 C 0.366277 0.202283 0.202291 0.366297 -0.000006743 0.366297 C -0.202304 0.366297 -0.36629 0.202283 -0.36629 0.0000134441 C -0.36629 -0.202284 -0.202304 -0.366298 -0.000006743 -0.366298 C 0.202291 -0.366298 0.366277 -0.202284 0.366277 0.0000134441 Z M 0.366277 0.0000134441 " transform="matrix(141.113454, 0, 0, 141.113454, 477.102514, 459.298884)"/>
<path fill-rule="nonzero" fill="rgb(68.235294%, 78.039216%, 90.980392%)" fill-opacity="1" stroke-width="0.0732569" stroke-linecap="butt" stroke-linejoin="miter" stroke="rgb(68.235294%, 78.039216%, 90.980392%)" stroke-opacity="1" stroke-miterlimit="10" d="M 0.366278 -0.00000732163 C 0.366278 0.20229 0.202292 0.366276 -0.0000050107 0.366276 C -0.202302 0.366276 -0.366288 0.20229 -0.366288 -0.00000732163 C -0.366288 -0.202305 -0.202302 -0.366291 -0.0000050107 -0.366291 C 0.202292 -0.366291 0.366278 -0.202305 0.366278 -0.00000732163 Z M 0.366278 -0.00000732163 " transform="matrix(141.113454, 0, 0, 141.113454, 363.531957, 589.204158)"/>
<path fill-rule="nonzero" fill="rgb(68.235294%, 78.039216%, 90.980392%)" fill-opacity="1" stroke-width="0.0732569" stroke-linecap="butt" stroke-linejoin="miter" stroke="rgb(68.235294%, 78.039216%, 90.980392%)" stroke-opacity="1" stroke-miterlimit="10" d="M 0.366292 0.00000872438 C 0.366292 0.202306 0.202306 0.366292 0.00000854622 0.366292 C -0.202289 0.366292 -0.366275 0.202306 -0.366275 0.00000872438 C -0.366275 -0.202289 -0.202289 -0.366275 0.00000854622 -0.366275 C 0.202306 -0.366275 0.366292 -0.202289 0.366292 0.00000872438 Z M 0.366292 0.00000872438 " transform="matrix(141.113454, 0, 0, 141.113454, 313.362075, 323.869863)"/>
<path fill-rule="nonzero" fill="rgb(12.156863%, 46.666667%, 70.588235%)" fill-opacity="1" stroke-width="0.0732569" stroke-linecap="butt" stroke-linejoin="miter" stroke="rgb(12.156863%, 46.666667%, 70.588235%)" stroke-opacity="1" stroke-miterlimit="10" d="M 0.366284 -0.0000077144 C 0.366284 0.20229 0.202298 0.366276 0.00000071604 0.366276 C -0.202297 0.366276 -0.366283 0.20229 -0.366283 -0.0000077144 C -0.366283 -0.202305 -0.202297 -0.366291 0.00000071604 -0.366291 C 0.202298 -0.366291 0.366284 -0.202305 0.366284 -0.0000077144 Z M 0.366284 -0.0000077144 " transform="matrix(141.113454, 0, 0, 141.113454, 463.355368, 148.563589)"/>
<path fill-rule="nonzero" fill="rgb(12.156863%, 46.666667%, 70.588235%)" fill-opacity="1" stroke-width="0.0732569" stroke-linecap="butt" stroke-linejoin="miter" stroke="rgb(12.156863%, 46.666667%, 70.588235%)" stroke-opacity="1" stroke-miterlimit="10" d="M 0.366282 0.00000307385 C 0.366282 0.2023 0.202296 0.366286 -0.00000127553 0.366286 C -0.202299 0.366286 -0.366285 0.2023 -0.366285 0.00000307385 C -0.366285 -0.202294 -0.202299 -0.36628 -0.00000127553 -0.36628 C 0.202296 -0.36628 0.366282 -0.202294 0.366282 0.00000307385 Z M 0.366282 0.00000307385 " transform="matrix(141.113454, 0, 0, 141.113454, 88.465024, 327.726129)"/>
<path fill-rule="nonzero" fill="rgb(68.235294%, 78.039216%, 90.980392%)" fill-opacity="1" stroke-width="0.0732569" stroke-linecap="butt" stroke-linejoin="miter" stroke="rgb(68.235294%, 78.039216%, 90.980392%)" stroke-opacity="1" stroke-miterlimit="10" d="M 0.366271 -0.0000089958 C 0.366271 0.202288 0.202285 0.366274 -0.0000120527 0.366274 C -0.202282 0.366274 -0.366295 0.202288 -0.366295 -0.0000089958 C -0.366295 -0.202306 -0.202282 -0.366292 -0.0000120527 -0.366292 C 0.202285 -0.366292 0.366271 -0.202306 0.366271 -0.0000089958 Z M 0.366271 -0.0000089958 " transform="matrix(141.113454, 0, 0, 141.113454, 432.286857, 852.434863)"/>
<path fill-rule="nonzero" fill="rgb(68.235294%, 78.039216%, 90.980392%)" fill-opacity="1" stroke-width="0.0732569" stroke-linecap="butt" stroke-linejoin="miter" stroke="rgb(68.235294%, 78.039216%, 90.980392%)" stroke-opacity="1" stroke-miterlimit="10" d="M 0.366286 0.000012643 C 0.366286 0.202282 0.2023 0.366296 0.00000289069 0.366296 C -0.202294 0.366296 -0.36628 0.202282 -0.36628 0.000012643 C -0.36628 -0.202285 -0.202294 -0.366271 0.00000289069 -0.366271 C 0.2023 -0.366271 0.366286 -0.202285 0.366286 0.000012643 Z M 0.366286 0.000012643 " transform="matrix(141.113454, 0, 0, 141.113454, 522.749592, 663.670091)"/>
<path fill-rule="nonzero" fill="rgb(12.156863%, 46.666667%, 70.588235%)" fill-opacity="1" stroke-width="0.0732569" stroke-linecap="butt" stroke-linejoin="miter" stroke="rgb(12.156863%, 46.666667%, 70.588235%)" stroke-opacity="1" stroke-miterlimit="10" d="M 0.366285 -0.00000415233 C 0.366285 0.202293 0.202299 0.366279 0.00000127553 0.366279 C -0.202296 0.366279 -0.366282 0.202293 -0.366282 -0.00000415233 C -0.366282 -0.202301 -0.202296 -0.366287 0.00000127553 -0.366287 C 0.202299 -0.366287 0.366285 -0.202301 0.366285 -0.00000415233 Z M 0.366285 -0.00000415233 " transform="matrix(141.113454, 0, 0, 141.113454, 639.534976, 948.383398)"/>
<path fill-rule="nonzero" fill="rgb(12.156863%, 46.666667%, 70.588235%)" fill-opacity="1" stroke-width="0.0732569" stroke-linecap="butt" stroke-linejoin="miter" stroke="rgb(12.156863%, 46.666667%, 70.588235%)" stroke-opacity="1" stroke-miterlimit="10" d="M 0.366283 -0.00000751904 C 0.366283 0.20229 0.202297 0.366276 0.000000158659 0.366276 C -0.202297 0.366276 -0.366283 0.20229 -0.366283 -0.00000751904 C -0.366283 -0.202305 -0.202297 -0.366291 0.000000158659 -0.366291 C 0.202297 -0.366291 0.366283 -0.202305 0.366283 -0.00000751904 Z M 0.366283 -0.00000751904 " transform="matrix(141.113454, 0, 0, 141.113454, 224.093728, 944.98153)"/>
<path fill-rule="nonzero" fill="rgb(12.156863%, 46.666667%, 70.588235%)" fill-opacity="1" stroke-width="0.0732569" stroke-linecap="butt" stroke-linejoin="miter" stroke="rgb(12.156863%, 46.666667%, 70.588235%)" stroke-opacity="1" stroke-miterlimit="10" d="M 0.366276 -0.00000570325 C 0.366276 0.202292 0.20229 0.366278 -0.00000749582 0.366278 C -0.202305 0.366278 -0.366291 0.202292 -0.366291 -0.00000570325 C -0.366291 -0.202303 -0.202305 -0.366289 -0.00000749582 -0.366289 C 0.20229 -0.366289 0.366276 -0.202303 0.366276 -0.00000570325 Z M 0.366276 -0.00000570325 " transform="matrix(141.113454, 0, 0, 141.113454, 431.141683, 1088.442211)"/>
</svg>
