<?xml version="1.0" encoding="utf-8" standalone="no"?>
<!DOCTYPE svg PUBLIC "-//W3C//DTD SVG 1.1//EN"
  "http://www.w3.org/Graphics/SVG/1.1/DTD/svg11.dtd">
<svg xmlns:xlink="http://www.w3.org/1999/xlink" width="351.7pt" height="97.334219pt" viewBox="0 0 351.7 97.334219" xmlns="http://www.w3.org/2000/svg" version="1.1">
 <metadata>
  <rdf:RDF xmlns:dc="http://purl.org/dc/elements/1.1/" xmlns:cc="http://creativecommons.org/ns#" xmlns:rdf="http://www.w3.org/1999/02/22-rdf-syntax-ns#">
   <cc:Work>
    <dc:type rdf:resource="http://purl.org/dc/dcmitype/StillImage"/>
    <dc:date>2025-10-24T19:41:43.565629</dc:date>
    <dc:format>image/svg+xml</dc:format>
    <dc:creator>
     <cc:Agent>
      <dc:title>Matplotlib v3.10.6, https://matplotlib.org/</dc:title>
     </cc:Agent>
    </dc:creator>
   </cc:Work>
  </rdf:RDF>
 </metadata>
 <defs>
  <style type="text/css">*{stroke-linejoin: round; stroke-linecap: butt}</style>
 </defs>
 <g id="figure_1">
  <g id="patch_1">
   <path d="M 0 97.334219 
L 351.7 97.334219 
L 351.7 0 
L 0 0 
L 0 97.334219 
z
" style="fill: none"/>
  </g>
  <g id="axes_1">
   <g id="patch_2">
    <path d="M 9.7 73.650469 
L 108.170588 73.650469 
L 108.170588 18.210469 
L 9.7 18.210469 
L 9.7 73.650469 
z
" style="fill: none"/>
   </g>
   <g id="FillBetweenPolyCollection_1">
    <defs>
     <path id="m99f87fa67f" d="M 14.175936 -23.810053 
L 14.175936 -23.68375 
L 14.625779 -23.68375 
L 15.075621 -23.68375 
L 15.525464 -23.68375 
L 15.975307 -23.68375 
L 16.42515 -23.68375 
L 16.874993 -23.68375 
L 17.324835 -23.68375 
L 17.774678 -23.68375 
L 18.224521 -23.68375 
L 18.674364 -23.68375 
L 19.124207 -23.68375 
L 19.574049 -23.68375 
L 20.023892 -23.68375 
L 20.473735 -23.68375 
L 20.923578 -23.68375 
L 21.373421 -23.68375 
L 21.823263 -23.68375 
L 22.273106 -23.68375 
L 22.722949 -23.68375 
L 23.172792 -23.68375 
L 23.622635 -23.68375 
L 24.072477 -23.68375 
L 24.52232 -23.68375 
L 24.972163 -23.68375 
L 25.422006 -23.68375 
L 25.871849 -23.68375 
L 26.321691 -23.68375 
L 26.771534 -23.68375 
L 27.221377 -23.68375 
L 27.67122 -23.68375 
L 28.121063 -23.68375 
L 28.570905 -23.68375 
L 29.020748 -23.68375 
L 29.470591 -23.68375 
L 29.920434 -23.68375 
L 30.370277 -23.68375 
L 30.820119 -23.68375 
L 31.269962 -23.68375 
L 31.719805 -23.68375 
L 32.169648 -23.68375 
L 32.619491 -23.68375 
L 33.069333 -23.68375 
L 33.519176 -23.68375 
L 33.969019 -23.68375 
L 34.418862 -23.68375 
L 34.868704 -23.68375 
L 35.318547 -23.68375 
L 35.76839 -23.68375 
L 36.218233 -23.68375 
L 36.668076 -23.68375 
L 37.117918 -23.68375 
L 37.567761 -23.68375 
L 38.017604 -23.68375 
L 38.467447 -23.68375 
L 38.91729 -23.68375 
L 39.367132 -23.68375 
L 39.816975 -23.68375 
L 40.266818 -23.68375 
L 40.716661 -23.68375 
L 41.166504 -23.68375 
L 41.616346 -23.68375 
L 42.066189 -23.68375 
L 42.516032 -23.68375 
L 42.965875 -23.68375 
L 43.415718 -23.68375 
L 43.86556 -23.68375 
L 44.315403 -23.68375 
L 44.765246 -23.68375 
L 45.215089 -23.68375 
L 45.664932 -23.68375 
L 46.114774 -23.68375 
L 46.564617 -23.68375 
L 47.01446 -23.68375 
L 47.464303 -23.68375 
L 47.914146 -23.68375 
L 48.363988 -23.68375 
L 48.813831 -23.68375 
L 49.263674 -23.68375 
L 49.713517 -23.68375 
L 50.16336 -23.68375 
L 50.613202 -23.68375 
L 51.063045 -23.68375 
L 51.512888 -23.68375 
L 51.962731 -23.68375 
L 52.412574 -23.68375 
L 52.862416 -23.68375 
L 53.312259 -23.68375 
L 53.762102 -23.68375 
L 54.211945 -23.68375 
L 54.661788 -23.68375 
L 55.11163 -23.68375 
L 55.561473 -23.68375 
L 56.011316 -23.68375 
L 56.461159 -23.68375 
L 56.911002 -23.68375 
L 57.360844 -23.68375 
L 57.810687 -23.68375 
L 58.26053 -23.68375 
L 58.710373 -23.68375 
L 59.160216 -23.68375 
L 59.610058 -23.68375 
L 60.059901 -23.68375 
L 60.509744 -23.68375 
L 60.959587 -23.68375 
L 61.40943 -23.68375 
L 61.859272 -23.68375 
L 62.309115 -23.68375 
L 62.758958 -23.68375 
L 63.208801 -23.68375 
L 63.658643 -23.68375 
L 64.108486 -23.68375 
L 64.558329 -23.68375 
L 65.008172 -23.68375 
L 65.458015 -23.68375 
L 65.907857 -23.68375 
L 66.3577 -23.68375 
L 66.807543 -23.68375 
L 67.257386 -23.68375 
L 67.707229 -23.68375 
L 68.157071 -23.68375 
L 68.606914 -23.68375 
L 69.056757 -23.68375 
L 69.5066 -23.68375 
L 69.956443 -23.68375 
L 70.406285 -23.68375 
L 70.856128 -23.68375 
L 71.305971 -23.68375 
L 71.755814 -23.68375 
L 72.205657 -23.68375 
L 72.655499 -23.68375 
L 73.105342 -23.68375 
L 73.555185 -23.68375 
L 74.005028 -23.68375 
L 74.454871 -23.68375 
L 74.904713 -23.68375 
L 75.354556 -23.68375 
L 75.804399 -23.68375 
L 76.254242 -23.68375 
L 76.704085 -23.68375 
L 77.153927 -23.68375 
L 77.60377 -23.68375 
L 78.053613 -23.68375 
L 78.503456 -23.68375 
L 78.953299 -23.68375 
L 79.403141 -23.68375 
L 79.852984 -23.68375 
L 80.302827 -23.68375 
L 80.75267 -23.68375 
L 81.202513 -23.68375 
L 81.652355 -23.68375 
L 82.102198 -23.68375 
L 82.552041 -23.68375 
L 83.001884 -23.68375 
L 83.451727 -23.68375 
L 83.901569 -23.68375 
L 84.351412 -23.68375 
L 84.801255 -23.68375 
L 85.251098 -23.68375 
L 85.700941 -23.68375 
L 86.150783 -23.68375 
L 86.600626 -23.68375 
L 87.050469 -23.68375 
L 87.500312 -23.68375 
L 87.950155 -23.68375 
L 88.399997 -23.68375 
L 88.84984 -23.68375 
L 89.299683 -23.68375 
L 89.749526 -23.68375 
L 90.199369 -23.68375 
L 90.649211 -23.68375 
L 91.099054 -23.68375 
L 91.548897 -23.68375 
L 91.99874 -23.68375 
L 92.448582 -23.68375 
L 92.898425 -23.68375 
L 93.348268 -23.68375 
L 93.798111 -23.68375 
L 94.247954 -23.68375 
L 94.697796 -23.68375 
L 95.147639 -23.68375 
L 95.597482 -23.68375 
L 96.047325 -23.68375 
L 96.497168 -23.68375 
L 96.94701 -23.68375 
L 97.396853 -23.68375 
L 97.846696 -23.68375 
L 98.296539 -23.68375 
L 98.746382 -23.68375 
L 99.196224 -23.68375 
L 99.646067 -23.68375 
L 100.09591 -23.68375 
L 100.545753 -23.68375 
L 100.995596 -23.68375 
L 101.445438 -23.68375 
L 101.895281 -23.68375 
L 102.345124 -23.68375 
L 102.794967 -23.68375 
L 103.24481 -23.68375 
L 103.694652 -23.68375 
L 103.694652 -23.685724 
L 103.694652 -23.685724 
L 103.24481 -23.686623 
L 102.794967 -23.687878 
L 102.345124 -23.689603 
L 101.895281 -23.691944 
L 101.445438 -23.695073 
L 100.995596 -23.699197 
L 100.545753 -23.704555 
L 100.09591 -23.711417 
L 99.646067 -23.72008 
L 99.196224 -23.73086 
L 98.746382 -23.744079 
L 98.296539 -23.760057 
L 97.846696 -23.779088 
L 97.396853 -23.801424 
L 96.94701 -23.827254 
L 96.497168 -23.856683 
L 96.047325 -23.889711 
L 95.597482 -23.926223 
L 95.147639 -23.96597 
L 94.697796 -24.008574 
L 94.247954 -24.053527 
L 93.798111 -24.100204 
L 93.348268 -24.147887 
L 92.898425 -24.195785 
L 92.448582 -24.243074 
L 91.99874 -24.288931 
L 91.548897 -24.332569 
L 91.099054 -24.373275 
L 90.649211 -24.410439 
L 90.199369 -24.443584 
L 89.749526 -24.472384 
L 89.299683 -24.496674 
L 88.84984 -24.516454 
L 88.399997 -24.531889 
L 87.950155 -24.543293 
L 87.500312 -24.551121 
L 87.050469 -24.555937 
L 86.600626 -24.558395 
L 86.150783 -24.559209 
L 85.700941 -24.559112 
L 85.251098 -24.558827 
L 84.801255 -24.559019 
L 84.351412 -24.560267 
L 83.901569 -24.563013 
L 83.451727 -24.567537 
L 83.001884 -24.573927 
L 82.552041 -24.582059 
L 82.102198 -24.591593 
L 81.652355 -24.601981 
L 81.202513 -24.612494 
L 80.75267 -24.622256 
L 80.302827 -24.630298 
L 79.852984 -24.63562 
L 79.403141 -24.637257 
L 78.953299 -24.634347 
L 78.503456 -24.626191 
L 78.053613 -24.61231 
L 77.60377 -24.592476 
L 77.153927 -24.566735 
L 76.704085 -24.535403 
L 76.254242 -24.499053 
L 75.804399 -24.458475 
L 75.354556 -24.414625 
L 74.904713 -24.368573 
L 74.454871 -24.321437 
L 74.005028 -24.274322 
L 73.555185 -24.228269 
L 73.105342 -24.184207 
L 72.655499 -24.142919 
L 72.205657 -24.105026 
L 71.755814 -24.070976 
L 71.305971 -24.041047 
L 70.856128 -24.015363 
L 70.406285 -23.993914 
L 69.956443 -23.976578 
L 69.5066 -23.963149 
L 69.056757 -23.953361 
L 68.606914 -23.94691 
L 68.157071 -23.943479 
L 67.707229 -23.94275 
L 67.257386 -23.944415 
L 66.807543 -23.948193 
L 66.3577 -23.953829 
L 65.907857 -23.961105 
L 65.458015 -23.969839 
L 65.008172 -23.979889 
L 64.558329 -23.991154 
L 64.108486 -24.003576 
L 63.658643 -24.01714 
L 63.208801 -24.031874 
L 62.758958 -24.047849 
L 62.309115 -24.065178 
L 61.859272 -24.084011 
L 61.40943 -24.104534 
L 60.959587 -24.126961 
L 60.509744 -24.15152 
L 60.059901 -24.178446 
L 59.610058 -24.207956 
L 59.160216 -24.240237 
L 58.710373 -24.275413 
L 58.26053 -24.313526 
L 57.810687 -24.35451 
L 57.360844 -24.398172 
L 56.911002 -24.444172 
L 56.461159 -24.492027 
L 56.011316 -24.541117 
L 55.561473 -24.590705 
L 55.11163 -24.639981 
L 54.661788 -24.688112 
L 54.211945 -24.73431 
L 53.762102 -24.7779 
L 53.312259 -24.818396 
L 52.862416 -24.855567 
L 52.412574 -24.889493 
L 51.962731 -24.920606 
L 51.512888 -24.949702 
L 51.063045 -24.977941 
L 50.613202 -25.006804 
L 50.16336 -25.038042 
L 49.713517 -25.073596 
L 49.263674 -25.115498 
L 48.813831 -25.165765 
L 48.363988 -25.226281 
L 47.914146 -25.298674 
L 47.464303 -25.384205 
L 47.01446 -25.483657 
L 46.564617 -25.597245 
L 46.114774 -25.724541 
L 45.664932 -25.864437 
L 45.215089 -26.01514 
L 44.765246 -26.174211 
L 44.315403 -26.338661 
L 43.86556 -26.505095 
L 43.415718 -26.669919 
L 42.965875 -26.829596 
L 42.516032 -26.980944 
L 42.066189 -27.121474 
L 41.616346 -27.249729 
L 41.166504 -27.365625 
L 40.716661 -27.470757 
L 40.266818 -27.568655 
L 39.816975 -27.66497 
L 39.367132 -27.767567 
L 38.91729 -27.886524 
L 38.467447 -28.034015 
L 38.017604 -28.224087 
L 37.567761 -28.472318 
L 37.117918 -28.79536 
L 36.668076 -29.210375 
L 36.218233 -29.734358 
L 35.76839 -30.38335 
L 35.318547 -31.171571 
L 34.868704 -32.110454 
L 34.418862 -33.207645 
L 33.969019 -34.465972 
L 33.519176 -35.882471 
L 33.069333 -37.447503 
L 32.619491 -39.14408 
L 32.169648 -40.947457 
L 31.719805 -42.825103 
L 31.269962 -44.737114 
L 30.820119 -46.637126 
L 30.370277 -48.473757 
L 29.920434 -50.192535 
L 29.470591 -51.738264 
L 29.020748 -53.057686 
L 28.570905 -54.10228 
L 28.121063 -54.831002 
L 27.67122 -55.21275 
L 27.221377 -55.228348 
L 26.771534 -54.871876 
L 26.321691 -54.151205 
L 25.871849 -53.087697 
L 25.422006 -51.715057 
L 24.972163 -50.077434 
L 24.52232 -48.226919 
L 24.072477 -46.220643 
L 23.622635 -44.117708 
L 23.172792 -41.976175 
L 22.722949 -39.850337 
L 22.273106 -37.788461 
L 21.823263 -35.831099 
L 21.373421 -34.010055 
L 20.923578 -32.348003 
L 20.473735 -30.858689 
L 20.023892 -29.547642 
L 19.574049 -28.413254 
L 19.124207 -27.448096 
L 18.674364 -26.640342 
L 18.224521 -25.975176 
L 17.774678 -25.436092 
L 17.324835 -25.006009 
L 16.874993 -24.668184 
L 16.42515 -24.406882 
L 15.975307 -24.20783 
L 15.525464 -24.058479 
L 15.075621 -23.948092 
L 14.625779 -23.867715 
L 14.175936 -23.810053 
z
" style="stroke: #0072b2"/>
    </defs>
    <g clip-path="url(#p7ed14c657f)">
     <use xlink:href="#m99f87fa67f" x="0" y="97.334219" style="fill: #0072b2; fill-opacity: 0.3; stroke: #0072b2"/>
    </g>
   </g>
   <g id="FillBetweenPolyCollection_2">
    <defs>
     <path id="m8d4c974413" d="M 24.704288 -23.840537 
L 24.704288 -23.68375 
L 24.873101 -23.68375 
L 25.041915 -23.68375 
L 25.210728 -23.68375 
L 25.379542 -23.68375 
L 25.548355 -23.68375 
L 25.717169 -23.68375 
L 25.885982 -23.68375 
L 26.054795 -23.68375 
L 26.223609 -23.68375 
L 26.392422 -23.68375 
L 26.561236 -23.68375 
L 26.730049 -23.68375 
L 26.898863 -23.68375 
L 27.067676 -23.68375 
L 27.23649 -23.68375 
L 27.405303 -23.68375 
L 27.574116 -23.68375 
L 27.74293 -23.68375 
L 27.911743 -23.68375 
L 28.080557 -23.68375 
L 28.24937 -23.68375 
L 28.418184 -23.68375 
L 28.586997 -23.68375 
L 28.75581 -23.68375 
L 28.924624 -23.68375 
L 29.093437 -23.68375 
L 29.262251 -23.68375 
L 29.431064 -23.68375 
L 29.599878 -23.68375 
L 29.768691 -23.68375 
L 29.937504 -23.68375 
L 30.106318 -23.68375 
L 30.275131 -23.68375 
L 30.443945 -23.68375 
L 30.612758 -23.68375 
L 30.781572 -23.68375 
L 30.950385 -23.68375 
L 31.119198 -23.68375 
L 31.288012 -23.68375 
L 31.456825 -23.68375 
L 31.625639 -23.68375 
L 31.794452 -23.68375 
L 31.963266 -23.68375 
L 32.132079 -23.68375 
L 32.300892 -23.68375 
L 32.469706 -23.68375 
L 32.638519 -23.68375 
L 32.807333 -23.68375 
L 32.976146 -23.68375 
L 33.14496 -23.68375 
L 33.313773 -23.68375 
L 33.482586 -23.68375 
L 33.6514 -23.68375 
L 33.820213 -23.68375 
L 33.989027 -23.68375 
L 34.15784 -23.68375 
L 34.326654 -23.68375 
L 34.495467 -23.68375 
L 34.664281 -23.68375 
L 34.833094 -23.68375 
L 35.001907 -23.68375 
L 35.170721 -23.68375 
L 35.339534 -23.68375 
L 35.508348 -23.68375 
L 35.677161 -23.68375 
L 35.845975 -23.68375 
L 36.014788 -23.68375 
L 36.183601 -23.68375 
L 36.352415 -23.68375 
L 36.521228 -23.68375 
L 36.690042 -23.68375 
L 36.858855 -23.68375 
L 37.027669 -23.68375 
L 37.196482 -23.68375 
L 37.365295 -23.68375 
L 37.534109 -23.68375 
L 37.702922 -23.68375 
L 37.871736 -23.68375 
L 38.040549 -23.68375 
L 38.209363 -23.68375 
L 38.378176 -23.68375 
L 38.546989 -23.68375 
L 38.715803 -23.68375 
L 38.884616 -23.68375 
L 39.05343 -23.68375 
L 39.222243 -23.68375 
L 39.391057 -23.68375 
L 39.55987 -23.68375 
L 39.728683 -23.68375 
L 39.897497 -23.68375 
L 40.06631 -23.68375 
L 40.235124 -23.68375 
L 40.403937 -23.68375 
L 40.572751 -23.68375 
L 40.741564 -23.68375 
L 40.910377 -23.68375 
L 41.079191 -23.68375 
L 41.248004 -23.68375 
L 41.416818 -23.68375 
L 41.585631 -23.68375 
L 41.754445 -23.68375 
L 41.923258 -23.68375 
L 42.092072 -23.68375 
L 42.260885 -23.68375 
L 42.429698 -23.68375 
L 42.598512 -23.68375 
L 42.767325 -23.68375 
L 42.936139 -23.68375 
L 43.104952 -23.68375 
L 43.273766 -23.68375 
L 43.442579 -23.68375 
L 43.611392 -23.68375 
L 43.780206 -23.68375 
L 43.949019 -23.68375 
L 44.117833 -23.68375 
L 44.286646 -23.68375 
L 44.45546 -23.68375 
L 44.624273 -23.68375 
L 44.793086 -23.68375 
L 44.9619 -23.68375 
L 45.130713 -23.68375 
L 45.299527 -23.68375 
L 45.46834 -23.68375 
L 45.637154 -23.68375 
L 45.805967 -23.68375 
L 45.97478 -23.68375 
L 46.143594 -23.68375 
L 46.312407 -23.68375 
L 46.481221 -23.68375 
L 46.650034 -23.68375 
L 46.818848 -23.68375 
L 46.987661 -23.68375 
L 47.156474 -23.68375 
L 47.325288 -23.68375 
L 47.494101 -23.68375 
L 47.662915 -23.68375 
L 47.831728 -23.68375 
L 48.000542 -23.68375 
L 48.169355 -23.68375 
L 48.338168 -23.68375 
L 48.506982 -23.68375 
L 48.675795 -23.68375 
L 48.844609 -23.68375 
L 49.013422 -23.68375 
L 49.182236 -23.68375 
L 49.351049 -23.68375 
L 49.519863 -23.68375 
L 49.688676 -23.68375 
L 49.857489 -23.68375 
L 50.026303 -23.68375 
L 50.195116 -23.68375 
L 50.36393 -23.68375 
L 50.532743 -23.68375 
L 50.701557 -23.68375 
L 50.87037 -23.68375 
L 51.039183 -23.68375 
L 51.207997 -23.68375 
L 51.37681 -23.68375 
L 51.545624 -23.68375 
L 51.714437 -23.68375 
L 51.883251 -23.68375 
L 52.052064 -23.68375 
L 52.220877 -23.68375 
L 52.389691 -23.68375 
L 52.558504 -23.68375 
L 52.727318 -23.68375 
L 52.896131 -23.68375 
L 53.064945 -23.68375 
L 53.233758 -23.68375 
L 53.402571 -23.68375 
L 53.571385 -23.68375 
L 53.740198 -23.68375 
L 53.909012 -23.68375 
L 54.077825 -23.68375 
L 54.246639 -23.68375 
L 54.415452 -23.68375 
L 54.584265 -23.68375 
L 54.753079 -23.68375 
L 54.921892 -23.68375 
L 55.090706 -23.68375 
L 55.259519 -23.68375 
L 55.428333 -23.68375 
L 55.597146 -23.68375 
L 55.765959 -23.68375 
L 55.934773 -23.68375 
L 56.103586 -23.68375 
L 56.2724 -23.68375 
L 56.441213 -23.68375 
L 56.610027 -23.68375 
L 56.77884 -23.68375 
L 56.947654 -23.68375 
L 57.116467 -23.68375 
L 57.28528 -23.68375 
L 57.454094 -23.68375 
L 57.622907 -23.68375 
L 57.791721 -23.68375 
L 57.960534 -23.68375 
L 58.129348 -23.68375 
L 58.298161 -23.68375 
L 58.298161 -23.695379 
L 58.298161 -23.695379 
L 58.129348 -23.699536 
L 57.960534 -23.704991 
L 57.791721 -23.71208 
L 57.622907 -23.721204 
L 57.454094 -23.732833 
L 57.28528 -23.747512 
L 57.116467 -23.765858 
L 56.947654 -23.788564 
L 56.77884 -23.816389 
L 56.610027 -23.850146 
L 56.441213 -23.890692 
L 56.2724 -23.938903 
L 56.103586 -23.995644 
L 55.934773 -24.061741 
L 55.765959 -24.137941 
L 55.597146 -24.224868 
L 55.428333 -24.322984 
L 55.259519 -24.432541 
L 55.090706 -24.553541 
L 54.921892 -24.685701 
L 54.753079 -24.828428 
L 54.584265 -24.980794 
L 54.415452 -25.141544 
L 54.246639 -25.309098 
L 54.077825 -25.48159 
L 53.909012 -25.656904 
L 53.740198 -25.832745 
L 53.571385 -26.006707 
L 53.402571 -26.176363 
L 53.233758 -26.339357 
L 53.064945 -26.493498 
L 52.896131 -26.63685 
L 52.727318 -26.767813 
L 52.558504 -26.885188 
L 52.389691 -26.988232 
L 52.220877 -27.076674 
L 52.052064 -27.150728 
L 51.883251 -27.211064 
L 51.714437 -27.258768 
L 51.545624 -27.295278 
L 51.37681 -27.322302 
L 51.207997 -27.341729 
L 51.039183 -27.355535 
L 50.87037 -27.365689 
L 50.701557 -27.374067 
L 50.532743 -27.382376 
L 50.36393 -27.392098 
L 50.195116 -27.404448 
L 50.026303 -27.42036 
L 49.857489 -27.440479 
L 49.688676 -27.465185 
L 49.519863 -27.494624 
L 49.351049 -27.528752 
L 49.182236 -27.567387 
L 49.013422 -27.610264 
L 48.844609 -27.65709 
L 48.675795 -27.707594 
L 48.506982 -27.761571 
L 48.338168 -27.81892 
L 48.169355 -27.879669 
L 48.000542 -27.943994 
L 47.831728 -28.012232 
L 47.662915 -28.084879 
L 47.494101 -28.162594 
L 47.325288 -28.246182 
L 47.156474 -28.336587 
L 46.987661 -28.434869 
L 46.818848 -28.542182 
L 46.650034 -28.659743 
L 46.481221 -28.788797 
L 46.312407 -28.930572 
L 46.143594 -29.08623 
L 45.97478 -29.256805 
L 45.805967 -29.443137 
L 45.637154 -29.645809 
L 45.46834 -29.865065 
L 45.299527 -30.10075 
L 45.130713 -30.35224 
L 44.9619 -30.618393 
L 44.793086 -30.897511 
L 44.624273 -31.187324 
L 44.45546 -31.484995 
L 44.286646 -31.787149 
L 44.117833 -32.089939 
L 43.949019 -32.389117 
L 43.780206 -32.680153 
L 43.611392 -32.958351 
L 43.442579 -33.218995 
L 43.273766 -33.457498 
L 43.104952 -33.669554 
L 42.936139 -33.851285 
L 42.767325 -33.99938 
L 42.598512 -34.111216 
L 42.429698 -34.184959 
L 42.260885 -34.219637 
L 42.092072 -34.215187 
L 41.923258 -34.172472 
L 41.754445 -34.093264 
L 41.585631 -33.980206 
L 41.416818 -33.836736 
L 41.248004 -33.666992 
L 41.079191 -33.475695 
L 40.910377 -33.268015 
L 40.741564 -33.049429 
L 40.572751 -32.825563 
L 40.403937 -32.602045 
L 40.235124 -32.384353 
L 40.06631 -32.177678 
L 39.897497 -31.986798 
L 39.728683 -31.815968 
L 39.55987 -31.668841 
L 39.391057 -31.548401 
L 39.222243 -31.456932 
L 39.05343 -31.39601 
L 38.884616 -31.366528 
L 38.715803 -31.368743 
L 38.546989 -31.402359 
L 38.378176 -31.466631 
L 38.209363 -31.560491 
L 38.040549 -31.682705 
L 37.871736 -31.832038 
L 37.702922 -32.007437 
L 37.534109 -32.20822 
L 37.365295 -32.434263 
L 37.196482 -32.686189 
L 37.027669 -32.965527 
L 36.858855 -33.274865 
L 36.690042 -33.617949 
L 36.521228 -33.999755 
L 36.352415 -34.4265 
L 36.183601 -34.905595 
L 36.014788 -35.445533 
L 35.845975 -36.055705 
L 35.677161 -36.746144 
L 35.508348 -37.527204 
L 35.339534 -38.409166 
L 35.170721 -39.401797 
L 35.001907 -40.513858 
L 34.833094 -41.752584 
L 34.664281 -43.123155 
L 34.495467 -44.628176 
L 34.326654 -46.267178 
L 34.15784 -48.036185 
L 33.989027 -49.927342 
L 33.820213 -51.928654 
L 33.6514 -54.023827 
L 33.482586 -56.192253 
L 33.313773 -58.409142 
L 33.14496 -60.645803 
L 32.976146 -62.870097 
L 32.807333 -65.047041 
L 32.638519 -67.139563 
L 32.469706 -69.109395 
L 32.300892 -70.918072 
L 32.132079 -72.528014 
L 31.963266 -73.903651 
L 31.794452 -75.012554 
L 31.625639 -75.826514 
L 31.456825 -76.322547 
L 31.288012 -76.48375 
L 31.119198 -76.299986 
L 30.950385 -75.768354 
L 30.781572 -74.89342 
L 30.612758 -73.687179 
L 30.443945 -72.168762 
L 30.275131 -70.363878 
L 30.106318 -68.304026 
L 29.937504 -66.025498 
L 29.768691 -63.568223 
L 29.599878 -60.974509 
L 29.431064 -58.287725 
L 29.262251 -55.551005 
L 29.093437 -52.806001 
L 28.924624 -50.09177 
L 28.75581 -47.443808 
L 28.586997 -44.893291 
L 28.418184 -42.466518 
L 28.24937 -40.18459 
L 28.080557 -38.0633 
L 27.911743 -36.113232 
L 27.74293 -34.340038 
L 27.574116 -32.744868 
L 27.405303 -31.324909 
L 27.23649 -30.074 
L 27.067676 -28.983292 
L 26.898863 -28.041897 
L 26.730049 -27.237533 
L 26.561236 -26.5571 
L 26.392422 -25.987198 
L 26.223609 -25.514569 
L 26.054795 -25.126445 
L 25.885982 -24.810824 
L 25.717169 -24.556651 
L 25.548355 -24.353943 
L 25.379542 -24.193839 
L 25.210728 -24.068599 
L 25.041915 -23.971571 
L 24.873101 -23.897119 
L 24.704288 -23.840537 
z
" style="stroke: #d55e00"/>
    </defs>
    <g clip-path="url(#p7ed14c657f)">
     <use xlink:href="#m8d4c974413" x="0" y="97.334219" style="fill: #d55e00; fill-opacity: 0.3; stroke: #d55e00"/>
    </g>
   </g>
   <g id="matplotlib.axis_1">
    <g id="xtick_1">
     <g id="line2d_1">
      <path d="M 24.354245 73.650469 
L 24.354245 18.210469 
" clip-path="url(#p7ed14c657f)" style="fill: none; stroke: #b0b0b0; stroke-opacity: 0.15; stroke-width: 0.8; stroke-linecap: square"/>
     </g>
     <g id="line2d_2">
      <defs>
       <path id="m99df7ed93d" d="M 0 0 
L 0 2.5 
" style="stroke: #000000; stroke-width: 0.5"/>
      </defs>
      <g>
       <use xlink:href="#m99df7ed93d" x="24.354245" y="73.650469" style="stroke: #000000; stroke-width: 0.5"/>
      </g>
     </g>
    </g>
    <g id="xtick_2">
     <g id="line2d_3">
      <path d="M 50.033781 73.650469 
L 50.033781 18.210469 
" clip-path="url(#p7ed14c657f)" style="fill: none; stroke: #b0b0b0; stroke-opacity: 0.15; stroke-width: 0.8; stroke-linecap: square"/>
     </g>
     <g id="line2d_4">
      <g>
       <use xlink:href="#m99df7ed93d" x="50.033781" y="73.650469" style="stroke: #000000; stroke-width: 0.5"/>
      </g>
     </g>
    </g>
    <g id="xtick_3">
     <g id="line2d_5">
      <path d="M 75.713316 73.650469 
L 75.713316 18.210469 
" clip-path="url(#p7ed14c657f)" style="fill: none; stroke: #b0b0b0; stroke-opacity: 0.15; stroke-width: 0.8; stroke-linecap: square"/>
     </g>
     <g id="line2d_6">
      <g>
       <use xlink:href="#m99df7ed93d" x="75.713316" y="73.650469" style="stroke: #000000; stroke-width: 0.5"/>
      </g>
     </g>
    </g>
    <g id="xtick_4">
     <g id="line2d_7">
      <path d="M 101.392851 73.650469 
L 101.392851 18.210469 
" clip-path="url(#p7ed14c657f)" style="fill: none; stroke: #b0b0b0; stroke-opacity: 0.15; stroke-width: 0.8; stroke-linecap: square"/>
     </g>
     <g id="line2d_8">
      <g>
       <use xlink:href="#m99df7ed93d" x="101.392851" y="73.650469" style="stroke: #000000; stroke-width: 0.5"/>
      </g>
     </g>
    </g>
    <g id="text_1">
     <text style="font-size: 7px; font-family: 'Arial', 'DejaVu Sans', sans-serif; text-anchor: middle" x="58.935294" y="88.660938" transform="rotate(-0 58.935294 88.660938)">Description length</text>
    </g>
   </g>
   <g id="matplotlib.axis_2">
    <g id="ytick_1">
     <g id="line2d_9">
      <path d="M 9.7 73.650469 
L 108.170588 73.650469 
" clip-path="url(#p7ed14c657f)" style="fill: none; stroke: #b0b0b0; stroke-opacity: 0.15; stroke-width: 0.8; stroke-linecap: square"/>
     </g>
     <g id="line2d_10">
      <defs>
       <path id="mff2397d60e" d="M 0 0 
L -2.5 0 
" style="stroke: #000000; stroke-width: 0.5"/>
      </defs>
      <g>
       <use xlink:href="#mff2397d60e" x="9.7" y="73.650469" style="stroke: #000000; stroke-width: 0.5"/>
      </g>
     </g>
    </g>
    <g id="ytick_2">
     <g id="line2d_11">
      <path d="M 9.7 42.38187 
L 108.170588 42.38187 
" clip-path="url(#p7ed14c657f)" style="fill: none; stroke: #b0b0b0; stroke-opacity: 0.15; stroke-width: 0.8; stroke-linecap: square"/>
     </g>
     <g id="line2d_12">
      <g>
       <use xlink:href="#mff2397d60e" x="9.7" y="42.38187" style="stroke: #000000; stroke-width: 0.5"/>
      </g>
     </g>
    </g>
   </g>
   <g id="patch_3">
    <path d="M 9.7 73.650469 
L 9.7 18.210469 
" style="fill: none; stroke: #000000; stroke-width: 0.5; stroke-linejoin: miter; stroke-linecap: square"/>
   </g>
   <g id="patch_4">
    <path d="M 108.170588 73.650469 
L 108.170588 18.210469 
" style="fill: none; stroke: #000000; stroke-width: 0.5; stroke-linejoin: miter; stroke-linecap: square"/>
   </g>
   <g id="patch_5">
    <path d="M 9.7 73.650469 
L 108.170588 73.650469 
" style="fill: none; stroke: #000000; stroke-width: 0.5; stroke-linejoin: miter; stroke-linecap: square"/>
   </g>
   <g id="patch_6">
    <path d="M 9.7 18.210469 
L 108.170588 18.210469 
" style="fill: none; stroke: #000000; stroke-width: 0.5; stroke-linejoin: miter; stroke-linecap: square"/>
   </g>
   <g id="text_2">
    <text style="font-size: 7px; font-family: 'Arial', 'DejaVu Sans', sans-serif; text-anchor: middle" x="58.935294" y="12.210469" transform="rotate(-0 58.935294 12.210469)">Early steps</text>
   </g>
  </g>
  <g id="axes_2">
   <g id="patch_7">
    <path d="M 127.864706 73.650469 
L 226.335294 73.650469 
L 226.335294 18.210469 
L 127.864706 18.210469 
L 127.864706 73.650469 
z
" style="fill: none"/>
   </g>
   <g id="FillBetweenPolyCollection_3">
    <defs>
     <path id="m3d391e131c" d="M 132.340642 -23.770707 
L 132.340642 -23.68375 
L 132.729024 -23.68375 
L 133.117407 -23.68375 
L 133.505789 -23.68375 
L 133.894172 -23.68375 
L 134.282554 -23.68375 
L 134.670937 -23.68375 
L 135.059319 -23.68375 
L 135.447702 -23.68375 
L 135.836084 -23.68375 
L 136.224467 -23.68375 
L 136.612849 -23.68375 
L 137.001232 -23.68375 
L 137.389614 -23.68375 
L 137.777997 -23.68375 
L 138.166379 -23.68375 
L 138.554762 -23.68375 
L 138.943144 -23.68375 
L 139.331527 -23.68375 
L 139.719909 -23.68375 
L 140.108292 -23.68375 
L 140.496674 -23.68375 
L 140.885057 -23.68375 
L 141.273439 -23.68375 
L 141.661822 -23.68375 
L 142.050204 -23.68375 
L 142.438587 -23.68375 
L 142.826969 -23.68375 
L 143.215352 -23.68375 
L 143.603734 -23.68375 
L 143.992117 -23.68375 
L 144.380499 -23.68375 
L 144.768882 -23.68375 
L 145.157264 -23.68375 
L 145.545647 -23.68375 
L 145.93403 -23.68375 
L 146.322412 -23.68375 
L 146.710795 -23.68375 
L 147.099177 -23.68375 
L 147.48756 -23.68375 
L 147.875942 -23.68375 
L 148.264325 -23.68375 
L 148.652707 -23.68375 
L 149.04109 -23.68375 
L 149.429472 -23.68375 
L 149.817855 -23.68375 
L 150.206237 -23.68375 
L 150.59462 -23.68375 
L 150.983002 -23.68375 
L 151.371385 -23.68375 
L 151.759767 -23.68375 
L 152.14815 -23.68375 
L 152.536532 -23.68375 
L 152.924915 -23.68375 
L 153.313297 -23.68375 
L 153.70168 -23.68375 
L 154.090062 -23.68375 
L 154.478445 -23.68375 
L 154.866827 -23.68375 
L 155.25521 -23.68375 
L 155.643592 -23.68375 
L 156.031975 -23.68375 
L 156.420357 -23.68375 
L 156.80874 -23.68375 
L 157.197122 -23.68375 
L 157.585505 -23.68375 
L 157.973887 -23.68375 
L 158.36227 -23.68375 
L 158.750652 -23.68375 
L 159.139035 -23.68375 
L 159.527417 -23.68375 
L 159.9158 -23.68375 
L 160.304182 -23.68375 
L 160.692565 -23.68375 
L 161.080947 -23.68375 
L 161.46933 -23.68375 
L 161.857712 -23.68375 
L 162.246095 -23.68375 
L 162.634477 -23.68375 
L 163.02286 -23.68375 
L 163.411242 -23.68375 
L 163.799625 -23.68375 
L 164.188007 -23.68375 
L 164.57639 -23.68375 
L 164.964772 -23.68375 
L 165.353155 -23.68375 
L 165.741537 -23.68375 
L 166.12992 -23.68375 
L 166.518302 -23.68375 
L 166.906685 -23.68375 
L 167.295067 -23.68375 
L 167.68345 -23.68375 
L 168.071832 -23.68375 
L 168.460215 -23.68375 
L 168.848598 -23.68375 
L 169.23698 -23.68375 
L 169.625363 -23.68375 
L 170.013745 -23.68375 
L 170.402128 -23.68375 
L 170.79051 -23.68375 
L 171.178893 -23.68375 
L 171.567275 -23.68375 
L 171.955658 -23.68375 
L 172.34404 -23.68375 
L 172.732423 -23.68375 
L 173.120805 -23.68375 
L 173.509188 -23.68375 
L 173.89757 -23.68375 
L 174.285953 -23.68375 
L 174.674335 -23.68375 
L 175.062718 -23.68375 
L 175.4511 -23.68375 
L 175.839483 -23.68375 
L 176.227865 -23.68375 
L 176.616248 -23.68375 
L 177.00463 -23.68375 
L 177.393013 -23.68375 
L 177.781395 -23.68375 
L 178.169778 -23.68375 
L 178.55816 -23.68375 
L 178.946543 -23.68375 
L 179.334925 -23.68375 
L 179.723308 -23.68375 
L 180.11169 -23.68375 
L 180.500073 -23.68375 
L 180.888455 -23.68375 
L 181.276838 -23.68375 
L 181.66522 -23.68375 
L 182.053603 -23.68375 
L 182.441985 -23.68375 
L 182.830368 -23.68375 
L 183.21875 -23.68375 
L 183.607133 -23.68375 
L 183.995515 -23.68375 
L 184.383898 -23.68375 
L 184.77228 -23.68375 
L 185.160663 -23.68375 
L 185.549045 -23.68375 
L 185.937428 -23.68375 
L 186.32581 -23.68375 
L 186.714193 -23.68375 
L 187.102575 -23.68375 
L 187.490958 -23.68375 
L 187.87934 -23.68375 
L 188.267723 -23.68375 
L 188.656105 -23.68375 
L 189.044488 -23.68375 
L 189.43287 -23.68375 
L 189.821253 -23.68375 
L 190.209635 -23.68375 
L 190.598018 -23.68375 
L 190.986401 -23.68375 
L 191.374783 -23.68375 
L 191.763166 -23.68375 
L 192.151548 -23.68375 
L 192.539931 -23.68375 
L 192.928313 -23.68375 
L 193.316696 -23.68375 
L 193.705078 -23.68375 
L 194.093461 -23.68375 
L 194.481843 -23.68375 
L 194.870226 -23.68375 
L 195.258608 -23.68375 
L 195.646991 -23.68375 
L 196.035373 -23.68375 
L 196.423756 -23.68375 
L 196.812138 -23.68375 
L 197.200521 -23.68375 
L 197.588903 -23.68375 
L 197.977286 -23.68375 
L 198.365668 -23.68375 
L 198.754051 -23.68375 
L 199.142433 -23.68375 
L 199.530816 -23.68375 
L 199.919198 -23.68375 
L 200.307581 -23.68375 
L 200.695963 -23.68375 
L 201.084346 -23.68375 
L 201.472728 -23.68375 
L 201.861111 -23.68375 
L 202.249493 -23.68375 
L 202.637876 -23.68375 
L 203.026258 -23.68375 
L 203.414641 -23.68375 
L 203.803023 -23.68375 
L 204.191406 -23.68375 
L 204.579788 -23.68375 
L 204.968171 -23.68375 
L 205.356553 -23.68375 
L 205.744936 -23.68375 
L 206.133318 -23.68375 
L 206.521701 -23.68375 
L 206.910083 -23.68375 
L 207.298466 -23.68375 
L 207.686848 -23.68375 
L 208.075231 -23.68375 
L 208.463613 -23.68375 
L 208.851996 -23.68375 
L 209.240378 -23.68375 
L 209.628761 -23.68375 
L 209.628761 -23.684131 
L 209.628761 -23.684131 
L 209.240378 -23.68449 
L 208.851996 -23.685114 
L 208.463613 -23.686137 
L 208.075231 -23.68772 
L 207.686848 -23.690024 
L 207.298466 -23.693185 
L 206.910083 -23.697267 
L 206.521701 -23.702233 
L 206.133318 -23.707938 
L 205.744936 -23.714149 
L 205.356553 -23.720607 
L 204.968171 -23.7271 
L 204.579788 -23.733511 
L 204.191406 -23.739833 
L 203.803023 -23.74611 
L 203.414641 -23.752349 
L 203.026258 -23.758441 
L 202.637876 -23.76414 
L 202.249493 -23.769127 
L 201.861111 -23.773158 
L 201.472728 -23.776222 
L 201.084346 -23.778658 
L 200.695963 -23.781167 
L 200.307581 -23.78471 
L 199.919198 -23.790326 
L 199.530816 -23.798931 
L 199.142433 -23.811153 
L 198.754051 -23.827225 
L 198.365668 -23.846955 
L 197.977286 -23.869741 
L 197.588903 -23.894644 
L 197.200521 -23.92047 
L 196.812138 -23.945898 
L 196.423756 -23.969597 
L 196.035373 -23.990351 
L 195.646991 -24.007129 
L 195.258608 -24.019124 
L 194.870226 -24.025734 
L 194.481843 -24.026546 
L 194.093461 -24.021333 
L 193.705078 -24.010101 
L 193.316696 -23.993171 
L 192.928313 -23.971274 
L 192.539931 -23.9456 
L 192.151548 -23.917755 
L 191.763166 -23.889612 
L 191.374783 -23.863084 
L 190.986401 -23.839852 
L 190.598018 -23.821132 
L 190.209635 -23.807536 
L 189.821253 -23.79905 
L 189.43287 -23.79514 
L 189.044488 -23.794951 
L 188.656105 -23.797539 
L 188.267723 -23.802091 
L 187.87934 -23.808056 
L 187.490958 -23.815175 
L 187.102575 -23.823383 
L 186.714193 -23.832636 
L 186.32581 -23.842736 
L 185.937428 -23.853222 
L 185.549045 -23.863409 
L 185.160663 -23.872565 
L 184.77228 -23.880186 
L 184.383898 -23.886257 
L 183.995515 -23.891396 
L 183.607133 -23.896832 
L 183.21875 -23.904225 
L 182.830368 -23.915407 
L 182.441985 -23.932145 
L 182.053603 -23.956012 
L 181.66522 -23.988349 
L 181.276838 -24.030283 
L 180.888455 -24.082707 
L 180.500073 -24.146171 
L 180.11169 -24.220704 
L 179.723308 -24.305644 
L 179.334925 -24.399577 
L 178.946543 -24.500467 
L 178.55816 -24.605957 
L 178.169778 -24.713782 
L 177.781395 -24.822152 
L 177.393013 -24.930012 
L 177.00463 -25.037092 
L 176.616248 -25.143768 
L 176.227865 -25.250778 
L 175.839483 -25.358898 
L 175.4511 -25.468676 
L 175.062718 -25.580272 
L 174.674335 -25.693435 
L 174.285953 -25.807578 
L 173.89757 -25.921907 
L 173.509188 -26.035533 
L 173.120805 -26.147549 
L 172.732423 -26.257058 
L 172.34404 -26.363157 
L 171.955658 -26.464906 
L 171.567275 -26.561285 
L 171.178893 -26.651172 
L 170.79051 -26.733376 
L 170.402128 -26.806805 
L 170.013745 -26.870824 
L 169.625363 -26.925836 
L 169.23698 -26.973974 
L 168.848598 -27.019669 
L 168.460215 -27.069766 
L 168.071832 -27.132916 
L 167.68345 -27.218179 
L 167.295067 -27.333096 
L 166.906685 -27.481769 
L 166.518302 -27.663583 
L 166.12992 -27.873025 
L 165.741537 -28.100685 
L 165.353155 -28.335108 
L 164.964772 -28.56492 
L 164.57639 -28.780664 
L 164.188007 -28.976011 
L 163.799625 -29.148344 
L 163.411242 -29.298881 
L 163.02286 -29.432544 
L 162.634477 -29.557623 
L 162.246095 -29.68512 
L 161.857712 -29.827678 
L 161.46933 -29.99805 
L 161.080947 -30.207356 
L 160.692565 -30.463479 
L 160.304182 -30.769987 
L 159.9158 -31.125787 
L 159.527417 -31.525471 
L 159.139035 -31.960122 
L 158.750652 -32.418328 
L 158.36227 -32.887234 
L 157.973887 -33.353666 
L 157.585505 -33.805416 
L 157.197122 -34.232749 
L 156.80874 -34.629983 
L 156.420357 -34.996785 
L 156.031975 -35.338756 
L 155.643592 -35.666907 
L 155.25521 -35.996008 
L 154.866827 -36.342105 
L 154.478445 -36.719892 
L 154.090062 -37.140657 
L 153.70168 -37.611363 
L 153.313297 -38.134943 
L 152.924915 -38.711438 
L 152.536532 -39.339348 
L 152.14815 -40.016573 
L 151.759767 -40.740708 
L 151.371385 -41.508856 
L 150.983002 -42.317425 
L 150.59462 -43.162348 
L 150.206237 -44.039855 
L 149.817855 -44.947547 
L 149.429472 -45.885223 
L 149.04109 -46.854981 
L 148.652707 -47.860388 
L 148.264325 -48.904966 
L 147.875942 -49.990551 
L 147.48756 -51.116203 
L 147.099177 -52.278102 
L 146.710795 -53.470552 
L 146.322412 -54.687784 
L 145.93403 -55.926043 
L 145.545647 -57.185395 
L 145.157264 -58.470844 
L 144.768882 -59.792499 
L 144.380499 -61.164649 
L 143.992117 -62.603564 
L 143.603734 -64.123888 
L 143.215352 -65.733646 
L 142.826969 -67.428258 
L 142.438587 -69.184391 
L 142.050204 -70.954696 
L 141.661822 -72.664422 
L 141.273439 -74.21057 
L 140.885057 -75.464014 
L 140.496674 -76.275119 
L 140.108292 -76.48375 
L 139.719909 -75.934772 
L 139.331527 -74.499312 
L 138.943144 -72.100074 
L 138.554762 -68.736095 
L 138.166379 -64.499995 
L 137.777997 -59.58054 
L 137.389614 -54.246176 
L 137.001232 -48.810568 
L 136.612849 -43.587147 
L 136.224467 -38.843625 
L 135.836084 -34.767647 
L 135.447702 -31.451048 
L 135.059319 -28.894159 
L 134.670937 -27.02587 
L 134.282554 -25.731672 
L 133.894172 -24.881588 
L 133.505789 -24.35206 
L 133.117407 -24.039216 
L 132.729024 -23.863901 
L 132.340642 -23.770707 
z
" style="stroke: #0072b2"/>
    </defs>
    <g clip-path="url(#p1da799c096)">
     <use xlink:href="#m3d391e131c" x="0" y="97.334219" style="fill: #0072b2; fill-opacity: 0.3; stroke: #0072b2"/>
    </g>
   </g>
   <g id="FillBetweenPolyCollection_4">
    <defs>
     <path id="m81fc81e36f" d="M 149.053391 -23.729701 
L 149.053391 -23.68375 
L 149.419251 -23.68375 
L 149.78511 -23.68375 
L 150.150969 -23.68375 
L 150.516828 -23.68375 
L 150.882687 -23.68375 
L 151.248546 -23.68375 
L 151.614405 -23.68375 
L 151.980265 -23.68375 
L 152.346124 -23.68375 
L 152.711983 -23.68375 
L 153.077842 -23.68375 
L 153.443701 -23.68375 
L 153.80956 -23.68375 
L 154.175419 -23.68375 
L 154.541278 -23.68375 
L 154.907138 -23.68375 
L 155.272997 -23.68375 
L 155.638856 -23.68375 
L 156.004715 -23.68375 
L 156.370574 -23.68375 
L 156.736433 -23.68375 
L 157.102292 -23.68375 
L 157.468151 -23.68375 
L 157.834011 -23.68375 
L 158.19987 -23.68375 
L 158.565729 -23.68375 
L 158.931588 -23.68375 
L 159.297447 -23.68375 
L 159.663306 -23.68375 
L 160.029165 -23.68375 
L 160.395024 -23.68375 
L 160.760884 -23.68375 
L 161.126743 -23.68375 
L 161.492602 -23.68375 
L 161.858461 -23.68375 
L 162.22432 -23.68375 
L 162.590179 -23.68375 
L 162.956038 -23.68375 
L 163.321898 -23.68375 
L 163.687757 -23.68375 
L 164.053616 -23.68375 
L 164.419475 -23.68375 
L 164.785334 -23.68375 
L 165.151193 -23.68375 
L 165.517052 -23.68375 
L 165.882911 -23.68375 
L 166.248771 -23.68375 
L 166.61463 -23.68375 
L 166.980489 -23.68375 
L 167.346348 -23.68375 
L 167.712207 -23.68375 
L 168.078066 -23.68375 
L 168.443925 -23.68375 
L 168.809784 -23.68375 
L 169.175644 -23.68375 
L 169.541503 -23.68375 
L 169.907362 -23.68375 
L 170.273221 -23.68375 
L 170.63908 -23.68375 
L 171.004939 -23.68375 
L 171.370798 -23.68375 
L 171.736658 -23.68375 
L 172.102517 -23.68375 
L 172.468376 -23.68375 
L 172.834235 -23.68375 
L 173.200094 -23.68375 
L 173.565953 -23.68375 
L 173.931812 -23.68375 
L 174.297671 -23.68375 
L 174.663531 -23.68375 
L 175.02939 -23.68375 
L 175.395249 -23.68375 
L 175.761108 -23.68375 
L 176.126967 -23.68375 
L 176.492826 -23.68375 
L 176.858685 -23.68375 
L 177.224544 -23.68375 
L 177.590404 -23.68375 
L 177.956263 -23.68375 
L 178.322122 -23.68375 
L 178.687981 -23.68375 
L 179.05384 -23.68375 
L 179.419699 -23.68375 
L 179.785558 -23.68375 
L 180.151418 -23.68375 
L 180.517277 -23.68375 
L 180.883136 -23.68375 
L 181.248995 -23.68375 
L 181.614854 -23.68375 
L 181.980713 -23.68375 
L 182.346572 -23.68375 
L 182.712431 -23.68375 
L 183.078291 -23.68375 
L 183.44415 -23.68375 
L 183.810009 -23.68375 
L 184.175868 -23.68375 
L 184.541727 -23.68375 
L 184.907586 -23.68375 
L 185.273445 -23.68375 
L 185.639304 -23.68375 
L 186.005164 -23.68375 
L 186.371023 -23.68375 
L 186.736882 -23.68375 
L 187.102741 -23.68375 
L 187.4686 -23.68375 
L 187.834459 -23.68375 
L 188.200318 -23.68375 
L 188.566177 -23.68375 
L 188.932037 -23.68375 
L 189.297896 -23.68375 
L 189.663755 -23.68375 
L 190.029614 -23.68375 
L 190.395473 -23.68375 
L 190.761332 -23.68375 
L 191.127191 -23.68375 
L 191.493051 -23.68375 
L 191.85891 -23.68375 
L 192.224769 -23.68375 
L 192.590628 -23.68375 
L 192.956487 -23.68375 
L 193.322346 -23.68375 
L 193.688205 -23.68375 
L 194.054064 -23.68375 
L 194.419924 -23.68375 
L 194.785783 -23.68375 
L 195.151642 -23.68375 
L 195.517501 -23.68375 
L 195.88336 -23.68375 
L 196.249219 -23.68375 
L 196.615078 -23.68375 
L 196.980937 -23.68375 
L 197.346797 -23.68375 
L 197.712656 -23.68375 
L 198.078515 -23.68375 
L 198.444374 -23.68375 
L 198.810233 -23.68375 
L 199.176092 -23.68375 
L 199.541951 -23.68375 
L 199.907811 -23.68375 
L 200.27367 -23.68375 
L 200.639529 -23.68375 
L 201.005388 -23.68375 
L 201.371247 -23.68375 
L 201.737106 -23.68375 
L 202.102965 -23.68375 
L 202.468824 -23.68375 
L 202.834684 -23.68375 
L 203.200543 -23.68375 
L 203.566402 -23.68375 
L 203.932261 -23.68375 
L 204.29812 -23.68375 
L 204.663979 -23.68375 
L 205.029838 -23.68375 
L 205.395697 -23.68375 
L 205.761557 -23.68375 
L 206.127416 -23.68375 
L 206.493275 -23.68375 
L 206.859134 -23.68375 
L 207.224993 -23.68375 
L 207.590852 -23.68375 
L 207.956711 -23.68375 
L 208.32257 -23.68375 
L 208.68843 -23.68375 
L 209.054289 -23.68375 
L 209.420148 -23.68375 
L 209.786007 -23.68375 
L 210.151866 -23.68375 
L 210.517725 -23.68375 
L 210.883584 -23.68375 
L 211.249444 -23.68375 
L 211.615303 -23.68375 
L 211.981162 -23.68375 
L 212.347021 -23.68375 
L 212.71288 -23.68375 
L 213.078739 -23.68375 
L 213.444598 -23.68375 
L 213.810457 -23.68375 
L 214.176317 -23.68375 
L 214.542176 -23.68375 
L 214.908035 -23.68375 
L 215.273894 -23.68375 
L 215.639753 -23.68375 
L 216.005612 -23.68375 
L 216.371471 -23.68375 
L 216.73733 -23.68375 
L 217.10319 -23.68375 
L 217.469049 -23.68375 
L 217.834908 -23.68375 
L 218.200767 -23.68375 
L 218.566626 -23.68375 
L 218.932485 -23.68375 
L 219.298344 -23.68375 
L 219.664204 -23.68375 
L 220.030063 -23.68375 
L 220.395922 -23.68375 
L 220.761781 -23.68375 
L 221.12764 -23.68375 
L 221.493499 -23.68375 
L 221.859358 -23.68375 
L 221.859358 -23.684184 
L 221.859358 -23.684184 
L 221.493499 -23.684633 
L 221.12764 -23.685443 
L 220.761781 -23.686804 
L 220.395922 -23.688944 
L 220.030063 -23.69208 
L 219.664204 -23.696364 
L 219.298344 -23.701822 
L 218.932485 -23.708322 
L 218.566626 -23.715599 
L 218.200767 -23.723358 
L 217.834908 -23.731429 
L 217.469049 -23.7399 
L 217.10319 -23.749161 
L 216.73733 -23.759783 
L 216.371471 -23.772229 
L 216.005612 -23.786504 
L 215.639753 -23.801874 
L 215.273894 -23.816815 
L 214.908035 -23.829275 
L 214.542176 -23.837195 
L 214.176317 -23.83915 
L 213.810457 -23.834862 
L 213.444598 -23.825428 
L 213.078739 -23.813152 
L 212.71288 -23.801067 
L 212.347021 -23.792298 
L 211.981162 -23.789473 
L 211.615303 -23.794325 
L 211.249444 -23.807529 
L 210.883584 -23.828729 
L 210.517725 -23.856652 
L 210.151866 -23.889244 
L 209.786007 -23.923839 
L 209.420148 -23.957398 
L 209.054289 -23.986881 
L 208.68843 -24.009724 
L 208.32257 -24.024296 
L 207.956711 -24.030154 
L 207.590852 -24.027974 
L 207.224993 -24.019165 
L 206.859134 -24.005321 
L 206.493275 -23.987764 
L 206.127416 -23.967375 
L 205.761557 -23.944757 
L 205.395697 -23.920617 
L 205.029838 -23.896138 
L 204.663979 -23.873116 
L 204.29812 -23.85378 
L 203.932261 -23.840337 
L 203.566402 -23.834419 
L 203.200543 -23.836635 
L 202.834684 -23.846398 
L 202.468824 -23.862059 
L 202.102965 -23.881272 
L 201.737106 -23.901464 
L 201.371247 -23.920264 
L 201.005388 -23.935827 
L 200.639529 -23.947051 
L 200.27367 -23.953725 
L 199.907811 -23.956606 
L 199.541951 -23.957352 
L 199.176092 -23.958241 
L 198.810233 -23.961648 
L 198.444374 -23.969363 
L 198.078515 -23.981994 
L 197.712656 -23.99869 
L 197.346797 -24.017359 
L 196.980937 -24.035351 
L 196.615078 -24.050361 
L 196.249219 -24.061236 
L 195.88336 -24.068345 
L 195.517501 -24.073389 
L 195.151642 -24.078733 
L 194.785783 -24.08655 
L 194.419924 -24.098133 
L 194.054064 -24.113659 
L 193.688205 -24.132454 
L 193.322346 -24.153602 
L 192.956487 -24.176571 
L 192.590628 -24.201586 
L 192.224769 -24.229621 
L 191.85891 -24.262084 
L 191.493051 -24.300405 
L 191.127191 -24.345685 
L 190.761332 -24.398483 
L 190.395473 -24.458694 
L 190.029614 -24.525461 
L 189.663755 -24.597128 
L 189.297896 -24.67133 
L 188.932037 -24.745319 
L 188.566177 -24.816543 
L 188.200318 -24.883361 
L 187.834459 -24.945638 
L 187.4686 -25.005022 
L 187.102741 -25.064752 
L 186.736882 -25.129048 
L 186.371023 -25.202233 
L 186.005164 -25.287802 
L 185.639304 -25.387656 
L 185.273445 -25.501649 
L 184.907586 -25.627619 
L 184.541727 -25.761967 
L 184.175868 -25.900747 
L 183.810009 -26.041045 
L 183.44415 -26.182219 
L 183.078291 -26.326494 
L 182.712431 -26.478598 
L 182.346572 -26.644476 
L 181.980713 -26.829587 
L 181.614854 -27.037501 
L 181.248995 -27.269368 
L 180.883136 -27.524384 
L 180.517277 -27.800846 
L 180.151418 -28.097156 
L 179.785558 -28.41226 
L 179.419699 -28.745458 
L 179.05384 -29.095934 
L 178.687981 -29.462493 
L 178.322122 -29.843757 
L 177.956263 -30.238708 
L 177.590404 -30.647185 
L 177.224544 -31.069931 
L 176.858685 -31.508034 
L 176.492826 -31.961874 
L 176.126967 -32.429914 
L 175.761108 -32.907695 
L 175.395249 -33.38741 
L 175.02939 -33.858382 
L 174.663531 -34.308672 
L 174.297671 -34.727827 
L 173.931812 -35.110302 
L 173.565953 -35.458608 
L 173.200094 -35.784883 
L 172.834235 -36.109767 
L 172.468376 -36.458341 
L 172.102517 -36.854063 
L 171.736658 -37.312805 
L 171.370798 -37.839294 
L 171.004939 -38.427466 
L 170.63908 -39.064577 
L 170.273221 -39.737254 
L 169.907362 -40.436857 
L 169.541503 -41.161964 
L 169.175644 -41.917236 
L 168.809784 -42.709614 
L 168.443925 -43.543865 
L 168.078066 -44.419605 
L 167.712207 -45.331028 
L 167.346348 -46.269282 
L 166.980489 -47.226287 
L 166.61463 -48.198264 
L 166.248771 -49.187468 
L 165.882911 -50.20149 
L 165.517052 -51.25054 
L 165.151193 -52.343993 
L 164.785334 -53.487594 
L 164.419475 -54.682198 
L 164.053616 -55.923948 
L 163.687757 -57.205027 
L 163.321898 -58.513989 
L 162.956038 -59.835243 
L 162.590179 -61.148192 
L 162.22432 -62.42715 
L 161.858461 -63.643147 
L 161.492602 -64.767964 
L 161.126743 -65.779584 
L 160.760884 -66.667267 
L 160.395024 -67.434185 
L 160.029165 -68.096164 
L 159.663306 -68.676423 
L 159.297447 -69.19765 
L 158.931588 -69.673727 
L 158.565729 -70.103396 
L 158.19987 -70.467272 
L 157.834011 -70.728191 
L 157.468151 -70.833684 
L 157.102292 -70.718881 
L 156.736433 -70.308684 
L 156.370574 -69.519586 
L 156.004715 -68.263218 
L 155.638856 -66.454696 
L 155.272997 -64.027908 
L 154.907138 -60.956751 
L 154.541278 -57.277081 
L 154.175419 -53.10095 
L 153.80956 -48.614962 
L 153.443701 -44.059034 
L 153.077842 -39.689066 
L 152.711983 -35.733567 
L 152.346124 -32.356952 
L 151.980265 -29.639659 
L 151.614405 -27.578816 
L 151.248546 -26.106064 
L 150.882687 -25.11445 
L 150.516828 -24.485445 
L 150.150969 -24.109566 
L 149.78511 -23.897968 
L 149.419251 -23.785756 
L 149.053391 -23.729701 
z
" style="stroke: #d55e00"/>
    </defs>
    <g clip-path="url(#p1da799c096)">
     <use xlink:href="#m81fc81e36f" x="0" y="97.334219" style="fill: #d55e00; fill-opacity: 0.3; stroke: #d55e00"/>
    </g>
   </g>
   <g id="matplotlib.axis_3">
    <g id="xtick_5">
     <g id="line2d_13">
      <path d="M 133.109063 73.650469 
L 133.109063 18.210469 
" clip-path="url(#p1da799c096)" style="fill: none; stroke: #b0b0b0; stroke-opacity: 0.15; stroke-width: 0.8; stroke-linecap: square"/>
     </g>
     <g id="line2d_14">
      <g>
       <use xlink:href="#m99df7ed93d" x="133.109063" y="73.650469" style="stroke: #000000; stroke-width: 0.5"/>
      </g>
     </g>
    </g>
    <g id="xtick_6">
     <g id="line2d_15">
      <path d="M 180.050726 73.650469 
L 180.050726 18.210469 
" clip-path="url(#p1da799c096)" style="fill: none; stroke: #b0b0b0; stroke-opacity: 0.15; stroke-width: 0.8; stroke-linecap: square"/>
     </g>
     <g id="line2d_16">
      <g>
       <use xlink:href="#m99df7ed93d" x="180.050726" y="73.650469" style="stroke: #000000; stroke-width: 0.5"/>
      </g>
     </g>
    </g>
    <g id="text_3">
     <text style="font-size: 7px; font-family: 'Arial', 'DejaVu Sans', sans-serif; text-anchor: middle" x="177.1" y="88.660938" transform="rotate(-0 177.1 88.660938)">Description length</text>
    </g>
   </g>
   <g id="matplotlib.axis_4">
    <g id="ytick_3">
     <g id="line2d_17">
      <path d="M 127.864706 73.650469 
L 226.335294 73.650469 
" clip-path="url(#p1da799c096)" style="fill: none; stroke: #b0b0b0; stroke-opacity: 0.15; stroke-width: 0.8; stroke-linecap: square"/>
     </g>
     <g id="line2d_18">
      <g>
       <use xlink:href="#mff2397d60e" x="127.864706" y="73.650469" style="stroke: #000000; stroke-width: 0.5"/>
      </g>
     </g>
    </g>
    <g id="ytick_4">
     <g id="line2d_19">
      <path d="M 127.864706 54.340801 
L 226.335294 54.340801 
" clip-path="url(#p1da799c096)" style="fill: none; stroke: #b0b0b0; stroke-opacity: 0.15; stroke-width: 0.8; stroke-linecap: square"/>
     </g>
     <g id="line2d_20">
      <g>
       <use xlink:href="#mff2397d60e" x="127.864706" y="54.340801" style="stroke: #000000; stroke-width: 0.5"/>
      </g>
     </g>
    </g>
    <g id="ytick_5">
     <g id="line2d_21">
      <path d="M 127.864706 35.031133 
L 226.335294 35.031133 
" clip-path="url(#p1da799c096)" style="fill: none; stroke: #b0b0b0; stroke-opacity: 0.15; stroke-width: 0.8; stroke-linecap: square"/>
     </g>
     <g id="line2d_22">
      <g>
       <use xlink:href="#mff2397d60e" x="127.864706" y="35.031133" style="stroke: #000000; stroke-width: 0.5"/>
      </g>
     </g>
    </g>
   </g>
   <g id="patch_8">
    <path d="M 127.864706 73.650469 
L 127.864706 18.210469 
" style="fill: none; stroke: #000000; stroke-width: 0.5; stroke-linejoin: miter; stroke-linecap: square"/>
   </g>
   <g id="patch_9">
    <path d="M 226.335294 73.650469 
L 226.335294 18.210469 
" style="fill: none; stroke: #000000; stroke-width: 0.5; stroke-linejoin: miter; stroke-linecap: square"/>
   </g>
   <g id="patch_10">
    <path d="M 127.864706 73.650469 
L 226.335294 73.650469 
" style="fill: none; stroke: #000000; stroke-width: 0.5; stroke-linejoin: miter; stroke-linecap: square"/>
   </g>
   <g id="patch_11">
    <path d="M 127.864706 18.210469 
L 226.335294 18.210469 
" style="fill: none; stroke: #000000; stroke-width: 0.5; stroke-linejoin: miter; stroke-linecap: square"/>
   </g>
   <g id="text_4">
    <text style="font-size: 7px; font-family: 'Arial', 'DejaVu Sans', sans-serif; text-anchor: middle" x="177.1" y="12.210469" transform="rotate(-0 177.1 12.210469)">Later steps</text>
   </g>
  </g>
  <g id="axes_3">
   <g id="patch_12">
    <path d="M 246.029412 73.650469 
L 344.5 73.650469 
L 344.5 18.210469 
L 246.029412 18.210469 
L 246.029412 73.650469 
z
" style="fill: none"/>
   </g>
   <g id="matplotlib.axis_5">
    <g id="xtick_7">
     <g id="line2d_23">
      <path d="M 250.053233 73.650469 
L 250.053233 18.210469 
" clip-path="url(#p56f5bbf914)" style="fill: none; stroke: #b0b0b0; stroke-opacity: 0.15; stroke-width: 0.8; stroke-linecap: square"/>
     </g>
     <g id="line2d_24">
      <g>
       <use xlink:href="#m99df7ed93d" x="250.053233" y="73.650469" style="stroke: #000000; stroke-width: 0.5"/>
      </g>
     </g>
    </g>
    <g id="xtick_8">
     <g id="line2d_25">
      <path d="M 295.264706 73.650469 
L 295.264706 18.210469 
" clip-path="url(#p56f5bbf914)" style="fill: none; stroke: #b0b0b0; stroke-opacity: 0.15; stroke-width: 0.8; stroke-linecap: square"/>
     </g>
     <g id="line2d_26">
      <g>
       <use xlink:href="#m99df7ed93d" x="295.264706" y="73.650469" style="stroke: #000000; stroke-width: 0.5"/>
      </g>
     </g>
    </g>
    <g id="xtick_9">
     <g id="line2d_27">
      <path d="M 340.476179 73.650469 
L 340.476179 18.210469 
" clip-path="url(#p56f5bbf914)" style="fill: none; stroke: #b0b0b0; stroke-opacity: 0.15; stroke-width: 0.8; stroke-linecap: square"/>
     </g>
     <g id="line2d_28">
      <g>
       <use xlink:href="#m99df7ed93d" x="340.476179" y="73.650469" style="stroke: #000000; stroke-width: 0.5"/>
      </g>
     </g>
    </g>
   </g>
   <g id="matplotlib.axis_6">
    <g id="ytick_6">
     <g id="line2d_29">
      <path d="M 246.029412 73.650469 
L 344.5 73.650469 
" clip-path="url(#p56f5bbf914)" style="fill: none; stroke: #b0b0b0; stroke-opacity: 0.15; stroke-width: 0.8; stroke-linecap: square"/>
     </g>
     <g id="line2d_30">
      <g>
       <use xlink:href="#mff2397d60e" x="246.029412" y="73.650469" style="stroke: #000000; stroke-width: 0.5"/>
      </g>
     </g>
     <g id="text_5">
      <text style="font-size: 7px; font-family: 'Arial', 'DejaVu Sans', sans-serif; text-anchor: end" x="240.029412" y="76.155703" transform="rotate(-0 240.029412 76.155703)">0</text>
     </g>
    </g>
    <g id="ytick_7">
     <g id="line2d_31">
      <path d="M 246.029412 45.930469 
L 344.5 45.930469 
" clip-path="url(#p56f5bbf914)" style="fill: none; stroke: #b0b0b0; stroke-opacity: 0.15; stroke-width: 0.8; stroke-linecap: square"/>
     </g>
     <g id="line2d_32">
      <g>
       <use xlink:href="#mff2397d60e" x="246.029412" y="45.930469" style="stroke: #000000; stroke-width: 0.5"/>
      </g>
     </g>
    </g>
    <g id="ytick_8">
     <g id="line2d_33">
      <path d="M 246.029412 18.210469 
L 344.5 18.210469 
" clip-path="url(#p56f5bbf914)" style="fill: none; stroke: #b0b0b0; stroke-opacity: 0.15; stroke-width: 0.8; stroke-linecap: square"/>
     </g>
     <g id="line2d_34">
      <g>
       <use xlink:href="#mff2397d60e" x="246.029412" y="18.210469" style="stroke: #000000; stroke-width: 0.5"/>
      </g>
     </g>
     <g id="text_6">
      <text style="font-size: 7px; font-family: 'Arial', 'DejaVu Sans', sans-serif; text-anchor: end" x="240.029412" y="20.715703" transform="rotate(-0 240.029412 20.715703)">1</text>
     </g>
    </g>
   </g>
   <g id="line2d_35">
    <path d="M 250.505348 37.060069 
L 250.957462 55.355269 
L 251.409577 50.735269 
L 251.861692 43.712869 
L 252.313807 42.160549 
L 252.765921 38.353669 
L 253.670151 34.010869 
L 254.122265 32.748069 
L 254.57438 33.622789 
L 255.47861 31.054069 
L 257.287069 28.051069 
L 257.739183 27.798328 
L 258.191298 29.113669 
L 259.095527 28.078789 
L 259.999757 30.104869 
L 260.903986 29.252269 
L 261.356101 29.564581 
L 261.808216 31.260192 
L 262.260331 31.064335 
L 262.712445 30.605269 
L 263.16456 30.598441 
L 263.616675 30.370309 
L 264.068789 30.335733 
L 264.520904 30.961669 
L 264.973019 30.810469 
L 266.329363 29.791269 
L 266.781478 29.77795 
L 267.233593 30.290553 
L 267.685707 30.520992 
L 268.137822 30.213229 
L 268.589937 30.677708 
L 269.494166 30.278339 
L 271.302625 29.251286 
L 271.75474 29.206069 
L 273.563199 28.381576 
L 274.015314 28.315193 
L 274.919543 27.947749 
L 275.371658 28.209469 
L 275.823772 28.812153 
L 277.632231 28.153315 
L 278.536461 27.925669 
L 279.44069 27.660856 
L 279.892805 28.088869 
L 280.797035 29.428916 
L 281.249149 29.780556 
L 282.153379 29.532722 
L 284.413952 28.99209 
L 286.222411 28.591609 
L 287.578755 28.243105 
L 288.03087 28.400869 
L 290.291444 27.828374 
L 290.743559 28.103429 
L 291.195673 28.214038 
L 298.429509 27.547187 
L 298.881624 27.460735 
L 299.333738 27.518285 
L 300.237968 27.350577 
L 300.690083 27.546169 
L 301.142197 27.954171 
L 301.594312 28.092406 
L 302.950656 27.839023 
L 303.402771 28.105099 
L 303.854886 28.189669 
L 304.759115 28.033887 
L 305.21123 28.107872 
L 306.567574 27.950168 
L 307.019689 28.040069 
L 307.471804 28.346822 
L 308.376033 28.327194 
L 309.280263 28.595947 
L 310.184492 28.548153 
L 310.636607 28.719245 
L 311.088721 29.027429 
L 311.992951 29.41987 
L 312.445066 29.700208 
L 313.80141 29.463609 
L 314.705639 29.755946 
L 315.157754 29.675769 
L 315.609869 29.764929 
L 316.966213 29.530717 
L 317.418328 29.640783 
L 318.322557 29.717022 
L 319.226787 29.675316 
L 319.678901 29.600869 
L 320.583131 29.938161 
L 333.694458 28.693124 
L 334.146573 28.845411 
L 335.955032 28.685711 
L 336.859261 28.801819 
L 339.571949 28.576069 
L 340.024064 28.52398 
L 340.024064 28.52398 
" clip-path="url(#p56f5bbf914)" style="fill: none; stroke: #0072b2; stroke-linecap: square"/>
   </g>
   <g id="line2d_36">
    <path d="M 246.029412 62.562469 
L 352.7 62.562469 
" clip-path="url(#p56f5bbf914)" style="fill: none; stroke-dasharray: 2.96,1.28; stroke-dashoffset: 0; stroke: #999999; stroke-width: 0.8"/>
   </g>
   <g id="line2d_37">
    <path d="M 259.095527 73.650469 
L 259.095527 18.210469 
" clip-path="url(#p56f5bbf914)" style="fill: none; stroke-dasharray: 5.12,1.28,0.8,1.28; stroke-dashoffset: 0; stroke: #000000; stroke-width: 0.8"/>
   </g>
   <g id="line2d_38">
    <path d="M 295.264706 73.650469 
L 295.264706 18.210469 
" clip-path="url(#p56f5bbf914)" style="fill: none; stroke-dasharray: 5.12,1.28,0.8,1.28; stroke-dashoffset: 0; stroke: #000000; stroke-width: 0.8"/>
   </g>
   <g id="patch_13">
    <path d="M 246.029412 73.650469 
L 246.029412 18.210469 
" style="fill: none; stroke: #000000; stroke-width: 0.5; stroke-linejoin: miter; stroke-linecap: square"/>
   </g>
   <g id="patch_14">
    <path d="M 344.5 73.650469 
L 344.5 18.210469 
" style="fill: none; stroke: #000000; stroke-width: 0.5; stroke-linejoin: miter; stroke-linecap: square"/>
   </g>
   <g id="patch_15">
    <path d="M 246.029412 73.650469 
L 344.5 73.650469 
" style="fill: none; stroke: #000000; stroke-width: 0.5; stroke-linejoin: miter; stroke-linecap: square"/>
   </g>
   <g id="patch_16">
    <path d="M 246.029412 18.210469 
L 344.5 18.210469 
" style="fill: none; stroke: #000000; stroke-width: 0.5; stroke-linejoin: miter; stroke-linecap: square"/>
   </g>
  </g>
 </g>
 <defs>
  <clipPath id="p7ed14c657f">
   <rect x="9.7" y="18.210469" width="98.470588" height="55.44"/>
  </clipPath>
  <clipPath id="p1da799c096">
   <rect x="127.864706" y="18.210469" width="98.470588" height="55.44"/>
  </clipPath>
  <clipPath id="p56f5bbf914">
   <rect x="246.029412" y="18.210469" width="98.470588" height="55.44"/>
  </clipPath>
 </defs>
</svg>
