<?xml version="1.0" encoding="utf-8" standalone="no"?>
<!DOCTYPE svg PUBLIC "-//W3C//DTD SVG 1.1//EN"
  "http://www.w3.org/Graphics/SVG/1.1/DTD/svg11.dtd">
<svg xmlns:xlink="http://www.w3.org/1999/xlink" width="351.7pt" height="97.334219pt" viewBox="0 0 351.7 97.334219" xmlns="http://www.w3.org/2000/svg" version="1.1">
 <metadata>
  <rdf:RDF xmlns:dc="http://purl.org/dc/elements/1.1/" xmlns:cc="http://creativecommons.org/ns#" xmlns:rdf="http://www.w3.org/1999/02/22-rdf-syntax-ns#">
   <cc:Work>
    <dc:type rdf:resource="http://purl.org/dc/dcmitype/StillImage"/>
    <dc:date>2025-10-24T19:41:33.767352</dc:date>
    <dc:format>image/svg+xml</dc:format>
    <dc:creator>
     <cc:Agent>
      <dc:title>Matplotlib v3.10.6, https://matplotlib.org/</dc:title>
     </cc:Agent>
    </dc:creator>
   </cc:Work>
  </rdf:RDF>
 </metadata>
 <defs>
  <style type="text/css">*{stroke-linejoin: round; stroke-linecap: butt}</style>
 </defs>
 <g id="figure_1">
  <g id="patch_1">
   <path d="M 0 97.334219 
L 351.7 97.334219 
L 351.7 0 
L 0 0 
L 0 97.334219 
z
" style="fill: none"/>
  </g>
  <g id="axes_1">
   <g id="patch_2">
    <path d="M 9.7 73.650469 
L 108.170588 73.650469 
L 108.170588 18.210469 
L 9.7 18.210469 
L 9.7 73.650469 
z
" style="fill: none"/>
   </g>
   <g id="FillBetweenPolyCollection_1">
    <defs>
     <path id="m280d6741e3" d="M 39.795154 -23.690779 
L 39.795154 -23.68375 
L 39.960862 -23.68375 
L 40.12657 -23.68375 
L 40.292279 -23.68375 
L 40.457987 -23.68375 
L 40.623695 -23.68375 
L 40.789404 -23.68375 
L 40.955112 -23.68375 
L 41.12082 -23.68375 
L 41.286529 -23.68375 
L 41.452237 -23.68375 
L 41.617945 -23.68375 
L 41.783654 -23.68375 
L 41.949362 -23.68375 
L 42.11507 -23.68375 
L 42.280779 -23.68375 
L 42.446487 -23.68375 
L 42.612195 -23.68375 
L 42.777904 -23.68375 
L 42.943612 -23.68375 
L 43.10932 -23.68375 
L 43.275029 -23.68375 
L 43.440737 -23.68375 
L 43.606445 -23.68375 
L 43.772154 -23.68375 
L 43.937862 -23.68375 
L 44.10357 -23.68375 
L 44.269279 -23.68375 
L 44.434987 -23.68375 
L 44.600695 -23.68375 
L 44.766404 -23.68375 
L 44.932112 -23.68375 
L 45.09782 -23.68375 
L 45.263529 -23.68375 
L 45.429237 -23.68375 
L 45.594945 -23.68375 
L 45.760654 -23.68375 
L 45.926362 -23.68375 
L 46.092071 -23.68375 
L 46.257779 -23.68375 
L 46.423487 -23.68375 
L 46.589196 -23.68375 
L 46.754904 -23.68375 
L 46.920612 -23.68375 
L 47.086321 -23.68375 
L 47.252029 -23.68375 
L 47.417737 -23.68375 
L 47.583446 -23.68375 
L 47.749154 -23.68375 
L 47.914862 -23.68375 
L 48.080571 -23.68375 
L 48.246279 -23.68375 
L 48.411987 -23.68375 
L 48.577696 -23.68375 
L 48.743404 -23.68375 
L 48.909112 -23.68375 
L 49.074821 -23.68375 
L 49.240529 -23.68375 
L 49.406237 -23.68375 
L 49.571946 -23.68375 
L 49.737654 -23.68375 
L 49.903362 -23.68375 
L 50.069071 -23.68375 
L 50.234779 -23.68375 
L 50.400487 -23.68375 
L 50.566196 -23.68375 
L 50.731904 -23.68375 
L 50.897612 -23.68375 
L 51.063321 -23.68375 
L 51.229029 -23.68375 
L 51.394737 -23.68375 
L 51.560446 -23.68375 
L 51.726154 -23.68375 
L 51.891862 -23.68375 
L 52.057571 -23.68375 
L 52.223279 -23.68375 
L 52.388987 -23.68375 
L 52.554696 -23.68375 
L 52.720404 -23.68375 
L 52.886112 -23.68375 
L 53.051821 -23.68375 
L 53.217529 -23.68375 
L 53.383237 -23.68375 
L 53.548946 -23.68375 
L 53.714654 -23.68375 
L 53.880362 -23.68375 
L 54.046071 -23.68375 
L 54.211779 -23.68375 
L 54.377487 -23.68375 
L 54.543196 -23.68375 
L 54.708904 -23.68375 
L 54.874612 -23.68375 
L 55.040321 -23.68375 
L 55.206029 -23.68375 
L 55.371737 -23.68375 
L 55.537446 -23.68375 
L 55.703154 -23.68375 
L 55.868862 -23.68375 
L 56.034571 -23.68375 
L 56.200279 -23.68375 
L 56.365987 -23.68375 
L 56.531696 -23.68375 
L 56.697404 -23.68375 
L 56.863112 -23.68375 
L 57.028821 -23.68375 
L 57.194529 -23.68375 
L 57.360237 -23.68375 
L 57.525946 -23.68375 
L 57.691654 -23.68375 
L 57.857362 -23.68375 
L 58.023071 -23.68375 
L 58.188779 -23.68375 
L 58.354487 -23.68375 
L 58.520196 -23.68375 
L 58.685904 -23.68375 
L 58.851612 -23.68375 
L 59.017321 -23.68375 
L 59.183029 -23.68375 
L 59.348737 -23.68375 
L 59.514446 -23.68375 
L 59.680154 -23.68375 
L 59.845862 -23.68375 
L 60.011571 -23.68375 
L 60.177279 -23.68375 
L 60.342987 -23.68375 
L 60.508696 -23.68375 
L 60.674404 -23.68375 
L 60.840112 -23.68375 
L 61.005821 -23.68375 
L 61.171529 -23.68375 
L 61.337237 -23.68375 
L 61.502946 -23.68375 
L 61.668654 -23.68375 
L 61.834362 -23.68375 
L 62.000071 -23.68375 
L 62.165779 -23.68375 
L 62.331487 -23.68375 
L 62.497196 -23.68375 
L 62.662904 -23.68375 
L 62.828612 -23.68375 
L 62.994321 -23.68375 
L 63.160029 -23.68375 
L 63.325737 -23.68375 
L 63.491446 -23.68375 
L 63.657154 -23.68375 
L 63.822862 -23.68375 
L 63.988571 -23.68375 
L 64.154279 -23.68375 
L 64.319987 -23.68375 
L 64.485696 -23.68375 
L 64.651404 -23.68375 
L 64.817113 -23.68375 
L 64.982821 -23.68375 
L 65.148529 -23.68375 
L 65.314238 -23.68375 
L 65.479946 -23.68375 
L 65.645654 -23.68375 
L 65.811363 -23.68375 
L 65.977071 -23.68375 
L 66.142779 -23.68375 
L 66.308488 -23.68375 
L 66.474196 -23.68375 
L 66.639904 -23.68375 
L 66.805613 -23.68375 
L 66.971321 -23.68375 
L 67.137029 -23.68375 
L 67.302738 -23.68375 
L 67.468446 -23.68375 
L 67.634154 -23.68375 
L 67.799863 -23.68375 
L 67.965571 -23.68375 
L 68.131279 -23.68375 
L 68.296988 -23.68375 
L 68.462696 -23.68375 
L 68.628404 -23.68375 
L 68.794113 -23.68375 
L 68.959821 -23.68375 
L 69.125529 -23.68375 
L 69.291238 -23.68375 
L 69.456946 -23.68375 
L 69.622654 -23.68375 
L 69.788363 -23.68375 
L 69.954071 -23.68375 
L 70.119779 -23.68375 
L 70.285488 -23.68375 
L 70.451196 -23.68375 
L 70.616904 -23.68375 
L 70.782613 -23.68375 
L 70.948321 -23.68375 
L 71.114029 -23.68375 
L 71.279738 -23.68375 
L 71.445446 -23.68375 
L 71.611154 -23.68375 
L 71.776863 -23.68375 
L 71.942571 -23.68375 
L 72.108279 -23.68375 
L 72.273988 -23.68375 
L 72.439696 -23.68375 
L 72.605404 -23.68375 
L 72.771113 -23.68375 
L 72.771113 -23.687076 
L 72.771113 -23.687076 
L 72.605404 -23.688574 
L 72.439696 -23.690647 
L 72.273988 -23.693469 
L 72.108279 -23.697254 
L 71.942571 -23.70225 
L 71.776863 -23.708742 
L 71.611154 -23.717048 
L 71.445446 -23.727511 
L 71.279738 -23.740489 
L 71.114029 -23.756342 
L 70.948321 -23.77541 
L 70.782613 -23.798002 
L 70.616904 -23.824369 
L 70.451196 -23.854689 
L 70.285488 -23.889047 
L 70.119779 -23.927426 
L 69.954071 -23.969697 
L 69.788363 -24.015619 
L 69.622654 -24.064847 
L 69.456946 -24.116944 
L 69.291238 -24.171398 
L 69.125529 -24.227645 
L 68.959821 -24.285093 
L 68.794113 -24.343139 
L 68.628404 -24.401192 
L 68.462696 -24.458686 
L 68.296988 -24.515086 
L 68.131279 -24.569891 
L 67.965571 -24.622636 
L 67.799863 -24.672885 
L 67.634154 -24.720234 
L 67.468446 -24.764304 
L 67.302738 -24.804752 
L 67.137029 -24.841281 
L 66.971321 -24.873655 
L 66.805613 -24.901731 
L 66.639904 -24.925476 
L 66.474196 -24.945006 
L 66.308488 -24.960608 
L 66.142779 -24.972765 
L 65.977071 -24.982165 
L 65.811363 -24.989711 
L 65.645654 -24.996505 
L 65.479946 -25.003834 
L 65.314238 -25.013127 
L 65.148529 -25.02592 
L 64.982821 -25.043798 
L 64.817113 -25.068341 
L 64.651404 -25.101063 
L 64.485696 -25.143354 
L 64.319987 -25.196427 
L 64.154279 -25.261274 
L 63.988571 -25.338633 
L 63.822862 -25.428965 
L 63.657154 -25.532453 
L 63.491446 -25.649008 
L 63.325737 -25.778304 
L 63.160029 -25.919812 
L 62.994321 -26.072858 
L 62.828612 -26.236679 
L 62.662904 -26.410497 
L 62.497196 -26.593575 
L 62.331487 -26.785284 
L 62.165779 -26.985154 
L 62.000071 -27.192914 
L 61.834362 -27.408522 
L 61.668654 -27.632177 
L 61.502946 -27.864312 
L 61.337237 -28.105574 
L 61.171529 -28.356774 
L 61.005821 -28.618828 
L 60.840112 -28.892662 
L 60.674404 -29.179106 
L 60.508696 -29.478766 
L 60.342987 -29.791889 
L 60.177279 -30.118225 
L 60.011571 -30.456903 
L 59.845862 -30.806339 
L 59.680154 -31.164191 
L 59.514446 -31.527368 
L 59.348737 -31.892118 
L 59.183029 -32.254188 
L 59.017321 -32.609045 
L 58.851612 -32.95216 
L 58.685904 -33.279319 
L 58.520196 -33.586933 
L 58.354487 -33.872318 
L 58.188779 -34.133911 
L 58.023071 -34.371398 
L 57.857362 -34.585733 
L 57.691654 -34.779039 
L 57.525946 -34.954401 
L 57.360237 -35.115574 
L 57.194529 -35.266616 
L 57.028821 -35.411503 
L 56.863112 -35.553748 
L 56.697404 -35.696071 
L 56.531696 -35.840155 
L 56.365987 -35.98651 
L 56.200279 -36.134469 
L 56.034571 -36.282315 
L 55.868862 -36.427548 
L 55.703154 -36.567252 
L 55.537446 -36.698562 
L 55.371737 -36.819178 
L 55.206029 -36.927882 
L 55.040321 -37.025023 
L 54.874612 -37.112924 
L 54.708904 -37.196155 
L 54.543196 -37.281664 
L 54.377487 -37.378721 
L 54.211779 -37.498692 
L 54.046071 -37.654627 
L 53.880362 -37.860702 
L 53.714654 -38.131536 
L 53.548946 -38.481431 
L 53.383237 -38.923581 
L 53.217529 -39.4693 
L 53.051821 -40.127307 
L 52.886112 -40.903118 
L 52.720404 -41.798582 
L 52.554696 -42.811577 
L 52.388987 -43.935903 
L 52.223279 -45.16137 
L 52.057571 -46.474093 
L 51.891862 -47.856994 
L 51.726154 -49.290483 
L 51.560446 -50.753302 
L 51.394737 -52.223496 
L 51.229029 -53.679452 
L 51.063321 -55.100954 
L 50.897612 -56.470191 
L 50.731904 -57.772653 
L 50.566196 -58.997837 
L 50.400487 -60.139739 
L 50.234779 -61.197065 
L 50.069071 -62.173159 
L 49.903362 -63.075635 
L 49.737654 -63.915747 
L 49.571946 -64.707512 
L 49.406237 -65.466658 
L 49.240529 -66.209441 
L 49.074821 -66.951411 
L 48.909112 -67.706173 
L 48.743404 -68.484234 
L 48.577696 -69.291959 
L 48.411987 -70.13072 
L 48.246279 -70.996249 
L 48.080571 -71.878245 
L 47.914862 -72.760258 
L 47.749154 -73.619863 
L 47.583446 -74.42914 
L 47.417737 -75.15547 
L 47.252029 -75.762629 
L 47.086321 -76.212181 
L 46.920612 -76.465126 
L 46.754904 -76.48375 
L 46.589196 -76.233614 
L 46.423487 -75.685569 
L 46.257779 -74.817687 
L 46.092071 -73.616971 
L 45.926362 -72.080707 
L 45.760654 -70.21733 
L 45.594945 -68.046695 
L 45.429237 -65.599701 
L 45.263529 -62.917232 
L 45.09782 -60.048482 
L 44.932112 -57.048742 
L 44.766404 -53.976821 
L 44.600695 -50.892266 
L 44.434987 -47.852606 
L 44.269279 -44.91081 
L 44.10357 -42.113143 
L 43.937862 -39.497552 
L 43.772154 -37.092672 
L 43.606445 -34.917454 
L 43.440737 -32.981418 
L 43.275029 -31.285403 
L 43.10932 -29.822737 
L 42.943612 -28.580662 
L 42.777904 -27.541882 
L 42.612195 -26.686119 
L 42.446487 -25.991538 
L 42.280779 -25.435996 
L 42.11507 -24.998048 
L 41.949362 -24.657693 
L 41.783654 -24.396873 
L 41.617945 -24.199743 
L 41.452237 -24.052758 
L 41.286529 -23.944612 
L 41.12082 -23.866074 
L 40.955112 -23.809761 
L 40.789404 -23.769886 
L 40.623695 -23.741993 
L 40.457987 -23.722713 
L 40.292279 -23.709542 
L 40.12657 -23.700646 
L 39.960862 -23.694704 
L 39.795154 -23.690779 
z
" style="stroke: #0072b2"/>
    </defs>
    <g clip-path="url(#pb62c0d089a)">
     <use xlink:href="#m280d6741e3" x="0" y="97.334219" style="fill: #0072b2; fill-opacity: 0.3; stroke: #0072b2"/>
    </g>
   </g>
   <g id="FillBetweenPolyCollection_2">
    <defs>
     <path id="mbe99ae6a79" d="M 14.175936 -23.749776 
L 14.175936 -23.68375 
L 14.625779 -23.68375 
L 15.075621 -23.68375 
L 15.525464 -23.68375 
L 15.975307 -23.68375 
L 16.42515 -23.68375 
L 16.874993 -23.68375 
L 17.324835 -23.68375 
L 17.774678 -23.68375 
L 18.224521 -23.68375 
L 18.674364 -23.68375 
L 19.124207 -23.68375 
L 19.574049 -23.68375 
L 20.023892 -23.68375 
L 20.473735 -23.68375 
L 20.923578 -23.68375 
L 21.373421 -23.68375 
L 21.823263 -23.68375 
L 22.273106 -23.68375 
L 22.722949 -23.68375 
L 23.172792 -23.68375 
L 23.622635 -23.68375 
L 24.072477 -23.68375 
L 24.52232 -23.68375 
L 24.972163 -23.68375 
L 25.422006 -23.68375 
L 25.871849 -23.68375 
L 26.321691 -23.68375 
L 26.771534 -23.68375 
L 27.221377 -23.68375 
L 27.67122 -23.68375 
L 28.121063 -23.68375 
L 28.570905 -23.68375 
L 29.020748 -23.68375 
L 29.470591 -23.68375 
L 29.920434 -23.68375 
L 30.370277 -23.68375 
L 30.820119 -23.68375 
L 31.269962 -23.68375 
L 31.719805 -23.68375 
L 32.169648 -23.68375 
L 32.619491 -23.68375 
L 33.069333 -23.68375 
L 33.519176 -23.68375 
L 33.969019 -23.68375 
L 34.418862 -23.68375 
L 34.868704 -23.68375 
L 35.318547 -23.68375 
L 35.76839 -23.68375 
L 36.218233 -23.68375 
L 36.668076 -23.68375 
L 37.117918 -23.68375 
L 37.567761 -23.68375 
L 38.017604 -23.68375 
L 38.467447 -23.68375 
L 38.91729 -23.68375 
L 39.367132 -23.68375 
L 39.816975 -23.68375 
L 40.266818 -23.68375 
L 40.716661 -23.68375 
L 41.166504 -23.68375 
L 41.616346 -23.68375 
L 42.066189 -23.68375 
L 42.516032 -23.68375 
L 42.965875 -23.68375 
L 43.415718 -23.68375 
L 43.86556 -23.68375 
L 44.315403 -23.68375 
L 44.765246 -23.68375 
L 45.215089 -23.68375 
L 45.664932 -23.68375 
L 46.114774 -23.68375 
L 46.564617 -23.68375 
L 47.01446 -23.68375 
L 47.464303 -23.68375 
L 47.914146 -23.68375 
L 48.363988 -23.68375 
L 48.813831 -23.68375 
L 49.263674 -23.68375 
L 49.713517 -23.68375 
L 50.16336 -23.68375 
L 50.613202 -23.68375 
L 51.063045 -23.68375 
L 51.512888 -23.68375 
L 51.962731 -23.68375 
L 52.412574 -23.68375 
L 52.862416 -23.68375 
L 53.312259 -23.68375 
L 53.762102 -23.68375 
L 54.211945 -23.68375 
L 54.661788 -23.68375 
L 55.11163 -23.68375 
L 55.561473 -23.68375 
L 56.011316 -23.68375 
L 56.461159 -23.68375 
L 56.911002 -23.68375 
L 57.360844 -23.68375 
L 57.810687 -23.68375 
L 58.26053 -23.68375 
L 58.710373 -23.68375 
L 59.160216 -23.68375 
L 59.610058 -23.68375 
L 60.059901 -23.68375 
L 60.509744 -23.68375 
L 60.959587 -23.68375 
L 61.40943 -23.68375 
L 61.859272 -23.68375 
L 62.309115 -23.68375 
L 62.758958 -23.68375 
L 63.208801 -23.68375 
L 63.658643 -23.68375 
L 64.108486 -23.68375 
L 64.558329 -23.68375 
L 65.008172 -23.68375 
L 65.458015 -23.68375 
L 65.907857 -23.68375 
L 66.3577 -23.68375 
L 66.807543 -23.68375 
L 67.257386 -23.68375 
L 67.707229 -23.68375 
L 68.157071 -23.68375 
L 68.606914 -23.68375 
L 69.056757 -23.68375 
L 69.5066 -23.68375 
L 69.956443 -23.68375 
L 70.406285 -23.68375 
L 70.856128 -23.68375 
L 71.305971 -23.68375 
L 71.755814 -23.68375 
L 72.205657 -23.68375 
L 72.655499 -23.68375 
L 73.105342 -23.68375 
L 73.555185 -23.68375 
L 74.005028 -23.68375 
L 74.454871 -23.68375 
L 74.904713 -23.68375 
L 75.354556 -23.68375 
L 75.804399 -23.68375 
L 76.254242 -23.68375 
L 76.704085 -23.68375 
L 77.153927 -23.68375 
L 77.60377 -23.68375 
L 78.053613 -23.68375 
L 78.503456 -23.68375 
L 78.953299 -23.68375 
L 79.403141 -23.68375 
L 79.852984 -23.68375 
L 80.302827 -23.68375 
L 80.75267 -23.68375 
L 81.202513 -23.68375 
L 81.652355 -23.68375 
L 82.102198 -23.68375 
L 82.552041 -23.68375 
L 83.001884 -23.68375 
L 83.451727 -23.68375 
L 83.901569 -23.68375 
L 84.351412 -23.68375 
L 84.801255 -23.68375 
L 85.251098 -23.68375 
L 85.700941 -23.68375 
L 86.150783 -23.68375 
L 86.600626 -23.68375 
L 87.050469 -23.68375 
L 87.500312 -23.68375 
L 87.950155 -23.68375 
L 88.399997 -23.68375 
L 88.84984 -23.68375 
L 89.299683 -23.68375 
L 89.749526 -23.68375 
L 90.199369 -23.68375 
L 90.649211 -23.68375 
L 91.099054 -23.68375 
L 91.548897 -23.68375 
L 91.99874 -23.68375 
L 92.448582 -23.68375 
L 92.898425 -23.68375 
L 93.348268 -23.68375 
L 93.798111 -23.68375 
L 94.247954 -23.68375 
L 94.697796 -23.68375 
L 95.147639 -23.68375 
L 95.597482 -23.68375 
L 96.047325 -23.68375 
L 96.497168 -23.68375 
L 96.94701 -23.68375 
L 97.396853 -23.68375 
L 97.846696 -23.68375 
L 98.296539 -23.68375 
L 98.746382 -23.68375 
L 99.196224 -23.68375 
L 99.646067 -23.68375 
L 100.09591 -23.68375 
L 100.545753 -23.68375 
L 100.995596 -23.68375 
L 101.445438 -23.68375 
L 101.895281 -23.68375 
L 102.345124 -23.68375 
L 102.794967 -23.68375 
L 103.24481 -23.68375 
L 103.694652 -23.68375 
L 103.694652 -23.685956 
L 103.694652 -23.685956 
L 103.24481 -23.686943 
L 102.794967 -23.68831 
L 102.345124 -23.690177 
L 101.895281 -23.69269 
L 101.445438 -23.696023 
L 100.995596 -23.700381 
L 100.545753 -23.706001 
L 100.09591 -23.713146 
L 99.646067 -23.722103 
L 99.196224 -23.73318 
L 98.746382 -23.746693 
L 98.296539 -23.762958 
L 97.846696 -23.78228 
L 97.396853 -23.804938 
L 96.94701 -23.831172 
L 96.497168 -23.861173 
L 96.047325 -23.895066 
L 95.597482 -23.9329 
L 95.147639 -23.974642 
L 94.697796 -24.020162 
L 94.247954 -24.069229 
L 93.798111 -24.121507 
L 93.348268 -24.176546 
L 92.898425 -24.233778 
L 92.448582 -24.292518 
L 91.99874 -24.351959 
L 91.548897 -24.411181 
L 91.099054 -24.469154 
L 90.649211 -24.524763 
L 90.199369 -24.576826 
L 89.749526 -24.624133 
L 89.299683 -24.66549 
L 88.84984 -24.69977 
L 88.399997 -24.725975 
L 87.950155 -24.743291 
L 87.500312 -24.751148 
L 87.050469 -24.749265 
L 86.600626 -24.737692 
L 86.150783 -24.716823 
L 85.700941 -24.687396 
L 85.251098 -24.650472 
L 84.801255 -24.607391 
L 84.351412 -24.559709 
L 83.901569 -24.50913 
L 83.451727 -24.457415 
L 83.001884 -24.406304 
L 82.552041 -24.357432 
L 82.102198 -24.312254 
L 81.652355 -24.271991 
L 81.202513 -24.237579 
L 80.75267 -24.209651 
L 80.302827 -24.18852 
L 79.852984 -24.174195 
L 79.403141 -24.166397 
L 78.953299 -24.164599 
L 78.503456 -24.168064 
L 78.053613 -24.175902 
L 77.60377 -24.187121 
L 77.153927 -24.200679 
L 76.704085 -24.215542 
L 76.254242 -24.230731 
L 75.804399 -24.245362 
L 75.354556 -24.258688 
L 74.904713 -24.270122 
L 74.454871 -24.279255 
L 74.005028 -24.285865 
L 73.555185 -24.289916 
L 73.105342 -24.291546 
L 72.655499 -24.291053 
L 72.205657 -24.288872 
L 71.755814 -24.285552 
L 71.305971 -24.281731 
L 70.856128 -24.278108 
L 70.406285 -24.275429 
L 69.956443 -24.274463 
L 69.5066 -24.275988 
L 69.056757 -24.280782 
L 68.606914 -24.28961 
L 68.157071 -24.303216 
L 67.707229 -24.32231 
L 67.257386 -24.347557 
L 66.807543 -24.379555 
L 66.3577 -24.418819 
L 65.907857 -24.465748 
L 65.458015 -24.520604 
L 65.008172 -24.583475 
L 64.558329 -24.654254 
L 64.108486 -24.732613 
L 63.658643 -24.81799 
L 63.208801 -24.909592 
L 62.758958 -25.006405 
L 62.309115 -25.107227 
L 61.859272 -25.210714 
L 61.40943 -25.315448 
L 60.959587 -25.420004 
L 60.509744 -25.52304 
L 60.059901 -25.623377 
L 59.610058 -25.720077 
L 59.160216 -25.812505 
L 58.710373 -25.90038 
L 58.26053 -25.983788 
L 57.810687 -26.063185 
L 57.360844 -26.139354 
L 56.911002 -26.213352 
L 56.461159 -26.286428 
L 56.011316 -26.359928 
L 55.561473 -26.43519 
L 55.11163 -26.513451 
L 54.661788 -26.59575 
L 54.211945 -26.682859 
L 53.762102 -26.775231 
L 53.312259 -26.87298 
L 52.862416 -26.975883 
L 52.412574 -27.083413 
L 51.962731 -27.194794 
L 51.512888 -27.309072 
L 51.063045 -27.425203 
L 50.613202 -27.542138 
L 50.16336 -27.658912 
L 49.713517 -27.77472 
L 49.263674 -27.888978 
L 48.813831 -28.001368 
L 48.363988 -28.111866 
L 47.914146 -28.22075 
L 47.464303 -28.328597 
L 47.01446 -28.436268 
L 46.564617 -28.544897 
L 46.114774 -28.655872 
L 45.664932 -28.770836 
L 45.215089 -28.891689 
L 44.765246 -29.020607 
L 44.315403 -29.160071 
L 43.86556 -29.312907 
L 43.415718 -29.482316 
L 42.965875 -29.671911 
L 42.516032 -29.885731 
L 42.066189 -30.128233 
L 41.616346 -30.404255 
L 41.166504 -30.718939 
L 40.716661 -31.077614 
L 40.266818 -31.485636 
L 39.816975 -31.948189 
L 39.367132 -32.47005 
L 38.91729 -33.055324 
L 38.467447 -33.707172 
L 38.017604 -34.427527 
L 37.567761 -35.216835 
L 37.117918 -36.073809 
L 36.668076 -36.995238 
L 36.218233 -37.975842 
L 35.76839 -39.008183 
L 35.318547 -40.082648 
L 34.868704 -41.187488 
L 34.418862 -42.308926 
L 33.969019 -43.431313 
L 33.519176 -44.537345 
L 33.069333 -45.608321 
L 32.619491 -46.62446 
L 32.169648 -47.565258 
L 31.719805 -48.409916 
L 31.269962 -49.137817 
L 30.820119 -49.729088 
L 30.370277 -50.165215 
L 29.920434 -50.429728 
L 29.470591 -50.508913 
L 29.020748 -50.392545 
L 28.570905 -50.074558 
L 28.121063 -49.553643 
L 27.67122 -48.833676 
L 27.221377 -47.923948 
L 26.771534 -46.839131 
L 26.321691 -45.598972 
L 25.871849 -44.227688 
L 25.422006 -42.753098 
L 24.972163 -41.205528 
L 24.52232 -39.616567 
L 24.072477 -38.017743 
L 23.622635 -36.439227 
L 23.172792 -34.908649 
L 22.722949 -33.450099 
L 22.273106 -32.083384 
L 21.823263 -30.823568 
L 21.373421 -29.680816 
L 20.923578 -28.660518 
L 20.473735 -27.763652 
L 20.023892 -26.987354 
L 19.574049 -26.325603 
L 19.124207 -25.76998 
L 18.674364 -25.310435 
L 18.224521 -24.935998 
L 17.774678 -24.635415 
L 17.324835 -24.39767 
L 16.874993 -24.212381 
L 16.42515 -24.070085 
L 15.975307 -23.962397 
L 15.525464 -23.882085 
L 15.075621 -23.823057 
L 14.625779 -23.7803 
L 14.175936 -23.749776 
z
" style="stroke: #d55e00"/>
    </defs>
    <g clip-path="url(#pb62c0d089a)">
     <use xlink:href="#mbe99ae6a79" x="0" y="97.334219" style="fill: #d55e00; fill-opacity: 0.3; stroke: #d55e00"/>
    </g>
   </g>
   <g id="matplotlib.axis_1">
    <g id="xtick_1">
     <g id="line2d_1">
      <path d="M 29.307175 73.650469 
L 29.307175 18.210469 
" clip-path="url(#pb62c0d089a)" style="fill: none; stroke: #b0b0b0; stroke-opacity: 0.15; stroke-width: 0.8; stroke-linecap: square"/>
     </g>
     <g id="line2d_2">
      <defs>
       <path id="m22495bc886" d="M 0 0 
L 0 2.5 
" style="stroke: #000000; stroke-width: 0.5"/>
      </defs>
      <g>
       <use xlink:href="#m22495bc886" x="29.307175" y="73.650469" style="stroke: #000000; stroke-width: 0.5"/>
      </g>
     </g>
    </g>
    <g id="xtick_2">
     <g id="line2d_3">
      <path d="M 58.143929 73.650469 
L 58.143929 18.210469 
" clip-path="url(#pb62c0d089a)" style="fill: none; stroke: #b0b0b0; stroke-opacity: 0.15; stroke-width: 0.8; stroke-linecap: square"/>
     </g>
     <g id="line2d_4">
      <g>
       <use xlink:href="#m22495bc886" x="58.143929" y="73.650469" style="stroke: #000000; stroke-width: 0.5"/>
      </g>
     </g>
    </g>
    <g id="xtick_3">
     <g id="line2d_5">
      <path d="M 86.980683 73.650469 
L 86.980683 18.210469 
" clip-path="url(#pb62c0d089a)" style="fill: none; stroke: #b0b0b0; stroke-opacity: 0.15; stroke-width: 0.8; stroke-linecap: square"/>
     </g>
     <g id="line2d_6">
      <g>
       <use xlink:href="#m22495bc886" x="86.980683" y="73.650469" style="stroke: #000000; stroke-width: 0.5"/>
      </g>
     </g>
    </g>
    <g id="text_1">
     <text style="font-size: 7px; font-family: 'Arial', 'DejaVu Sans', sans-serif; text-anchor: middle" x="58.935294" y="88.660938" transform="rotate(-0 58.935294 88.660938)">Description length</text>
    </g>
   </g>
   <g id="matplotlib.axis_2">
    <g id="ytick_1">
     <g id="line2d_7">
      <path d="M 9.7 73.650469 
L 108.170588 73.650469 
" clip-path="url(#pb62c0d089a)" style="fill: none; stroke: #b0b0b0; stroke-opacity: 0.15; stroke-width: 0.8; stroke-linecap: square"/>
     </g>
     <g id="line2d_8">
      <defs>
       <path id="m877b4e3aab" d="M 0 0 
L -2.5 0 
" style="stroke: #000000; stroke-width: 0.5"/>
      </defs>
      <g>
       <use xlink:href="#m877b4e3aab" x="9.7" y="73.650469" style="stroke: #000000; stroke-width: 0.5"/>
      </g>
     </g>
    </g>
    <g id="ytick_2">
     <g id="line2d_9">
      <path d="M 9.7 53.747197 
L 108.170588 53.747197 
" clip-path="url(#pb62c0d089a)" style="fill: none; stroke: #b0b0b0; stroke-opacity: 0.15; stroke-width: 0.8; stroke-linecap: square"/>
     </g>
     <g id="line2d_10">
      <g>
       <use xlink:href="#m877b4e3aab" x="9.7" y="53.747197" style="stroke: #000000; stroke-width: 0.5"/>
      </g>
     </g>
    </g>
    <g id="ytick_3">
     <g id="line2d_11">
      <path d="M 9.7 33.843925 
L 108.170588 33.843925 
" clip-path="url(#pb62c0d089a)" style="fill: none; stroke: #b0b0b0; stroke-opacity: 0.15; stroke-width: 0.8; stroke-linecap: square"/>
     </g>
     <g id="line2d_12">
      <g>
       <use xlink:href="#m877b4e3aab" x="9.7" y="33.843925" style="stroke: #000000; stroke-width: 0.5"/>
      </g>
     </g>
    </g>
   </g>
   <g id="patch_3">
    <path d="M 9.7 73.650469 
L 9.7 18.210469 
" style="fill: none; stroke: #000000; stroke-width: 0.5; stroke-linejoin: miter; stroke-linecap: square"/>
   </g>
   <g id="patch_4">
    <path d="M 108.170588 73.650469 
L 108.170588 18.210469 
" style="fill: none; stroke: #000000; stroke-width: 0.5; stroke-linejoin: miter; stroke-linecap: square"/>
   </g>
   <g id="patch_5">
    <path d="M 9.7 73.650469 
L 108.170588 73.650469 
" style="fill: none; stroke: #000000; stroke-width: 0.5; stroke-linejoin: miter; stroke-linecap: square"/>
   </g>
   <g id="patch_6">
    <path d="M 9.7 18.210469 
L 108.170588 18.210469 
" style="fill: none; stroke: #000000; stroke-width: 0.5; stroke-linejoin: miter; stroke-linecap: square"/>
   </g>
   <g id="text_2">
    <text style="font-size: 7px; font-family: 'Arial', 'DejaVu Sans', sans-serif; text-anchor: middle" x="58.935294" y="12.210469" transform="rotate(-0 58.935294 12.210469)">Early steps</text>
   </g>
  </g>
  <g id="axes_2">
   <g id="patch_7">
    <path d="M 127.864706 73.650469 
L 226.335294 73.650469 
L 226.335294 18.210469 
L 127.864706 18.210469 
L 127.864706 73.650469 
z
" style="fill: none"/>
   </g>
   <g id="FillBetweenPolyCollection_3">
    <defs>
     <path id="m84da2dd228" d="M 132.485892 -23.76747 
L 132.485892 -23.68375 
L 132.858365 -23.68375 
L 133.230838 -23.68375 
L 133.603311 -23.68375 
L 133.975784 -23.68375 
L 134.348257 -23.68375 
L 134.720731 -23.68375 
L 135.093204 -23.68375 
L 135.465677 -23.68375 
L 135.83815 -23.68375 
L 136.210623 -23.68375 
L 136.583096 -23.68375 
L 136.95557 -23.68375 
L 137.328043 -23.68375 
L 137.700516 -23.68375 
L 138.072989 -23.68375 
L 138.445462 -23.68375 
L 138.817935 -23.68375 
L 139.190408 -23.68375 
L 139.562882 -23.68375 
L 139.935355 -23.68375 
L 140.307828 -23.68375 
L 140.680301 -23.68375 
L 141.052774 -23.68375 
L 141.425247 -23.68375 
L 141.797721 -23.68375 
L 142.170194 -23.68375 
L 142.542667 -23.68375 
L 142.91514 -23.68375 
L 143.287613 -23.68375 
L 143.660086 -23.68375 
L 144.03256 -23.68375 
L 144.405033 -23.68375 
L 144.777506 -23.68375 
L 145.149979 -23.68375 
L 145.522452 -23.68375 
L 145.894925 -23.68375 
L 146.267398 -23.68375 
L 146.639872 -23.68375 
L 147.012345 -23.68375 
L 147.384818 -23.68375 
L 147.757291 -23.68375 
L 148.129764 -23.68375 
L 148.502237 -23.68375 
L 148.874711 -23.68375 
L 149.247184 -23.68375 
L 149.619657 -23.68375 
L 149.99213 -23.68375 
L 150.364603 -23.68375 
L 150.737076 -23.68375 
L 151.10955 -23.68375 
L 151.482023 -23.68375 
L 151.854496 -23.68375 
L 152.226969 -23.68375 
L 152.599442 -23.68375 
L 152.971915 -23.68375 
L 153.344388 -23.68375 
L 153.716862 -23.68375 
L 154.089335 -23.68375 
L 154.461808 -23.68375 
L 154.834281 -23.68375 
L 155.206754 -23.68375 
L 155.579227 -23.68375 
L 155.951701 -23.68375 
L 156.324174 -23.68375 
L 156.696647 -23.68375 
L 157.06912 -23.68375 
L 157.441593 -23.68375 
L 157.814066 -23.68375 
L 158.18654 -23.68375 
L 158.559013 -23.68375 
L 158.931486 -23.68375 
L 159.303959 -23.68375 
L 159.676432 -23.68375 
L 160.048905 -23.68375 
L 160.421378 -23.68375 
L 160.793852 -23.68375 
L 161.166325 -23.68375 
L 161.538798 -23.68375 
L 161.911271 -23.68375 
L 162.283744 -23.68375 
L 162.656217 -23.68375 
L 163.028691 -23.68375 
L 163.401164 -23.68375 
L 163.773637 -23.68375 
L 164.14611 -23.68375 
L 164.518583 -23.68375 
L 164.891056 -23.68375 
L 165.263529 -23.68375 
L 165.636003 -23.68375 
L 166.008476 -23.68375 
L 166.380949 -23.68375 
L 166.753422 -23.68375 
L 167.125895 -23.68375 
L 167.498368 -23.68375 
L 167.870842 -23.68375 
L 168.243315 -23.68375 
L 168.615788 -23.68375 
L 168.988261 -23.68375 
L 169.360734 -23.68375 
L 169.733207 -23.68375 
L 170.105681 -23.68375 
L 170.478154 -23.68375 
L 170.850627 -23.68375 
L 171.2231 -23.68375 
L 171.595573 -23.68375 
L 171.968046 -23.68375 
L 172.340519 -23.68375 
L 172.712993 -23.68375 
L 173.085466 -23.68375 
L 173.457939 -23.68375 
L 173.830412 -23.68375 
L 174.202885 -23.68375 
L 174.575358 -23.68375 
L 174.947832 -23.68375 
L 175.320305 -23.68375 
L 175.692778 -23.68375 
L 176.065251 -23.68375 
L 176.437724 -23.68375 
L 176.810197 -23.68375 
L 177.182671 -23.68375 
L 177.555144 -23.68375 
L 177.927617 -23.68375 
L 178.30009 -23.68375 
L 178.672563 -23.68375 
L 179.045036 -23.68375 
L 179.417509 -23.68375 
L 179.789983 -23.68375 
L 180.162456 -23.68375 
L 180.534929 -23.68375 
L 180.907402 -23.68375 
L 181.279875 -23.68375 
L 181.652348 -23.68375 
L 182.024822 -23.68375 
L 182.397295 -23.68375 
L 182.769768 -23.68375 
L 183.142241 -23.68375 
L 183.514714 -23.68375 
L 183.887187 -23.68375 
L 184.25966 -23.68375 
L 184.632134 -23.68375 
L 185.004607 -23.68375 
L 185.37708 -23.68375 
L 185.749553 -23.68375 
L 186.122026 -23.68375 
L 186.494499 -23.68375 
L 186.866973 -23.68375 
L 187.239446 -23.68375 
L 187.611919 -23.68375 
L 187.984392 -23.68375 
L 188.356865 -23.68375 
L 188.729338 -23.68375 
L 189.101812 -23.68375 
L 189.474285 -23.68375 
L 189.846758 -23.68375 
L 190.219231 -23.68375 
L 190.591704 -23.68375 
L 190.964177 -23.68375 
L 191.33665 -23.68375 
L 191.709124 -23.68375 
L 192.081597 -23.68375 
L 192.45407 -23.68375 
L 192.826543 -23.68375 
L 193.199016 -23.68375 
L 193.571489 -23.68375 
L 193.943963 -23.68375 
L 194.316436 -23.68375 
L 194.688909 -23.68375 
L 195.061382 -23.68375 
L 195.433855 -23.68375 
L 195.806328 -23.68375 
L 196.178802 -23.68375 
L 196.551275 -23.68375 
L 196.923748 -23.68375 
L 197.296221 -23.68375 
L 197.668694 -23.68375 
L 198.041167 -23.68375 
L 198.41364 -23.68375 
L 198.786114 -23.68375 
L 199.158587 -23.68375 
L 199.53106 -23.68375 
L 199.903533 -23.68375 
L 200.276006 -23.68375 
L 200.648479 -23.68375 
L 201.020953 -23.68375 
L 201.393426 -23.68375 
L 201.765899 -23.68375 
L 202.138372 -23.68375 
L 202.510845 -23.68375 
L 202.883318 -23.68375 
L 203.255792 -23.68375 
L 203.628265 -23.68375 
L 204.000738 -23.68375 
L 204.373211 -23.68375 
L 204.745684 -23.68375 
L 205.118157 -23.68375 
L 205.49063 -23.68375 
L 205.863104 -23.68375 
L 206.235577 -23.68375 
L 206.60805 -23.68375 
L 206.60805 -23.684991 
L 206.60805 -23.684991 
L 206.235577 -23.686169 
L 205.863104 -23.688235 
L 205.49063 -23.691651 
L 205.118157 -23.696984 
L 204.745684 -23.704825 
L 204.373211 -23.715667 
L 204.000738 -23.729728 
L 203.628265 -23.746781 
L 203.255792 -23.76603 
L 202.883318 -23.786126 
L 202.510845 -23.805342 
L 202.138372 -23.821913 
L 201.765899 -23.834459 
L 201.393426 -23.842345 
L 201.020953 -23.845873 
L 200.648479 -23.846182 
L 200.276006 -23.844899 
L 199.903533 -23.843629 
L 199.53106 -23.843477 
L 199.158587 -23.844756 
L 198.786114 -23.846993 
L 198.41364 -23.849221 
L 198.041167 -23.850411 
L 197.668694 -23.849902 
L 197.296221 -23.847642 
L 196.923748 -23.844191 
L 196.551275 -23.840492 
L 196.178802 -23.837547 
L 195.806328 -23.836119 
L 195.433855 -23.836586 
L 195.061382 -23.838938 
L 194.688909 -23.842893 
L 194.316436 -23.848003 
L 193.943963 -23.853701 
L 193.571489 -23.859284 
L 193.199016 -23.863872 
L 192.826543 -23.866472 
L 192.45407 -23.866155 
L 192.081597 -23.862348 
L 191.709124 -23.855119 
L 191.33665 -23.84533 
L 190.964177 -23.834565 
L 190.591704 -23.824826 
L 190.219231 -23.818094 
L 189.846758 -23.815877 
L 189.474285 -23.818896 
L 189.101812 -23.826968 
L 188.729338 -23.839092 
L 188.356865 -23.853698 
L 187.984392 -23.868977 
L 187.611919 -23.883219 
L 187.239446 -23.895114 
L 186.866973 -23.903956 
L 186.494499 -23.909762 
L 186.122026 -23.913276 
L 185.749553 -23.915877 
L 185.37708 -23.919406 
L 185.004607 -23.925902 
L 184.632134 -23.937294 
L 184.25966 -23.955044 
L 183.887187 -23.979828 
L 183.514714 -24.01131 
L 183.142241 -24.048126 
L 182.769768 -24.088116 
L 182.397295 -24.12879 
L 182.024822 -24.167915 
L 181.652348 -24.204038 
L 181.279875 -24.236795 
L 180.907402 -24.266909 
L 180.534929 -24.295919 
L 180.162456 -24.325797 
L 179.789983 -24.358592 
L 179.417509 -24.396219 
L 179.045036 -24.440362 
L 178.672563 -24.492395 
L 178.30009 -24.553216 
L 177.927617 -24.622969 
L 177.555144 -24.700755 
L 177.182671 -24.784485 
L 176.810197 -24.870992 
L 176.437724 -24.956453 
L 176.065251 -25.03699 
L 175.692778 -25.109306 
L 175.320305 -25.171203 
L 174.947832 -25.221917 
L 174.575358 -25.262287 
L 174.202885 -25.294825 
L 173.830412 -25.323703 
L 173.457939 -25.354648 
L 173.085466 -25.39465 
L 172.712993 -25.451393 
L 172.340519 -25.532352 
L 171.968046 -25.643582 
L 171.595573 -25.788349 
L 171.2231 -25.9659 
L 170.850627 -26.170736 
L 170.478154 -26.392794 
L 170.105681 -26.618751 
L 169.733207 -26.834455 
L 169.360734 -27.028057 
L 168.988261 -27.193208 
L 168.615788 -27.331491 
L 168.243315 -27.45338 
L 167.870842 -27.577338 
L 167.498368 -27.727077 
L 167.125895 -27.927532 
L 166.753422 -28.200414 
L 166.380949 -28.560434 
L 166.008476 -29.013124 
L 165.636003 -29.554835 
L 165.263529 -30.174866 
L 164.891056 -30.85909 
L 164.518583 -31.594041 
L 164.14611 -32.370367 
L 163.773637 -33.184897 
L 163.401164 -34.041086 
L 163.028691 -34.948203 
L 162.656217 -35.919921 
L 162.283744 -36.97303 
L 161.911271 -38.126744 
L 161.538798 -39.402648 
L 161.166325 -40.824894 
L 160.793852 -42.419899 
L 160.421378 -44.214629 
L 160.048905 -46.232746 
L 159.676432 -48.488428 
L 159.303959 -50.978566 
L 158.931486 -53.67499 
L 158.559013 -56.518985 
L 158.18654 -59.420205 
L 157.814066 -62.261177 
L 157.441593 -64.906987 
L 157.06912 -67.218282 
L 156.696647 -69.064879 
L 156.324174 -70.337526 
L 155.951701 -70.956473 
L 155.579227 -70.876903 
L 155.206754 -70.092232 
L 154.834281 -68.636269 
L 154.461808 -66.584358 
L 154.089335 -64.052486 
L 153.716862 -61.192615 
L 153.344388 -58.182853 
L 152.971915 -55.212372 
L 152.599442 -52.462815 
L 152.226969 -50.089409 
L 151.854496 -48.205486 
L 151.482023 -46.873445 
L 151.10955 -46.103589 
L 150.737076 -45.860426 
L 150.364603 -46.074441 
L 149.99213 -46.656508 
L 149.619657 -47.511972 
L 149.247184 -48.551997 
L 148.874711 -49.700713 
L 148.502237 -50.897859 
L 148.129764 -52.097774 
L 147.757291 -53.266427 
L 147.384818 -54.378504 
L 147.012345 -55.416172 
L 146.639872 -56.370147 
L 146.267398 -57.242394 
L 145.894925 -58.04879 
L 145.522452 -58.819823 
L 145.149979 -59.598029 
L 144.777506 -60.432145 
L 144.405033 -61.369252 
L 144.03256 -62.446885 
L 143.660086 -63.686965 
L 143.287613 -65.092528 
L 142.91514 -66.64704 
L 142.542667 -68.315247 
L 142.170194 -70.044179 
L 141.797721 -71.76331 
L 141.425247 -73.383648 
L 141.052774 -74.796489 
L 140.680301 -75.873436 
L 140.307828 -76.469814 
L 139.935355 -76.433632 
L 139.562882 -75.621412 
L 139.190408 -73.920359 
L 138.817935 -71.273716 
L 138.445462 -67.703597 
L 138.072989 -63.324207 
L 137.700516 -58.339383 
L 137.328043 -53.021949 
L 136.95557 -47.677664 
L 136.583096 -42.601485 
L 136.210623 -38.036557 
L 135.83815 -34.145493 
L 135.465677 -30.999558 
L 135.093204 -28.585882 
L 134.720731 -26.827999 
L 134.348257 -25.612453 
L 133.975784 -24.814302 
L 133.603311 -24.316597 
L 133.230838 -24.021841 
L 132.858365 -23.856046 
L 132.485892 -23.76747 
z
" style="stroke: #0072b2"/>
    </defs>
    <g clip-path="url(#p299bc875d7)">
     <use xlink:href="#m84da2dd228" x="0" y="97.334219" style="fill: #0072b2; fill-opacity: 0.3; stroke: #0072b2"/>
    </g>
   </g>
   <g id="FillBetweenPolyCollection_4">
    <defs>
     <path id="mdf5772fd50" d="M 132.340642 -23.761144 
L 132.340642 -23.68375 
L 132.790485 -23.68375 
L 133.240327 -23.68375 
L 133.69017 -23.68375 
L 134.140013 -23.68375 
L 134.589856 -23.68375 
L 135.039698 -23.68375 
L 135.489541 -23.68375 
L 135.939384 -23.68375 
L 136.389227 -23.68375 
L 136.83907 -23.68375 
L 137.288912 -23.68375 
L 137.738755 -23.68375 
L 138.188598 -23.68375 
L 138.638441 -23.68375 
L 139.088284 -23.68375 
L 139.538126 -23.68375 
L 139.987969 -23.68375 
L 140.437812 -23.68375 
L 140.887655 -23.68375 
L 141.337498 -23.68375 
L 141.78734 -23.68375 
L 142.237183 -23.68375 
L 142.687026 -23.68375 
L 143.136869 -23.68375 
L 143.586712 -23.68375 
L 144.036554 -23.68375 
L 144.486397 -23.68375 
L 144.93624 -23.68375 
L 145.386083 -23.68375 
L 145.835926 -23.68375 
L 146.285768 -23.68375 
L 146.735611 -23.68375 
L 147.185454 -23.68375 
L 147.635297 -23.68375 
L 148.08514 -23.68375 
L 148.534982 -23.68375 
L 148.984825 -23.68375 
L 149.434668 -23.68375 
L 149.884511 -23.68375 
L 150.334354 -23.68375 
L 150.784196 -23.68375 
L 151.234039 -23.68375 
L 151.683882 -23.68375 
L 152.133725 -23.68375 
L 152.583568 -23.68375 
L 153.03341 -23.68375 
L 153.483253 -23.68375 
L 153.933096 -23.68375 
L 154.382939 -23.68375 
L 154.832782 -23.68375 
L 155.282624 -23.68375 
L 155.732467 -23.68375 
L 156.18231 -23.68375 
L 156.632153 -23.68375 
L 157.081996 -23.68375 
L 157.531838 -23.68375 
L 157.981681 -23.68375 
L 158.431524 -23.68375 
L 158.881367 -23.68375 
L 159.33121 -23.68375 
L 159.781052 -23.68375 
L 160.230895 -23.68375 
L 160.680738 -23.68375 
L 161.130581 -23.68375 
L 161.580424 -23.68375 
L 162.030266 -23.68375 
L 162.480109 -23.68375 
L 162.929952 -23.68375 
L 163.379795 -23.68375 
L 163.829637 -23.68375 
L 164.27948 -23.68375 
L 164.729323 -23.68375 
L 165.179166 -23.68375 
L 165.629009 -23.68375 
L 166.078851 -23.68375 
L 166.528694 -23.68375 
L 166.978537 -23.68375 
L 167.42838 -23.68375 
L 167.878223 -23.68375 
L 168.328065 -23.68375 
L 168.777908 -23.68375 
L 169.227751 -23.68375 
L 169.677594 -23.68375 
L 170.127437 -23.68375 
L 170.577279 -23.68375 
L 171.027122 -23.68375 
L 171.476965 -23.68375 
L 171.926808 -23.68375 
L 172.376651 -23.68375 
L 172.826493 -23.68375 
L 173.276336 -23.68375 
L 173.726179 -23.68375 
L 174.176022 -23.68375 
L 174.625865 -23.68375 
L 175.075707 -23.68375 
L 175.52555 -23.68375 
L 175.975393 -23.68375 
L 176.425236 -23.68375 
L 176.875079 -23.68375 
L 177.324921 -23.68375 
L 177.774764 -23.68375 
L 178.224607 -23.68375 
L 178.67445 -23.68375 
L 179.124293 -23.68375 
L 179.574135 -23.68375 
L 180.023978 -23.68375 
L 180.473821 -23.68375 
L 180.923664 -23.68375 
L 181.373507 -23.68375 
L 181.823349 -23.68375 
L 182.273192 -23.68375 
L 182.723035 -23.68375 
L 183.172878 -23.68375 
L 183.622721 -23.68375 
L 184.072563 -23.68375 
L 184.522406 -23.68375 
L 184.972249 -23.68375 
L 185.422092 -23.68375 
L 185.871935 -23.68375 
L 186.321777 -23.68375 
L 186.77162 -23.68375 
L 187.221463 -23.68375 
L 187.671306 -23.68375 
L 188.121149 -23.68375 
L 188.570991 -23.68375 
L 189.020834 -23.68375 
L 189.470677 -23.68375 
L 189.92052 -23.68375 
L 190.370363 -23.68375 
L 190.820205 -23.68375 
L 191.270048 -23.68375 
L 191.719891 -23.68375 
L 192.169734 -23.68375 
L 192.619576 -23.68375 
L 193.069419 -23.68375 
L 193.519262 -23.68375 
L 193.969105 -23.68375 
L 194.418948 -23.68375 
L 194.86879 -23.68375 
L 195.318633 -23.68375 
L 195.768476 -23.68375 
L 196.218319 -23.68375 
L 196.668162 -23.68375 
L 197.118004 -23.68375 
L 197.567847 -23.68375 
L 198.01769 -23.68375 
L 198.467533 -23.68375 
L 198.917376 -23.68375 
L 199.367218 -23.68375 
L 199.817061 -23.68375 
L 200.266904 -23.68375 
L 200.716747 -23.68375 
L 201.16659 -23.68375 
L 201.616432 -23.68375 
L 202.066275 -23.68375 
L 202.516118 -23.68375 
L 202.965961 -23.68375 
L 203.415804 -23.68375 
L 203.865646 -23.68375 
L 204.315489 -23.68375 
L 204.765332 -23.68375 
L 205.215175 -23.68375 
L 205.665018 -23.68375 
L 206.11486 -23.68375 
L 206.564703 -23.68375 
L 207.014546 -23.68375 
L 207.464389 -23.68375 
L 207.914232 -23.68375 
L 208.364074 -23.68375 
L 208.813917 -23.68375 
L 209.26376 -23.68375 
L 209.713603 -23.68375 
L 210.163446 -23.68375 
L 210.613288 -23.68375 
L 211.063131 -23.68375 
L 211.512974 -23.68375 
L 211.962817 -23.68375 
L 212.41266 -23.68375 
L 212.862502 -23.68375 
L 213.312345 -23.68375 
L 213.762188 -23.68375 
L 214.212031 -23.68375 
L 214.661874 -23.68375 
L 215.111716 -23.68375 
L 215.561559 -23.68375 
L 216.011402 -23.68375 
L 216.461245 -23.68375 
L 216.911088 -23.68375 
L 217.36093 -23.68375 
L 217.810773 -23.68375 
L 218.260616 -23.68375 
L 218.710459 -23.68375 
L 219.160302 -23.68375 
L 219.610144 -23.68375 
L 220.059987 -23.68375 
L 220.50983 -23.68375 
L 220.959673 -23.68375 
L 221.409515 -23.68375 
L 221.859358 -23.68375 
L 221.859358 -23.68427 
L 221.859358 -23.68427 
L 221.409515 -23.684869 
L 220.959673 -23.685992 
L 220.50983 -23.687932 
L 220.059987 -23.691012 
L 219.610144 -23.695492 
L 219.160302 -23.701425 
L 218.710459 -23.708517 
L 218.260616 -23.716061 
L 217.810773 -23.722992 
L 217.36093 -23.728119 
L 216.911088 -23.730453 
L 216.461245 -23.729516 
L 216.011402 -23.725502 
L 215.561559 -23.719211 
L 215.111716 -23.711789 
L 214.661874 -23.704393 
L 214.212031 -23.697907 
L 213.762188 -23.692815 
L 213.312345 -23.689226 
L 212.862502 -23.687014 
L 212.41266 -23.685999 
L 211.962817 -23.686111 
L 211.512974 -23.687515 
L 211.063131 -23.690681 
L 210.613288 -23.69639 
L 210.163446 -23.70563 
L 209.713603 -23.719362 
L 209.26376 -23.738146 
L 208.813917 -23.761695 
L 208.364074 -23.78851 
L 207.914232 -23.815793 
L 207.464389 -23.839791 
L 207.014546 -23.856581 
L 206.564703 -23.863104 
L 206.11486 -23.858066 
L 205.665018 -23.842376 
L 205.215175 -23.818903 
L 204.765332 -23.791668 
L 204.315489 -23.764806 
L 203.865646 -23.741689 
L 203.415804 -23.724483 
L 202.965961 -23.714173 
L 202.516118 -23.71088 
L 202.066275 -23.714234 
L 201.616432 -23.723601 
L 201.16659 -23.738118 
L 200.716747 -23.756627 
L 200.266904 -23.777629 
L 199.817061 -23.799418 
L 199.367218 -23.820422 
L 198.917376 -23.839658 
L 198.467533 -23.857119 
L 198.01769 -23.873876 
L 197.567847 -23.891762 
L 197.118004 -23.912689 
L 196.668162 -23.937827 
L 196.218319 -23.966985 
L 195.768476 -23.998441 
L 195.318633 -24.029319 
L 194.86879 -24.056357 
L 194.418948 -24.076749 
L 193.969105 -24.088726 
L 193.519262 -24.091685 
L 193.069419 -24.085901 
L 192.619576 -24.072077 
L 192.169734 -24.051077 
L 191.719891 -24.024021 
L 191.270048 -23.992672 
L 190.820205 -23.959761 
L 190.370363 -23.92889 
L 189.92052 -23.903823 
L 189.470677 -23.8874 
L 189.020834 -23.880554 
L 188.570991 -23.881968 
L 188.121149 -23.888614 
L 187.671306 -23.89703 
L 187.221463 -23.904831 
L 186.77162 -23.911871 
L 186.321777 -23.920592 
L 185.871935 -23.935373 
L 185.422092 -23.961022 
L 184.972249 -24.00077 
L 184.522406 -24.054419 
L 184.072563 -24.117357 
L 183.622721 -24.181062 
L 183.172878 -24.235244 
L 182.723035 -24.271091 
L 182.273192 -24.284426 
L 181.823349 -24.277476 
L 181.373507 -24.258471 
L 180.923664 -24.239176 
L 180.473821 -24.231347 
L 180.023978 -24.243419 
L 179.574135 -24.278517 
L 179.124293 -24.334256 
L 178.67445 -24.404194 
L 178.224607 -24.480303 
L 177.774764 -24.555599 
L 177.324921 -24.626052 
L 176.875079 -24.691124 
L 176.425236 -24.752841 
L 175.975393 -24.813906 
L 175.52555 -24.875894 
L 175.075707 -24.938561 
L 174.625865 -25.000711 
L 174.176022 -25.062195 
L 173.726179 -25.125861 
L 173.276336 -25.198227 
L 172.826493 -25.288234 
L 172.376651 -25.404396 
L 171.926808 -25.551453 
L 171.476965 -25.727863 
L 171.027122 -25.925227 
L 170.577279 -26.130006 
L 170.127437 -26.327192 
L 169.677594 -26.504884 
L 169.227751 -26.658469 
L 168.777908 -26.793161 
L 168.328065 -26.924205 
L 167.878223 -27.074696 
L 167.42838 -27.271566 
L 166.978537 -27.540659 
L 166.528694 -27.902034 
L 166.078851 -28.366815 
L 165.629009 -28.936784 
L 165.179166 -29.607334 
L 164.729323 -30.373273 
L 164.27948 -31.235741 
L 163.829637 -32.207922 
L 163.379795 -33.317825 
L 162.929952 -34.607659 
L 162.480109 -36.130497 
L 162.030266 -37.94501 
L 161.580424 -40.108063 
L 161.130581 -42.663947 
L 160.680738 -45.629178 
L 160.230895 -48.973999 
L 159.781052 -52.605289 
L 159.33121 -56.358712 
L 158.881367 -60.008023 
L 158.431524 -63.29505 
L 157.981681 -65.975529 
L 157.531838 -67.867308 
L 157.081996 -68.883393 
L 156.632153 -69.036645 
L 156.18231 -68.414991 
L 155.732467 -67.14003 
L 155.282624 -65.329854 
L 154.832782 -63.083517 
L 154.382939 -60.491401 
L 153.933096 -57.660421 
L 153.483253 -54.734796 
L 153.03341 -51.896538 
L 152.583568 -49.342167 
L 152.133725 -47.245492 
L 151.683882 -45.723085 
L 151.234039 -44.816411 
L 150.784196 -44.495596 
L 150.334354 -44.680386 
L 149.884511 -45.268648 
L 149.434668 -46.162796 
L 148.984825 -47.287744 
L 148.534982 -48.597812 
L 148.08514 -50.073036 
L 147.635297 -51.707696 
L 147.185454 -53.495715 
L 146.735611 -55.418558 
L 146.285768 -57.44033 
L 145.835926 -59.511674 
L 145.386083 -61.580065 
L 144.93624 -63.601201 
L 144.486397 -65.546104 
L 144.036554 -67.401194 
L 143.586712 -69.162156 
L 143.136869 -70.824802 
L 142.687026 -72.376069 
L 142.237183 -73.786422 
L 141.78734 -75.002966 
L 141.337498 -75.942251 
L 140.887655 -76.48375 
L 140.437812 -76.468356 
L 139.987969 -75.708732 
L 139.538126 -74.017423 
L 139.088284 -71.252684 
L 138.638441 -67.372476 
L 138.188598 -62.478313 
L 137.738755 -56.828614 
L 137.288912 -50.80916 
L 136.83907 -44.864352 
L 136.389227 -39.409539 
L 135.939384 -34.753055 
L 135.489541 -31.052162 
L 135.039698 -28.312358 
L 134.589856 -26.422598 
L 134.140013 -25.208024 
L 133.69017 -24.480592 
L 133.240327 -24.074603 
L 132.790485 -23.863462 
L 132.340642 -23.761144 
z
" style="stroke: #d55e00"/>
    </defs>
    <g clip-path="url(#p299bc875d7)">
     <use xlink:href="#mdf5772fd50" x="0" y="97.334219" style="fill: #d55e00; fill-opacity: 0.3; stroke: #d55e00"/>
    </g>
   </g>
   <g id="matplotlib.axis_3">
    <g id="xtick_4">
     <g id="line2d_13">
      <path d="M 163.40582 73.650469 
L 163.40582 18.210469 
" clip-path="url(#p299bc875d7)" style="fill: none; stroke: #b0b0b0; stroke-opacity: 0.15; stroke-width: 0.8; stroke-linecap: square"/>
     </g>
     <g id="line2d_14">
      <g>
       <use xlink:href="#m22495bc886" x="163.40582" y="73.650469" style="stroke: #000000; stroke-width: 0.5"/>
      </g>
     </g>
    </g>
    <g id="xtick_5">
     <g id="line2d_15">
      <path d="M 209.333614 73.650469 
L 209.333614 18.210469 
" clip-path="url(#p299bc875d7)" style="fill: none; stroke: #b0b0b0; stroke-opacity: 0.15; stroke-width: 0.8; stroke-linecap: square"/>
     </g>
     <g id="line2d_16">
      <g>
       <use xlink:href="#m22495bc886" x="209.333614" y="73.650469" style="stroke: #000000; stroke-width: 0.5"/>
      </g>
     </g>
    </g>
    <g id="text_3">
     <text style="font-size: 7px; font-family: 'Arial', 'DejaVu Sans', sans-serif; text-anchor: middle" x="177.1" y="88.660938" transform="rotate(-0 177.1 88.660938)">Description length</text>
    </g>
   </g>
   <g id="matplotlib.axis_4">
    <g id="ytick_4">
     <g id="line2d_17">
      <path d="M 127.864706 73.650469 
L 226.335294 73.650469 
" clip-path="url(#p299bc875d7)" style="fill: none; stroke: #b0b0b0; stroke-opacity: 0.15; stroke-width: 0.8; stroke-linecap: square"/>
     </g>
     <g id="line2d_18">
      <g>
       <use xlink:href="#m877b4e3aab" x="127.864706" y="73.650469" style="stroke: #000000; stroke-width: 0.5"/>
      </g>
     </g>
    </g>
    <g id="ytick_5">
     <g id="line2d_19">
      <path d="M 127.864706 52.178931 
L 226.335294 52.178931 
" clip-path="url(#p299bc875d7)" style="fill: none; stroke: #b0b0b0; stroke-opacity: 0.15; stroke-width: 0.8; stroke-linecap: square"/>
     </g>
     <g id="line2d_20">
      <g>
       <use xlink:href="#m877b4e3aab" x="127.864706" y="52.178931" style="stroke: #000000; stroke-width: 0.5"/>
      </g>
     </g>
    </g>
    <g id="ytick_6">
     <g id="line2d_21">
      <path d="M 127.864706 30.707393 
L 226.335294 30.707393 
" clip-path="url(#p299bc875d7)" style="fill: none; stroke: #b0b0b0; stroke-opacity: 0.15; stroke-width: 0.8; stroke-linecap: square"/>
     </g>
     <g id="line2d_22">
      <g>
       <use xlink:href="#m877b4e3aab" x="127.864706" y="30.707393" style="stroke: #000000; stroke-width: 0.5"/>
      </g>
     </g>
    </g>
   </g>
   <g id="patch_8">
    <path d="M 127.864706 73.650469 
L 127.864706 18.210469 
" style="fill: none; stroke: #000000; stroke-width: 0.5; stroke-linejoin: miter; stroke-linecap: square"/>
   </g>
   <g id="patch_9">
    <path d="M 226.335294 73.650469 
L 226.335294 18.210469 
" style="fill: none; stroke: #000000; stroke-width: 0.5; stroke-linejoin: miter; stroke-linecap: square"/>
   </g>
   <g id="patch_10">
    <path d="M 127.864706 73.650469 
L 226.335294 73.650469 
" style="fill: none; stroke: #000000; stroke-width: 0.5; stroke-linejoin: miter; stroke-linecap: square"/>
   </g>
   <g id="patch_11">
    <path d="M 127.864706 18.210469 
L 226.335294 18.210469 
" style="fill: none; stroke: #000000; stroke-width: 0.5; stroke-linejoin: miter; stroke-linecap: square"/>
   </g>
   <g id="text_4">
    <text style="font-size: 7px; font-family: 'Arial', 'DejaVu Sans', sans-serif; text-anchor: middle" x="177.1" y="12.210469" transform="rotate(-0 177.1 12.210469)">Later steps</text>
   </g>
  </g>
  <g id="axes_3">
   <g id="patch_12">
    <path d="M 246.029412 73.650469 
L 344.5 73.650469 
L 344.5 18.210469 
L 246.029412 18.210469 
L 246.029412 73.650469 
z
" style="fill: none"/>
   </g>
   <g id="matplotlib.axis_5">
    <g id="xtick_6">
     <g id="line2d_23">
      <path d="M 250.053233 73.650469 
L 250.053233 18.210469 
" clip-path="url(#p67e05711a9)" style="fill: none; stroke: #b0b0b0; stroke-opacity: 0.15; stroke-width: 0.8; stroke-linecap: square"/>
     </g>
     <g id="line2d_24">
      <g>
       <use xlink:href="#m22495bc886" x="250.053233" y="73.650469" style="stroke: #000000; stroke-width: 0.5"/>
      </g>
     </g>
    </g>
    <g id="xtick_7">
     <g id="line2d_25">
      <path d="M 295.264706 73.650469 
L 295.264706 18.210469 
" clip-path="url(#p67e05711a9)" style="fill: none; stroke: #b0b0b0; stroke-opacity: 0.15; stroke-width: 0.8; stroke-linecap: square"/>
     </g>
     <g id="line2d_26">
      <g>
       <use xlink:href="#m22495bc886" x="295.264706" y="73.650469" style="stroke: #000000; stroke-width: 0.5"/>
      </g>
     </g>
    </g>
    <g id="xtick_8">
     <g id="line2d_27">
      <path d="M 340.476179 73.650469 
L 340.476179 18.210469 
" clip-path="url(#p67e05711a9)" style="fill: none; stroke: #b0b0b0; stroke-opacity: 0.15; stroke-width: 0.8; stroke-linecap: square"/>
     </g>
     <g id="line2d_28">
      <g>
       <use xlink:href="#m22495bc886" x="340.476179" y="73.650469" style="stroke: #000000; stroke-width: 0.5"/>
      </g>
     </g>
    </g>
   </g>
   <g id="matplotlib.axis_6">
    <g id="ytick_7">
     <g id="line2d_29">
      <path d="M 246.029412 73.650469 
L 344.5 73.650469 
" clip-path="url(#p67e05711a9)" style="fill: none; stroke: #b0b0b0; stroke-opacity: 0.15; stroke-width: 0.8; stroke-linecap: square"/>
     </g>
     <g id="line2d_30">
      <g>
       <use xlink:href="#m877b4e3aab" x="246.029412" y="73.650469" style="stroke: #000000; stroke-width: 0.5"/>
      </g>
     </g>
     <g id="text_5">
      <text style="font-size: 7px; font-family: 'Arial', 'DejaVu Sans', sans-serif; text-anchor: end" x="240.029412" y="76.155703" transform="rotate(-0 240.029412 76.155703)">0</text>
     </g>
    </g>
    <g id="ytick_8">
     <g id="line2d_31">
      <path d="M 246.029412 45.930469 
L 344.5 45.930469 
" clip-path="url(#p67e05711a9)" style="fill: none; stroke: #b0b0b0; stroke-opacity: 0.15; stroke-width: 0.8; stroke-linecap: square"/>
     </g>
     <g id="line2d_32">
      <g>
       <use xlink:href="#m877b4e3aab" x="246.029412" y="45.930469" style="stroke: #000000; stroke-width: 0.5"/>
      </g>
     </g>
    </g>
    <g id="ytick_9">
     <g id="line2d_33">
      <path d="M 246.029412 18.210469 
L 344.5 18.210469 
" clip-path="url(#p67e05711a9)" style="fill: none; stroke: #b0b0b0; stroke-opacity: 0.15; stroke-width: 0.8; stroke-linecap: square"/>
     </g>
     <g id="line2d_34">
      <g>
       <use xlink:href="#m877b4e3aab" x="246.029412" y="18.210469" style="stroke: #000000; stroke-width: 0.5"/>
      </g>
     </g>
     <g id="text_6">
      <text style="font-size: 7px; font-family: 'Arial', 'DejaVu Sans', sans-serif; text-anchor: end" x="240.029412" y="20.715703" transform="rotate(-0 240.029412 20.715703)">1</text>
     </g>
    </g>
   </g>
   <g id="line2d_35">
    <path d="M 250.505348 41.495269 
L 250.957462 39.832069 
L 251.409577 47.778469 
L 251.861692 41.495269 
L 252.313807 36.838309 
L 252.765921 33.733669 
L 253.218036 31.516069 
L 254.122265 28.682469 
L 254.57438 27.635269 
L 255.026495 28.088869 
L 255.47861 27.265669 
L 256.382839 33.654469 
L 257.287069 38.653969 
L 258.191298 42.665669 
L 259.095527 45.764149 
L 259.999757 48.299269 
L 261.356101 51.341413 
L 262.260331 52.993935 
L 263.616675 54.948709 
L 264.068789 54.586262 
L 264.520904 54.835519 
L 265.425134 55.779222 
L 265.877248 56.068069 
L 266.329363 55.570869 
L 267.685707 52.782284 
L 268.137822 51.973429 
L 268.589937 51.528557 
L 270.398396 53.494949 
L 271.75474 54.685369 
L 273.563199 56.101576 
L 274.015314 56.265322 
L 275.371658 57.236269 
L 275.823772 57.816027 
L 277.632231 58.854351 
L 278.084346 58.896275 
L 278.536461 59.341669 
L 279.44069 59.78194 
L 279.892805 59.521669 
L 280.34492 59.699448 
L 281.249149 59.653877 
L 282.153379 60.016914 
L 282.605493 60.391069 
L 283.509723 60.674512 
L 283.961838 60.847525 
L 284.413952 60.797142 
L 285.318182 61.183576 
L 285.770297 61.537881 
L 287.126641 61.981025 
L 289.387214 62.80462 
L 290.291444 63.048347 
L 291.647788 62.996347 
L 296.168935 64.029998 
L 296.62105 64.123401 
L 297.073165 64.0231 
L 299.785853 64.235749 
L 300.690083 64.334569 
L 301.594312 64.848153 
L 302.498542 65.038152 
L 302.950656 65.263392 
L 305.21123 65.670744 
L 305.663345 66.114235 
L 306.567574 66.12837 
L 307.019689 65.976869 
L 307.923918 66.209381 
L 308.828148 66.42621 
L 309.280263 66.269754 
L 310.184492 66.2807 
L 311.992951 66.099298 
L 312.445066 66.234364 
L 313.349295 66.958069 
L 313.80141 67.39086 
L 314.705639 67.842838 
L 315.157754 68.268169 
L 316.514098 68.460983 
L 324.200049 69.039483 
L 326.912737 67.597725 
L 328.269081 67.824462 
L 330.98177 68.106469 
L 331.885999 68.075839 
L 335.050802 68.32469 
L 336.407146 68.239989 
L 340.024064 68.502071 
L 340.024064 68.502071 
" clip-path="url(#p67e05711a9)" style="fill: none; stroke: #0072b2; stroke-linecap: square"/>
   </g>
   <g id="line2d_36">
    <path d="M 246.029412 62.562469 
L 352.7 62.562469 
" clip-path="url(#p67e05711a9)" style="fill: none; stroke-dasharray: 2.96,1.28; stroke-dashoffset: 0; stroke: #999999; stroke-width: 0.8"/>
   </g>
   <g id="line2d_37">
    <path d="M 259.095527 73.650469 
L 259.095527 18.210469 
" clip-path="url(#p67e05711a9)" style="fill: none; stroke-dasharray: 5.12,1.28,0.8,1.28; stroke-dashoffset: 0; stroke: #000000; stroke-width: 0.8"/>
   </g>
   <g id="line2d_38">
    <path d="M 295.264706 73.650469 
L 295.264706 18.210469 
" clip-path="url(#p67e05711a9)" style="fill: none; stroke-dasharray: 5.12,1.28,0.8,1.28; stroke-dashoffset: 0; stroke: #000000; stroke-width: 0.8"/>
   </g>
   <g id="patch_13">
    <path d="M 246.029412 73.650469 
L 246.029412 18.210469 
" style="fill: none; stroke: #000000; stroke-width: 0.5; stroke-linejoin: miter; stroke-linecap: square"/>
   </g>
   <g id="patch_14">
    <path d="M 344.5 73.650469 
L 344.5 18.210469 
" style="fill: none; stroke: #000000; stroke-width: 0.5; stroke-linejoin: miter; stroke-linecap: square"/>
   </g>
   <g id="patch_15">
    <path d="M 246.029412 73.650469 
L 344.5 73.650469 
" style="fill: none; stroke: #000000; stroke-width: 0.5; stroke-linejoin: miter; stroke-linecap: square"/>
   </g>
   <g id="patch_16">
    <path d="M 246.029412 18.210469 
L 344.5 18.210469 
" style="fill: none; stroke: #000000; stroke-width: 0.5; stroke-linejoin: miter; stroke-linecap: square"/>
   </g>
  </g>
 </g>
 <defs>
  <clipPath id="pb62c0d089a">
   <rect x="9.7" y="18.210469" width="98.470588" height="55.44"/>
  </clipPath>
  <clipPath id="p299bc875d7">
   <rect x="127.864706" y="18.210469" width="98.470588" height="55.44"/>
  </clipPath>
  <clipPath id="p67e05711a9">
   <rect x="246.029412" y="18.210469" width="98.470588" height="55.44"/>
  </clipPath>
 </defs>
</svg>
