<?xml version="1.0" encoding="utf-8" standalone="no"?>
<!DOCTYPE svg PUBLIC "-//W3C//DTD SVG 1.1//EN"
  "http://www.w3.org/Graphics/SVG/1.1/DTD/svg11.dtd">
<svg xmlns:xlink="http://www.w3.org/1999/xlink" width="351.7pt" height="97.334219pt" viewBox="0 0 351.7 97.334219" xmlns="http://www.w3.org/2000/svg" version="1.1">
 <metadata>
  <rdf:RDF xmlns:dc="http://purl.org/dc/elements/1.1/" xmlns:cc="http://creativecommons.org/ns#" xmlns:rdf="http://www.w3.org/1999/02/22-rdf-syntax-ns#">
   <cc:Work>
    <dc:type rdf:resource="http://purl.org/dc/dcmitype/StillImage"/>
    <dc:date>2025-10-24T19:41:23.801119</dc:date>
    <dc:format>image/svg+xml</dc:format>
    <dc:creator>
     <cc:Agent>
      <dc:title>Matplotlib v3.10.6, https://matplotlib.org/</dc:title>
     </cc:Agent>
    </dc:creator>
   </cc:Work>
  </rdf:RDF>
 </metadata>
 <defs>
  <style type="text/css">*{stroke-linejoin: round; stroke-linecap: butt}</style>
 </defs>
 <g id="figure_1">
  <g id="patch_1">
   <path d="M 0 97.334219 
L 351.7 97.334219 
L 351.7 0 
L 0 0 
L 0 97.334219 
z
" style="fill: none"/>
  </g>
  <g id="axes_1">
   <g id="patch_2">
    <path d="M 9.7 73.650469 
L 108.170588 73.650469 
L 108.170588 18.210469 
L 9.7 18.210469 
L 9.7 73.650469 
z
" style="fill: none"/>
   </g>
   <g id="FillBetweenPolyCollection_1">
    <defs>
     <path id="mc2d886d4ba" d="M 19.345376 -23.767836 
L 19.345376 -23.68375 
L 19.573884 -23.68375 
L 19.802393 -23.68375 
L 20.030902 -23.68375 
L 20.25941 -23.68375 
L 20.487919 -23.68375 
L 20.716428 -23.68375 
L 20.944936 -23.68375 
L 21.173445 -23.68375 
L 21.401954 -23.68375 
L 21.630462 -23.68375 
L 21.858971 -23.68375 
L 22.08748 -23.68375 
L 22.315988 -23.68375 
L 22.544497 -23.68375 
L 22.773006 -23.68375 
L 23.001514 -23.68375 
L 23.230023 -23.68375 
L 23.458532 -23.68375 
L 23.68704 -23.68375 
L 23.915549 -23.68375 
L 24.144058 -23.68375 
L 24.372566 -23.68375 
L 24.601075 -23.68375 
L 24.829584 -23.68375 
L 25.058092 -23.68375 
L 25.286601 -23.68375 
L 25.51511 -23.68375 
L 25.743618 -23.68375 
L 25.972127 -23.68375 
L 26.200636 -23.68375 
L 26.429144 -23.68375 
L 26.657653 -23.68375 
L 26.886162 -23.68375 
L 27.11467 -23.68375 
L 27.343179 -23.68375 
L 27.571688 -23.68375 
L 27.800196 -23.68375 
L 28.028705 -23.68375 
L 28.257214 -23.68375 
L 28.485722 -23.68375 
L 28.714231 -23.68375 
L 28.94274 -23.68375 
L 29.171248 -23.68375 
L 29.399757 -23.68375 
L 29.628266 -23.68375 
L 29.856774 -23.68375 
L 30.085283 -23.68375 
L 30.313792 -23.68375 
L 30.5423 -23.68375 
L 30.770809 -23.68375 
L 30.999318 -23.68375 
L 31.227826 -23.68375 
L 31.456335 -23.68375 
L 31.684844 -23.68375 
L 31.913352 -23.68375 
L 32.141861 -23.68375 
L 32.37037 -23.68375 
L 32.598878 -23.68375 
L 32.827387 -23.68375 
L 33.055896 -23.68375 
L 33.284404 -23.68375 
L 33.512913 -23.68375 
L 33.741422 -23.68375 
L 33.96993 -23.68375 
L 34.198439 -23.68375 
L 34.426948 -23.68375 
L 34.655456 -23.68375 
L 34.883965 -23.68375 
L 35.112474 -23.68375 
L 35.340982 -23.68375 
L 35.569491 -23.68375 
L 35.798 -23.68375 
L 36.026508 -23.68375 
L 36.255017 -23.68375 
L 36.483526 -23.68375 
L 36.712034 -23.68375 
L 36.940543 -23.68375 
L 37.169052 -23.68375 
L 37.39756 -23.68375 
L 37.626069 -23.68375 
L 37.854578 -23.68375 
L 38.083086 -23.68375 
L 38.311595 -23.68375 
L 38.540104 -23.68375 
L 38.768612 -23.68375 
L 38.997121 -23.68375 
L 39.22563 -23.68375 
L 39.454138 -23.68375 
L 39.682647 -23.68375 
L 39.911156 -23.68375 
L 40.139664 -23.68375 
L 40.368173 -23.68375 
L 40.596682 -23.68375 
L 40.82519 -23.68375 
L 41.053699 -23.68375 
L 41.282208 -23.68375 
L 41.510716 -23.68375 
L 41.739225 -23.68375 
L 41.967734 -23.68375 
L 42.196242 -23.68375 
L 42.424751 -23.68375 
L 42.65326 -23.68375 
L 42.881768 -23.68375 
L 43.110277 -23.68375 
L 43.338786 -23.68375 
L 43.567294 -23.68375 
L 43.795803 -23.68375 
L 44.024312 -23.68375 
L 44.25282 -23.68375 
L 44.481329 -23.68375 
L 44.709838 -23.68375 
L 44.938346 -23.68375 
L 45.166855 -23.68375 
L 45.395364 -23.68375 
L 45.623872 -23.68375 
L 45.852381 -23.68375 
L 46.08089 -23.68375 
L 46.309398 -23.68375 
L 46.537907 -23.68375 
L 46.766416 -23.68375 
L 46.994924 -23.68375 
L 47.223433 -23.68375 
L 47.451942 -23.68375 
L 47.68045 -23.68375 
L 47.908959 -23.68375 
L 48.137468 -23.68375 
L 48.365976 -23.68375 
L 48.594485 -23.68375 
L 48.822994 -23.68375 
L 49.051502 -23.68375 
L 49.280011 -23.68375 
L 49.50852 -23.68375 
L 49.737028 -23.68375 
L 49.965537 -23.68375 
L 50.194046 -23.68375 
L 50.422554 -23.68375 
L 50.651063 -23.68375 
L 50.879572 -23.68375 
L 51.10808 -23.68375 
L 51.336589 -23.68375 
L 51.565098 -23.68375 
L 51.793606 -23.68375 
L 52.022115 -23.68375 
L 52.250624 -23.68375 
L 52.479132 -23.68375 
L 52.707641 -23.68375 
L 52.93615 -23.68375 
L 53.164658 -23.68375 
L 53.393167 -23.68375 
L 53.621676 -23.68375 
L 53.850184 -23.68375 
L 54.078693 -23.68375 
L 54.307202 -23.68375 
L 54.53571 -23.68375 
L 54.764219 -23.68375 
L 54.992728 -23.68375 
L 55.221236 -23.68375 
L 55.449745 -23.68375 
L 55.678254 -23.68375 
L 55.906762 -23.68375 
L 56.135271 -23.68375 
L 56.36378 -23.68375 
L 56.592288 -23.68375 
L 56.820797 -23.68375 
L 57.049306 -23.68375 
L 57.277814 -23.68375 
L 57.506323 -23.68375 
L 57.734832 -23.68375 
L 57.96334 -23.68375 
L 58.191849 -23.68375 
L 58.420358 -23.68375 
L 58.648866 -23.68375 
L 58.877375 -23.68375 
L 59.105884 -23.68375 
L 59.334392 -23.68375 
L 59.562901 -23.68375 
L 59.79141 -23.68375 
L 60.019918 -23.68375 
L 60.248427 -23.68375 
L 60.476936 -23.68375 
L 60.705444 -23.68375 
L 60.933953 -23.68375 
L 61.162462 -23.68375 
L 61.39097 -23.68375 
L 61.619479 -23.68375 
L 61.847988 -23.68375 
L 62.076496 -23.68375 
L 62.305005 -23.68375 
L 62.533514 -23.68375 
L 62.762022 -23.68375 
L 62.990531 -23.68375 
L 63.21904 -23.68375 
L 63.447548 -23.68375 
L 63.676057 -23.68375 
L 63.904566 -23.68375 
L 64.133074 -23.68375 
L 64.361583 -23.68375 
L 64.590092 -23.68375 
L 64.8186 -23.68375 
L 64.8186 -23.6917 
L 64.8186 -23.6917 
L 64.590092 -23.69502 
L 64.361583 -23.699532 
L 64.133074 -23.70558 
L 63.904566 -23.713577 
L 63.676057 -23.724009 
L 63.447548 -23.737435 
L 63.21904 -23.754479 
L 62.990531 -23.775824 
L 62.762022 -23.802193 
L 62.533514 -23.834328 
L 62.305005 -23.87296 
L 62.076496 -23.918772 
L 61.847988 -23.972368 
L 61.619479 -24.034224 
L 61.39097 -24.104657 
L 61.162462 -24.183786 
L 60.933953 -24.271511 
L 60.705444 -24.367489 
L 60.476936 -24.471139 
L 60.248427 -24.581644 
L 60.019918 -24.697982 
L 59.79141 -24.818953 
L 59.562901 -24.943229 
L 59.334392 -25.069403 
L 59.105884 -25.196034 
L 58.877375 -25.321698 
L 58.648866 -25.445026 
L 58.420358 -25.564735 
L 58.191849 -25.679646 
L 57.96334 -25.788696 
L 57.734832 -25.890943 
L 57.506323 -25.985565 
L 57.277814 -26.071864 
L 57.049306 -26.149272 
L 56.820797 -26.217365 
L 56.592288 -26.275889 
L 56.36378 -26.324792 
L 56.135271 -26.364261 
L 55.906762 -26.394757 
L 55.678254 -26.417052 
L 55.449745 -26.43224 
L 55.221236 -26.441741 
L 54.992728 -26.447273 
L 54.764219 -26.450804 
L 54.53571 -26.454474 
L 54.307202 -26.4605 
L 54.078693 -26.471057 
L 53.850184 -26.488162 
L 53.621676 -26.513547 
L 53.393167 -26.548552 
L 53.164658 -26.594029 
L 52.93615 -26.650274 
L 52.707641 -26.716987 
L 52.479132 -26.793268 
L 52.250624 -26.877634 
L 52.022115 -26.968084 
L 51.793606 -27.062174 
L 51.565098 -27.157128 
L 51.336589 -27.24996 
L 51.10808 -27.337617 
L 50.879572 -27.417125 
L 50.651063 -27.485737 
L 50.422554 -27.541085 
L 50.194046 -27.581308 
L 49.965537 -27.605171 
L 49.737028 -27.61216 
L 49.50852 -27.602534 
L 49.280011 -27.577349 
L 49.051502 -27.53844 
L 48.822994 -27.488357 
L 48.594485 -27.430268 
L 48.365976 -27.367829 
L 48.137468 -27.305028 
L 47.908959 -27.246024 
L 47.68045 -27.194981 
L 47.451942 -27.155922 
L 47.223433 -27.132607 
L 46.994924 -27.128442 
L 46.766416 -27.146427 
L 46.537907 -27.189145 
L 46.309398 -27.258786 
L 46.08089 -27.357196 
L 45.852381 -27.485945 
L 45.623872 -27.646403 
L 45.395364 -27.839815 
L 45.166855 -28.06735 
L 44.938346 -28.330144 
L 44.709838 -28.629299 
L 44.481329 -28.965865 
L 44.25282 -29.34078 
L 44.024312 -29.754796 
L 43.795803 -30.208377 
L 43.567294 -30.701587 
L 43.338786 -31.233977 
L 43.110277 -31.804473 
L 42.881768 -32.411284 
L 42.65326 -33.051833 
L 42.424751 -33.722717 
L 42.196242 -34.419709 
L 41.967734 -35.137799 
L 41.739225 -35.871279 
L 41.510716 -36.613868 
L 41.282208 -37.358884 
L 41.053699 -38.099434 
L 40.82519 -38.828639 
L 40.596682 -39.539864 
L 40.368173 -40.226952 
L 40.139664 -40.884446 
L 39.911156 -41.507786 
L 39.682647 -42.093481 
L 39.454138 -42.639238 
L 39.22563 -43.144042 
L 38.997121 -43.608199 
L 38.768612 -44.033323 
L 38.540104 -44.422284 
L 38.311595 -44.779104 
L 38.083086 -45.108821 
L 37.854578 -45.417318 
L 37.626069 -45.711125 
L 37.39756 -45.997197 
L 37.169052 -46.282692 
L 36.940543 -46.574741 
L 36.712034 -46.880233 
L 36.483526 -47.205622 
L 36.255017 -47.556768 
L 36.026508 -47.93882 
L 35.798 -48.356143 
L 35.569491 -48.812299 
L 35.340982 -49.310073 
L 35.112474 -49.851532 
L 34.883965 -50.438118 
L 34.655456 -51.070749 
L 34.426948 -51.749922 
L 34.198439 -52.475797 
L 33.96993 -53.24826 
L 33.741422 -54.066954 
L 33.512913 -54.93128 
L 33.284404 -55.840366 
L 33.055896 -56.793022 
L 32.827387 -57.787675 
L 32.598878 -58.822305 
L 32.37037 -59.894367 
L 32.141861 -61.000723 
L 31.913352 -62.137555 
L 31.684844 -63.300269 
L 31.456335 -64.483371 
L 31.227826 -65.680312 
L 30.999318 -66.883296 
L 30.770809 -68.083058 
L 30.5423 -69.268626 
L 30.313792 -70.427091 
L 30.085283 -71.54341 
L 29.856774 -72.600289 
L 29.628266 -73.57818 
L 29.399757 -74.455429 
L 29.171248 -75.208599 
L 28.94274 -75.812989 
L 28.714231 -76.243353 
L 28.485722 -76.474784 
L 28.257214 -76.48375 
L 28.028705 -76.249216 
L 27.800196 -75.75379 
L 27.571688 -74.984827 
L 27.343179 -73.935405 
L 27.11467 -72.605112 
L 26.886162 -71.000569 
L 26.657653 -69.135651 
L 26.429144 -67.031356 
L 26.200636 -64.715334 
L 25.972127 -62.221078 
L 25.743618 -59.586812 
L 25.51511 -56.854139 
L 25.286601 -54.066524 
L 25.058092 -51.267696 
L 24.829584 -48.500069 
L 24.601075 -45.803257 
L 24.372566 -43.212787 
L 24.144058 -40.759058 
L 23.915549 -38.466604 
L 23.68704 -36.353677 
L 23.458532 -34.432164 
L 23.230023 -32.707802 
L 23.001514 -31.180654 
L 22.773006 -29.845806 
L 22.544497 -28.694193 
L 22.315988 -27.713523 
L 22.08748 -26.889201 
L 21.858971 -26.205227 
L 21.630462 -25.645008 
L 21.401954 -25.192047 
L 21.173445 -24.830511 
L 20.944936 -24.545651 
L 20.716428 -24.324084 
L 20.487919 -24.153956 
L 20.25941 -24.025001 
L 20.030902 -23.928507 
L 19.802393 -23.857229 
L 19.573884 -23.805252 
L 19.345376 -23.767836 
z
" style="stroke: #0072b2"/>
    </defs>
    <g clip-path="url(#p1e82231887)">
     <use xlink:href="#mc2d886d4ba" x="0" y="97.334219" style="fill: #0072b2; fill-opacity: 0.3; stroke: #0072b2"/>
    </g>
   </g>
   <g id="FillBetweenPolyCollection_2">
    <defs>
     <path id="m8481af4438" d="M 14.175936 -23.736441 
L 14.175936 -23.68375 
L 14.625779 -23.68375 
L 15.075621 -23.68375 
L 15.525464 -23.68375 
L 15.975307 -23.68375 
L 16.42515 -23.68375 
L 16.874993 -23.68375 
L 17.324835 -23.68375 
L 17.774678 -23.68375 
L 18.224521 -23.68375 
L 18.674364 -23.68375 
L 19.124207 -23.68375 
L 19.574049 -23.68375 
L 20.023892 -23.68375 
L 20.473735 -23.68375 
L 20.923578 -23.68375 
L 21.373421 -23.68375 
L 21.823263 -23.68375 
L 22.273106 -23.68375 
L 22.722949 -23.68375 
L 23.172792 -23.68375 
L 23.622635 -23.68375 
L 24.072477 -23.68375 
L 24.52232 -23.68375 
L 24.972163 -23.68375 
L 25.422006 -23.68375 
L 25.871849 -23.68375 
L 26.321691 -23.68375 
L 26.771534 -23.68375 
L 27.221377 -23.68375 
L 27.67122 -23.68375 
L 28.121063 -23.68375 
L 28.570905 -23.68375 
L 29.020748 -23.68375 
L 29.470591 -23.68375 
L 29.920434 -23.68375 
L 30.370277 -23.68375 
L 30.820119 -23.68375 
L 31.269962 -23.68375 
L 31.719805 -23.68375 
L 32.169648 -23.68375 
L 32.619491 -23.68375 
L 33.069333 -23.68375 
L 33.519176 -23.68375 
L 33.969019 -23.68375 
L 34.418862 -23.68375 
L 34.868704 -23.68375 
L 35.318547 -23.68375 
L 35.76839 -23.68375 
L 36.218233 -23.68375 
L 36.668076 -23.68375 
L 37.117918 -23.68375 
L 37.567761 -23.68375 
L 38.017604 -23.68375 
L 38.467447 -23.68375 
L 38.91729 -23.68375 
L 39.367132 -23.68375 
L 39.816975 -23.68375 
L 40.266818 -23.68375 
L 40.716661 -23.68375 
L 41.166504 -23.68375 
L 41.616346 -23.68375 
L 42.066189 -23.68375 
L 42.516032 -23.68375 
L 42.965875 -23.68375 
L 43.415718 -23.68375 
L 43.86556 -23.68375 
L 44.315403 -23.68375 
L 44.765246 -23.68375 
L 45.215089 -23.68375 
L 45.664932 -23.68375 
L 46.114774 -23.68375 
L 46.564617 -23.68375 
L 47.01446 -23.68375 
L 47.464303 -23.68375 
L 47.914146 -23.68375 
L 48.363988 -23.68375 
L 48.813831 -23.68375 
L 49.263674 -23.68375 
L 49.713517 -23.68375 
L 50.16336 -23.68375 
L 50.613202 -23.68375 
L 51.063045 -23.68375 
L 51.512888 -23.68375 
L 51.962731 -23.68375 
L 52.412574 -23.68375 
L 52.862416 -23.68375 
L 53.312259 -23.68375 
L 53.762102 -23.68375 
L 54.211945 -23.68375 
L 54.661788 -23.68375 
L 55.11163 -23.68375 
L 55.561473 -23.68375 
L 56.011316 -23.68375 
L 56.461159 -23.68375 
L 56.911002 -23.68375 
L 57.360844 -23.68375 
L 57.810687 -23.68375 
L 58.26053 -23.68375 
L 58.710373 -23.68375 
L 59.160216 -23.68375 
L 59.610058 -23.68375 
L 60.059901 -23.68375 
L 60.509744 -23.68375 
L 60.959587 -23.68375 
L 61.40943 -23.68375 
L 61.859272 -23.68375 
L 62.309115 -23.68375 
L 62.758958 -23.68375 
L 63.208801 -23.68375 
L 63.658643 -23.68375 
L 64.108486 -23.68375 
L 64.558329 -23.68375 
L 65.008172 -23.68375 
L 65.458015 -23.68375 
L 65.907857 -23.68375 
L 66.3577 -23.68375 
L 66.807543 -23.68375 
L 67.257386 -23.68375 
L 67.707229 -23.68375 
L 68.157071 -23.68375 
L 68.606914 -23.68375 
L 69.056757 -23.68375 
L 69.5066 -23.68375 
L 69.956443 -23.68375 
L 70.406285 -23.68375 
L 70.856128 -23.68375 
L 71.305971 -23.68375 
L 71.755814 -23.68375 
L 72.205657 -23.68375 
L 72.655499 -23.68375 
L 73.105342 -23.68375 
L 73.555185 -23.68375 
L 74.005028 -23.68375 
L 74.454871 -23.68375 
L 74.904713 -23.68375 
L 75.354556 -23.68375 
L 75.804399 -23.68375 
L 76.254242 -23.68375 
L 76.704085 -23.68375 
L 77.153927 -23.68375 
L 77.60377 -23.68375 
L 78.053613 -23.68375 
L 78.503456 -23.68375 
L 78.953299 -23.68375 
L 79.403141 -23.68375 
L 79.852984 -23.68375 
L 80.302827 -23.68375 
L 80.75267 -23.68375 
L 81.202513 -23.68375 
L 81.652355 -23.68375 
L 82.102198 -23.68375 
L 82.552041 -23.68375 
L 83.001884 -23.68375 
L 83.451727 -23.68375 
L 83.901569 -23.68375 
L 84.351412 -23.68375 
L 84.801255 -23.68375 
L 85.251098 -23.68375 
L 85.700941 -23.68375 
L 86.150783 -23.68375 
L 86.600626 -23.68375 
L 87.050469 -23.68375 
L 87.500312 -23.68375 
L 87.950155 -23.68375 
L 88.399997 -23.68375 
L 88.84984 -23.68375 
L 89.299683 -23.68375 
L 89.749526 -23.68375 
L 90.199369 -23.68375 
L 90.649211 -23.68375 
L 91.099054 -23.68375 
L 91.548897 -23.68375 
L 91.99874 -23.68375 
L 92.448582 -23.68375 
L 92.898425 -23.68375 
L 93.348268 -23.68375 
L 93.798111 -23.68375 
L 94.247954 -23.68375 
L 94.697796 -23.68375 
L 95.147639 -23.68375 
L 95.597482 -23.68375 
L 96.047325 -23.68375 
L 96.497168 -23.68375 
L 96.94701 -23.68375 
L 97.396853 -23.68375 
L 97.846696 -23.68375 
L 98.296539 -23.68375 
L 98.746382 -23.68375 
L 99.196224 -23.68375 
L 99.646067 -23.68375 
L 100.09591 -23.68375 
L 100.545753 -23.68375 
L 100.995596 -23.68375 
L 101.445438 -23.68375 
L 101.895281 -23.68375 
L 102.345124 -23.68375 
L 102.794967 -23.68375 
L 103.24481 -23.68375 
L 103.694652 -23.68375 
L 103.694652 -23.685579 
L 103.694652 -23.685579 
L 103.24481 -23.68639 
L 102.794967 -23.687506 
L 102.345124 -23.689021 
L 101.895281 -23.691048 
L 101.445438 -23.693717 
L 100.995596 -23.69718 
L 100.545753 -23.701607 
L 100.09591 -23.707184 
L 99.646067 -23.714106 
L 99.196224 -23.722577 
L 98.746382 -23.732795 
L 98.296539 -23.744955 
L 97.846696 -23.759235 
L 97.396853 -23.775794 
L 96.94701 -23.794769 
L 96.497168 -23.816278 
L 96.047325 -23.840424 
L 95.597482 -23.867303 
L 95.147639 -23.897018 
L 94.697796 -23.929699 
L 94.247954 -23.965511 
L 93.798111 -24.004674 
L 93.348268 -24.04747 
L 92.898425 -24.094243 
L 92.448582 -24.145386 
L 91.99874 -24.201323 
L 91.548897 -24.262468 
L 91.099054 -24.329177 
L 90.649211 -24.401693 
L 90.199369 -24.480086 
L 89.749526 -24.56419 
L 89.299683 -24.65356 
L 88.84984 -24.747432 
L 88.399997 -24.844717 
L 87.950155 -24.944011 
L 87.500312 -25.043636 
L 87.050469 -25.141709 
L 86.600626 -25.236227 
L 86.150783 -25.325172 
L 85.700941 -25.406621 
L 85.251098 -25.478844 
L 84.801255 -25.540405 
L 84.351412 -25.590229 
L 83.901569 -25.627648 
L 83.451727 -25.652415 
L 83.001884 -25.664691 
L 82.552041 -25.665006 
L 82.102198 -25.654201 
L 81.652355 -25.63335 
L 81.202513 -25.60369 
L 80.75267 -25.566543 
L 80.302827 -25.523257 
L 79.852984 -25.475157 
L 79.403141 -25.423519 
L 78.953299 -25.369555 
L 78.503456 -25.314417 
L 78.053613 -25.259215 
L 77.60377 -25.205034 
L 77.153927 -25.15295 
L 76.704085 -25.104045 
L 76.254242 -25.059402 
L 75.804399 -25.020091 
L 75.354556 -24.987138 
L 74.904713 -24.96147 
L 74.454871 -24.943867 
L 74.005028 -24.934886 
L 73.555185 -24.934801 
L 73.105342 -24.943543 
L 72.655499 -24.960658 
L 72.205657 -24.985283 
L 71.755814 -25.01615 
L 71.305971 -25.051626 
L 70.856128 -25.089768 
L 70.406285 -25.128423 
L 69.956443 -25.165336 
L 69.5066 -25.198281 
L 69.056757 -25.225191 
L 68.606914 -25.244286 
L 68.157071 -25.254178 
L 67.707229 -25.253961 
L 67.257386 -25.243256 
L 66.807543 -25.222234 
L 66.3577 -25.19159 
L 65.907857 -25.152496 
L 65.458015 -25.106521 
L 65.008172 -25.055547 
L 64.558329 -25.001661 
L 64.108486 -24.947072 
L 63.658643 -24.894024 
L 63.208801 -24.844737 
L 62.758958 -24.801368 
L 62.309115 -24.765994 
L 61.859272 -24.74062 
L 61.40943 -24.727194 
L 60.959587 -24.727642 
L 60.509744 -24.7439 
L 60.059901 -24.777942 
L 59.610058 -24.831804 
L 59.160216 -24.907589 
L 58.710373 -25.007468 
L 58.26053 -25.133654 
L 57.810687 -25.288368 
L 57.360844 -25.473791 
L 56.911002 -25.692004 
L 56.461159 -25.944919 
L 56.011316 -26.234201 
L 55.561473 -26.561184 
L 55.11163 -26.926781 
L 54.661788 -27.331387 
L 54.211945 -27.774792 
L 53.762102 -28.256084 
L 53.312259 -28.773575 
L 52.862416 -29.324743 
L 52.412574 -29.906205 
L 51.962731 -30.513727 
L 51.512888 -31.142289 
L 51.063045 -31.7862 
L 50.613202 -32.439268 
L 50.16336 -33.09503 
L 49.713517 -33.74701 
L 49.263674 -34.389012 
L 48.813831 -35.015411 
L 48.363988 -35.621421 
L 47.914146 -36.203324 
L 47.464303 -36.75863 
L 47.01446 -37.286159 
L 46.564617 -37.786041 
L 46.114774 -38.259632 
L 45.664932 -38.709362 
L 45.215089 -39.138534 
L 44.765246 -39.551096 
L 44.315403 -39.951417 
L 43.86556 -40.344079 
L 43.415718 -40.73371 
L 42.965875 -41.124865 
L 42.516032 -41.521943 
L 42.066189 -41.929142 
L 41.616346 -42.35042 
L 41.166504 -42.78946 
L 40.716661 -43.2496 
L 40.266818 -43.733725 
L 39.816975 -44.244112 
L 39.367132 -44.782234 
L 38.91729 -45.34853 
L 38.467447 -45.942168 
L 38.017604 -46.560829 
L 37.567761 -47.200533 
L 37.117918 -47.85554 
L 36.668076 -48.518337 
L 36.218233 -49.179727 
L 35.76839 -49.829012 
L 35.318547 -50.454273 
L 34.868704 -51.04271 
L 34.418862 -51.581033 
L 33.969019 -52.055877 
L 33.519176 -52.454201 
L 33.069333 -52.763672 
L 32.619491 -52.972988 
L 32.169648 -53.072161 
L 31.719805 -53.052732 
L 31.269962 -52.907935 
L 30.820119 -52.632818 
L 30.370277 -52.224332 
L 29.920434 -51.681398 
L 29.470591 -51.004978 
L 29.020748 -50.198135 
L 28.570905 -49.266104 
L 28.121063 -48.216351 
L 27.67122 -47.058603 
L 27.221377 -45.804847 
L 26.771534 -44.469241 
L 26.321691 -43.067945 
L 25.871849 -41.618828 
L 25.422006 -40.14107 
L 24.972163 -38.654637 
L 24.52232 -37.179669 
L 24.072477 -35.735808 
L 23.622635 -34.34151 
L 23.172792 -33.013387 
L 22.722949 -31.765637 
L 22.273106 -30.609593 
L 21.823263 -29.553439 
L 21.373421 -28.602098 
L 20.923578 -27.757295 
L 20.473735 -27.017787 
L 20.023892 -26.379729 
L 19.574049 -25.837137 
L 19.124207 -25.382407 
L 18.674364 -25.00685 
L 18.224521 -24.701204 
L 17.774678 -24.456092 
L 17.324835 -24.262407 
L 16.874993 -24.111605 
L 16.42515 -23.995919 
L 15.975307 -23.908477 
L 15.525464 -23.843359 
L 15.075621 -23.79558 
L 14.625779 -23.761041 
L 14.175936 -23.736441 
z
" style="stroke: #d55e00"/>
    </defs>
    <g clip-path="url(#p1e82231887)">
     <use xlink:href="#m8481af4438" x="0" y="97.334219" style="fill: #d55e00; fill-opacity: 0.3; stroke: #d55e00"/>
    </g>
   </g>
   <g id="matplotlib.axis_1">
    <g id="xtick_1">
     <g id="line2d_1">
      <path d="M 56.282466 73.650469 
L 56.282466 18.210469 
" clip-path="url(#p1e82231887)" style="fill: none; stroke: #b0b0b0; stroke-opacity: 0.15; stroke-width: 0.8; stroke-linecap: square"/>
     </g>
     <g id="line2d_2">
      <defs>
       <path id="md1a3a9ef57" d="M 0 0 
L 0 2.5 
" style="stroke: #000000; stroke-width: 0.5"/>
      </defs>
      <g>
       <use xlink:href="#md1a3a9ef57" x="56.282466" y="73.650469" style="stroke: #000000; stroke-width: 0.5"/>
      </g>
     </g>
    </g>
    <g id="xtick_2">
     <g id="line2d_3">
      <path d="M 105.346609 73.650469 
L 105.346609 18.210469 
" clip-path="url(#p1e82231887)" style="fill: none; stroke: #b0b0b0; stroke-opacity: 0.15; stroke-width: 0.8; stroke-linecap: square"/>
     </g>
     <g id="line2d_4">
      <g>
       <use xlink:href="#md1a3a9ef57" x="105.346609" y="73.650469" style="stroke: #000000; stroke-width: 0.5"/>
      </g>
     </g>
    </g>
    <g id="text_1">
     <text style="font-size: 7px; font-family: 'Arial', 'DejaVu Sans', sans-serif; text-anchor: middle" x="58.935294" y="88.660938" transform="rotate(-0 58.935294 88.660938)">Description length</text>
    </g>
   </g>
   <g id="matplotlib.axis_2">
    <g id="ytick_1">
     <g id="line2d_5">
      <path d="M 9.7 73.650469 
L 108.170588 73.650469 
" clip-path="url(#p1e82231887)" style="fill: none; stroke: #b0b0b0; stroke-opacity: 0.15; stroke-width: 0.8; stroke-linecap: square"/>
     </g>
     <g id="line2d_6">
      <defs>
       <path id="m10487fbded" d="M 0 0 
L -2.5 0 
" style="stroke: #000000; stroke-width: 0.5"/>
      </defs>
      <g>
       <use xlink:href="#m10487fbded" x="9.7" y="73.650469" style="stroke: #000000; stroke-width: 0.5"/>
      </g>
     </g>
    </g>
    <g id="ytick_2">
     <g id="line2d_7">
      <path d="M 9.7 40.002544 
L 108.170588 40.002544 
" clip-path="url(#p1e82231887)" style="fill: none; stroke: #b0b0b0; stroke-opacity: 0.15; stroke-width: 0.8; stroke-linecap: square"/>
     </g>
     <g id="line2d_8">
      <g>
       <use xlink:href="#m10487fbded" x="9.7" y="40.002544" style="stroke: #000000; stroke-width: 0.5"/>
      </g>
     </g>
    </g>
   </g>
   <g id="patch_3">
    <path d="M 9.7 73.650469 
L 9.7 18.210469 
" style="fill: none; stroke: #000000; stroke-width: 0.5; stroke-linejoin: miter; stroke-linecap: square"/>
   </g>
   <g id="patch_4">
    <path d="M 108.170588 73.650469 
L 108.170588 18.210469 
" style="fill: none; stroke: #000000; stroke-width: 0.5; stroke-linejoin: miter; stroke-linecap: square"/>
   </g>
   <g id="patch_5">
    <path d="M 9.7 73.650469 
L 108.170588 73.650469 
" style="fill: none; stroke: #000000; stroke-width: 0.5; stroke-linejoin: miter; stroke-linecap: square"/>
   </g>
   <g id="patch_6">
    <path d="M 9.7 18.210469 
L 108.170588 18.210469 
" style="fill: none; stroke: #000000; stroke-width: 0.5; stroke-linejoin: miter; stroke-linecap: square"/>
   </g>
   <g id="text_2">
    <text style="font-size: 7px; font-family: 'Arial', 'DejaVu Sans', sans-serif; text-anchor: middle" x="58.935294" y="12.210469" transform="rotate(-0 58.935294 12.210469)">Early steps</text>
   </g>
  </g>
  <g id="axes_2">
   <g id="patch_7">
    <path d="M 127.864706 73.650469 
L 226.335294 73.650469 
L 226.335294 18.210469 
L 127.864706 18.210469 
L 127.864706 73.650469 
z
" style="fill: none"/>
   </g>
   <g id="FillBetweenPolyCollection_3">
    <defs>
     <path id="m2dca8182cb" d="M 132.439624 -23.747557 
L 132.439624 -23.68375 
L 132.856626 -23.68375 
L 133.273627 -23.68375 
L 133.690629 -23.68375 
L 134.107631 -23.68375 
L 134.524633 -23.68375 
L 134.941634 -23.68375 
L 135.358636 -23.68375 
L 135.775638 -23.68375 
L 136.19264 -23.68375 
L 136.609641 -23.68375 
L 137.026643 -23.68375 
L 137.443645 -23.68375 
L 137.860647 -23.68375 
L 138.277648 -23.68375 
L 138.69465 -23.68375 
L 139.111652 -23.68375 
L 139.528653 -23.68375 
L 139.945655 -23.68375 
L 140.362657 -23.68375 
L 140.779659 -23.68375 
L 141.19666 -23.68375 
L 141.613662 -23.68375 
L 142.030664 -23.68375 
L 142.447666 -23.68375 
L 142.864667 -23.68375 
L 143.281669 -23.68375 
L 143.698671 -23.68375 
L 144.115672 -23.68375 
L 144.532674 -23.68375 
L 144.949676 -23.68375 
L 145.366678 -23.68375 
L 145.783679 -23.68375 
L 146.200681 -23.68375 
L 146.617683 -23.68375 
L 147.034685 -23.68375 
L 147.451686 -23.68375 
L 147.868688 -23.68375 
L 148.28569 -23.68375 
L 148.702692 -23.68375 
L 149.119693 -23.68375 
L 149.536695 -23.68375 
L 149.953697 -23.68375 
L 150.370698 -23.68375 
L 150.7877 -23.68375 
L 151.204702 -23.68375 
L 151.621704 -23.68375 
L 152.038705 -23.68375 
L 152.455707 -23.68375 
L 152.872709 -23.68375 
L 153.289711 -23.68375 
L 153.706712 -23.68375 
L 154.123714 -23.68375 
L 154.540716 -23.68375 
L 154.957717 -23.68375 
L 155.374719 -23.68375 
L 155.791721 -23.68375 
L 156.208723 -23.68375 
L 156.625724 -23.68375 
L 157.042726 -23.68375 
L 157.459728 -23.68375 
L 157.87673 -23.68375 
L 158.293731 -23.68375 
L 158.710733 -23.68375 
L 159.127735 -23.68375 
L 159.544737 -23.68375 
L 159.961738 -23.68375 
L 160.37874 -23.68375 
L 160.795742 -23.68375 
L 161.212743 -23.68375 
L 161.629745 -23.68375 
L 162.046747 -23.68375 
L 162.463749 -23.68375 
L 162.88075 -23.68375 
L 163.297752 -23.68375 
L 163.714754 -23.68375 
L 164.131756 -23.68375 
L 164.548757 -23.68375 
L 164.965759 -23.68375 
L 165.382761 -23.68375 
L 165.799762 -23.68375 
L 166.216764 -23.68375 
L 166.633766 -23.68375 
L 167.050768 -23.68375 
L 167.467769 -23.68375 
L 167.884771 -23.68375 
L 168.301773 -23.68375 
L 168.718775 -23.68375 
L 169.135776 -23.68375 
L 169.552778 -23.68375 
L 169.96978 -23.68375 
L 170.386781 -23.68375 
L 170.803783 -23.68375 
L 171.220785 -23.68375 
L 171.637787 -23.68375 
L 172.054788 -23.68375 
L 172.47179 -23.68375 
L 172.888792 -23.68375 
L 173.305794 -23.68375 
L 173.722795 -23.68375 
L 174.139797 -23.68375 
L 174.556799 -23.68375 
L 174.973801 -23.68375 
L 175.390802 -23.68375 
L 175.807804 -23.68375 
L 176.224806 -23.68375 
L 176.641807 -23.68375 
L 177.058809 -23.68375 
L 177.475811 -23.68375 
L 177.892813 -23.68375 
L 178.309814 -23.68375 
L 178.726816 -23.68375 
L 179.143818 -23.68375 
L 179.56082 -23.68375 
L 179.977821 -23.68375 
L 180.394823 -23.68375 
L 180.811825 -23.68375 
L 181.228826 -23.68375 
L 181.645828 -23.68375 
L 182.06283 -23.68375 
L 182.479832 -23.68375 
L 182.896833 -23.68375 
L 183.313835 -23.68375 
L 183.730837 -23.68375 
L 184.147839 -23.68375 
L 184.56484 -23.68375 
L 184.981842 -23.68375 
L 185.398844 -23.68375 
L 185.815846 -23.68375 
L 186.232847 -23.68375 
L 186.649849 -23.68375 
L 187.066851 -23.68375 
L 187.483852 -23.68375 
L 187.900854 -23.68375 
L 188.317856 -23.68375 
L 188.734858 -23.68375 
L 189.151859 -23.68375 
L 189.568861 -23.68375 
L 189.985863 -23.68375 
L 190.402865 -23.68375 
L 190.819866 -23.68375 
L 191.236868 -23.68375 
L 191.65387 -23.68375 
L 192.070871 -23.68375 
L 192.487873 -23.68375 
L 192.904875 -23.68375 
L 193.321877 -23.68375 
L 193.738878 -23.68375 
L 194.15588 -23.68375 
L 194.572882 -23.68375 
L 194.989884 -23.68375 
L 195.406885 -23.68375 
L 195.823887 -23.68375 
L 196.240889 -23.68375 
L 196.657891 -23.68375 
L 197.074892 -23.68375 
L 197.491894 -23.68375 
L 197.908896 -23.68375 
L 198.325897 -23.68375 
L 198.742899 -23.68375 
L 199.159901 -23.68375 
L 199.576903 -23.68375 
L 199.993904 -23.68375 
L 200.410906 -23.68375 
L 200.827908 -23.68375 
L 201.24491 -23.68375 
L 201.661911 -23.68375 
L 202.078913 -23.68375 
L 202.495915 -23.68375 
L 202.912916 -23.68375 
L 203.329918 -23.68375 
L 203.74692 -23.68375 
L 204.163922 -23.68375 
L 204.580923 -23.68375 
L 204.997925 -23.68375 
L 205.414927 -23.68375 
L 205.831929 -23.68375 
L 206.24893 -23.68375 
L 206.665932 -23.68375 
L 207.082934 -23.68375 
L 207.499936 -23.68375 
L 207.916937 -23.68375 
L 208.333939 -23.68375 
L 208.750941 -23.68375 
L 209.167942 -23.68375 
L 209.584944 -23.68375 
L 210.001946 -23.68375 
L 210.418948 -23.68375 
L 210.835949 -23.68375 
L 211.252951 -23.68375 
L 211.669953 -23.68375 
L 212.086955 -23.68375 
L 212.503956 -23.68375 
L 212.920958 -23.68375 
L 213.33796 -23.68375 
L 213.754961 -23.68375 
L 214.171963 -23.68375 
L 214.588965 -23.68375 
L 215.005967 -23.68375 
L 215.422968 -23.68375 
L 215.422968 -23.684222 
L 215.422968 -23.684222 
L 215.005967 -23.684652 
L 214.588965 -23.685399 
L 214.171963 -23.686631 
L 213.754961 -23.68856 
L 213.33796 -23.691429 
L 212.920958 -23.695477 
L 212.503956 -23.700894 
L 212.086955 -23.707767 
L 211.669953 -23.716034 
L 211.252951 -23.725483 
L 210.835949 -23.735786 
L 210.418948 -23.746607 
L 210.001946 -23.757744 
L 209.584944 -23.769271 
L 209.167942 -23.781636 
L 208.750941 -23.795634 
L 208.333939 -23.812241 
L 207.916937 -23.832319 
L 207.499936 -23.856248 
L 207.082934 -23.883591 
L 206.665932 -23.912934 
L 206.24893 -23.941961 
L 205.831929 -23.967821 
L 205.414927 -23.987704 
L 204.997925 -23.999483 
L 204.580923 -24.002247 
L 204.163922 -23.996538 
L 203.74692 -23.984223 
L 203.329918 -23.968019 
L 202.912916 -23.950834 
L 202.495915 -23.935111 
L 202.078913 -23.922381 
L 201.661911 -23.913129 
L 201.24491 -23.906983 
L 200.827908 -23.903104 
L 200.410906 -23.900627 
L 199.993904 -23.898982 
L 199.576903 -23.898011 
L 199.159901 -23.897884 
L 198.742899 -23.898871 
L 198.325897 -23.901105 
L 197.908896 -23.904435 
L 197.491894 -23.908424 
L 197.074892 -23.912491 
L 196.657891 -23.916142 
L 196.240889 -23.919208 
L 195.823887 -23.922008 
L 195.406885 -23.925387 
L 194.989884 -23.930625 
L 194.572882 -23.939212 
L 194.15588 -23.952543 
L 193.738878 -23.971588 
L 193.321877 -23.996599 
L 192.904875 -24.026949 
L 192.487873 -24.061136 
L 192.070871 -24.097026 
L 191.65387 -24.132281 
L 191.236868 -24.164914 
L 190.819866 -24.193817 
L 190.402865 -24.219098 
L 189.985863 -24.242099 
L 189.568861 -24.265043 
L 189.151859 -24.290384 
L 188.734858 -24.320033 
L 188.317856 -24.354711 
L 187.900854 -24.393629 
L 187.483852 -24.434627 
L 187.066851 -24.47473 
L 186.649849 -24.51095 
L 186.232847 -24.541096 
L 185.815846 -24.564349 
L 185.398844 -24.581472 
L 184.981842 -24.594648 
L 184.56484 -24.607065 
L 184.147839 -24.622397 
L 183.730837 -24.644331 
L 183.313835 -24.676185 
L 182.896833 -24.720614 
L 182.479832 -24.77936 
L 182.06283 -24.853016 
L 181.645828 -24.940863 
L 181.228826 -25.040845 
L 180.811825 -25.149812 
L 180.394823 -25.264028 
L 179.977821 -25.379904 
L 179.56082 -25.494744 
L 179.143818 -25.607309 
L 178.726816 -25.717976 
L 178.309814 -25.828444 
L 177.892813 -25.94106 
L 177.475811 -26.057993 
L 177.058809 -26.180528 
L 176.641807 -26.308694 
L 176.224806 -26.441327 
L 175.807804 -26.576491 
L 175.390802 -26.712069 
L 174.973801 -26.846297 
L 174.556799 -26.978058 
L 174.139797 -27.106872 
L 173.722795 -27.232637 
L 173.305794 -27.355256 
L 172.888792 -27.474338 
L 172.47179 -27.589096 
L 172.054788 -27.698488 
L 171.637787 -27.801563 
L 171.220785 -27.897868 
L 170.803783 -27.987782 
L 170.386781 -28.072672 
L 169.96978 -28.154803 
L 169.552778 -28.237074 
L 169.135776 -28.322657 
L 168.718775 -28.414671 
L 168.301773 -28.516021 
L 167.884771 -28.629461 
L 167.467769 -28.757914 
L 167.050768 -28.904929 
L 166.633766 -29.075124 
L 166.216764 -29.274349 
L 165.799762 -29.5094 
L 165.382761 -29.787163 
L 164.965759 -30.113328 
L 164.548757 -30.490914 
L 164.131756 -30.918994 
L 163.714754 -31.391973 
L 163.297752 -31.89964 
L 162.88075 -32.428039 
L 162.463749 -32.961005 
L 162.046747 -33.482098 
L 161.629745 -33.976576 
L 161.212743 -34.43308 
L 160.795742 -34.844757 
L 160.37874 -35.20969 
L 159.961738 -35.530641 
L 159.544737 -35.814302 
L 159.127735 -36.07029 
L 158.710733 -36.310187 
L 158.293731 -36.546772 
L 157.87673 -36.79346 
L 157.459728 -37.063815 
L 157.042726 -37.370915 
L 156.625724 -37.726456 
L 156.208723 -38.139632 
L 155.791721 -38.616045 
L 155.374719 -39.157057 
L 154.957717 -39.759937 
L 154.540716 -40.41897 
L 154.123714 -41.127325 
L 153.706712 -41.879148 
L 153.289711 -42.671151 
L 152.872709 -43.503087 
L 152.455707 -44.376851 
L 152.038705 -45.294492 
L 151.621704 -46.255862 
L 151.204702 -47.256863 
L 150.7877 -48.289049 
L 150.370698 -49.340909 
L 149.953697 -50.400554 
L 149.536695 -51.459053 
L 149.119693 -52.513455 
L 148.702692 -53.568647 
L 148.28569 -54.637534 
L 147.868688 -55.73946 
L 147.451686 -56.897194 
L 147.034685 -58.133066 
L 146.617683 -59.465002 
L 146.200681 -60.903157 
L 145.783679 -62.44774 
L 145.366678 -64.088251 
L 144.949676 -65.803971 
L 144.532674 -67.565058 
L 144.115672 -69.333294 
L 143.698671 -71.06155 
L 143.281669 -72.691476 
L 142.864667 -74.149828 
L 142.447666 -75.344882 
L 142.030664 -76.165267 
L 141.613662 -76.48375 
L 141.19666 -76.167767 
L 140.779659 -75.096809 
L 140.362657 -73.184455 
L 139.945655 -70.400717 
L 139.528653 -66.789061 
L 139.111652 -62.472842 
L 138.69465 -57.647903 
L 138.277648 -52.56141 
L 137.860647 -47.480636 
L 137.443645 -42.658139 
L 137.026643 -38.300717 
L 136.609641 -34.548336 
L 136.19264 -31.466356 
L 135.775638 -29.050856 
L 135.358636 -27.243808 
L 134.941634 -25.953192 
L 134.524633 -25.073094 
L 134.107631 -24.500047 
L 133.690629 -24.143778 
L 133.273627 -23.932289 
L 132.856626 -23.812421 
L 132.439624 -23.747557 
z
" style="stroke: #0072b2"/>
    </defs>
    <g clip-path="url(#pf434cc1636)">
     <use xlink:href="#m2dca8182cb" x="0" y="97.334219" style="fill: #0072b2; fill-opacity: 0.3; stroke: #0072b2"/>
    </g>
   </g>
   <g id="FillBetweenPolyCollection_4">
    <defs>
     <path id="m486ed178f4" d="M 132.340642 -23.730961 
L 132.340642 -23.68375 
L 132.790485 -23.68375 
L 133.240327 -23.68375 
L 133.69017 -23.68375 
L 134.140013 -23.68375 
L 134.589856 -23.68375 
L 135.039698 -23.68375 
L 135.489541 -23.68375 
L 135.939384 -23.68375 
L 136.389227 -23.68375 
L 136.83907 -23.68375 
L 137.288912 -23.68375 
L 137.738755 -23.68375 
L 138.188598 -23.68375 
L 138.638441 -23.68375 
L 139.088284 -23.68375 
L 139.538126 -23.68375 
L 139.987969 -23.68375 
L 140.437812 -23.68375 
L 140.887655 -23.68375 
L 141.337498 -23.68375 
L 141.78734 -23.68375 
L 142.237183 -23.68375 
L 142.687026 -23.68375 
L 143.136869 -23.68375 
L 143.586712 -23.68375 
L 144.036554 -23.68375 
L 144.486397 -23.68375 
L 144.93624 -23.68375 
L 145.386083 -23.68375 
L 145.835926 -23.68375 
L 146.285768 -23.68375 
L 146.735611 -23.68375 
L 147.185454 -23.68375 
L 147.635297 -23.68375 
L 148.08514 -23.68375 
L 148.534982 -23.68375 
L 148.984825 -23.68375 
L 149.434668 -23.68375 
L 149.884511 -23.68375 
L 150.334354 -23.68375 
L 150.784196 -23.68375 
L 151.234039 -23.68375 
L 151.683882 -23.68375 
L 152.133725 -23.68375 
L 152.583568 -23.68375 
L 153.03341 -23.68375 
L 153.483253 -23.68375 
L 153.933096 -23.68375 
L 154.382939 -23.68375 
L 154.832782 -23.68375 
L 155.282624 -23.68375 
L 155.732467 -23.68375 
L 156.18231 -23.68375 
L 156.632153 -23.68375 
L 157.081996 -23.68375 
L 157.531838 -23.68375 
L 157.981681 -23.68375 
L 158.431524 -23.68375 
L 158.881367 -23.68375 
L 159.33121 -23.68375 
L 159.781052 -23.68375 
L 160.230895 -23.68375 
L 160.680738 -23.68375 
L 161.130581 -23.68375 
L 161.580424 -23.68375 
L 162.030266 -23.68375 
L 162.480109 -23.68375 
L 162.929952 -23.68375 
L 163.379795 -23.68375 
L 163.829637 -23.68375 
L 164.27948 -23.68375 
L 164.729323 -23.68375 
L 165.179166 -23.68375 
L 165.629009 -23.68375 
L 166.078851 -23.68375 
L 166.528694 -23.68375 
L 166.978537 -23.68375 
L 167.42838 -23.68375 
L 167.878223 -23.68375 
L 168.328065 -23.68375 
L 168.777908 -23.68375 
L 169.227751 -23.68375 
L 169.677594 -23.68375 
L 170.127437 -23.68375 
L 170.577279 -23.68375 
L 171.027122 -23.68375 
L 171.476965 -23.68375 
L 171.926808 -23.68375 
L 172.376651 -23.68375 
L 172.826493 -23.68375 
L 173.276336 -23.68375 
L 173.726179 -23.68375 
L 174.176022 -23.68375 
L 174.625865 -23.68375 
L 175.075707 -23.68375 
L 175.52555 -23.68375 
L 175.975393 -23.68375 
L 176.425236 -23.68375 
L 176.875079 -23.68375 
L 177.324921 -23.68375 
L 177.774764 -23.68375 
L 178.224607 -23.68375 
L 178.67445 -23.68375 
L 179.124293 -23.68375 
L 179.574135 -23.68375 
L 180.023978 -23.68375 
L 180.473821 -23.68375 
L 180.923664 -23.68375 
L 181.373507 -23.68375 
L 181.823349 -23.68375 
L 182.273192 -23.68375 
L 182.723035 -23.68375 
L 183.172878 -23.68375 
L 183.622721 -23.68375 
L 184.072563 -23.68375 
L 184.522406 -23.68375 
L 184.972249 -23.68375 
L 185.422092 -23.68375 
L 185.871935 -23.68375 
L 186.321777 -23.68375 
L 186.77162 -23.68375 
L 187.221463 -23.68375 
L 187.671306 -23.68375 
L 188.121149 -23.68375 
L 188.570991 -23.68375 
L 189.020834 -23.68375 
L 189.470677 -23.68375 
L 189.92052 -23.68375 
L 190.370363 -23.68375 
L 190.820205 -23.68375 
L 191.270048 -23.68375 
L 191.719891 -23.68375 
L 192.169734 -23.68375 
L 192.619576 -23.68375 
L 193.069419 -23.68375 
L 193.519262 -23.68375 
L 193.969105 -23.68375 
L 194.418948 -23.68375 
L 194.86879 -23.68375 
L 195.318633 -23.68375 
L 195.768476 -23.68375 
L 196.218319 -23.68375 
L 196.668162 -23.68375 
L 197.118004 -23.68375 
L 197.567847 -23.68375 
L 198.01769 -23.68375 
L 198.467533 -23.68375 
L 198.917376 -23.68375 
L 199.367218 -23.68375 
L 199.817061 -23.68375 
L 200.266904 -23.68375 
L 200.716747 -23.68375 
L 201.16659 -23.68375 
L 201.616432 -23.68375 
L 202.066275 -23.68375 
L 202.516118 -23.68375 
L 202.965961 -23.68375 
L 203.415804 -23.68375 
L 203.865646 -23.68375 
L 204.315489 -23.68375 
L 204.765332 -23.68375 
L 205.215175 -23.68375 
L 205.665018 -23.68375 
L 206.11486 -23.68375 
L 206.564703 -23.68375 
L 207.014546 -23.68375 
L 207.464389 -23.68375 
L 207.914232 -23.68375 
L 208.364074 -23.68375 
L 208.813917 -23.68375 
L 209.26376 -23.68375 
L 209.713603 -23.68375 
L 210.163446 -23.68375 
L 210.613288 -23.68375 
L 211.063131 -23.68375 
L 211.512974 -23.68375 
L 211.962817 -23.68375 
L 212.41266 -23.68375 
L 212.862502 -23.68375 
L 213.312345 -23.68375 
L 213.762188 -23.68375 
L 214.212031 -23.68375 
L 214.661874 -23.68375 
L 215.111716 -23.68375 
L 215.561559 -23.68375 
L 216.011402 -23.68375 
L 216.461245 -23.68375 
L 216.911088 -23.68375 
L 217.36093 -23.68375 
L 217.810773 -23.68375 
L 218.260616 -23.68375 
L 218.710459 -23.68375 
L 219.160302 -23.68375 
L 219.610144 -23.68375 
L 220.059987 -23.68375 
L 220.50983 -23.68375 
L 220.959673 -23.68375 
L 221.409515 -23.68375 
L 221.859358 -23.68375 
L 221.859358 -23.68412 
L 221.859358 -23.68412 
L 221.409515 -23.68447 
L 220.959673 -23.685079 
L 220.50983 -23.686076 
L 220.059987 -23.687613 
L 219.610144 -23.68984 
L 219.160302 -23.692868 
L 218.710459 -23.696728 
L 218.260616 -23.701339 
L 217.810773 -23.706503 
L 217.36093 -23.711953 
L 216.911088 -23.717443 
L 216.461245 -23.722875 
L 216.011402 -23.728409 
L 215.561559 -23.734519 
L 215.111716 -23.741934 
L 214.661874 -23.751476 
L 214.212031 -23.763801 
L 213.762188 -23.779135 
L 213.312345 -23.79708 
L 212.862502 -23.816586 
L 212.41266 -23.836105 
L 211.962817 -23.853906 
L 211.512974 -23.868464 
L 211.063131 -23.878782 
L 210.613288 -23.884565 
L 210.163446 -23.886185 
L 209.713603 -23.884486 
L 209.26376 -23.880527 
L 208.813917 -23.875369 
L 208.364074 -23.869978 
L 207.914232 -23.865241 
L 207.464389 -23.862019 
L 207.014546 -23.86116 
L 206.564703 -23.863399 
L 206.11486 -23.869164 
L 205.665018 -23.878349 
L 205.215175 -23.890155 
L 204.765332 -23.903107 
L 204.315489 -23.915275 
L 203.865646 -23.924679 
L 203.415804 -23.929762 
L 202.965961 -23.929796 
L 202.516118 -23.92506 
L 202.066275 -23.916731 
L 201.616432 -23.906486 
L 201.16659 -23.895974 
L 200.716747 -23.886338 
L 200.266904 -23.877977 
L 199.817061 -23.870636 
L 199.367218 -23.863771 
L 198.917376 -23.857034 
L 198.467533 -23.850667 
L 198.01769 -23.845659 
L 197.567847 -23.843602 
L 197.118004 -23.846341 
L 196.668162 -23.855543 
L 196.218319 -23.872341 
L 195.768476 -23.897156 
L 195.318633 -23.929711 
L 194.86879 -23.969178 
L 194.418948 -24.014399 
L 193.969105 -24.064073 
L 193.519262 -24.116857 
L 193.069419 -24.171357 
L 192.619576 -24.226042 
L 192.169734 -24.279135 
L 191.719891 -24.328584 
L 191.270048 -24.372194 
L 190.820205 -24.407959 
L 190.370363 -24.434551 
L 189.92052 -24.451832 
L 189.470677 -24.461217 
L 189.020834 -24.465704 
L 188.570991 -24.469495 
L 188.121149 -24.477237 
L 187.671306 -24.49307 
L 187.221463 -24.519772 
L 186.77162 -24.558262 
L 186.321777 -24.607664 
L 185.871935 -24.665891 
L 185.422092 -24.730571 
L 184.972249 -24.799954 
L 184.522406 -24.873454 
L 184.072563 -24.95163 
L 183.622721 -25.035597 
L 183.172878 -25.126109 
L 182.723035 -25.222662 
L 182.273192 -25.322986 
L 181.823349 -25.42313 
L 181.373507 -25.518155 
L 180.923664 -25.603256 
L 180.473821 -25.674985 
L 180.023978 -25.732253 
L 179.574135 -25.776852 
L 179.124293 -25.813353 
L 178.67445 -25.848361 
L 178.224607 -25.889225 
L 177.774764 -25.942456 
L 177.324921 -26.01218 
L 176.875079 -26.09907 
L 176.425236 -26.200138 
L 175.975393 -26.30958 
L 175.52555 -26.42056 
L 175.075707 -26.527462 
L 174.625865 -26.627905 
L 174.176022 -26.723865 
L 173.726179 -26.821475 
L 173.276336 -26.929517 
L 172.826493 -27.057054 
L 172.376651 -27.210881 
L 171.926808 -27.39357 
L 171.476965 -27.602648 
L 171.027122 -27.831157 
L 170.577279 -28.06946 
L 170.127437 -28.307794 
L 169.677594 -28.538917 
L 169.227751 -28.760073 
L 168.777908 -28.973744 
L 168.328065 -29.186951 
L 167.878223 -29.409329 
L 167.42838 -29.6506 
L 166.978537 -29.918224 
L 166.528694 -30.21591 
L 166.078851 -30.543291 
L 165.629009 -30.896625 
L 165.179166 -31.27003 
L 164.729323 -31.656689 
L 164.27948 -32.049632 
L 163.829637 -32.442031 
L 163.379795 -32.827202 
L 162.929952 -33.198682 
L 162.480109 -33.550655 
L 162.030266 -33.878882 
L 161.580424 -34.182055 
L 161.130581 -34.46335 
L 160.680738 -34.731784 
L 160.230895 -35.002906 
L 159.781052 -35.298361 
L 159.33121 -35.644055 
L 158.881367 -36.066988 
L 158.431524 -36.591267 
L 157.981681 -37.23415 
L 157.531838 -38.003024 
L 157.081996 -38.89398 
L 156.632153 -39.892197 
L 156.18231 -40.973881 
L 155.732467 -42.109266 
L 155.282624 -43.266132 
L 154.832782 -44.413462 
L 154.382939 -45.524917 
L 153.933096 -46.581814 
L 153.483253 -47.575125 
L 153.03341 -48.505968 
L 152.583568 -49.384166 
L 152.133725 -50.224924 
L 151.683882 -51.044319 
L 151.234039 -51.854914 
L 150.784196 -52.662964 
L 150.334354 -53.468303 
L 149.884511 -54.267044 
L 149.434668 -55.056107 
L 148.984825 -55.837837 
L 148.534982 -56.622873 
L 148.08514 -57.430052 
L 147.635297 -58.283244 
L 147.185454 -59.206017 
L 146.735611 -60.215618 
L 146.285768 -61.317796 
L 145.835926 -62.503542 
L 145.386083 -63.748229 
L 144.93624 -65.012986 
L 144.486397 -66.247615 
L 144.036554 -67.393973 
L 143.586712 -68.388605 
L 143.136869 -69.163695 
L 142.687026 -69.646235 
L 142.237183 -69.756545 
L 141.78734 -69.408452 
L 141.337498 -68.513872 
L 140.887655 -66.993689 
L 140.437812 -64.794574 
L 139.987969 -61.908459 
L 139.538126 -58.388963 
L 139.088284 -54.35849 
L 138.638441 -50.001522 
L 138.188598 -45.543608 
L 137.738755 -41.220079 
L 137.288912 -37.242007 
L 136.83907 -33.767822 
L 136.389227 -30.887036 
L 135.939384 -28.618613 
L 135.489541 -26.922191 
L 135.039698 -25.717271 
L 134.589856 -24.904446 
L 134.140013 -24.383684 
L 133.69017 -24.066826 
L 133.240327 -23.883744 
L 132.790485 -23.783292 
L 132.340642 -23.730961 
z
" style="stroke: #d55e00"/>
    </defs>
    <g clip-path="url(#pf434cc1636)">
     <use xlink:href="#m486ed178f4" x="0" y="97.334219" style="fill: #d55e00; fill-opacity: 0.3; stroke: #d55e00"/>
    </g>
   </g>
   <g id="matplotlib.axis_3">
    <g id="xtick_3">
     <g id="line2d_9">
      <path d="M 145.686329 73.650469 
L 145.686329 18.210469 
" clip-path="url(#pf434cc1636)" style="fill: none; stroke: #b0b0b0; stroke-opacity: 0.15; stroke-width: 0.8; stroke-linecap: square"/>
     </g>
     <g id="line2d_10">
      <g>
       <use xlink:href="#md1a3a9ef57" x="145.686329" y="73.650469" style="stroke: #000000; stroke-width: 0.5"/>
      </g>
     </g>
    </g>
    <g id="xtick_4">
     <g id="line2d_11">
      <path d="M 174.00828 73.650469 
L 174.00828 18.210469 
" clip-path="url(#pf434cc1636)" style="fill: none; stroke: #b0b0b0; stroke-opacity: 0.15; stroke-width: 0.8; stroke-linecap: square"/>
     </g>
     <g id="line2d_12">
      <g>
       <use xlink:href="#md1a3a9ef57" x="174.00828" y="73.650469" style="stroke: #000000; stroke-width: 0.5"/>
      </g>
     </g>
    </g>
    <g id="xtick_5">
     <g id="line2d_13">
      <path d="M 202.33023 73.650469 
L 202.33023 18.210469 
" clip-path="url(#pf434cc1636)" style="fill: none; stroke: #b0b0b0; stroke-opacity: 0.15; stroke-width: 0.8; stroke-linecap: square"/>
     </g>
     <g id="line2d_14">
      <g>
       <use xlink:href="#md1a3a9ef57" x="202.33023" y="73.650469" style="stroke: #000000; stroke-width: 0.5"/>
      </g>
     </g>
    </g>
    <g id="text_3">
     <text style="font-size: 7px; font-family: 'Arial', 'DejaVu Sans', sans-serif; text-anchor: middle" x="177.1" y="88.660938" transform="rotate(-0 177.1 88.660938)">Description length</text>
    </g>
   </g>
   <g id="matplotlib.axis_4">
    <g id="ytick_3">
     <g id="line2d_15">
      <path d="M 127.864706 73.650469 
L 226.335294 73.650469 
" clip-path="url(#pf434cc1636)" style="fill: none; stroke: #b0b0b0; stroke-opacity: 0.15; stroke-width: 0.8; stroke-linecap: square"/>
     </g>
     <g id="line2d_16">
      <g>
       <use xlink:href="#m10487fbded" x="127.864706" y="73.650469" style="stroke: #000000; stroke-width: 0.5"/>
      </g>
     </g>
    </g>
    <g id="ytick_4">
     <g id="line2d_17">
      <path d="M 127.864706 37.724661 
L 226.335294 37.724661 
" clip-path="url(#pf434cc1636)" style="fill: none; stroke: #b0b0b0; stroke-opacity: 0.15; stroke-width: 0.8; stroke-linecap: square"/>
     </g>
     <g id="line2d_18">
      <g>
       <use xlink:href="#m10487fbded" x="127.864706" y="37.724661" style="stroke: #000000; stroke-width: 0.5"/>
      </g>
     </g>
    </g>
   </g>
   <g id="patch_8">
    <path d="M 127.864706 73.650469 
L 127.864706 18.210469 
" style="fill: none; stroke: #000000; stroke-width: 0.5; stroke-linejoin: miter; stroke-linecap: square"/>
   </g>
   <g id="patch_9">
    <path d="M 226.335294 73.650469 
L 226.335294 18.210469 
" style="fill: none; stroke: #000000; stroke-width: 0.5; stroke-linejoin: miter; stroke-linecap: square"/>
   </g>
   <g id="patch_10">
    <path d="M 127.864706 73.650469 
L 226.335294 73.650469 
" style="fill: none; stroke: #000000; stroke-width: 0.5; stroke-linejoin: miter; stroke-linecap: square"/>
   </g>
   <g id="patch_11">
    <path d="M 127.864706 18.210469 
L 226.335294 18.210469 
" style="fill: none; stroke: #000000; stroke-width: 0.5; stroke-linejoin: miter; stroke-linecap: square"/>
   </g>
   <g id="text_4">
    <text style="font-size: 7px; font-family: 'Arial', 'DejaVu Sans', sans-serif; text-anchor: middle" x="177.1" y="12.210469" transform="rotate(-0 177.1 12.210469)">Later steps</text>
   </g>
  </g>
  <g id="axes_3">
   <g id="patch_12">
    <path d="M 246.029412 73.650469 
L 344.5 73.650469 
L 344.5 18.210469 
L 246.029412 18.210469 
L 246.029412 73.650469 
z
" style="fill: none"/>
   </g>
   <g id="matplotlib.axis_5">
    <g id="xtick_6">
     <g id="line2d_19">
      <path d="M 250.053233 73.650469 
L 250.053233 18.210469 
" clip-path="url(#pe1b0d733ae)" style="fill: none; stroke: #b0b0b0; stroke-opacity: 0.15; stroke-width: 0.8; stroke-linecap: square"/>
     </g>
     <g id="line2d_20">
      <g>
       <use xlink:href="#md1a3a9ef57" x="250.053233" y="73.650469" style="stroke: #000000; stroke-width: 0.5"/>
      </g>
     </g>
    </g>
    <g id="xtick_7">
     <g id="line2d_21">
      <path d="M 295.264706 73.650469 
L 295.264706 18.210469 
" clip-path="url(#pe1b0d733ae)" style="fill: none; stroke: #b0b0b0; stroke-opacity: 0.15; stroke-width: 0.8; stroke-linecap: square"/>
     </g>
     <g id="line2d_22">
      <g>
       <use xlink:href="#md1a3a9ef57" x="295.264706" y="73.650469" style="stroke: #000000; stroke-width: 0.5"/>
      </g>
     </g>
    </g>
    <g id="xtick_8">
     <g id="line2d_23">
      <path d="M 340.476179 73.650469 
L 340.476179 18.210469 
" clip-path="url(#pe1b0d733ae)" style="fill: none; stroke: #b0b0b0; stroke-opacity: 0.15; stroke-width: 0.8; stroke-linecap: square"/>
     </g>
     <g id="line2d_24">
      <g>
       <use xlink:href="#md1a3a9ef57" x="340.476179" y="73.650469" style="stroke: #000000; stroke-width: 0.5"/>
      </g>
     </g>
    </g>
   </g>
   <g id="matplotlib.axis_6">
    <g id="ytick_5">
     <g id="line2d_25">
      <path d="M 246.029412 72.948004 
L 344.5 72.948004 
" clip-path="url(#pe1b0d733ae)" style="fill: none; stroke: #b0b0b0; stroke-opacity: 0.15; stroke-width: 0.8; stroke-linecap: square"/>
     </g>
     <g id="line2d_26">
      <g>
       <use xlink:href="#m10487fbded" x="246.029412" y="72.948004" style="stroke: #000000; stroke-width: 0.5"/>
      </g>
     </g>
     <g id="text_5">
      <text style="font-size: 7px; font-family: 'Arial', 'DejaVu Sans', sans-serif; text-anchor: end" x="240.029412" y="75.453238" transform="rotate(-0 240.029412 75.453238)">0</text>
     </g>
    </g>
    <g id="ytick_6">
     <g id="line2d_27">
      <path d="M 246.029412 45.579236 
L 344.5 45.579236 
" clip-path="url(#pe1b0d733ae)" style="fill: none; stroke: #b0b0b0; stroke-opacity: 0.15; stroke-width: 0.8; stroke-linecap: square"/>
     </g>
     <g id="line2d_28">
      <g>
       <use xlink:href="#m10487fbded" x="246.029412" y="45.579236" style="stroke: #000000; stroke-width: 0.5"/>
      </g>
     </g>
    </g>
    <g id="ytick_7">
     <g id="line2d_29">
      <path d="M 246.029412 18.210469 
L 344.5 18.210469 
" clip-path="url(#pe1b0d733ae)" style="fill: none; stroke: #b0b0b0; stroke-opacity: 0.15; stroke-width: 0.8; stroke-linecap: square"/>
     </g>
     <g id="line2d_30">
      <g>
       <use xlink:href="#m10487fbded" x="246.029412" y="18.210469" style="stroke: #000000; stroke-width: 0.5"/>
      </g>
     </g>
     <g id="text_6">
      <text style="font-size: 7px; font-family: 'Arial', 'DejaVu Sans', sans-serif; text-anchor: end" x="240.029412" y="20.715703" transform="rotate(-0 240.029412 20.715703)">1</text>
     </g>
    </g>
   </g>
   <g id="line2d_31">
    <path d="M 250.505348 30.252726 
L 250.957462 26.968474 
L 251.861692 41.747609 
L 252.313807 46.892937 
L 252.765921 48.498571 
L 253.218036 51.834955 
L 253.670151 52.83196 
L 254.122265 55.067076 
L 254.57438 58.82572 
L 255.930724 61.326804 
L 256.382839 61.687711 
L 256.834954 60.832763 
L 257.287069 60.221527 
L 257.739183 58.909436 
L 258.191298 61.088204 
L 259.547642 62.938854 
L 260.451872 63.761617 
L 260.903986 64.053154 
L 261.356101 64.058628 
L 261.808216 64.400527 
L 262.260331 65.284749 
L 263.16456 65.926499 
L 264.068789 66.485443 
L 264.520904 66.687398 
L 264.973019 67.175682 
L 265.425134 67.47425 
L 265.877248 67.630643 
L 266.329363 66.896465 
L 266.781478 66.704966 
L 267.233593 67.301395 
L 267.685707 68.119872 
L 268.137822 67.747938 
L 269.494166 68.110733 
L 269.946281 68.593882 
L 270.398396 68.812279 
L 270.85051 69.425762 
L 271.302625 69.640459 
L 272.206855 69.663752 
L 272.658969 69.948387 
L 273.111084 69.964271 
L 274.015314 70.489979 
L 274.919543 71.216307 
L 276.275887 71.287003 
L 276.728002 71.18527 
L 277.180117 71.397107 
L 277.632231 71.243064 
L 278.536461 70.671617 
L 278.988576 70.604553 
L 279.44069 70.859556 
L 280.797035 70.919495 
L 281.249149 70.552245 
L 287.126641 70.892009 
L 290.743559 71.026108 
L 291.647788 70.853698 
L 294.812591 70.913316 
L 295.264706 70.451972 
L 296.168935 70.962426 
L 300.690083 71.178808 
L 301.142197 71.291346 
L 302.046427 71.25352 
L 303.402771 71.231657 
L 303.854886 71.098887 
L 305.663345 71.265826 
L 307.923918 71.331536 
L 309.280263 70.65822 
L 309.732377 70.675567 
L 310.184492 70.53626 
L 310.636607 70.243806 
L 311.088721 70.142198 
L 312.445066 70.195261 
L 313.349295 70.508274 
L 313.80141 70.517812 
L 314.253525 70.211127 
L 315.157754 70.233934 
L 315.609869 70.396102 
L 317.870442 70.656326 
L 318.322557 70.852752 
L 318.774672 70.909751 
L 319.226787 71.101954 
L 320.583131 71.074296 
L 321.035246 71.309364 
L 322.39159 71.381142 
L 323.747934 71.403263 
L 324.200049 71.185722 
L 326.008508 71.182067 
L 328.721196 70.909502 
L 331.885999 70.825034 
L 333.694458 70.971535 
L 340.024064 71.187601 
L 340.024064 71.187601 
" clip-path="url(#pe1b0d733ae)" style="fill: none; stroke: #0072b2; stroke-linecap: square"/>
   </g>
   <g id="line2d_32">
    <path d="M 246.029412 62.000497 
L 352.7 62.000497 
" clip-path="url(#pe1b0d733ae)" style="fill: none; stroke-dasharray: 2.96,1.28; stroke-dashoffset: 0; stroke: #999999; stroke-width: 0.8"/>
   </g>
   <g id="line2d_33">
    <path d="M 259.095527 73.650469 
L 259.095527 18.210469 
" clip-path="url(#pe1b0d733ae)" style="fill: none; stroke-dasharray: 5.12,1.28,0.8,1.28; stroke-dashoffset: 0; stroke: #000000; stroke-width: 0.8"/>
   </g>
   <g id="line2d_34">
    <path d="M 295.264706 73.650469 
L 295.264706 18.210469 
" clip-path="url(#pe1b0d733ae)" style="fill: none; stroke-dasharray: 5.12,1.28,0.8,1.28; stroke-dashoffset: 0; stroke: #000000; stroke-width: 0.8"/>
   </g>
   <g id="patch_13">
    <path d="M 246.029412 73.650469 
L 246.029412 18.210469 
" style="fill: none; stroke: #000000; stroke-width: 0.5; stroke-linejoin: miter; stroke-linecap: square"/>
   </g>
   <g id="patch_14">
    <path d="M 344.5 73.650469 
L 344.5 18.210469 
" style="fill: none; stroke: #000000; stroke-width: 0.5; stroke-linejoin: miter; stroke-linecap: square"/>
   </g>
   <g id="patch_15">
    <path d="M 246.029412 73.650469 
L 344.5 73.650469 
" style="fill: none; stroke: #000000; stroke-width: 0.5; stroke-linejoin: miter; stroke-linecap: square"/>
   </g>
   <g id="patch_16">
    <path d="M 246.029412 18.210469 
L 344.5 18.210469 
" style="fill: none; stroke: #000000; stroke-width: 0.5; stroke-linejoin: miter; stroke-linecap: square"/>
   </g>
  </g>
 </g>
 <defs>
  <clipPath id="p1e82231887">
   <rect x="9.7" y="18.210469" width="98.470588" height="55.44"/>
  </clipPath>
  <clipPath id="pf434cc1636">
   <rect x="127.864706" y="18.210469" width="98.470588" height="55.44"/>
  </clipPath>
  <clipPath id="pe1b0d733ae">
   <rect x="246.029412" y="18.210469" width="98.470588" height="55.44"/>
  </clipPath>
 </defs>
</svg>
